<?xml version="1.0" encoding="utf-8"?>
<!-- Generator: Adobe Illustrator 24.3.0, SVG Export Plug-In . SVG Version: 6.00 Build 0)  -->
<svg version="1.1" id="Capa_1" xmlns="http://www.w3.org/2000/svg" xmlns:xlink="http://www.w3.org/1999/xlink" x="0px" y="0px"
	 viewBox="0 0 512 416" enable-background="new 0 0 512 416" xml:space="preserve">
<g>
	<g>
		<g>
			<g>
				<path fill="#FFFFFF" d="M488.2,0H283.5c-13.1,0-23.8,10.7-23.8,23.8v105.6c0,13.1,10.7,23.8,23.8,23.8h18v41.9
					c0,2.9,1.7,5.5,4.3,6.7c1,0.4,2,0.7,3.1,0.7c1.7,0,3.5-0.6,4.8-1.8l55-47.5h119.5c13.1,0,23.8-10.7,23.8-23.8V23.8
					C512,10.7,501.3,0,488.2,0z M342.5,72.2l-10.9,10.7l2.6,15c0.2,1.1-0.3,2.2-1.2,2.8c-0.5,0.4-1.1,0.6-1.7,0.6
					c-0.5,0-0.9-0.1-1.3-0.3l-13.5-7.1l-13.5,7.1c-1,0.5-2.2,0.4-3-0.2s-1.3-1.7-1.1-2.8l2.6-15l-10.9-10.7c-0.8-0.8-1.1-1.9-0.7-3
					c0.3-1,1.2-1.8,2.3-2l15.1-2.2l6.8-13.7c0.5-1,1.5-1.6,2.6-1.6c1.1,0,2.1,0.6,2.6,1.6l6.8,13.7l15.1,2.2c1.1,0.2,2,0.9,2.3,2
					C343.6,70.3,343.3,71.4,342.5,72.2z M411.9,72.2L401,82.8l2.6,15c0.2,1.1-0.3,2.2-1.2,2.8c-0.5,0.4-1.1,0.6-1.7,0.6
					c-0.5,0-0.9-0.1-1.3-0.3l-13.5-7.1l-13.5,7.1c-1,0.5-2.2,0.4-3-0.2c-0.9-0.6-1.3-1.7-1.2-2.8l2.6-15l-10.9-10.7
					c-0.8-0.8-1.1-1.9-0.7-3c0.3-1,1.2-1.8,2.3-2l15.1-2.2l6.8-13.7c0.5-1,1.5-1.6,2.6-1.6c1.1,0,2.1,0.6,2.6,1.6l6.8,13.7l15.1,2.2
					c1.1,0.2,2,0.9,2.3,2C413,70.3,412.7,71.4,411.9,72.2z M481.3,72.2l-10.9,10.7l2.6,15c0.2,1.1-0.3,2.2-1.1,2.8
					c-0.5,0.4-1.1,0.6-1.7,0.6c-0.5,0-0.9-0.1-1.3-0.3l-13.5-7.1l-13.5,7.1c-1,0.5-2.2,0.4-3-0.2c-0.9-0.6-1.3-1.7-1.2-2.8l2.6-15
					l-10.9-10.7c-0.8-0.8-1.1-1.9-0.7-3c0.3-1,1.2-1.8,2.3-2l15.1-2.2l6.8-13.7c0.5-1,1.5-1.6,2.6-1.6c1.1,0,2.1,0.6,2.6,1.6
					l6.8,13.7l15.1,2.2c1.1,0.2,2,0.9,2.3,2C482.4,70.3,482.1,71.4,481.3,72.2z"/>
				<path fill="#FFFFFF" d="M163.6,72.9c-50.1,0-77.8,25.9-77.3,75.9c0.7,68.5,29.8,110,77.3,109.3c0,0,77.2,3.1,77.2-109.3
					C240.9,98.9,214.8,72.9,163.6,72.9z"/>
				<path fill="#FFFFFF" d="M300.2,310.1l-77.2-30.8L205,264.1c-4.8-4-11.8-3.7-16.2,0.7l-25.1,25l-25.2-25
					c-4.4-4.4-11.5-4.7-16.2-0.7l-18.1,15.2L27,310.1C2.1,320,2.1,408,0,416h327.2C325.1,408,325.1,320,300.2,310.1z"/>
			</g>
		</g>
	</g>
</g>
</svg>
