<?xml version="1.0" encoding="utf-8"?>
<!-- Generator: Adobe Illustrator 17.0.0, SVG Export Plug-In . SVG Version: 6.00 Build 0)  -->
<!DOCTYPE svg PUBLIC "-//W3C//DTD SVG 1.1//EN" "http://www.w3.org/Graphics/SVG/1.1/DTD/svg11.dtd">
<svg version="1.1" id="Capa_1" xmlns="http://www.w3.org/2000/svg" xmlns:xlink="http://www.w3.org/1999/xlink" x="0px" y="0px" width="511.999px" height="416.032px" viewBox="-582.391 -11.016 511.999 416.032" enable-background="new -582.391 -11.016 511.999 416.032" xml:space="preserve"> <g>	<g><g><g><path fill="#1595CE" d="M-94.188-11.016h-204.683c-13.125,0-23.801,10.676-23.801,23.798v105.614 c0,13.123,10.678,23.799,23.801,23.799h17.972v41.925c0,2.898,1.691,5.529,4.328,6.736c0.985,0.45,2.035,0.671,3.078,0.671 c1.746,0,3.473-0.617,4.842-1.804l55.009-47.529h119.45c13.125,0,23.799-10.677,23.799-23.799V12.782 C-70.389-0.341-81.066-11.016-94.188-11.016z M-239.891,61.174L-250.82,71.83l2.58,15.046c0.186,1.087-0.259,2.182-1.152,2.83 c-0.502,0.366-1.099,0.552-1.7,0.552c-0.458,0-0.922-0.11-1.345-0.332l-13.512-7.103l-13.51,7.103 c-0.976,0.512-2.158,0.426-3.049-0.221s-1.336-1.743-1.15-2.83l2.58-15.046l-10.932-10.655 c-0.786-0.769-1.073-1.918-0.733-2.964c0.339-1.047,1.246-1.81,2.337-1.969l15.106-2.195l6.755-13.688 c0.489-0.988,1.495-1.613,2.595-1.613c1.101,0,2.108,0.625,2.593,1.613l6.758,13.688l15.103,2.195 c1.092,0.158,1.994,0.922,2.338,1.969C-238.818,59.256-239.103,60.407-239.891,61.174z M-170.471,61.174l-10.932,10.655 l2.582,15.046c0.184,1.087-0.261,2.182-1.152,2.83c-0.502,0.366-1.097,0.552-1.7,0.552c-0.46,0-0.92-0.11-1.349-0.332 l-13.51-7.103l-13.51,7.103c-0.976,0.512-2.156,0.426-3.047-0.221c-0.893-0.647-1.338-1.743-1.152-2.83l2.58-15.046 l-10.93-10.655c-0.786-0.769-1.073-1.918-0.732-2.964c0.338-1.047,1.242-1.81,2.336-1.969l15.105-2.195l6.756-13.688 c0.487-0.988,1.495-1.613,2.593-1.613c1.102,0,2.106,0.625,2.593,1.613l6.757,13.688l15.105,2.195 c1.093,0.158,1.994,0.922,2.336,1.969C-169.398,59.256-169.685,60.407-170.471,61.174z M-101.053,61.174l-10.932,10.655 l2.578,15.046c0.188,1.087-0.255,2.182-1.148,2.83c-0.504,0.366-1.099,0.552-1.702,0.552c-0.46,0-0.92-0.11-1.347-0.332 l-13.512-7.103l-13.512,7.103c-0.972,0.512-2.154,0.426-3.045-0.221c-0.893-0.647-1.336-1.743-1.152-2.83l2.582-15.046 l-10.932-10.655c-0.786-0.769-1.071-1.918-0.732-2.964c0.338-1.047,1.246-1.81,2.336-1.969l15.107-2.195l6.756-13.688 c0.485-0.988,1.493-1.613,2.591-1.613c1.099,0,2.11,0.625,2.597,1.613l6.756,13.688l15.105,2.195 c1.09,0.158,1.992,0.922,2.336,1.969C-99.981,59.256-100.264,60.407-101.053,61.174z"/><path fill="#1595CE" d="M-418.76,61.894c-50.06,0-77.765,25.941-77.259,75.926c0.734,68.46,29.825,109.991,77.259,109.266 c0,0,77.222,3.13,77.222-109.266C-341.539,87.835-367.629,61.894-418.76,61.894z"/><path fill="#1595CE" d="M-282.172,299.047l-77.161-30.764l-18.068-15.227c-4.772-4.032-11.82-3.734-16.249,0.665l-25.119,24.983 l-25.194-24.989c-4.429-4.394-11.469-4.677-16.234-0.658l-18.072,15.227l-77.161,30.767 c-24.847,9.895-24.826,97.89-26.961,105.965h327.217C-257.305,396.958-257.316,308.934-282.172,299.047z"/></g></g></g></g></svg>
