<?xml version="1.0" encoding="utf-8"?>
<!-- Generator: Adobe Illustrator 17.0.0, SVG Export Plug-In . SVG Version: 6.00 Build 0)  -->
<!DOCTYPE svg PUBLIC "-//W3C//DTD SVG 1.1//EN" "http://www.w3.org/Graphics/SVG/1.1/DTD/svg11.dtd">
<svg version="1.1" id="Layer_1" xmlns="http://www.w3.org/2000/svg" xmlns:xlink="http://www.w3.org/1999/xlink" x="0px" y="0px"
	 width="223.134px" height="37.202px" viewBox="0 0 223.134 37.202" enable-background="new 0 0 223.134 37.202"
	 xml:space="preserve">
<g>
	<g>
		<path fill="#FFFFFF" d="M65.241,11.249v16.933c-0.658,0.113-1.423,0.17-2.295,0.17s-1.638-0.057-2.295-0.17V11.249l0.034-2.516
			l-2.074,0.034h-3.774c-0.114-0.567-0.17-1.202-0.17-1.904s0.056-1.337,0.17-1.904h16.252c0.159,0.567,0.238,1.185,0.238,1.853
			c0,0.669-0.193,1.162-0.578,1.479c-0.386,0.318-1.009,0.477-1.87,0.477h-1.598l-2.074-0.034L65.241,11.249z"/>
		<path fill="#FFFFFF" d="M83.703,21.177h-9.384c0.068,1.246,0.357,2.227,0.867,2.94c0.51,0.714,1.399,1.071,2.669,1.071
			c1.314,0,2.822-0.385,4.522-1.156c0.657,0.681,1.077,1.576,1.258,2.687c-1.814,1.292-3.99,1.938-6.528,1.938
			c-2.403,0-4.222-0.742-5.457-2.227s-1.853-3.689-1.853-6.613c0-1.36,0.159-2.589,0.476-3.689c0.317-1.099,0.782-2.039,1.394-2.821
			c0.612-0.782,1.36-1.389,2.244-1.819c0.884-0.431,1.892-0.646,3.026-0.646c1.156,0,2.176,0.176,3.06,0.526
			c0.884,0.352,1.632,0.851,2.244,1.496c0.612,0.646,1.071,1.411,1.377,2.295c0.306,0.884,0.459,1.848,0.459,2.891
			c0,0.566-0.034,1.104-0.102,1.614C83.907,20.174,83.816,20.678,83.703,21.177z M77.141,14.037c-1.768,0-2.72,1.338-2.856,4.013
			h5.644v-0.408c0-1.088-0.227-1.961-0.68-2.618C78.795,14.366,78.093,14.037,77.141,14.037z"/>
		<path fill="#FFFFFF" d="M86.321,26.991c0.022-0.498,0.164-1.048,0.425-1.648c0.26-0.601,0.561-1.071,0.901-1.411
			c1.791,0.975,3.366,1.462,4.726,1.462c0.748,0,1.354-0.147,1.819-0.442c0.464-0.294,0.697-0.691,0.697-1.189
			c0-0.794-0.612-1.429-1.836-1.904l-1.904-0.714c-2.856-1.042-4.284-2.708-4.284-4.998c0-0.816,0.153-1.547,0.459-2.193
			c0.306-0.646,0.736-1.201,1.292-1.666c0.555-0.464,1.218-0.821,1.989-1.07c0.771-0.25,1.632-0.374,2.584-0.374
			c0.431,0,0.913,0.033,1.445,0.102c0.532,0.068,1.071,0.165,1.615,0.289c0.544,0.125,1.065,0.267,1.564,0.425
			c0.499,0.159,0.929,0.329,1.292,0.51c0,0.567-0.113,1.156-0.34,1.769S98.232,15,97.847,15.294
			c-1.791-0.793-3.344-1.189-4.658-1.189c-0.589,0-1.054,0.142-1.394,0.425c-0.34,0.284-0.51,0.652-0.51,1.105
			c0,0.702,0.566,1.258,1.7,1.666l2.074,0.748c1.496,0.521,2.606,1.235,3.332,2.142c0.725,0.907,1.088,1.961,1.088,3.162
			c0,1.609-0.601,2.896-1.802,3.858c-1.202,0.964-2.924,1.445-5.168,1.445C90.31,28.657,88.247,28.102,86.321,26.991z"/>
		<path fill="#FFFFFF" d="M111.888,11.283c0.136,0.544,0.204,1.077,0.204,1.599s-0.068,1.054-0.204,1.598l-4.114-0.068v8.942
			c0,1.043,0.487,1.563,1.462,1.563h2.108c0.226,0.681,0.34,1.326,0.34,1.938s-0.034,1.009-0.102,1.189
			c-1.383,0.204-2.743,0.307-4.08,0.307c-2.72,0-4.08-1.383-4.08-4.148v-9.758l-2.584,0.034c-0.114-0.453-0.17-0.986-0.17-1.598
			c0-0.612,0.057-1.145,0.17-1.599l2.584,0.034V8.869c0-0.997,0.181-1.7,0.544-2.108c0.362-0.408,0.986-0.612,1.87-0.612h1.7
			l0.238,0.204v4.999L111.888,11.283z"/>
		<path fill="#FFFFFF" d="M120.762,14.75v13.431c-0.34,0.067-0.697,0.113-1.071,0.136s-0.754,0.034-1.139,0.034
			c-0.386,0-0.765-0.012-1.139-0.034s-0.743-0.068-1.105-0.136V16.349c0-1.246-0.51-1.87-1.53-1.87h-0.442
			c-0.136-0.498-0.204-1.021-0.204-1.564c0-0.498,0.068-1.02,0.204-1.563c0.521-0.045,1.003-0.085,1.445-0.119
			c0.442-0.034,0.821-0.051,1.139-0.051h0.578c1.02,0,1.819,0.317,2.397,0.952S120.762,13.64,120.762,14.75z M115.627,4.755
			c0.521-0.294,1.27-0.442,2.244-0.442c0.566,0,1.025,0.046,1.377,0.136c0.351,0.091,0.606,0.199,0.765,0.323
			c0.158,0.125,0.26,0.357,0.306,0.697c0.045,0.34,0.068,0.691,0.068,1.054c-0.068,1.156-0.21,1.791-0.425,1.905
			c-0.215,0.113-0.924,0.227-2.125,0.34c-1.27-0.045-2.012-0.216-2.227-0.51c-0.216-0.294-0.323-0.873-0.323-1.734
			C115.287,5.866,115.401,5.276,115.627,4.755z"/>
		<path fill="#FFFFFF" d="M134.532,17.743c0-1.836-0.59-2.754-1.768-2.754c-0.975,0.046-1.961,0.578-2.958,1.598v11.595
			c-0.68,0.113-1.417,0.17-2.21,0.17c-0.794,0-1.53-0.057-2.21-0.17v-16.83l0.204-0.238h1.666c1.337,0,2.153,0.703,2.448,2.108
			c1.586-1.474,3.162-2.21,4.726-2.21c1.858,0,3.173,0.815,3.944,2.447c1.745-1.632,3.513-2.447,5.304-2.447
			c1.45,0,2.555,0.493,3.315,1.479c0.759,0.986,1.139,2.272,1.139,3.859v7.888c0,1.451,0.238,2.527,0.714,3.23
			c-0.794,0.635-1.672,0.951-2.635,0.951s-1.626-0.227-1.989-0.68c-0.363-0.453-0.544-1.145-0.544-2.074v-7.956
			c0-1.812-0.601-2.72-1.802-2.72c-0.907,0-1.882,0.544-2.924,1.632v11.561c-0.68,0.113-1.417,0.17-2.21,0.17
			c-0.794,0-1.53-0.057-2.21-0.17V17.743z"/>
		<path fill="#FFFFFF" d="M164.383,12.745c1.609,1.61,2.414,3.944,2.414,7.004c0,1.36-0.17,2.59-0.51,3.689
			s-0.833,2.034-1.479,2.805c-0.646,0.771-1.444,1.366-2.396,1.785s-2.029,0.629-3.23,0.629s-2.272-0.21-3.213-0.629
			s-1.733-1.014-2.38-1.785c-0.646-0.771-1.139-1.705-1.479-2.805s-0.511-2.329-0.511-3.689c0-2.742,0.657-4.913,1.973-6.511
			c1.314-1.598,3.185-2.396,5.609-2.396C161.312,10.841,163.045,11.476,164.383,12.745z M159.181,14.173
			c-1.994,0-2.991,1.858-2.991,5.575c0,3.695,0.997,5.542,2.991,5.542c2.018,0,3.026-1.847,3.026-5.542
			C162.207,16.032,161.199,14.173,159.181,14.173z"/>
		<path fill="#FFFFFF" d="M184.41,16.825v7.412c0,1.451,0.237,2.527,0.714,3.23c-0.726,0.635-1.598,0.951-2.618,0.951
			c-0.975,0-1.644-0.221-2.006-0.662c-0.363-0.442-0.544-1.14-0.544-2.092v-7.922c0-1.02-0.125-1.733-0.374-2.142
			c-0.25-0.408-0.714-0.612-1.395-0.612c-1.201,0-2.323,0.544-3.365,1.632v11.561c-0.341,0.067-0.697,0.113-1.071,0.136
			s-0.754,0.034-1.139,0.034c-0.386,0-0.766-0.012-1.14-0.034s-0.73-0.068-1.07-0.136v-16.83l0.203-0.238h1.7
			c1.27,0,2.063,0.68,2.38,2.04c1.654-1.428,3.299-2.142,4.931-2.142s2.839,0.526,3.621,1.581
			C184.018,13.646,184.41,15.057,184.41,16.825z"/>
		<path fill="#FFFFFF" d="M194.031,14.75v13.431c-0.34,0.067-0.697,0.113-1.071,0.136s-0.754,0.034-1.139,0.034
			c-0.386,0-0.765-0.012-1.139-0.034s-0.743-0.068-1.105-0.136V16.349c0-1.246-0.51-1.87-1.529-1.87h-0.442
			c-0.136-0.498-0.204-1.021-0.204-1.564c0-0.498,0.068-1.02,0.204-1.563c0.521-0.045,1.003-0.085,1.445-0.119
			c0.441-0.034,0.821-0.051,1.139-0.051h0.578c1.02,0,1.818,0.317,2.396,0.952S194.031,13.64,194.031,14.75z M188.897,4.755
			c0.521-0.294,1.27-0.442,2.244-0.442c0.566,0,1.025,0.046,1.377,0.136c0.351,0.091,0.606,0.199,0.765,0.323
			c0.158,0.125,0.261,0.357,0.307,0.697c0.045,0.34,0.067,0.691,0.067,1.054c-0.067,1.156-0.21,1.791-0.425,1.905
			c-0.216,0.113-0.924,0.227-2.125,0.34c-1.27-0.045-2.012-0.216-2.227-0.51c-0.216-0.294-0.323-0.873-0.323-1.734
			C188.557,5.866,188.67,5.276,188.897,4.755z"/>
		<path fill="#FFFFFF" d="M212.39,26.141c-0.113,0.408-0.317,0.839-0.611,1.292c-0.295,0.453-0.59,0.793-0.885,1.02
			c-1.474-0.182-2.55-0.827-3.229-1.938c-1.474,1.428-3.083,2.142-4.828,2.142c-0.884,0-1.661-0.142-2.329-0.425
			c-0.669-0.283-1.224-0.663-1.666-1.139c-0.442-0.477-0.771-1.021-0.986-1.633c-0.215-0.611-0.322-1.246-0.322-1.903
			c0-0.952,0.164-1.785,0.492-2.499c0.329-0.714,0.794-1.31,1.395-1.785s1.303-0.838,2.108-1.088
			c0.804-0.249,1.683-0.374,2.635-0.374c1.224,0,2.176,0.034,2.855,0.102v-0.918c0-1.722-0.839-2.584-2.516-2.584
			c-1.134,0-2.856,0.397-5.168,1.19c-0.635-0.702-1.021-1.757-1.156-3.162c2.402-1.021,4.885-1.53,7.446-1.53
			c1.7,0,3.094,0.477,4.182,1.428c1.088,0.952,1.632,2.393,1.632,4.318v6.97C211.438,24.827,211.755,25.665,212.39,26.141z
			 M203.823,25.291c1.133,0,2.198-0.498,3.195-1.496v-2.958c-0.362-0.021-0.714-0.045-1.054-0.067s-0.669-0.034-0.986-0.034
			c-0.997,0-1.757,0.188-2.277,0.562c-0.522,0.373-0.782,0.991-0.782,1.853c0,0.68,0.17,1.207,0.51,1.581
			S203.233,25.291,203.823,25.291z"/>
		<path fill="#FFFFFF" d="M221.706,24.917h1.054c0.249,0.635,0.374,1.247,0.374,1.836c0,0.59-0.034,1.021-0.103,1.292
			c-1.383,0.204-2.481,0.307-3.298,0.307c-1.314,0-2.277-0.334-2.89-1.003s-0.918-1.717-0.918-3.146V3.395l0.238-0.238h1.699
			c0.885,0,1.508,0.21,1.87,0.629c0.362,0.42,0.544,1.128,0.544,2.125v17.442C220.278,24.396,220.754,24.917,221.706,24.917z"/>
	</g>
	<g>
		<g>
			<g>
				<g>
					<path fill="#FFFFFF" d="M43.656,0H25.353c-1.174,0-2.128,0.955-2.128,2.128v9.444c0,1.173,0.955,2.128,2.128,2.128h1.607v3.749
						c0,0.259,0.151,0.494,0.387,0.602c0.088,0.04,0.182,0.06,0.275,0.06c0.156,0,0.311-0.055,0.433-0.161l4.919-4.25h10.682
						c1.174,0,2.128-0.955,2.128-2.128V2.128C45.784,0.955,44.83,0,43.656,0z M30.627,6.455L29.65,7.408l0.231,1.345
						c0.017,0.097-0.023,0.195-0.103,0.253c-0.045,0.033-0.098,0.049-0.152,0.049c-0.041,0-0.082-0.01-0.12-0.03l-1.208-0.635
						l-1.208,0.635c-0.087,0.046-0.193,0.038-0.273-0.02s-0.119-0.156-0.103-0.253l0.231-1.345l-0.978-0.953
						c-0.07-0.069-0.096-0.172-0.066-0.265c0.03-0.094,0.111-0.162,0.209-0.176l1.351-0.196l0.604-1.224
						c0.044-0.088,0.134-0.144,0.232-0.144c0.098,0,0.188,0.056,0.232,0.144l0.604,1.224l1.351,0.196
						c0.098,0.014,0.178,0.082,0.209,0.176C30.723,6.284,30.698,6.387,30.627,6.455z M36.835,6.455l-0.978,0.953l0.231,1.345
						c0.016,0.097-0.023,0.195-0.103,0.253c-0.045,0.033-0.098,0.049-0.152,0.049c-0.041,0-0.082-0.01-0.121-0.03l-1.208-0.635
						l-1.208,0.635c-0.087,0.046-0.193,0.038-0.272-0.02c-0.08-0.058-0.12-0.156-0.103-0.253l0.231-1.345l-0.977-0.953
						c-0.07-0.069-0.096-0.172-0.065-0.265c0.03-0.094,0.111-0.162,0.209-0.176l1.351-0.196l0.604-1.224
						c0.044-0.088,0.134-0.144,0.232-0.144c0.099,0,0.188,0.056,0.232,0.144l0.604,1.224l1.351,0.196
						C36.789,6.028,36.87,6.097,36.9,6.19C36.931,6.284,36.905,6.387,36.835,6.455z M43.042,6.455l-0.978,0.953l0.231,1.345
						c0.017,0.097-0.023,0.195-0.103,0.253c-0.045,0.033-0.098,0.049-0.152,0.049c-0.041,0-0.082-0.01-0.12-0.03l-1.208-0.635
						l-1.208,0.635c-0.087,0.046-0.193,0.038-0.272-0.02c-0.08-0.058-0.119-0.156-0.103-0.253l0.231-1.345l-0.978-0.953
						c-0.07-0.069-0.096-0.172-0.065-0.265c0.03-0.094,0.111-0.162,0.209-0.176l1.351-0.196l0.604-1.224
						c0.043-0.088,0.134-0.144,0.232-0.144c0.098,0,0.189,0.056,0.232,0.144l0.604,1.224l1.351,0.196
						c0.097,0.014,0.178,0.082,0.209,0.176C43.138,6.284,43.113,6.387,43.042,6.455z"/>
					<path fill="#FFFFFF" d="M14.632,6.52c-4.476,0-6.954,2.32-6.909,6.789c0.066,6.122,2.667,9.836,6.909,9.771
						c0,0,6.905,0.28,6.905-9.771C21.538,8.839,19.205,6.52,14.632,6.52z"/>
					<path fill="#FFFFFF" d="M26.846,27.726l-6.9-2.751l-1.616-1.362c-0.427-0.361-1.057-0.334-1.453,0.059l-2.246,2.234
						l-2.253-2.235c-0.396-0.393-1.026-0.418-1.452-0.059l-1.616,1.362l-6.9,2.751C0.189,28.612,0.191,36.48,0,37.202h29.26
						C29.07,36.482,29.069,28.611,26.846,27.726z"/>
				</g>
			</g>
		</g>
	</g>
</g>
</svg>
