<?xml version="1.0" encoding="utf-8"?>
<!-- Generator: Adobe Illustrator 24.3.0, SVG Export Plug-In . SVG Version: 6.00 Build 0)  -->
<svg version="1.1" id="Layer_1" xmlns="http://www.w3.org/2000/svg" xmlns:xlink="http://www.w3.org/1999/xlink" x="0px" y="0px"
	 viewBox="0 0 70 70" enable-background="new 0 0 70 70" xml:space="preserve">
<g>
	<defs>
		<path id="SVGID_1_" d="M35,70L35,70C15.7,70,0,54.3,0,35v0C0,15.7,15.7,0,35,0h0c19.3,0,35,15.7,35,35v0C70,54.3,54.3,70,35,70z"
			/>
	</defs>
	<use xlink:href="#SVGID_1_"  overflow="visible" fill="#BCC5CB"/>
	<clipPath id="SVGID_2_">
		<use xlink:href="#SVGID_1_"  overflow="visible"/>
	</clipPath>
	<g clip-path="url(#SVGID_2_)">
		<path fill-rule="evenodd" clip-rule="evenodd" fill="#F8F8F8" d="M35.1,46.3c-0.9,0.7-2,1.7-2.9,2.4c0.9,4.8,2,9.4,2.9,13.9
			c0.9-4.6,1.8-9.2,2.8-13.9C36.9,48,36,47.1,35.1,46.3z M34.9,42.5c-6.1,0-11.2-6.2-11.2-13.8c-1.1-2.8-0.4-12.5,6.1-12.3
			c7.2-3.7,12.3,0.4,15.8,2.8c1.3,2.6,2,6.6,0.6,9C46.3,36.1,41.3,42.5,34.9,42.5z M34.9,41c-5.3,0-9.7-5.5-9.7-12.3
			c0-1.1,0.2-2,0.2-2.8c0.7-1.8,2.4-2.8,3.7-1.7c4.4,3.7,9.7,3.5,14.7,2.8c1.3-0.2,1.1,1.3,0.9,2.4C44.4,35.7,40.2,41,34.9,41z
			 M12,70c0-5.3,0.2-10.6,0-15.8c0-4.4,2-5.3,5.3-6.4l8.4-3.1c0.7-0.7,1.5-1.7,2-2.4c2.4,0.9,5,2,7.3,2.9c2.4-0.9,4.8-2,7.2-2.9
			c0.7,0.7,1.3,1.7,2,2.4l8.6,3.1c3.3,1.1,5.1,2,5.1,6.4c0,5.1,0,10.5,0,15.8C42.6,70,27.4,70,12,70z M35.5,64.9
			c2.9-6.4,5.7-12.8,8.6-19.3c0.6,0.9,1.3,2,2,2.9c-1.1,1.1-2.2,2.2-3.1,3.3c0.7,0.9,1.7,1.8,2.6,2.8C42.2,57.9,38.9,61.4,35.5,64.9
			z M34.5,64.9c-2.8-6.4-5.7-12.8-8.4-19.3c-0.7,0.9-1.5,2-2,2.9c0.9,1.1,2,2.2,3.1,3.3c-0.9,0.9-1.8,1.8-2.8,2.8
			C27.8,57.9,31.2,61.4,34.5,64.9z"/>
	</g>
</g>
<g>
</g>
<g>
</g>
<g>
</g>
<g>
</g>
<g>
</g>
<g>
</g>
</svg>
