<svg xmlns="http://www.w3.org/2000/svg" xmlns:xlink="http://www.w3.org/1999/xlink" viewBox="0 0 800 400" xmlns:v="https://vecta.io/nano"><style><![CDATA[.V{fill:#92653d}.W{enable-background:new}.X{stroke-miterlimit:10}.Y{fill-rule:evenodd}]]></style><g fill="#fff" class="X"><path d="M0 0h800v400H0z" stroke="#aaa" stroke-width="2.254"/><path d="M93.5 38.9h655.4v323.2H93.5z" stroke="#ddd" stroke-width="1.123"/></g><circle cx="93.5" cy="192.5" r="38.9" fill="#ddd"/><defs><circle id="A" cx="93.5" cy="192.5" r="38.9"/><path id="B" d="M419.2 265.3c.6 0 1.2.1 1.7.3s.9.5 1.3.9.6.9.8 1.4.3 1.2.3 1.8c0 .7-.1 1.3-.3 1.8s-.5 1-.8 1.4c-.4.4-.8.7-1.3.9s-1.1.3-1.7.3-1.2-.1-1.7-.3-1-.5-1.3-.9c-.4-.4-.6-.9-.8-1.4s-.3-1.2-.3-1.8c0-.7.1-1.3.3-1.8s.5-1 .8-1.4c.4-.4.8-.7 1.3-.9s1-.3 1.7-.3zm0 7.6c.8 0 1.4-.3 1.8-.8s.6-1.3.6-2.3-.2-1.8-.6-2.3-1-.8-1.8-.8-1.4.3-1.8.8-.6 1.3-.6 2.3.2 1.8.6 2.3c.3.5.9.8 1.8.8z"/><path id="C" d="M426.7 267c.3-.6.6-1 1-1.3s.9-.5 1.4-.5c.2 0 .4 0 .5.1.2 0 .3.1.4.2l-.1 1.2c0 .2-.1.2-.3.2h-.9c-.3 0-.5 0-.7.1s-.4.2-.5.3-.3.3-.4.6c-.1.2-.2.5-.3.7v5.4h-1.7v-8.6h1c.2 0 .3 0 .4.1s.1.2.1.3l.1 1.2z"/><path id="D" d="M390.9 94.1l2.3 5.5 6 .5c.4 0 .6.6.3.8l-4.5 3.9 1.4 5.8c.1.4-.4.7-.7.5l-5.1-3.1-5.1 3.1c-.4.2-.8-.1-.7-.5l1.4-5.8-4.5-3.9c-.3-.3-.2-.7.3-.8l6-.5 2.3-5.5c0-.4.5-.4.6 0z"/><path id="E" d="M187.5 173.6h-.6c-.1 0-.3 0-.3-.1s-.1-.1-.2-.3l-.2-.8c-.2.2-.4.4-.6.5-.2.2-.4.3-.6.4s-.5.2-.7.2c-.3.1-.5.1-.8.1s-.6 0-.9-.1-.5-.2-.7-.4-.4-.4-.5-.7-.2-.6-.2-1c0-.3.1-.6.3-.9a2.36 2.36 0 0 1 .9-.8 11.64 11.64 0 0 1 1.5-.6c.6-.1 1.4-.2 2.3-.2v-.6c0-.6-.1-1.1-.4-1.4s-.7-.5-1.2-.5c-.3 0-.6 0-.9.1s-.4.2-.6.3a1.38 1.38 0 0 0-.4.3c-.1.1-.2.1-.4.1-.1 0-.2 0-.3-.1l-.2-.2-.3-.5c.4-.4.9-.8 1.4-1s1.1-.3 1.7-.3a3.73 3.73 0 0 1 1.2.2c.3.1.6.4.9.6.2.3.4.6.5 1s.2.8.2 1.2v5.5zm-3.7-.9c.3 0 .5 0 .7-.1s.4-.1.6-.2.4-.2.5-.3l.5-.5v-1.7c-.7 0-1.2 0-1.7.1s-.8.2-1.1.3-.5.3-.6.5-.2.4-.2.6 0 .4.1.6a1.38 1.38 0 0 0 .3.4.76.76 0 0 0 .4.2.9.9 0 0 0 .5.1z"/><path id="F" d="M194.3 166.8c-.1.1-.2.2-.3.2s-.2 0-.3-.1-.2-.1-.4-.2c-.1-.1-.3-.1-.5-.2s-.4-.1-.7-.1c-.2 0-.5 0-.6.1-.2.1-.4.1-.5.3-.1.1-.2.2-.3.4-.1.1-.1.3-.1.5s.1.4.2.5.3.3.5.4.4.2.7.3.5.2.8.2l.8.3c.3.1.5.2.7.4s.4.4.5.6.2.5.2.8c0 .4-.1.7-.2 1s-.3.6-.6.8-.6.4-1 .5-.8.2-1.3.2c-.6 0-1.1-.1-1.5-.3-.5-.2-.8-.4-1.2-.7l.3-.5c0-.1.1-.1.2-.2.1 0 .1-.1.2-.1s.2 0 .3.1.2.2.4.2c.2.1.3.2.6.2s.5.1.8.1.5 0 .7-.1.4-.2.5-.3.2-.3.3-.4c.1-.2.1-.3.1-.5s-.1-.4-.2-.6c-.1-.1-.3-.3-.5-.4s-.4-.2-.7-.3-.5-.2-.8-.2l-.8-.3c-.3-.1-.5-.2-.7-.4s-.4-.4-.5-.6-.2-.5-.2-.9c0-.3.1-.6.2-.9s.3-.5.6-.8c.2-.2.5-.4.9-.5s.8-.2 1.2-.2c.5 0 1 .1 1.4.3s.8.4 1.1.7l-.3.7z"/><path id="G" d="M201.3 161.8v11.8h-1.4v-11.8h1.4z"/><path id="H" d="M207.1 165.3c.6 0 1.1.1 1.6.3s.9.5 1.2.8c.3.4.6.8.8 1.3s.3 1.1.3 1.7-.1 1.2-.3 1.7-.4.9-.8 1.3c-.3.4-.7.6-1.2.8s-1 .3-1.6.3-1.1-.1-1.6-.3-.9-.5-1.2-.8c-.3-.4-.6-.8-.8-1.3s-.3-1.1-.3-1.7.1-1.2.3-1.7.4-1 .8-1.3c.3-.4.7-.6 1.2-.8.4-.2 1-.3 1.6-.3zm0 7.3c.8 0 1.4-.3 1.8-.8s.6-1.3.6-2.2c0-1-.2-1.7-.6-2.3-.4-.5-1-.8-1.8-.8-.4 0-.8.1-1.1.2s-.5.3-.7.6-.3.6-.4 1-.1.8-.1 1.3 0 .9.1 1.3.2.7.4 1 .4.5.7.6c.3 0 .7.1 1.1.1z"/><path id="I" d="M231.9 162.9c0 .1 0 .3-.1.4s-.1.2-.2.3-.2.2-.3.2c-.1.1-.3.1-.4.1s-.3 0-.4-.1-.2-.1-.3-.2-.2-.2-.2-.3c-.1-.1-.1-.2-.1-.4s0-.3.1-.4.1-.2.2-.3.2-.2.3-.2c.1-.1.2-.1.4-.1s.3 0 .4.1.2.1.3.2.2.2.2.3.1.3.1.4zm-.3 2.6v8.1h-1.4v-8.1h1.4z"/><path id="J" d="M234.1 173.6v-8.1h.8c.2 0 .3.1.4.3l.1.9c.4-.4.7-.7 1.2-.9.4-.2.9-.4 1.5-.4.4 0 .8.1 1.2.2.3.1.6.4.8.6.2.3.4.6.5 1s.2.8.2 1.3v5.2h-1.4v-5.2c0-.6-.1-1.1-.4-1.4s-.7-.5-1.3-.5c-.4 0-.8.1-1.2.3s-.7.5-1 .8v6h-1.4z"/><path id="K" d="M245.7 165.3c.4 0 .7 0 1 .1l.8.3h2.2v.5c0 .2-.1.3-.3.3l-.9.1c.2.3.3.7.3 1.2 0 .4-.1.8-.2 1.1-.2.3-.4.6-.6.8-.3.2-.6.4-1 .5s-.8.2-1.2.2-.7 0-1.1-.1a.78.78 0 0 0-.4.4c-.1.2-.1.3-.1.4 0 .2.1.3.2.5.2.1.4.2.6.2.3 0 .5.1.9.1h1c.3 0 .7 0 1 .1l.9.3a.9.9 0 0 1 .6.6c.1.3.2.5.2.9a1.69 1.69 0 0 1-.3 1c-.2.3-.4.6-.7.9s-.7.5-1.2.6c-.5.2-1 .2-1.6.2s-1.1-.1-1.6-.2c-.4-.1-.8-.3-1.1-.5s-.5-.4-.7-.7c-.1-.3-.2-.5-.2-.8 0-.4.1-.7.4-1s.6-.5 1-.7c-.2-.1-.4-.2-.5-.4s-.2-.4-.2-.7c0-.1 0-.2.1-.4 0-.1.1-.2.2-.4s.2-.2.3-.4c.1-.1.3-.2.4-.3a1.96 1.96 0 0 1-.9-.9c-.2-.4-.3-.8-.3-1.3 0-.4.1-.8.2-1.1.2-.3.4-.6.6-.8.3-.2.6-.4 1-.5.3 0 .7-.1 1.2-.1zm2.5 8.7c0-.2-.1-.4-.2-.5s-.3-.2-.5-.3-.4-.1-.7-.2h-1.6c-.2 0-.6 0-.8-.1-.3.1-.6.3-.7.5a1.08 1.08 0 0 0-.3.7c0 .2 0 .4.1.5s.2.3.4.4.4.2.7.3.6.1 1 .1.7 0 1-.1l.8-.3c.2-.1.4-.3.5-.5.3-.1.3-.3.3-.5zm-2.5-4.4c.3 0 .5 0 .8-.1l.6-.3a.55.55 0 0 0 .3-.5c.1-.2.1-.4.1-.7 0-.5-.2-.9-.5-1.2s-.7-.4-1.3-.4-1 .1-1.3.4-.5.7-.5 1.2c0 .2 0 .5.1.7s.2.4.3.5.3.3.6.3.5.1.8.1z"/><path id="L" d="M268.5 173.6v-8.1h.8c.2 0 .3 0 .3.1.1.1.1.2.1.3l.1 1.3c.3-.6.6-1 1-1.3s.9-.5 1.4-.5c.2 0 .4 0 .6.1s.3.1.5.2l-.2 1.1c0 .1-.1.2-.2.2s-.2 0-.3-.1-.4-.1-.6-.1c-.5 0-.9.1-1.2.4a3.22 3.22 0 0 0-.8 1.3v5.2h-1.5z"/><path id="M" d="M284 173.6h-.6c-.1 0-.3 0-.3-.1s-.1-.1-.2-.3l-.2-.8c-.2.2-.4.4-.6.5-.2.2-.4.3-.6.4s-.5.2-.7.2c-.3.1-.5.1-.8.1s-.6 0-.9-.1-.5-.2-.7-.4-.4-.4-.5-.7-.2-.6-.2-1c0-.3.1-.6.3-.9a2.36 2.36 0 0 1 .9-.8 11.64 11.64 0 0 1 1.5-.6c.6-.1 1.4-.2 2.3-.2v-.6c0-.6-.1-1.1-.4-1.4s-.7-.5-1.2-.5c-.3 0-.6 0-.9.1s-.4.2-.6.3a1.38 1.38 0 0 0-.4.3c-.1.1-.2.1-.4.1-.1 0-.2 0-.3-.1l-.2-.2-.3-.5c.4-.4.9-.8 1.4-1s1.1-.3 1.7-.3a3.73 3.73 0 0 1 1.2.2c.3.1.6.4.9.6.2.3.4.6.5 1s.2.8.2 1.2v5.5zm-3.7-.9c.3 0 .5 0 .7-.1s.4-.1.6-.2.4-.2.5-.3l.5-.5v-1.7c-.7 0-1.2 0-1.7.1a8.11 8.11 0 0 0-1.1.3c-.3.1-.5.3-.6.5s-.2.4-.2.6 0 .4.1.6a1.38 1.38 0 0 0 .3.4.76.76 0 0 0 .4.2c.1.1.3.1.5.1z"/><path id="N" d="M322.8 176c0 .1-.1.2-.2.3s-.2.1-.3.1h-1.1l1.5-3.2-3.3-7.6h1.2c.1 0 .2 0 .3.1l.2.2 2.2 5.1c0 .1.1.2.1.4 0 .1.1.2.1.4 0-.1.1-.2.1-.4 0-.1.1-.2.1-.4l2.1-5.1c0-.1.1-.2.2-.2.1-.1.2-.1.3-.1h1.1l-4.6 10.4z"/><path id="O" d="M343.1 165.3c.6 0 1.1.1 1.6.3s.9.5 1.2.8c.3.4.6.8.8 1.3s.3 1.1.3 1.7-.1 1.2-.3 1.7-.4.9-.8 1.3c-.3.4-.7.6-1.2.8s-1 .3-1.6.3-1.1-.1-1.6-.3-.9-.5-1.2-.8c-.3-.4-.6-.8-.8-1.3s-.3-1.1-.3-1.7.1-1.2.3-1.7.4-1 .8-1.3c.3-.4.7-.6 1.2-.8s1-.3 1.6-.3zm0 7.3c.8 0 1.4-.3 1.8-.8s.6-1.3.6-2.2c0-1-.2-1.7-.6-2.3-.4-.5-1-.8-1.8-.8-.4 0-.8.1-1.1.2s-.5.3-.7.6-.3.6-.4 1-.1.8-.1 1.3 0 .9.1 1.3.2.7.4 1 .4.5.7.6c.4 0 .7.1 1.1.1z"/><path id="P" d="M363.3 173.6c-.2 0-.3-.1-.4-.3l-.1-1c-.3.4-.7.8-1.2 1s-1 .4-1.5.4-.9-.1-1.3-.3-.7-.4-1-.8c-.3-.3-.5-.8-.6-1.3s-.2-1.1-.2-1.8c0-.6.1-1.2.2-1.7a2.73 2.73 0 0 1 .7-1.3c.3-.4.7-.7 1.1-.9s.9-.3 1.5-.3c.5 0 .9.1 1.3.3s.7.4.9.7v-4.5h1.4v11.8h-.8zm-2.7-1.1c.5 0 .9-.1 1.2-.3s.7-.5 1-.9v-3.9c-.3-.4-.5-.6-.9-.7-.3-.1-.7-.2-1-.2-.8 0-1.3.3-1.7.8s-.6 1.3-.6 2.3c0 .5 0 1 .1 1.4s.2.7.4.9.4.4.6.5.5.1.9.1z"/><path id="Q" d="M388.7 166.8c-.1.1-.2.2-.3.2s-.2 0-.3-.1-.2-.1-.4-.2c-.1-.1-.3-.1-.5-.2s-.4-.1-.7-.1c-.2 0-.5 0-.6.1-.2.1-.4.1-.5.3a1.38 1.38 0 0 0-.3.4c-.1.1-.1.3-.1.5s.1.4.2.5.3.3.5.4.4.2.7.3.5.2.8.2l.8.3c.3.1.5.2.7.4s.4.4.5.6.2.5.2.8c0 .4-.1.7-.2 1s-.3.6-.6.8-.6.4-1 .5-.8.2-1.3.2c-.6 0-1.1-.1-1.5-.3s-.8-.4-1.2-.7l.3-.5c0-.1.1-.1.2-.2.1 0 .1-.1.2-.1s.2 0 .3.1.2.2.4.2c.2.1.3.2.6.2s.5.1.8.1.5 0 .7-.1.4-.2.5-.3.2-.3.3-.4c.1-.2.1-.3.1-.5s-.1-.4-.2-.6c-.1-.1-.3-.3-.5-.4s-.4-.2-.7-.3-.5-.2-.8-.2l-.8-.3c-.3-.1-.5-.2-.7-.4s-.4-.4-.5-.6-.2-.5-.2-.9c0-.3.1-.6.2-.9s.3-.5.6-.8c.2-.2.5-.4.9-.5s.8-.2 1.2-.2c.5 0 1 .1 1.4.3s.8.4 1.1.7l-.3.7z"/><path id="R" d="M393.4 173.7c-.6 0-1.1-.2-1.5-.5-.3-.4-.5-.9-.5-1.5v-5h-1c-.1 0-.2 0-.2-.1-.1-.1-.1-.1-.1-.2v-.6l1.3-.2.3-2.5c0-.1 0-.1.1-.2s.1-.1.2-.1h.7v2.8h2.3v1h-2.3v4.9c0 .3.1.6.2.8.2.2.4.2.6.2.1 0 .3 0 .4-.1s.2-.1.3-.1.1-.1.2-.1.1-.1.1-.1c.1 0 .1 0 .2.1l.4.7c-.2.2-.5.4-.9.5-.1.2-.4.3-.8.3z"/><path id="S" d="M398.8 162.9c0 .1 0 .3-.1.4s-.1.2-.2.3-.2.2-.3.2c-.1.1-.3.1-.4.1s-.3 0-.4-.1-.2-.1-.3-.2-.2-.2-.2-.3c-.1-.1-.1-.2-.1-.4s0-.3.1-.4.1-.2.2-.3.2-.2.3-.2.2-.1.4-.1.3 0 .4.1.2.1.3.2.2.2.2.3c.1.1.1.3.1.4zm-.3 2.6v8.1h-1.4v-8.1h1.4z"/><path id="T" d="M417.4 165.3c.6 0 1.1.1 1.6.3s.9.5 1.2.8c.3.4.6.8.8 1.3s.3 1.1.3 1.7-.1 1.2-.3 1.7-.4.9-.8 1.3c-.3.4-.7.6-1.2.8s-1 .3-1.6.3-1.1-.1-1.6-.3-.9-.5-1.2-.8c-.3-.4-.6-.8-.8-1.3s-.3-1.1-.3-1.7.1-1.2.3-1.7.4-1 .8-1.3c.3-.4.7-.6 1.2-.8s1-.3 1.6-.3zm0 7.3c.8 0 1.4-.3 1.8-.8s.6-1.3.6-2.2c0-1-.2-1.7-.6-2.3-.4-.5-1-.8-1.8-.8-.4 0-.8.1-1.1.2s-.5.3-.7.6-.3.6-.4 1-.1.8-.1 1.3 0 .9.1 1.3.2.7.4 1 .4.5.7.6.7.1 1.1.1z"/><path id="U" d="M433.9 162.9c0 .1 0 .3-.1.4s-.1.2-.2.3-.2.2-.3.2c-.1.1-.3.1-.4.1s-.3 0-.4-.1-.2-.1-.3-.2-.2-.2-.2-.3c-.1-.1-.1-.2-.1-.4s0-.3.1-.4.1-.2.2-.3.2-.2.3-.2.2-.1.4-.1.3 0 .4.1.2.1.3.2.2.2.2.3.1.3.1.4zm-.4 2.6v8.1h-1.4v-8.1h1.4z"/><path id="V" d="M465.5 165.5v5.2c0 .6.1 1.1.4 1.4s.7.5 1.3.5c.4 0 .8-.1 1.2-.3s.7-.5 1-.8v-6h1.4v8.1h-.8c-.2 0-.3-.1-.4-.3l-.1-.9c-.4.4-.7.7-1.2.9-.4.2-.9.4-1.5.4-.4 0-.8-.1-1.2-.2-.3-.1-.6-.4-.9-.6s-.4-.6-.5-1-.2-.8-.2-1.3v-5.2h1.5z"/><path id="W" d="M497.7 173.6v-6.9l-.9-.1c-.1 0-.2-.1-.3-.1-.1-.1-.1-.1-.1-.2v-.6h1.3v-.8a3.73 3.73 0 0 1 .2-1.2c.1-.4.3-.7.6-.9.2-.2.5-.4.9-.6a3.73 3.73 0 0 1 1.2-.2c.4 0 .7.1 1 .2v.7c0 .1-.1.2-.1.2h-.6c-.2 0-.5 0-.7.1s-.4.2-.5.3-.3.3-.3.6c-.1.2-.1.5-.1.9v.7h2.3v1h-2.3v6.9h-1.6z"/><path id="X" d="M511.7 173.6v-8.1h.8c.2 0 .3 0 .3.1.1.1.1.2.1.3l.1 1.3c.3-.6.6-1 1-1.3s.9-.5 1.4-.5c.2 0 .4 0 .6.1s.3.1.5.2l-.2 1.1c0 .1-.1.2-.2.2s-.2 0-.3-.1c-.2-.1-.4-.1-.6-.1-.5 0-.9.1-1.2.4a3.22 3.22 0 0 0-.8 1.3v5.2h-1.5z"/><path id="Y" d="M599.4 166.8c-.1.1-.2.2-.3.2s-.2 0-.3-.1-.2-.1-.4-.2c-.1-.1-.3-.1-.5-.2s-.4-.1-.7-.1c-.2 0-.5 0-.6.1-.2.1-.4.1-.5.3-.1.1-.2.2-.3.4-.1.1-.1.3-.1.5s.1.4.2.5.3.3.5.4.4.2.7.3.5.2.8.2l.8.3c.3.1.5.2.7.4s.4.4.5.6.2.5.2.8c0 .4-.1.7-.2 1s-.3.6-.6.8-.6.4-1 .5-.8.2-1.3.2c-.6 0-1.1-.1-1.5-.3s-.8-.4-1.2-.7l.3-.5c0-.1.1-.1.2-.2.1 0 .1-.1.2-.1s.2 0 .3.1.2.2.4.2c.2.1.3.2.6.2s.5.1.8.1.5 0 .7-.1.4-.2.5-.3.2-.3.3-.4c.1-.2.1-.3.1-.5s-.1-.4-.2-.6c-.1-.1-.3-.3-.5-.4s-.4-.2-.7-.3-.5-.2-.8-.2l-.8-.3c-.3-.1-.5-.2-.7-.4s-.4-.4-.5-.6-.2-.5-.2-.9c0-.3.1-.6.2-.9s.3-.5.6-.8c.2-.2.5-.4.9-.5s.8-.2 1.2-.2c.5 0 1 .1 1.4.3s.8.4 1.1.7l-.3.7z"/><path id="Z" d="M610.7 165.5h1.1c.1 0 .2 0 .3.1l.2.2 1.6 5.2c0 .2.1.4.1.6s.1.4.1.5c0-.2.1-.4.1-.5s.1-.4.2-.6l1.7-5.2c0-.1.1-.1.1-.2.1-.1.2-.1.3-.1h.6c.1 0 .2 0 .3.1s.1.1.1.2l1.7 5.2c.1.2.1.4.2.6 0 .2.1.4.1.5 0-.2.1-.4.1-.6s.1-.4.1-.5l1.6-5.2c0-.1.1-.2.2-.2.1-.1.2-.1.3-.1h1.1l-2.6 8.1h-1.1c-.1 0-.2-.1-.3-.3l-1.8-5.5c0-.1-.1-.2-.1-.4 0-.1-.1-.2-.1-.4 0 .1-.1.2-.1.4 0 .1-.1.3-.1.4l-1.8 5.5c-.1.2-.2.3-.3.3h-1.1l-2.8-8.1z"/><path id="a" d="M692.5 173.6c-.2 0-.3-.1-.4-.3l-.1-1c-.3.4-.7.8-1.2 1s-1 .4-1.5.4-.9-.1-1.3-.3-.7-.4-1-.8-.5-.8-.6-1.3-.2-1.1-.2-1.8c0-.6.1-1.2.2-1.7.2-.5.4-1 .7-1.3.3-.4.7-.7 1.1-.9s.9-.3 1.5-.3c.5 0 .9.1 1.3.3s.7.4.9.7v-4.5h1.4v11.8h-.8zm-2.8-1.1c.5 0 .9-.1 1.2-.3s.7-.5 1-.9v-3.9c-.3-.4-.5-.6-.9-.7-.3-.1-.7-.2-1-.2-.8 0-1.3.3-1.7.8s-.6 1.3-.6 2.3c0 .5 0 1 .1 1.4s.2.7.4.9.4.4.6.5c.3.1.6.1.9.1z"/><path id="b" d="M234.3 186.5h1.2c.1 0 .2 0 .3.1l.2.2 2.1 5.2c.1.2.1.4.2.6 0 .2.1.4.1.6 0-.2.1-.4.1-.6s.1-.4.2-.6l2.1-5.2c0-.1.1-.2.2-.2.1-.1.2-.1.3-.1h1.1l-3.3 8.1h-1.3l-3.5-8.1z"/><path id="c" d="M245.4 183.9c0 .1 0 .3-.1.4s-.1.2-.2.3-.2.2-.3.2c-.1.1-.3.1-.4.1s-.3 0-.4-.1-.2-.1-.3-.2-.2-.2-.2-.3c-.1-.1-.1-.2-.1-.4s0-.3.1-.4.1-.2.2-.3.2-.2.3-.2c.1-.1.2-.1.4-.1s.3 0 .4.1.2.1.3.2.2.2.2.3c.1.1.1.3.1.4zm-.3 2.6v8.1h-1.4v-8.1h1.4z"/><path id="d" d="M301.1 186.5v5.2c0 .6.1 1.1.4 1.4s.7.5 1.3.5c.4 0 .8-.1 1.2-.3s.7-.5 1-.8v-6h1.4v8.1h-.8c-.2 0-.3-.1-.4-.3l-.1-.9c-.4.4-.7.7-1.2.9s-.9.4-1.5.4c-.4 0-.8-.1-1.2-.2-.3-.1-.6-.4-.9-.6-.2-.3-.4-.6-.5-1s-.2-.8-.2-1.3v-5.2h1.5z"/><path id="e" d="M399.9 186.3c.5 0 .9.1 1.3.2.4.2.8.4 1.1.7s.5.7.7 1.1.3 1 .3 1.5c0 .2 0 .4-.1.4s-.1.1-.3.1h-5.4a4.44 4.44 0 0 0 .2 1.3c.1.3.3.7.5.9.2.3.5.4.8.6.3.1.7.2 1 .2.4 0 .7 0 .9-.1.3-.1.5-.2.7-.3s.3-.2.5-.3c.1-.1.2-.1.3-.1s.2 0 .3.1l.4.5-.6.6c-.2.2-.5.3-.8.4s-.6.2-.9.2c-.3.1-.6.1-.9.1-.6 0-1.1-.1-1.5-.3-.5-.2-.9-.5-1.2-.8-.3-.4-.6-.8-.8-1.4-.2-.5-.3-1.2-.3-1.9 0-.6.1-1.1.3-1.6s.4-.9.7-1.3.7-.6 1.2-.8c.5.1 1 0 1.6 0zm.1 1.1c-.7 0-1.2.2-1.6.6s-.6.9-.7 1.7h4.4c0-.3 0-.6-.1-.9s-.2-.5-.4-.7-.4-.4-.6-.5c-.4-.2-.7-.2-1-.2z"/><path id="f" d="M435.5 186.3c.5 0 .9.1 1.3.2.4.2.8.4 1.1.7s.5.7.7 1.1.3 1 .3 1.5c0 .2 0 .4-.1.4s-.1.1-.3.1h-5.4a4.44 4.44 0 0 0 .2 1.3c.1.3.3.7.5.9.2.3.5.4.8.6.3.1.7.2 1 .2.4 0 .7 0 .9-.1.3-.1.5-.2.7-.3s.3-.2.5-.3c.1-.1.2-.1.3-.1s.2 0 .3.1l.4.5-.6.6c-.2.2-.5.3-.8.4s-.6.2-.9.2c-.3.1-.6.1-.9.1-.6 0-1.1-.1-1.5-.3-.5-.2-.9-.5-1.2-.8-.3-.4-.6-.8-.8-1.4-.2-.5-.3-1.2-.3-1.9 0-.6.1-1.1.3-1.6s.4-.9.7-1.3.7-.6 1.2-.8c.5.1 1 0 1.6 0zm0 1.1c-.7 0-1.2.2-1.6.6s-.6.9-.7 1.7h4.4c0-.3 0-.6-.1-.9s-.2-.5-.4-.7-.4-.4-.6-.5c-.4-.2-.6-.2-1-.2z"/><path id="g" d="M233.2 204.9c0 .1 0 .3-.1.4s-.1.2-.2.3-.2.2-.3.2-.3.1-.4.1-.3 0-.4-.1-.2-.1-.3-.2-.2-.2-.2-.3c-.1-.1-.1-.2-.1-.4s0-.3.1-.4.1-.2.2-.3.2-.2.3-.2c.1-.1.2-.1.4-.1s.3 0 .4.1.2.1.3.2.2.2.2.3c.1.1.1.3.1.4zm-.3 2.6v8.1h-1.4v-8.1h1.4z"/><path id="h" d="M246.6 207.3c.5 0 .9.1 1.3.2.4.2.8.4 1.1.7s.5.7.7 1.1c.2.5.3 1 .3 1.5 0 .2 0 .4-.1.4 0 .1-.1.1-.3.1h-5.4a4.44 4.44 0 0 0 .2 1.3c.1.3.3.7.5.9.2.3.5.4.8.6.3.1.7.2 1 .2.4 0 .7 0 .9-.1s.5-.2.7-.3.3-.2.5-.3c.1-.1.2-.1.3-.1s.2 0 .3.1l.4.5-.6.6c-.2.2-.5.3-.8.4s-.6.2-.9.2c-.3.1-.6.1-.9.1-.6 0-1.1-.1-1.5-.3-.5-.2-.9-.5-1.2-.8-.3-.4-.6-.8-.8-1.4-.2-.5-.3-1.2-.3-1.9 0-.6.1-1.1.3-1.6s.4-.9.7-1.3.7-.6 1.2-.8 1 0 1.6 0zm.1 1.1c-.7 0-1.2.2-1.6.6s-.6.9-.7 1.7h4.4c0-.3 0-.6-.1-.9s-.2-.5-.4-.7-.4-.4-.6-.5-.7-.2-1-.2z"/><path id="i" d="M322.8 207.3c.5 0 .9.1 1.3.2.4.2.8.4 1.1.7s.5.7.7 1.1c.2.5.3 1 .3 1.5 0 .2 0 .4-.1.4 0 .1-.1.1-.3.1h-5.4a4.44 4.44 0 0 0 .2 1.3c.1.3.3.7.5.9.2.3.5.4.8.6.3.1.7.2 1 .2.4 0 .7 0 .9-.1s.5-.2.7-.3.3-.2.5-.3c.1-.1.2-.1.3-.1s.2 0 .3.1l.4.5-.6.6c-.2.2-.5.3-.8.4s-.6.2-.9.2c-.3.1-.6.1-.9.1-.6 0-1.1-.1-1.5-.3-.5-.2-.9-.5-1.2-.8-.3-.4-.6-.8-.8-1.4-.2-.5-.3-1.2-.3-1.9 0-.6.1-1.1.3-1.6s.4-.9.7-1.3.7-.6 1.2-.8 1 0 1.6 0zm0 1.1c-.7 0-1.2.2-1.6.6s-.6.9-.7 1.7h4.4c0-.3 0-.6-.1-.9s-.2-.5-.4-.7-.4-.4-.6-.5-.6-.2-1-.2z"/><path id="j" d="M403.7 215.6v-8.1h.8c.2 0 .3 0 .3.1s.1.2.1.3l.1 1.3c.3-.6.6-1 1-1.3s.9-.5 1.4-.5c.2 0 .4 0 .6.1s.3.1.5.2l-.2 1.1c0 .1-.1.2-.2.2s-.2 0-.3-.1c-.2-.1-.4-.1-.6-.1-.5 0-.9.1-1.2.4a3.22 3.22 0 0 0-.8 1.3v5.2h-1.5z"/><path id="k" d="M413.5 207.3c.6 0 1.1.1 1.6.3s.9.5 1.2.8c.3.4.6.8.8 1.3s.3 1.1.3 1.7-.1 1.2-.3 1.7-.4 1-.8 1.3c-.3.4-.7.6-1.2.8s-1 .3-1.6.3-1.1-.1-1.6-.3-.9-.5-1.2-.8-.6-.8-.8-1.3-.3-1.1-.3-1.7.1-1.2.3-1.7.4-1 .8-1.3.7-.6 1.2-.8 1-.3 1.6-.3zm0 7.3c.8 0 1.4-.3 1.8-.8s.6-1.3.6-2.2c0-1-.2-1.7-.6-2.3s-1-.8-1.8-.8c-.4 0-.8.1-1.1.2s-.5.3-.7.6-.3.6-.4 1-.1.8-.1 1.3 0 .9.1 1.3.2.7.4 1 .4.5.7.6.7.1 1.1.1z"/><path id="l" d="M423.7 208.8c-.1.1-.2.2-.3.2s-.2 0-.3-.1-.2-.1-.4-.2-.3-.1-.5-.2-.4-.1-.7-.1c-.2 0-.5 0-.6.1-.2.1-.4.1-.5.3-.1.1-.2.2-.3.4-.1.1-.1.3-.1.5s.1.4.2.5.3.3.5.4.4.2.7.3.5.2.8.2.5.2.8.3.5.2.7.4.4.4.5.6.2.5.2.8c0 .4-.1.7-.2 1s-.3.6-.6.8-.6.4-1 .5-.8.2-1.3.2c-.6 0-1.1-.1-1.5-.3-.5-.2-.8-.4-1.2-.7l.3-.5c0-.1.1-.1.2-.2.1 0 .1-.1.2-.1s.2 0 .3.1.2.2.4.2c.2.1.3.2.6.2.2.1.5.1.8.1s.5 0 .7-.1.4-.2.5-.3.2-.3.3-.4.1-.3.1-.5-.1-.4-.2-.6c-.1-.1-.3-.3-.5-.4s-.4-.2-.7-.3-.5-.2-.8-.2l-.8-.3c-.3-.1-.5-.2-.7-.4s-.4-.4-.5-.6-.2-.5-.2-.9c0-.3.1-.6.2-.9s.3-.5.6-.8c.2-.2.5-.4.9-.5s.8-.2 1.2-.2c.5 0 1 .1 1.4.3s.8.4 1.1.7l-.3.7z"/><path id="m" d="M444.1 204.1v1.3h-3.7v10.2h-1.6v-10.2h-3.7v-1.3h9z"/><path id="n" d="M447 207.3c.5 0 .9.1 1.3.2.4.2.8.4 1.1.7s.5.7.7 1.1c.2.5.3 1 .3 1.5 0 .2 0 .4-.1.4 0 .1-.1.1-.3.1h-5.4a4.44 4.44 0 0 0 .2 1.3c.1.3.3.7.5.9.2.3.5.4.8.6.3.1.7.2 1 .2.4 0 .7 0 .9-.1s.5-.2.7-.3.3-.2.5-.3c.1-.1.2-.1.3-.1s.2 0 .3.1l.4.5-.6.6c-.2.2-.5.3-.8.4s-.6.2-.9.2-.6.1-.9.1c-.6 0-1.1-.1-1.5-.3-.5-.2-.9-.5-1.2-.8-.3-.4-.6-.8-.8-1.4-.2-.5-.3-1.2-.3-1.9 0-.6.1-1.1.3-1.6s.4-.9.7-1.3.7-.6 1.2-.8 1 0 1.6 0zm.1 1.1c-.7 0-1.2.2-1.6.6s-.6.9-.7 1.7h4.4c0-.3 0-.6-.1-.9s-.2-.5-.4-.7-.4-.4-.6-.5c-.4-.2-.7-.2-1-.2z"/><path id="o" d="M491.2 215.6v-8.1h.8c.2 0 .3.1.4.3l.1.9c.4-.4.7-.7 1.2-.9.4-.2.9-.4 1.5-.4.4 0 .8.1 1.2.2s.6.4.8.6.4.6.5 1 .2.8.2 1.3v5.2h-1.4v-5.2c0-.6-.1-1.1-.4-1.4s-.7-.5-1.3-.5c-.4 0-.8.1-1.2.3s-.7.5-1 .8v6h-1.4z"/><path id="p" d="M535.6 207.3c.5 0 .9.1 1.3.2.4.2.8.4 1.1.7s.5.7.7 1.1c.2.5.3 1 .3 1.5 0 .2 0 .4-.1.4 0 .1-.1.1-.3.1h-5.4a4.44 4.44 0 0 0 .2 1.3c.1.3.3.7.5.9.2.3.5.4.8.6.3.1.7.2 1 .2.4 0 .7 0 .9-.1s.5-.2.7-.3.3-.2.5-.3c.1-.1.2-.1.3-.1s.2 0 .3.1l.4.5-.6.6c-.2.2-.5.3-.8.4s-.6.2-.9.2-.6.1-.9.1c-.6 0-1.1-.1-1.5-.3-.5-.2-.9-.5-1.2-.8-.3-.4-.6-.8-.8-1.4-.2-.5-.3-1.2-.3-1.9 0-.6.1-1.1.3-1.6s.4-.9.7-1.3.7-.6 1.2-.8 1 0 1.6 0zm0 1.1c-.7 0-1.2.2-1.6.6s-.6.9-.7 1.7h4.4c0-.3 0-.6-.1-.9s-.2-.5-.4-.7-.4-.4-.6-.5c-.4-.2-.7-.2-1-.2z"/><path id="q" d="M550.1 215.7c-.6 0-1.1-.2-1.5-.5-.3-.4-.5-.9-.5-1.5v-5h-1c-.1 0-.2 0-.2-.1-.1-.1-.1-.1-.1-.2v-.6l1.3-.2.3-2.5c0-.1 0-.1.1-.2.1 0 .1-.1.2-.1h.7v2.8h2.3v1h-2.3v4.9c0 .3.1.6.2.8.2.2.4.2.6.2.1 0 .3 0 .4-.1s.2-.1.3-.1.1-.1.2-.1.1-.1.1-.1c.1 0 .1 0 .2.1l.4.7c-.2.2-.5.4-.9.5 0 .2-.4.3-.8.3z"/><path id="r" d="M582.3 215.7c-.6 0-1.1-.2-1.5-.5-.3-.4-.5-.9-.5-1.5v-5h-1c-.1 0-.2 0-.2-.1-.1-.1-.1-.1-.1-.2v-.6l1.3-.2.3-2.5c0-.1 0-.1.1-.2.1 0 .1-.1.2-.1h.7v2.8h2.3v1h-2.3v4.9c0 .3.1.6.2.8.2.2.4.2.6.2.1 0 .3 0 .4-.1s.2-.1.3-.1.1-.1.2-.1.1-.1.1-.1c.1 0 .1 0 .2.1l.4.7c-.2.2-.5.4-.9.5-.1.2-.5.3-.8.3z"/><path id="s" d="M589.9 215.6v-8.1h.8c.2 0 .3.1.4.3l.1.8c.3-.4.6-.7 1-.9s.8-.4 1.3-.4 1 .2 1.3.5.6.7.7 1.2c.1-.3.3-.5.4-.8.2-.2.4-.4.6-.5s.5-.2.7-.3.5-.1.8-.1c.4 0 .8.1 1.1.2s.6.3.8.6.4.6.5 1 .2.8.2 1.3v5.2h-1.4v-5.2c0-.6-.1-1.1-.4-1.4s-.7-.5-1.2-.5c-.2 0-.5 0-.7.1s-.4.2-.6.4-.3.4-.4.6-.1.5-.1.8v5.2h-1.4v-5.2c0-.7-.1-1.1-.4-1.5-.3-.3-.6-.5-1.1-.5a1.69 1.69 0 0 0-1 .3c-.3.2-.6.4-.8.8v6h-1.2z"/><path id="t" d="M197.2 232.3v4.3h-1.5v-11.5h3.4c.7 0 1.4.1 1.9.3s1 .4 1.3.7c.4.3.6.7.8 1.1s.3.9.3 1.5c0 .5-.1 1-.3 1.5a4.44 4.44 0 0 1-.8 1.1 2.73 2.73 0 0 1-1.3.7c-.5.1-1.1.3-1.8.3h-2zm0-1.3h1.8c.4 0 .8-.1 1.2-.2.3-.1.6-.3.9-.5s.4-.5.5-.8.2-.6.2-1c0-.7-.2-1.3-.7-1.7s-1.1-.6-2-.6h-1.8v4.8z"/><path id="u" d="M210.4 228.5v5.2c0 .6.1 1.1.4 1.4s.7.5 1.3.5c.4 0 .8-.1 1.2-.3s.7-.5 1-.8v-6h1.4v8.1h-.8c-.2 0-.3-.1-.4-.3l-.1-.9c-.4.4-.7.7-1.2.9-.4.2-.9.4-1.5.4-.4 0-.8-.1-1.2-.2-.3-.1-.6-.4-.9-.6-.2-.3-.4-.6-.5-1s-.2-.8-.2-1.3v-5.2h1.5z"/><path id="v" d="M251 228.3c.6 0 1.1.1 1.6.3s.9.5 1.2.8c.3.4.6.8.8 1.3s.3 1.1.3 1.7-.1 1.2-.3 1.7-.4.9-.8 1.3c-.3.4-.7.6-1.2.8s-1 .3-1.6.3-1.1-.1-1.6-.3-.9-.5-1.2-.8c-.3-.4-.6-.8-.8-1.3s-.3-1.1-.3-1.7.1-1.2.3-1.7.4-1 .8-1.3.7-.6 1.2-.8 1-.3 1.6-.3zm0 7.3c.8 0 1.4-.3 1.8-.8s.6-1.3.6-2.2c0-1-.2-1.7-.6-2.3-.4-.5-1-.8-1.8-.8-.4 0-.8.1-1.1.2s-.5.3-.7.6-.3.6-.4 1-.1.8-.1 1.3 0 .9.1 1.3.2.7.4 1 .4.5.7.6c.3 0 .7.1 1.1.1z"/><path id="w" d="M335.7 229.8c-.1.1-.2.2-.3.2s-.2 0-.3-.1-.2-.1-.4-.2c-.1-.1-.3-.1-.5-.2s-.4-.1-.7-.1c-.2 0-.5 0-.6.1-.2.1-.4.1-.5.3a1.38 1.38 0 0 0-.3.4c-.1.1-.1.3-.1.5s.1.4.2.5.3.3.5.4.4.2.7.3.5.2.8.2.5.2.8.3.5.2.7.4.4.4.5.6.2.5.2.8c0 .4-.1.7-.2 1s-.3.6-.6.8-.6.4-1 .5-.8.2-1.3.2c-.6 0-1.1-.1-1.5-.3-.5-.2-.8-.4-1.2-.7l.3-.5c0-.1.1-.1.2-.2.1 0 .1-.1.2-.1s.2 0 .3.1.2.2.4.2c.2.1.3.2.6.2.2.1.5.1.8.1s.5 0 .7-.1.4-.2.5-.3.2-.3.3-.4c.1-.2.1-.3.1-.5s-.1-.4-.2-.6c-.1-.1-.3-.3-.5-.4s-.4-.2-.7-.3-.5-.2-.8-.2l-.8-.3c-.3-.1-.5-.2-.7-.4s-.4-.4-.5-.6-.2-.5-.2-.9c0-.3.1-.6.2-.9s.3-.5.6-.8c.2-.2.5-.4.9-.5s.8-.2 1.2-.2c.5 0 1 .1 1.4.3s.8.4 1.1.7l-.3.7z"/><path id="x" d="M344.5 235.7c0-.1 0-.3.1-.4s.1-.2.2-.3.2-.2.3-.2c.1-.1.3-.1.4-.1s.3 0 .4.1.2.1.3.2.2.2.2.3c.1.1.1.3.1.4s0 .3-.1.4-.1.2-.2.3-.2.2-.3.2-.3.1-.4.1-.3 0-.4-.1-.2-.1-.3-.2-.2-.2-.2-.3c-.1-.1-.1-.3-.1-.4z"/><path id="y" d="M394.4 236.6v-11.8h1.4v4.8a2.73 2.73 0 0 1 1.2-.9c.4-.2.9-.3 1.5-.3.4 0 .8.1 1.2.2s.6.4.8.6.4.6.5 1 .2.8.2 1.3v5.2h-1.4v-5.2c0-.6-.1-1.1-.4-1.4s-.7-.5-1.3-.5c-.4 0-.8.1-1.2.3s-.7.5-1 .8v6h-1.5z"/><path id="z" d="M501.2 225.9c0 .1 0 .3-.1.4s-.1.2-.2.3-.2.2-.3.2c-.1.1-.3.1-.4.1s-.3 0-.4-.1-.2-.1-.3-.2-.2-.2-.2-.3c-.1-.1-.1-.2-.1-.4s0-.3.1-.4.1-.2.2-.3.2-.2.3-.2c.1-.1.2-.1.4-.1s.3 0 .4.1.2.1.3.2.2.2.2.3.1.3.1.4zm-.4 2.6v8.1h-1.4v-8.1h1.4z"/></defs><clipPath id="AA"><use xlink:href="#A"/></clipPath><circle cx="93.5" cy="192.5" r="38.9" clip-path="url(#AA)" fill="#ddd"/><defs><circle id="AB" cx="93.5" cy="192.5" r="38.9"/></defs><clipPath id="AC"><use xlink:href="#AB"/></clipPath><g clip-path="url(#AC)"><g class="Y"><g fill="#f5be92"><ellipse transform="matrix(.9499 -.3126 .3126 .9499 -54.2382 34.0073)" cx="78.9" cy="186.2" rx="2.1" ry="3.5"/><ellipse transform="matrix(.3129 -.9498 .9498 .3129 -102.4597 230.6718)" cx="108.2" cy="186.2" rx="3.5" ry="2.1"/></g><path d="M103.8 168.2c3 .5 4.7 2.5 5.4 5.3 1.9 7.3-2 23.1-15.5 23.3-6.9.1-11.9-1.7-13.7-7.3s-2.6-14.7 1.4-19.7c4.9-6.4 15.4-6.4 22.4-1.6z" class="V"/><path d="M87.9 205.3c-12.6 5.5-16.4 8.5-17.8 9.8-2.3 2-3.6 9.9-5 16.3h57c-1.4-6.4-2.5-14.3-4.8-16.3-1.5-1.3-5.1-4.2-17.7-9.7l-11.7-.1z" fill="#4c9dd2" stroke="#4c9dd2" stroke-width="1.084" stroke-linejoin="round" class="X"/><g fill="#f5be92"><path d="M87.5 194.3v15c3.4 4 8.9 4.1 12.2 0v-14.9c0-7.6-12.2-7.6-12.2-.1z"/><path d="M93.6 169.3c-20.5 0-13.1 26.7-11.8 28.7 1.5 2.2 8.5 6 11.8 6s10.3-4.3 11.8-6.5c1.3-2 8.7-28.2-11.8-28.2z"/></g><path d="M83.6 175.7c3.6 2.2 6.4-1.1 9.6.3 3.3 1.4 12.6-2.4 14.5 12.4 3.1-10.7-2.1-19.7-13.9-20.2-12.5-.5-17.6 9.3-14.1 19.9-.2-5.7 1.2-9.5 3.9-12.4z" class="V"/><g fill="#fff" stroke="#fff" stroke-width="2" class="X"><path d="M86.9 205.2l-4.3 2.3 6.3 8.7 4.8-4.5-6.8-6.5z"/><path d="M100.3 205.2l4.3 2.3-6.3 8.7-4.8-4.5 6.8-6.5z"/></g></g><path d="M83.3 174.8c.3 1.8 2.9 2 4.3 2.2 2.8.3 6.2-.8 8.4-2.4.2-.1.1-.4-.1-.4-2.4-.1-4.6 1.5-7 1.7-1.7.1-4.1-.1-5.5-1.3 0 0-.1.1-.1.2h0z" class="V"/><path d="M85.2 188.1s.7 1.1 2.7 1.1 2.4-1 2.4-1.3c0 0-.8-1.3-2.4-1.3s-2.7 1.5-2.7 1.5z" fill="#fff"/><radialGradient id="AD" cx="87.89" cy="187.853" r="1.168" gradientUnits="userSpaceOnUse"><stop offset="0" stop-color="#624a2e"/><stop offset=".036" stop-color="#6d5633"/><stop offset=".122" stop-color="#816b3d"/><stop offset=".223" stop-color="#907c45"/><stop offset=".348" stop-color="#9b884a"/><stop offset=".523" stop-color="#a18f4d"/><stop offset="1" stop-color="#a3914e"/></radialGradient><circle cx="87.8" cy="187.9" r="1.2" fill="url(#AD)"/><path d="M87.8 186.8a1.11 1.11 0 0 1 1.1 1.1 1.11 1.11 0 0 1-1.1 1.1 1.11 1.11 0 0 1-1.1-1.1c.1-.6.6-1.1 1.1-1.1m0-.2c-.7 0-1.3.6-1.3 1.3s.6 1.3 1.3 1.3 1.3-.6 1.3-1.3-.5-1.3-1.3-1.3h0z" fill="#624a2e"/><circle cx="87.8" cy="187.9" r=".5"/><path d="M101.9 188.1s-.7 1.1-2.7 1.1-2.4-1-2.4-1.3c0 0 .8-1.3 2.4-1.3s2.7 1.5 2.7 1.5z" fill="#fff"/><radialGradient id="AE" cx="-470.843" cy="187.853" r="1.168" gradientTransform="matrix(-1 0 0 1 -371.5322 0)" gradientUnits="userSpaceOnUse"><stop offset="0" stop-color="#624a2e"/><stop offset=".036" stop-color="#6d5633"/><stop offset=".122" stop-color="#816b3d"/><stop offset=".223" stop-color="#907c45"/><stop offset=".348" stop-color="#9b884a"/><stop offset=".523" stop-color="#a18f4d"/><stop offset="1" stop-color="#a3914e"/></radialGradient><circle cx="99.3" cy="187.9" r="1.2" fill="url(#AE)"/><path d="M99.3 186.8a1.11 1.11 0 0 1 1.1 1.1 1.11 1.11 0 0 1-1.1 1.1 1.11 1.11 0 0 1-1.1-1.1 1.11 1.11 0 0 1 1.1-1.1m0-.2c-.7 0-1.3.6-1.3 1.3s.6 1.3 1.3 1.3 1.3-.6 1.3-1.3c-.1-.7-.6-1.3-1.3-1.3h0z" fill="#624a2e"/><circle cx="99.3" cy="187.9" r=".5"/><g fill="#e48f67"><path d="M91.3 193.5c-.3.2-.4.5-.1.8.6.4 1.3.4 2 .4s1.5-.1 2.1-.4c.3-.2.5-.8.1-1-.1 0-.2 0-.2.1s.1.3.1.4c0 .2-.3.3-.4.3-.4.2-.9.2-1.4.2-.4 0-2.6.1-2.2-.8h0zm-1.6 5.3c2.2 1.6 5.7 1.2 7.8-.3.1 0 0-.1-.1-.1-2.6 1.1-5 1.4-7.7.4 0-.2 0-.1 0 0h0z"/></g><g class="V"><path d="M82.9 183.4c2.5-.4 5-.7 7.3.6.2.1.4-.2.2-.3-1.9-1.3-5.5-1.8-7.5-.3 0-.1 0 0 0 0h0zm21.2-.1c-2-1.4-5.6-.9-7.5.3-.2.1 0 .5.2.3 2.3-1.3 4.8-.9 7.3-.6 0 .1 0 0 0 0h0z"/></g><path d="M99.2 192.9h.3c3.2-.3 3.9-1.7 4.3-3.5.4-2 .4-2.7.9-2.8.4-.1.5-.6.5-1.1s0-.6-.6-.8c-.5-.2-3.2-.4-5.2-.3v.5c1.6-.1 3.1.1 3.6.4 1 .7.7 3.8-.1 5.4-.6 1.1-2.2 1.6-3.6 1.7l-.1.5zm-5.9-7.4c-.7 0-3.6-.8-5.6-1h-.4v.5c1.7.1 3.4.4 3.9 1.3 1 1.4-.8 5-2.3 5.8-.5.2-1.1.4-1.8.4v.5c2.7 0 3.7-2 4.1-2.6.6-1.2.5-2.9 2.1-3 1.6 0 1.4 1.7 1.9 2.9.3.7 1.2 2.7 4 2.6v-.5c-.7 0-1.4-.1-1.9-.4-1.5-.8-3-4.3-2-5.8.6-.9 2.3-1.3 4-1.3v-.5h-.4c-1.7.2-3.9 1-5.6 1.1zm-6-1c-2-.1-4.7.1-5.2.3-.6.2-.7.3-.7.8s0 1 .4 1.1c.5.2.5.9.8 2.8.2 1.8.9 3.2 4.1 3.5h.5v-.5c-1.4 0-3.1-.5-3.6-1.7-.8-1.6-.9-4.7.2-5.4.5-.3 2-.5 3.5-.4v-.5z" fill="#0a6f90" class="Y"/><g class="V"><path d="M106.6 180.6c-.6-.1-1.1-.4-1.5-.8-.2-.2-.4-.5-.5-.8s0-.5-.3-.8c-.1-.1-.4-.2-.5-.1h0v-.3c.1-.4-.4-.7-.7-.4-.2.1-.3.3-.4.5 0-.3-.3-.7-.7-.6s-1 0-1.4-.1v-.2c-.2-.6-.6-.9-.9-1.4-.2-.5-1.1-.4-1.2.2v.1c-.1-.2-.2-.4-.3-.5-.2-.2-.5-.2-.6.1-.1.2-.1.5-.1.7-.2.1-.4.2-.6.2 0 0-.1 0-.1-.1-.8-.3-1.5-.6-2.2-1.1-.2-.2-.5-.2-.7 0-.3-.2-.8-.2-1.1.2-1.1 1.7-1.9.1-2.8-.3-.4-.2-.8 0-.8.5v.2c-.1-.1-.1-.2-.2-.3-.2-.4-.8-.4-1.1-.1-.8.6-1.7.9-2.7 1h-.4c.2-.1.3-.3.2-.5 0-.1 0 0 0 0 0-.2-.1-.4-.4-.5-.4-.1-.8-.3-1.2-.4-.3 0-.5.3-.3.5l.1.1v.1c-.3-.2-.6-.5-.9-.8-.2-.1-.4-.1-.5.1-.8 3.2 4.1 2.7 6.3 1.7 1.6 1.9 5 2.3 6-.1.6.8 1.9.9 3 .7.3 0 .6-.1.8-.3.3.5.6.8 1 1.1 1 .7 2.3.8 3.5.4.2-.1.3-.2.3-.3-.1.7.2 1.5.6 2 .7.9 1.9 1.6 3.1 1.5.7-.1.9-1 .2-1.1zM82.1 171h0c.2-.1.3-.3.3-.4.3.1.7-.1.7-.5-.1-.9.1-1.5 1-1.7.7-.2 1.6-.1 2.3 0 .5 0 .8-.7.4-1-.3-.3-.6-.5-1-.6.2-.1.3-.2.5-.3.1 0 .2-.1.4-.1v.8c0 .3.5.2.5-.1s.1-.5.2-.7c.3.1.5.2.8.1.2-.1.3-.2.3-.4.3.1.5.2.8.4s.4.5.8.6c.3.1.5-.1.5-.4 0-.4-.3-.8-.7-1 .4-.6 1.1-.7 1.8-.5 0 .2.1.4.4.5s.5.1.8.2h.1c0 .3.1.7.2 1s.5.2.5-.1c0-1.3.9-1.5 1.9-1.3.5.1 1 .4 1.4.7.3.3.6.7 1 .9.2.1.5 0 .5-.2.4-1.5-2.1-2.5-3.2-2.6-.6-.1-1.3.1-1.8.5-.1 0-.1.1-.2.2 0 0 0-.1-.1-.1-1.1-1.1-3.7-1.1-4.1.5-.4-.1-.7-.1-1-.1-.2 0-.3 0-.5.1-.6-.1-1.3 0-1.8.2-.4.2-.8.5-1.1.9-.1.1-.1.2-.1.3-.7 0-1.4.1-2 .3-1.4.5-1.5 1.8-1.4 3-1.4.3-2.7 2.4-2.1 3.5.1.4.2.8.5 1.1-.6.1-1.1.5-1.3 1-.9.9-.9 2.7 0 3.7.1.1.1.2.2.3s.2.1.2.1c.5.1 1.1-.4.8-.9s-.4-1.1-.3-1.7c0-.2.1-.4.2-.5h.2c.3 0 .5-.3.6-.5.1 0 .2 0 .2-.1.6-.1.5-.8.1-1.1.2-.2.3-.6 0-.9-.6-.8.1-2 .9-2.5.3-.3.6-.3.7-.6z"/></g></g><g class="W"><path d="M374.3 77.7c.1.2.2.4.2.6.1-.2.2-.4.2-.6s.2-.4.3-.6l3.7-6.9c0-.1.1-.2.1-.2 0-.1.1-.1.2-.1h2.2v12.4h-2v-9l-3.7 7c-.1.2-.2.3-.3.4s-.3.1-.5.1h-.3c-.2 0-.3 0-.5-.1s-.2-.2-.3-.4l-3.8-7.1v9.1h-2V69.8h2.2c.1 0 .1.1.2.1.1.1.1.1.1.2L374 77c.1.3.2.5.3.7zm16.2 4.5h-1c-.2 0-.4 0-.5-.1s-.2-.2-.3-.4l-.2-.6c-.2.2-.4.4-.7.5-.2.2-.4.3-.7.4-.2.1-.5.2-.7.2-.3.1-.5.1-.9.1s-.7-.1-1-.2-.6-.3-.8-.5a3.04 3.04 0 0 1-.5-.7c-.1-.3-.2-.6-.2-1a1.93 1.93 0 0 1 .3-1c.2-.3.5-.6.9-.9s.9-.5 1.6-.6c.7-.2 1.5-.3 2.5-.3v-.5c0-.6-.1-1-.4-1.3-.2-.3-.6-.4-1.1-.4-.3 0-.6 0-.9.1l-.6.3c-.2.1-.3.2-.5.3-.1.1-.3.1-.5.1-.1 0-.3 0-.4-.1s-.2-.2-.2-.3l-.4-.7c1-.9 2.2-1.4 3.7-1.4.5 0 1 .1 1.4.3s.7.4 1 .7.5.7.6 1.1.2.9.2 1.4v5.5zm-4.1-1.3c.2 0 .4 0 .6-.1.2 0 .4-.1.5-.2.2-.1.3-.2.5-.3s.3-.3.5-.4v-1.5c-.6 0-1.1 0-1.5.1l-1 .3c-.3.1-.4.3-.5.4-.1.2-.2.3-.2.5 0 .4.1.6.3.8.2.3.4.4.8.4zm9.1 1.5c-.8 0-1.3-.2-1.8-.6-.4-.4-.6-1-.6-1.8v-5h-.9c-.1 0-.2 0-.3-.1s-.1-.2-.1-.3v-.8l1.4-.2.4-2.4c0-.1.1-.2.2-.3s.2-.1.3-.1h1.1v2.8h2.3V75h-2.3v4.8c0 .3.1.5.2.6.1.2.3.2.5.2h.3c.1 0 .2-.1.2-.1.1 0 .1-.1.2-.1h.4l.1.1.6 1c-.3.3-.7.5-1.1.6-.3.2-.7.3-1.1.3zm6.6 0c-.8 0-1.3-.2-1.8-.6-.4-.4-.6-1-.6-1.8v-5h-.9c-.1 0-.2 0-.3-.1s-.1-.2-.1-.3v-.8l1.4-.2.4-2.4c0-.1.1-.2.2-.3s.2-.1.3-.1h1.1v2.8h2.3V75h-2.3v4.8c0 .3.1.5.2.6.1.2.3.2.5.2h.3c.1 0 .2-.1.2-.1.1 0 .1-.1.2-.1h.4l.1.1.6 1c-.3.3-.7.5-1.1.6-.2.2-.6.3-1.1.3zm13.7-4.7c.1.2.2.4.2.6.1-.2.2-.4.2-.6s.2-.4.3-.6l3.7-6.9c0-.1.1-.2.1-.2 0-.1.1-.1.2-.1h2.2v12.4h-2v-9l-3.7 7c-.1.2-.2.3-.3.4s-.3.1-.5.1h-.3c-.2 0-.3 0-.5-.1-.1-.1-.2-.2-.3-.4l-3.8-7.1v9.1h-2V69.8h2.2c.1 0 .1.1.2.1.1.1.1.1.1.2l3.7 6.9c.1.3.2.5.3.7zm11.3-4.3V79c0 .5.1 1 .4 1.2.2.3.6.4 1.1.4.4 0 .7-.1 1-.2s.6-.4.9-.7v-6.4h2.1v8.8h-1.3c-.3 0-.5-.1-.5-.4l-.1-.7c-.2.2-.4.3-.6.5s-.4.3-.6.4-.5.2-.7.2c-.3.1-.5.1-.8.1-.5 0-.9-.1-1.3-.2-.4-.2-.7-.4-.9-.7-.3-.3-.4-.7-.6-1.1-.2-.2-.2-.7-.2-1.2v-5.6h2.1zm10.1-3.9v12.7H435V69.5h2.2zm4.6 0v12.7h-2.1V69.5h2.1zm6 3.8c.6 0 1.1.1 1.5.3.5.2.9.4 1.2.8.3.3.6.8.8 1.3s.3 1.1.3 1.7v.4c0 .1 0 .2-.1.2 0 .1-.1.1-.1.1h-5.6c.1.9.3 1.6.7 2s1 .6 1.7.6c.3 0 .6 0 .9-.1.2-.1.5-.2.7-.3s.3-.2.5-.3c.1-.1.3-.1.4-.1s.2 0 .2.1c.1 0 .1.1.2.1l.6.8c-.2.3-.5.5-.8.7s-.6.3-.9.4-.6.2-1 .2c-.3 0-.6.1-1 .1-.6 0-1.2-.1-1.7-.3s-1-.5-1.4-.9-.7-.9-.9-1.5-.3-1.3-.3-2c0-.6.1-1.2.3-1.7s.5-1 .8-1.4c.4-.4.8-.7 1.3-.9s1.1-.3 1.7-.3zm.1 1.5c-.6 0-1.1.2-1.5.5-.3.3-.6.8-.7 1.5h4c0-.3 0-.5-.1-.8s-.2-.5-.3-.6c-.2-.2-.3-.3-.6-.4-.2-.1-.5-.2-.8-.2zm5.5 7.4v-8.8h1.3c.3 0 .5.1.5.4l.1.7c.2-.2.4-.3.6-.5s.4-.3.6-.4.5-.2.7-.2c.3-.1.5-.1.8-.1.5 0 .9.1 1.3.2.4.2.7.4.9.7s.4.6.6 1.1c.1.4.2.9.2 1.4v5.6h-2.1v-5.6c0-.5-.1-1-.4-1.2-.2-.3-.6-.4-1.1-.4-.4 0-.7.1-1 .2s-.6.4-.9.7v6.4h-2.1zm8.5-8.8h1.7c.2 0 .3 0 .4.1s.2.2.2.3l1.3 4.7c.1.3.1.5.2.8 0 .2.1.5.1.7.1-.2.1-.5.2-.7s.1-.5.2-.8l1.5-4.7c0-.1.1-.2.2-.3s.2-.1.4-.1h.9c.2 0 .3 0 .4.1s.2.2.2.3l1.4 4.8c.1.2.1.5.2.7s.1.5.2.7c0-.2.1-.5.1-.7s.1-.5.2-.8l1.3-4.7c0-.1.1-.2.2-.3s.2-.1.4-.1h1.6l-2.8 8.8h-1.7c-.2 0-.3-.1-.4-.4l-1.6-5.1c-.1-.2-.1-.3-.1-.5s-.1-.3-.1-.5c0 .2-.1.3-.1.5s-.1.3-.1.5l-1.6 5.1c-.1.3-.2.4-.5.4h-1.6l-2.9-8.8zm18.3-.1c.6 0 1.1.1 1.5.3.5.2.9.4 1.2.8.3.3.6.8.8 1.3s.3 1.1.3 1.7v.4c0 .1 0 .2-.1.2 0 .1-.1.1-.2.1H478c.1.9.3 1.6.7 2s1 .6 1.7.6c.3 0 .6 0 .9-.1.2-.1.5-.2.7-.3s.3-.2.5-.3c.1-.1.3-.1.4-.1s.2 0 .2.1c.1 0 .1.1.2.1l.6.8c-.2.3-.5.5-.8.7s-.6.3-.9.4-.6.2-1 .2c-.3 0-.6.1-1 .1-.6 0-1.2-.1-1.7-.3s-1-.5-1.4-.9-.7-.9-.9-1.5-.3-1.3-.3-2c0-.6.1-1.2.3-1.7s.5-1 .8-1.4c.4-.4.8-.7 1.3-.9.6-.2 1.2-.3 1.9-.3zm0 1.5c-.6 0-1.1.2-1.4.5s-.6.8-.7 1.5h4c0-.3 0-.5-.1-.8s-.2-.5-.3-.6c-.2-.2-.3-.3-.6-.4s-.6-.2-.9-.2zm8.5-1.5c.4 0 .7 0 1.1.1l.9.3h2.5v.8c0 .1 0 .2-.1.3s-.2.1-.4.2l-.8.1c.1.1.1.3.1.5v.5c0 .4-.1.8-.3 1.2s-.4.7-.7.9-.7.4-1.1.6c-.4.1-.9.2-1.4.2-.3 0-.7 0-1-.1-.3.2-.4.4-.4.6s.1.3.2.4c.2.1.4.1.6.2.3 0 .6.1.9.1h1c.3 0 .7.1 1 .2l.9.3c.3.2.5.4.6.6.2.3.2.6.2 1s-.1.8-.3 1.1c-.2.4-.5.7-.8 1-.4.3-.8.5-1.3.7s-1.1.3-1.8.3-1.2-.1-1.7-.2-.9-.3-1.2-.5-.6-.5-.7-.7a2.39 2.39 0 0 1-.2-.9c0-.4.1-.8.4-1 .3-.3.6-.5 1-.7-.2-.1-.4-.3-.5-.5s-.2-.5-.2-.8c0-.1 0-.3.1-.4a.76.76 0 0 1 .2-.4c.1-.1.2-.3.4-.4s.3-.2.5-.3c-.4-.2-.8-.6-1.1-1s-.4-.9-.4-1.4c0-.4.1-.8.3-1.2s.4-.7.7-.9.7-.4 1.1-.6c.8-.2 1.2-.2 1.7-.2zm2.4 9.3c0-.2-.1-.3-.2-.4s-.2-.2-.4-.3-.4-.1-.6-.1h-1.6c-.3 0-.6 0-.8-.1-.2.1-.4.3-.6.5-.1.2-.2.4-.2.6s0 .3.1.4.2.2.4.3.4.2.7.2c.3.1.6.1 1 .1s.7 0 1-.1.5-.1.7-.3a.78.78 0 0 0 .4-.4c0-.1.1-.2.1-.4zm-2.4-5c.3 0 .5 0 .7-.1s.4-.2.5-.3.2-.3.3-.5.1-.4.1-.6c0-.4-.1-.8-.4-1-.3-.3-.7-.4-1.2-.4s-.9.1-1.2.4-.4.6-.4 1c0 .2 0 .4.1.6s.2.3.3.5c.1.1.3.2.5.3s.5.1.7.1z"/><path d="M377.3 133.3c.1 0 .2 0 .2.1l.7.7c-.5.6-1 1-1.7 1.3s-1.5.5-2.4.5c-.8 0-1.6-.1-2.3-.4s-1.3-.7-1.7-1.2c-.5-.5-.8-1.1-1.1-1.9s-.4-1.5-.4-2.4.1-1.7.4-2.4.7-1.3 1.2-1.9c.5-.5 1.1-.9 1.8-1.2s1.5-.4 2.3-.4 1.5.1 2.2.4c.6.3 1.2.6 1.7 1.1l-.6.8c0 .1-.1.1-.1.1-.1 0-.1.1-.2.1s-.2-.1-.4-.2c-.1-.1-.3-.2-.5-.3s-.5-.2-.8-.3a3.73 3.73 0 0 0-1.2-.2c-.6 0-1.1.1-1.6.3a2.73 2.73 0 0 0-1.2.9c-.3.4-.6.8-.8 1.4-.2.5-.3 1.2-.3 1.9s.1 1.3.3 1.9.5 1 .8 1.4.8.7 1.2.9 1 .3 1.5.3c.3 0 .6 0 .9-.1.3 0 .5-.1.7-.2l.6-.3c.2-.1.4-.3.6-.5l.1-.1c0-.1 0-.1.1-.1zm9.8 1.1v1.4H380v-11.5h7.1v1.4h-5.4v3.6h4.4v1.3h-4.4v3.7h5.4zm12.5-4.4c0 .9-.1 1.6-.4 2.4-.3.7-.7 1.3-1.2 1.9-.5.5-1.1.9-1.8 1.2s-1.5.4-2.3.4-1.6-.1-2.3-.4-1.3-.7-1.8-1.2-.9-1.1-1.2-1.9c-.3-.7-.4-1.5-.4-2.4s.1-1.6.4-2.4c.3-.7.7-1.3 1.2-1.9.5-.5 1.1-.9 1.8-1.2s1.5-.4 2.3-.4c.9 0 1.6.1 2.3.4s1.3.7 1.8 1.2.9 1.1 1.2 1.9.4 1.6.4 2.4zm-1.7 0c0-.7-.1-1.3-.3-1.8s-.5-1-.8-1.4-.8-.7-1.2-.9c-.5-.2-1-.3-1.6-.3s-1.1.1-1.6.3-.9.5-1.3.9-.6.8-.8 1.4c-.2.5-.3 1.2-.3 1.8 0 .7.1 1.3.3 1.8s.5 1 .8 1.4.8.7 1.3.9 1 .3 1.6.3 1.1-.1 1.6-.3a2.73 2.73 0 0 0 1.2-.9c.3-.4.6-.8.8-1.4.2-.5.3-1.1.3-1.8zm7.5.3h4v1.3h-4v-1.3zm19.3 5.5h-1.3c-.1 0-.3 0-.4-.1s-.2-.2-.2-.3l-1-2.7h-5.1l-1 2.7c0 .1-.1.2-.2.3s-.2.1-.4.1h-1.3l4.6-11.5h1.7l4.6 11.5zm-3.3-4.3l-1.7-4.5-.4-1.2c-.1.2-.1.4-.2.6s-.1.4-.2.5l-1.7 4.4h4.2zm11-3.9v8.1h-.9c-.2 0-.4-.1-.4-.3l-.1-.8c-.2.2-.4.4-.6.5-.2.2-.4.3-.6.4s-.5.2-.7.3-.5.1-.8.1c-.4 0-.8-.1-1.2-.2-.3-.1-.6-.4-.9-.6-.2-.3-.4-.6-.5-1s-.2-.8-.2-1.3v-5.2h1.6v5.2c0 .6.1 1 .4 1.4.3.3.7.5 1.2.5.4 0 .8-.1 1.1-.3s.7-.4 1-.8v-6h1.6zm4.7 8.3c-.7 0-1.2-.2-1.5-.6-.4-.4-.5-.9-.5-1.6v-4.9h-.9c-.1 0-.2 0-.2-.1-.1-.1-.1-.1-.1-.3v-.6l1.3-.2.4-2.4c0-.1.1-.2.1-.2.1 0 .1-.1.2-.1h.8v2.7h2.3v1.1h-2.3v4.8c0 .3.1.6.2.7s.4.2.6.2c.1 0 .3 0 .4-.1.1 0 .2-.1.3-.1s.1-.1.2-.1.1-.1.1-.1h.1l.1.1.5.8c-.3.2-.6.4-.9.5a1.58 1.58 0 0 1-1.2.5zm6.7-8.4c.6 0 1.1.1 1.6.3s.9.5 1.2.8c.3.4.6.8.8 1.3s.3 1.1.3 1.7-.1 1.2-.3 1.7-.4 1-.8 1.3c-.3.4-.8.6-1.2.8-.5.2-1 .3-1.6.3s-1.1-.1-1.6-.3-.9-.5-1.2-.8c-.3-.4-.6-.8-.8-1.3s-.3-1.1-.3-1.7.1-1.2.3-1.7.4-1 .8-1.3c.3-.4.8-.6 1.2-.8s1-.3 1.6-.3zm0 7.2c.8 0 1.3-.3 1.7-.8s.6-1.2.6-2.2c0-.9-.2-1.7-.6-2.2s-1-.8-1.7-.8c-.8 0-1.4.3-1.7.8-.4.5-.6 1.2-.6 2.2 0 .9.2 1.7.6 2.2.3.5.9.8 1.7.8zm5.6 1.1v-8.1h.9c.2 0 .4.1.4.3l.1.8c.3-.4.6-.6 1-.9s.8-.3 1.3-.3 1 .1 1.3.4.6.7.7 1.2c.1-.3.3-.5.5-.7s.4-.4.6-.5.5-.2.7-.3c.3-.1.5-.1.8-.1.4 0 .8.1 1.2.2.3.1.6.3.9.6.2.3.4.6.5 1s.2.8.2 1.3v5.2H459v-5.2c0-.6-.1-1.1-.4-1.4s-.6-.5-1.2-.5c-.2 0-.4 0-.6.1s-.4.2-.5.3c-.2.2-.3.3-.4.6-.1.2-.1.5-.1.8v5.2h-1.6v-5.2c0-.6-.1-1.1-.4-1.4s-.6-.4-1.1-.4c-.3 0-.6.1-.9.3s-.6.4-.8.7v6h-1.6zm13-7c.5-.4.9-.8 1.5-1 .5-.2 1.1-.3 1.7-.3a3.73 3.73 0 0 1 1.2.2c.4.2.7.4.9.6s.4.6.6 1c.1.4.2.8.2 1.3v5.2h-.7c-.2 0-.3 0-.4-.1s-.1-.1-.2-.3l-.2-.7c-.2.2-.4.4-.6.5s-.4.3-.6.4-.5.2-.7.2c-.3.1-.5.1-.8.1s-.6 0-.9-.1-.5-.2-.7-.4-.4-.4-.5-.7-.2-.6-.2-1c0-.3.1-.6.3-.9s.5-.6.8-.8a11.64 11.64 0 0 1 1.5-.6l2.3-.3v-.6c0-.6-.1-1.1-.4-1.4s-.6-.5-1.2-.5c-.3 0-.6 0-.9.1l-.6.3a1.38 1.38 0 0 0-.4.3c-.1.1-.3.1-.4.1s-.2 0-.3-.1l-.2-.2-.1-.3zm4.6 3.4c-.6 0-1.2.1-1.6.1l-1.1.3c-.3.1-.5.3-.6.5s-.2.4-.2.6 0 .4.1.5.2.3.3.4.2.2.4.2.3.1.5.1.5 0 .7-.1c.2 0 .4-.1.6-.2s.3-.2.5-.3.3-.3.5-.4v-1.7zm16.3 3.6h-1.6v-6.9h-3.9v4.8c0 .3.1.6.2.7.2.2.4.2.6.2.1 0 .3 0 .4-.1.1 0 .2-.1.3-.1s.1-.1.2-.1.1-.1.1-.1h.1l.1.1.5.8c-.3.2-.6.4-.9.5-.4.1-.7.2-1.1.2-.7 0-1.2-.2-1.5-.6s-.5-.9-.5-1.6v-4.9h-3.7v4.8c0 .3.1.6.2.7s.4.2.6.2c.1 0 .3 0 .4-.1.1 0 .2-.1.3-.1s.1-.1.2-.1.1-.1.1-.1h.1l.1.1.5.8c-.3.2-.6.4-.9.5-.4.1-.7.2-1.1.2-.7 0-1.2-.2-1.5-.6-.4-.4-.5-.9-.5-1.6v-4.9h-.9c-.1 0-.2 0-.2-.1-.1-.1-.1-.1-.1-.3v-.6l1.3-.2.3-2.4c0-.1.1-.2.1-.2.1 0 .1-.1.2-.1h.8v2.7h3.7l.4-2.4c0-.1.1-.2.1-.2.1 0 .1-.1.2-.1h.8v2.7h5.5v8.5zm.3-10.7c0 .1 0 .3-.1.4s-.1.2-.2.3-.2.2-.3.2c-.1.1-.3.1-.4.1s-.3 0-.4-.1-.2-.1-.3-.2-.2-.2-.2-.3c-.1-.1-.1-.3-.1-.4s0-.3.1-.4.1-.2.2-.3.2-.2.3-.2c.1-.1.3-.1.4-.1s.3 0 .4.1.2.1.3.2.2.2.2.3c.1.1.1.2.1.4zm7.7 4.1c0 .1-.1.1-.1.1s-.1.1-.2.1-.2 0-.3-.1-.2-.1-.4-.2c-.1-.1-.3-.1-.5-.2s-.4-.1-.7-.1c-.4 0-.7.1-1 .2s-.5.3-.7.6-.3.6-.4.9c-.1.4-.2.8-.2 1.2 0 .5.1.9.2 1.3s.3.7.5.9c.2.3.4.4.7.6s.6.2.9.2.6 0 .8-.1.4-.2.5-.3.3-.2.4-.3.2-.1.3-.1.2 0 .3.1l.4.6-.6.6c-.2.2-.5.3-.7.4-.3.1-.5.2-.8.2s-.6.1-.9.1c-.5 0-1-.1-1.4-.3a4.44 4.44 0 0 1-1.1-.8c-.3-.4-.6-.8-.8-1.3s-.3-1.1-.3-1.8c0-.6.1-1.2.3-1.7s.4-1 .7-1.3a2.73 2.73 0 0 1 1.2-.9c.5-.2 1-.3 1.6-.3s1.1.1 1.5.3.8.5 1.2.8l-.4.6z"/><path d="M353.8 274v-8.6h1c.2 0 .4.1.4.3l.1.8c.3-.4.7-.7 1.1-.9s.8-.4 1.4-.4 1 .2 1.4.5.6.7.8 1.3c.1-.3.3-.6.5-.8s.4-.4.7-.5l.8-.3c.3-.1.6-.1.8-.1a3.73 3.73 0 0 1 1.2.2c.3.1.7.4.9.6s.4.6.6 1c.1.4.2.9.2 1.4v5.5H364v-5.5c0-.6-.1-1.1-.4-1.5-.3-.3-.7-.5-1.2-.5-.2 0-.5 0-.7.1s-.4.2-.6.4-.3.4-.4.6-.1.5-.1.9v5.5h-1.7v-5.5c0-.7-.1-1.2-.4-1.5s-.7-.5-1.2-.5a1.69 1.69 0 0 0-1 .3c-.3.2-.6.4-.8.8v6.4h-1.7zm13.8-7.4c.5-.5 1-.8 1.6-1s1.2-.3 1.9-.3c.5 0 .9.1 1.3.2.4.2.7.4 1 .7s.5.6.6 1 .2.8.2 1.3v5.5h-.7c-.2 0-.3 0-.4-.1s-.2-.2-.2-.3l-.2-.8c-.2.2-.4.4-.7.5-.2.2-.4.3-.7.4-.2.1-.5.2-.8.3s-.6.1-.9.1-.7 0-1-.1-.6-.2-.8-.4-.4-.4-.5-.7-.2-.6-.2-1a1.93 1.93 0 0 1 .3-1 2.36 2.36 0 0 1 .9-.8c.4-.2 1-.5 1.6-.6.7-.2 1.5-.2 2.5-.3v-.6c0-.7-.1-1.1-.4-1.5-.3-.3-.7-.5-1.2-.5-.4 0-.7 0-.9.1s-.5.2-.6.3-.3.2-.5.3c-.1.1-.3.1-.4.1s-.2 0-.3-.1l-.2-.2-.3-.5zm4.9 3.6c-.7 0-1.2.1-1.7.2s-.9.2-1.1.3c-.3.1-.5.3-.6.5s-.2.4-.2.6 0 .4.1.6a1.38 1.38 0 0 0 .3.4.76.76 0 0 0 .4.2c.2 0 .3.1.5.1.3 0 .5 0 .7-.1s.4-.1.6-.2.4-.2.5-.3c.2-.1.3-.3.5-.5v-1.8zm6.4 4c-.7 0-1.2-.2-1.6-.6s-.6-.9-.6-1.7v-5.2h-1c-.1 0-.2 0-.2-.1-.1-.1-.1-.1-.1-.3v-.7l1.4-.2.4-2.6c0-.1.1-.2.1-.2.1-.1.1-.1.3-.1h.8v2.9h3.9l.4-2.6c0-.1.1-.2.1-.2.1-.1.1-.1.3-.1h.9v2.9h2.4v1.2H384v5.1c0 .3.1.6.2.8.2.2.4.3.6.3s.3 0 .4-.1c.1 0 .2-.1.3-.1s.1-.1.2-.1.1-.1.2-.1h.1l.1.1.5.8-1 .6c-.4.1-.8.2-1.2.2-.7 0-1.2-.2-1.6-.6s-.6-.9-.6-1.7v-5.2h-3.9v5.1c0 .3.1.6.3.8s.4.3.6.3.3 0 .4-.1c.1 0 .2-.1.3-.1s.1-.1.2-.1.1-.1.2-.1h.1l.1.1.5.8-1 .6c-.3.2-.7.3-1.1.3zm17.4-4.8c-.1.4-.2.7-.2 1s0 .5.1.6l.3.3c.1.1.3.1.5.1.3 0 .5-.1.8-.2.2-.2.5-.4.6-.7.2-.3.3-.6.4-1s.2-.8.2-1.3c0-.8-.1-1.4-.4-2-.2-.6-.6-1.1-1-1.5s-.9-.7-1.5-.9-1.2-.3-1.9-.3c-.8 0-1.5.1-2.1.4a6.57 6.57 0 0 0-1.7 1.2c-.5.5-.9 1.1-1.1 1.8-.3.7-.4 1.4-.4 2.2 0 1 .1 1.8.5 2.5s.7 1.3 1.2 1.8 1.1.8 1.8 1.1c.7.2 1.5.4 2.3.4.9 0 1.6-.1 2.3-.3s1.2-.4 1.7-.7c.1-.1.2-.1.3-.1s.2.1.2.2l.2.6c-.6.4-1.3.7-2.1 1-.8.2-1.7.4-2.6.4-1 0-1.9-.2-2.8-.5s-1.6-.8-2.2-1.4-1.1-1.3-1.5-2.2-.5-1.8-.5-2.9c0-.6.1-1.2.2-1.8s.4-1.1.7-1.6.6-1 1-1.4.8-.8 1.3-1.1 1-.5 1.6-.7 1.2-.2 1.8-.2c.5 0 1 .1 1.5.2s1 .3 1.4.5.9.5 1.2.8l1 1.1c.3.4.5.9.6 1.4.2.5.2 1.1.2 1.7s-.1 1.2-.3 1.7-.4 1-.7 1.4-.7.7-1.1.9a3.08 3.08 0 0 1-1.3.3c-.4 0-.8-.1-1.1-.3s-.5-.5-.6-1c-.3.4-.7.8-1.1.9-.4.2-.8.3-1.2.3-.3 0-.6-.1-.9-.2s-.5-.3-.6-.5c-.2-.2-.3-.5-.4-.7-.1-.3-.1-.6-.1-.9 0-.5.1-1 .3-1.5s.5-.9.8-1.3a5.02 5.02 0 0 1 1.4-1c.5-.2 1.2-.4 1.9-.4.4 0 .7 0 1 .1l.8.3-.7 3.4zm-.6-2.3c-.2 0-.4-.1-.7-.1-.4 0-.8.1-1.1.3s-.6.4-.9.7-.4.6-.6 1c-.1.4-.2.7-.2 1.1s.1.7.3.9.4.4.8.4c.2 0 .3 0 .5-.1s.3-.1.5-.3c.2-.1.3-.3.4-.5s.2-.5.3-.9l.7-2.5zm18.5-1.7l-2.8 8.6h-1.3c-.2 0-.3-.1-.3-.3l-1.8-5.6c0-.1-.1-.3-.1-.4s-.1-.3-.1-.4c-.1.3-.1.6-.2.9l-1.8 5.6c-.1.2-.2.3-.4.3h-1.3l-2.8-8.6h1.3c.1 0 .2 0 .3.1l.2.2 1.6 5.3c.1.2.1.4.1.6s.1.4.1.6c.1-.2.1-.4.2-.6s.1-.4.2-.6l1.7-5.3c0-.1.1-.2.2-.2s.2-.1.3-.1h.7c.1 0 .2 0 .3.1l.2.2 1.7 5.3c.1.2.1.4.2.6s.1.4.2.6c0-.2.1-.4.1-.6s.1-.4.2-.6l1.6-5.3c0-.1.1-.2.2-.2.1-.1.2-.1.3-.1h1z"/><use xlink:href="#B"/><use xlink:href="#C"/><path d="M438.3 261.5V274h-1c-.2 0-.4-.1-.4-.3l-.1-1c-.4.4-.8.8-1.3 1-.5.3-1 .4-1.6.4-.5 0-.9-.1-1.3-.3s-.7-.5-1-.8c-.3-.4-.5-.8-.7-1.4-.2-.5-.2-1.2-.2-1.9 0-.6.1-1.2.3-1.8s.4-1 .7-1.4a2.73 2.73 0 0 1 1.2-.9c.5-.2 1-.3 1.6-.3.5 0 1 .1 1.3.3.4.2.7.4 1 .7v-4.7h1.5zm-1.7 6c-.3-.4-.6-.6-.9-.7s-.7-.2-1.1-.2c-.8 0-1.3.3-1.8.8-.4.5-.6 1.3-.6 2.4 0 .5 0 1 .1 1.4s.2.7.4 1c.2.2.4.4.7.5s.6.2.9.2c.5 0 .9-.1 1.2-.3.4-.2.7-.5 1-.9v-4.2zm5.6-.8l.6-.6c.2-.2.4-.3.7-.5.2-.1.5-.2.8-.3s.6-.1.9-.1c.5 0 .9.1 1.3.3s.7.5 1 .9.5.8.7 1.4c.2.5.2 1.2.2 1.9 0 .6-.1 1.2-.3 1.8-.2.5-.4 1-.7 1.4a2.73 2.73 0 0 1-1.2.9c-.5.2-1 .3-1.6.3-.5 0-1-.1-1.3-.3s-.7-.4-1-.7v3.7h-1.7v-11.5h1c.2 0 .4.1.4.3l.2 1.1zm.1 5.2c.3.4.6.6.9.7s.7.2 1.1.2c.8 0 1.3-.3 1.8-.8.4-.5.6-1.3.6-2.4 0-.5 0-1-.1-1.4s-.2-.7-.4-1c-.2-.2-.4-.4-.7-.5s-.6-.2-.9-.2c-.5 0-.9.1-1.3.3s-.7.5-1 .9v4.2z"/><use xlink:href="#C" x="25.1"/><path d="M463.2 272.8c-.2.2-.4.4-.7.6s-.5.3-.8.4-.6.2-.9.2c-.3.1-.6.1-.9.1-.6 0-1.1-.1-1.7-.3s-.9-.5-1.3-.9-.7-.9-.9-1.4-.3-1.2-.3-2c0-.6.1-1.2.3-1.7s.5-1 .8-1.4.8-.7 1.3-.9 1.1-.3 1.7-.3c.5 0 1 .1 1.5.3.4.2.8.4 1.2.8.3.3.6.7.8 1.2s.3 1 .3 1.6c0 .3 0 .4-.1.5s-.2.1-.3.1h-5.7a4.44 4.44 0 0 0 .2 1.3c.1.4.3.7.5 1s.5.4.8.6.7.2 1.1.2.7 0 1-.1.5-.2.7-.3.4-.2.5-.3.2-.1.4-.1c.1 0 .2.1.3.2l.2.6zm-1.4-4.1c0-.3 0-.6-.1-.9s-.2-.5-.4-.7-.4-.4-.7-.5-.6-.2-.9-.2c-.7 0-1.2.2-1.6.6s-.7 1-.8 1.7h4.5zm8.4-1.8c0 .1-.1.1-.1.2h-.2c-.1 0-.2 0-.3-.1s-.2-.1-.4-.2-.3-.1-.5-.2-.5-.1-.7-.1-.5 0-.7.1-.4.1-.5.2a1.38 1.38 0 0 0-.3.4c-.1.1-.1.3-.1.5s.1.4.2.5.3.3.5.4.4.2.7.3l1.6.6c.3.1.5.3.7.4.2.2.4.4.5.6s.2.5.2.9-.1.8-.2 1.1-.4.6-.6.9-.6.4-1 .6c-.4.1-.9.2-1.4.2-.6 0-1.1-.1-1.6-.3s-.9-.5-1.3-.8l.4-.6c0-.1.1-.1.2-.2.1 0 .2-.1.3-.1s.2 0 .3.1.2.2.4.3l.6.3c.2.1.5.1.8.1s.5 0 .7-.1.4-.2.5-.3.2-.3.3-.4c.1-.2.1-.3.1-.5s-.1-.4-.2-.6-.3-.3-.5-.4-.4-.2-.7-.3l-1.6-.6c-.3-.1-.5-.3-.7-.5s-.4-.4-.5-.7-.2-.6-.2-1c0-.3.1-.7.2-1s.3-.6.6-.8l1-.6c.4-.1.8-.2 1.3-.2.6 0 1.1.1 1.6.3s.9.4 1.2.7l-.6.9zm7.4 0c0 .1-.1.1-.1.2s-.1 0-.2 0-.2 0-.3-.1-.2-.1-.4-.2-.3-.1-.5-.2-.5-.1-.7-.1-.5 0-.7.1-.4.1-.5.2a1.38 1.38 0 0 0-.3.4c-.1.1-.1.3-.1.5s.1.4.2.5.3.3.5.4.4.2.7.3l1.6.6c.3.1.5.3.7.4s.4.4.5.6.2.5.2.9-.1.8-.2 1.1-.4.6-.6.9l-1 .6c-.4.1-.9.2-1.4.2-.6 0-1.1-.1-1.6-.3s-.9-.5-1.3-.8l.4-.6c0-.1.1-.1.2-.2.1 0 .2-.1.3-.1s.2 0 .3.1.2.2.4.3l.6.3c.2.1.5.1.8.1s.5 0 .7-.1.4-.2.5-.3.2-.3.3-.4c.1-.2.1-.3.1-.5s-.1-.4-.2-.6-.3-.3-.5-.4-.4-.2-.7-.3l-1.6-.6c-.3-.1-.5-.3-.7-.5s-.4-.4-.5-.7-.2-.6-.2-1c0-.3.1-.7.2-1s.3-.6.6-.8l1-.6c.4-.1.8-.2 1.3-.2.6 0 1.1.1 1.6.3s.9.4 1.2.7l-.6.9zm2 6.1c0-.2 0-.3.1-.4s.1-.3.2-.4.2-.2.4-.2c.1-.1.3-.1.4-.1.2 0 .3 0 .4.1s.3.1.4.2.2.2.2.4c.1.1.1.3.1.4 0 .2 0 .3-.1.4s-.1.3-.2.4-.2.2-.4.2c-.1.1-.3.1-.4.1-.2 0-.3 0-.4-.1s-.3-.1-.4-.2-.2-.2-.2-.4c-.1-.1-.1-.2-.1-.4z"/><use xlink:href="#B" x="68.4"/><use xlink:href="#C" x="68.4"/><path d="M507 265.7v.6c0 .2-.1.3-.4.4l-.9.1c.1.2.1.4.2.6 0 .2.1.4.1.6 0 .4-.1.8-.2 1.2-.2.3-.4.6-.7.9l-1 .6c-.4.1-.8.2-1.3.2-.4 0-.8 0-1.1-.1a1.38 1.38 0 0 0-.4.3c-.1.1-.1.2-.1.4s.1.3.3.4.4.2.7.2.6.1.9.1.7 0 1.1.1c.4 0 .7.1 1.1.1l.9.3c.3.1.5.3.7.6a1.69 1.69 0 0 1 .3 1c0 .4-.1.7-.3 1.1a2.36 2.36 0 0 1-.8.9c-.4.3-.8.5-1.3.7s-1.1.2-1.7.2-1.2-.1-1.7-.2-.9-.3-1.2-.5-.5-.5-.7-.7c-.2-.3-.2-.6-.2-.9 0-.4.1-.8.4-1.1s.6-.5 1.1-.7c-.2-.1-.4-.3-.6-.5-.1-.2-.2-.5-.2-.8 0-.1 0-.3.1-.4a.76.76 0 0 1 .2-.4c.1-.1.2-.3.3-.4s.3-.2.5-.3c-.4-.2-.8-.6-1-.9-.2-.4-.4-.9-.4-1.4 0-.4.1-.8.2-1.1.2-.3.4-.6.7-.9l1-.6c.4-.1.8-.2 1.3-.2.7 0 1.4.2 1.9.5h2.2zm-1.7 8.8c0-.2-.1-.4-.2-.5s-.3-.2-.5-.3-.4-.1-.7-.2-.5-.1-.8-.1h-.9c-.3 0-.6 0-.9-.1-.3.1-.5.3-.7.5a1.08 1.08 0 0 0-.3.7c0 .2 0 .4.1.5a.78.78 0 0 0 .4.4c.2.1.4.2.7.3s.7.1 1.1.1.8 0 1.1-.1l.8-.3c.2-.1.4-.3.5-.5s.3-.2.3-.4zm-2.6-4.8c.3 0 .6 0 .8-.1l.6-.3a.55.55 0 0 0 .3-.5c0-.2.1-.4.1-.7 0-.5-.2-.9-.5-1.2s-.8-.4-1.3-.4c-.6 0-1 .1-1.3.4s-.5.7-.5 1.2c0 .2 0 .5.1.7s.2.4.3.5.3.3.6.3.5.1.8.1z"/></g><path d="M390.1 294.5c0 .6-.1 1.2-.2 1.7-.2.5-.4.9-.7 1.3s-.7.6-1.1.8c-.5.2-1 .3-1.6.3-.5 0-1.1-.1-1.6-.2l.1-1c0-.1 0-.2.1-.2.1-.1.2-.1.3-.1s.2 0 .4.1c.2 0 .4.1.6.1.3 0 .6-.1.9-.2s.5-.3.7-.5.3-.5.4-.8.1-.7.1-1.2V287h1.7v7.5zm1.8-3c.5-.4.9-.8 1.5-1s1.1-.3 1.7-.3a3.73 3.73 0 0 1 1.2.2c.4.2.7.4.9.6l.6 1c.1.4.2.8.2 1.3v5.2h-.7c-.2 0-.3 0-.4-.1s-.1-.1-.2-.3l-.2-.7c-.2.2-.4.4-.6.5s-.4.3-.6.4-.5.2-.7.2c-.3.1-.5.1-.8.1s-.6 0-.9-.1-.5-.2-.7-.4-.4-.4-.5-.7-.2-.6-.2-1c0-.3.1-.6.3-.9s.5-.6.8-.8a11.64 11.64 0 0 1 1.5-.6l2.3-.3v-.6c0-.6-.1-1.1-.4-1.4s-.6-.5-1.2-.5c-.3 0-.6 0-.9.1l-.6.3a1.38 1.38 0 0 0-.4.3c-.1.1-.3.1-.4.1s-.2 0-.3-.1l-.2-.2-.1-.3zm4.6 3.4c-.6 0-1.2.1-1.6.1l-1.1.3c-.3.1-.5.3-.6.5s-.2.4-.2.6 0 .4.1.5.2.3.3.4.2.2.4.2.3.1.5.1.5 0 .7-.1c.2 0 .4-.1.6-.2s.3-.2.5-.3.3-.3.5-.4v-1.7zm5.1-3.4c.2-.2.4-.4.6-.5.2-.2.4-.3.6-.4s.4-.2.7-.3.5-.1.8-.1c.4 0 .8.1 1.2.2s.6.4.9.6c.2.3.4.6.5 1s.2.8.2 1.3v5.2h-1.6v-5.2c0-.6-.1-1-.4-1.4-.3-.3-.7-.5-1.2-.5-.4 0-.8.1-1.1.3s-.7.4-1 .8v6h-1.6v-8.1h.9c.2 0 .4.1.4.3l.1.8zm18.6 5.8v1.2H414v-1.2h2.4v-8.2l-2 1.7c-.1.1-.1.1-.2.1h-.2c-.1 0-.1 0-.2-.1-.1 0-.1-.1-.1-.1l-.5-.7 3.4-3h1.3v10.3h2.3zm9.9-4.5c0 1-.1 1.9-.3 2.6s-.5 1.3-.9 1.8-.8.8-1.3 1.1c-.5.2-1.1.4-1.6.4-.6 0-1.1-.1-1.6-.4-.5-.2-1-.6-1.3-1.1-.4-.5-.7-1.1-.9-1.8s-.3-1.6-.3-2.6.1-1.9.3-2.6.5-1.3.9-1.8.8-.8 1.3-1.1c.5-.2 1.1-.4 1.6-.4.6 0 1.1.1 1.6.4.5.2 1 .6 1.3 1.1.4.5.7 1.1.9 1.8s.3 1.6.3 2.6zm-1.6 0c0-.9-.1-1.6-.2-2.2s-.3-1-.6-1.4c-.2-.4-.5-.6-.8-.8-.3-.1-.6-.2-1-.2s-.7.1-1 .2-.6.4-.8.8a9.75 9.75 0 0 0-.6 1.4c-.2.6-.2 1.3-.2 2.2s.1 1.6.2 2.2.3 1 .6 1.4c.2.4.5.6.8.8s.6.2 1 .2.7-.1 1-.2.6-.4.8-.8a9.75 9.75 0 0 0 .6-1.4c.1-.6.2-1.3.2-2.2zm3.9 5.7c-.1 0-.3 0-.4-.1s-.2-.1-.3-.2-.2-.2-.2-.3-.1-.3-.1-.4 0-.2.1-.4c0-.1.1-.2.2-.3s.2-.2.3-.2c.1-.1.3-.1.4-.1a.9.9 0 0 1 .5.1c.1.1.2.1.3.3s.2.2.2.4c0 .1.1.3.1.5s0 .5-.1.8l-.3.8c-.1.3-.3.5-.5.8-.2.2-.4.5-.7.7l-.3-.2c-.1-.1-.1-.2-.1-.2v-.1l.6-.6a.76.76 0 0 0 .2-.4c.1-.5.1-.7.1-.9h0zm13.8-1.4c.2 0 .3 0 .4.1s.1.2.1.4v.9H439v-.5c0-.1 0-.2.1-.3s.1-.2.2-.3l3.6-3.6c.3-.3.6-.6.8-.9s.5-.6.6-.8c.2-.3.3-.6.4-.9s.1-.6.1-.9-.1-.6-.2-.8-.2-.4-.4-.6-.4-.3-.6-.4-.5-.1-.8-.1-.5 0-.8.1l-.6.3c-.2.1-.3.3-.5.5l-.3.6a1.38 1.38 0 0 1-.3.4c-.1.1-.3.1-.5 0l-.8-.1c.1-.5.2-1 .4-1.4s.5-.7.8-1 .7-.5 1.1-.6.9-.2 1.4-.2 1 .1 1.4.2.8.4 1.1.6c.3.3.6.6.7 1s.3.8.3 1.3c0 .4-.1.8-.2 1.2s-.3.7-.5 1-.5.7-.8 1l-.9.9-2.9 3c.2-.1.4-.1.7-.1s.4-.1.6-.1h4zm10.2-4.3c0 1-.1 1.9-.3 2.6s-.5 1.3-.9 1.8-.8.8-1.3 1.1c-.5.2-1.1.4-1.6.4s-1.1-.1-1.6-.4c-.5-.2-1-.6-1.3-1.1-.4-.5-.7-1.1-.9-1.8s-.3-1.6-.3-2.6.1-1.9.3-2.6.5-1.3.9-1.8.8-.8 1.3-1.1c.5-.2 1.1-.4 1.6-.4s1.1.1 1.6.4c.5.2 1 .6 1.3 1.1.4.5.7 1.1.9 1.8s.3 1.6.3 2.6zm-1.6 0c0-.9-.1-1.6-.2-2.2s-.3-1-.6-1.4c-.2-.4-.5-.6-.8-.8s-.6-.2-1-.2-.7.1-1 .2-.6.4-.8.8a9.75 9.75 0 0 0-.6 1.4c-.2.6-.2 1.3-.2 2.2s.1 1.6.2 2.2.3 1 .6 1.4c.2.4.5.6.8.8.3.1.6.2 1 .2s.7-.1 1-.2.6-.4.8-.8a9.75 9.75 0 0 0 .6-1.4c.1-.6.2-1.3.2-2.2zm9.9 4.3c.2 0 .3 0 .4.1s.1.2.1.4v.9h-7.7v-.5c0-.1 0-.2.1-.3s.1-.2.2-.3l3.6-3.6c.3-.3.6-.6.8-.9s.5-.6.6-.8c.2-.3.3-.6.4-.9s.1-.6.1-.9-.1-.6-.2-.8-.2-.4-.4-.6-.4-.3-.6-.4-.5-.1-.8-.1-.5 0-.8.1l-.6.3c-.2.1-.3.3-.5.5l-.3.6a1.38 1.38 0 0 1-.3.4c-.1.1-.3.1-.5 0l-.8-.1c.1-.5.2-1 .4-1.4s.5-.7.8-1 .7-.5 1.1-.6.9-.2 1.4-.2 1 .1 1.4.2.8.4 1.1.6c.3.3.6.6.7 1s.3.8.3 1.3c0 .4-.1.8-.2 1.2s-.3.7-.5 1-.5.7-.8 1l-.9.9-2.9 3c.2-.1.4-.1.7-.1s.4-.1.6-.1h4zm9.6.2v1.2h-6.2v-1.2h2.4v-8.2l-2 1.7c-.1.1-.1.1-.2.1h-.2c-.1 0-.1 0-.2-.1-.1 0-.1-.1-.1-.1l-.5-.7 3.4-3h1.3v10.3h2.3z" fill="#444" class="W"/><g fill="#ffae04"><use xlink:href="#D"/><path d="M410.6 94.1l2.3 5.5 6 .5c.4 0 .6.6.3.8l-4.5 3.9 1.4 5.8c.1.4-.4.7-.7.5l-5.1-3.1-5.1 3.1c-.4.2-.8-.1-.7-.5l1.4-5.8-4.5-3.9c-.3-.3-.2-.7.3-.8l6-.5 2.3-5.5c0-.4.4-.4.6 0zm19.7 0l2.3 5.5 6 .5c.4 0 .6.6.3.8l-4.5 3.9 1.4 5.8c.1.4-.4.7-.7.5L430 108l-5.1 3.1c-.4.2-.8-.1-.7-.5l1.4-5.8-4.5-3.9c-.3-.3-.2-.7.3-.8l6-.5 2.3-5.5c-.1-.4.4-.4.6 0zm19.7 0l2.3 5.5 6 .5c.4 0 .6.6.3.8l-4.5 3.9 1.4 5.8c.1.4-.4.7-.7.5l-5.1-3.1-5.1 3.1c-.4.2-.8-.1-.7-.5l1.4-5.8-4.5-3.9c-.3-.3-.2-.7.3-.8l6-.5 2.3-5.5c-.1-.4.4-.4.6 0z"/><use xlink:href="#D" x="78.7"/></g><path d="M163.4 173.6h-1.6v-11.5h1.6v11.5zm4.8-8.1h1.1c.1 0 .2 0 .3.1l.2.2 1.6 5.2c0 .2.1.4.1.6s.1.4.1.5c0-.2.1-.4.1-.5s.1-.4.2-.6l1.7-5.2c0-.1.1-.1.1-.2.1-.1.2-.1.3-.1h.6c.1 0 .2 0 .3.1s.1.1.1.2l1.7 5.2c.1.2.1.4.2.6 0 .2.1.4.1.5 0-.2.1-.4.1-.6s.1-.4.1-.5l1.6-5.2c0-.1.1-.2.2-.2s.2-.1.3-.1h1.1l-2.6 8.1h-1.1c-.1 0-.2-.1-.3-.3l-1.8-5.5c0-.1-.1-.2-.1-.4 0-.1-.1-.2-.1-.4 0 .1-.1.2-.1.4 0 .1-.1.3-.1.4l-1.8 5.5c-.1.2-.2.3-.3.3H171l-2.8-8.1z"/><use xlink:href="#E"/><use xlink:href="#F"/><use xlink:href="#G"/><use xlink:href="#H"/><use xlink:href="#H" x="8.9"/><path d="M223.1 161.8v6.9h.7c.1 0 .1-.1.2-.2l2.6-2.7.2-.2s.2-.1.3-.1h1.3l-3 3.2c-.1.1-.1.2-.2.2-.1.1-.2.1-.2.2.1.1.2.1.3.2s.2.2.2.3l3.2 4h-1.3c-.1 0-.2 0-.3-.1-.1 0-.2-.1-.2-.2l-2.7-3.3-.2-.2c-.1 0-.2-.1-.4-.1h-.4v3.9h-1.4v-11.8h1.3z"/><use xlink:href="#I"/><use xlink:href="#J"/><use xlink:href="#K"/><path d="M254.5 173.6v-6.9l-.9-.1c-.1 0-.2-.1-.3-.1-.1-.1-.1-.1-.1-.2v-.6h1.3v-.8a3.73 3.73 0 0 1 .2-1.2c.1-.4.3-.7.6-.9s.5-.4.9-.6.7-.2 1.2-.2c.4 0 .7.1 1 .2v.7c0 .1-.1.2-.1.2h-.6c-.2 0-.5 0-.7.1s-.4.2-.5.3-.3.3-.3.6c-.1.2-.1.5-.1.9v.7h2.3v1H256v6.9h-1.5zm8.4-8.3c.6 0 1.1.1 1.6.3s.9.5 1.2.8c.3.4.6.8.8 1.3s.3 1.1.3 1.7-.1 1.2-.3 1.7-.4.9-.8 1.3c-.3.4-.7.6-1.2.8s-1 .3-1.6.3-1.1-.1-1.6-.3-.9-.5-1.2-.8c-.3-.4-.6-.8-.8-1.3s-.3-1.1-.3-1.7.1-1.2.3-1.7.4-1 .8-1.3c.3-.4.7-.6 1.2-.8s1-.3 1.6-.3zm0 7.3c.8 0 1.4-.3 1.8-.8s.6-1.3.6-2.2c0-1-.2-1.7-.6-2.3-.4-.5-1-.8-1.8-.8-.4 0-.8.1-1.1.2s-.5.3-.7.6-.3.6-.4 1-.1.8-.1 1.3 0 .9.1 1.3.2.7.4 1 .4.5.7.6c.3 0 .7.1 1.1.1z"/><use xlink:href="#L"/><use xlink:href="#M"/><use xlink:href="#L" x="20.7"/><path d="M298.9 165.3c.5 0 .9.1 1.3.2.4.2.8.4 1.1.7s.5.7.7 1.1.3 1 .3 1.5c0 .2 0 .4-.1.4s-.1.1-.3.1h-5.4a4.44 4.44 0 0 0 .2 1.3c.1.3.3.7.5.9.2.3.5.4.8.6.3.1.7.2 1 .2.4 0 .7 0 .9-.1.3-.1.5-.2.7-.3s.3-.2.5-.3c.1-.1.2-.1.3-.1s.2 0 .3.1l.4.5-.6.6c-.2.2-.5.3-.8.4s-.6.2-.9.2c-.3.1-.6.1-.9.1-.6 0-1.1-.1-1.5-.3-.5-.2-.9-.5-1.2-.8-.3-.4-.6-.8-.8-1.4s-.3-1.2-.3-1.9c0-.6.1-1.1.3-1.6s.4-.9.7-1.3.7-.6 1.2-.8c.5.1 1 0 1.6 0zm0 1.1c-.7 0-1.2.2-1.6.6s-.6.9-.7 1.7h4.4c0-.3 0-.6-.1-.9s-.2-.5-.4-.7-.4-.4-.6-.5-.6-.2-1-.2zm11.1 7.2h-.6c-.1 0-.3 0-.3-.1s-.1-.1-.2-.3l-.2-.8c-.2.2-.4.4-.6.5-.2.2-.4.3-.6.4s-.5.2-.7.2c-.3.1-.5.1-.8.1s-.6 0-.9-.1-.5-.2-.7-.4-.4-.4-.5-.7-.2-.6-.2-1c0-.3.1-.6.3-.9a2.36 2.36 0 0 1 .9-.8 11.64 11.64 0 0 1 1.5-.6c.6-.1 1.4-.2 2.3-.2v-.6c0-.6-.1-1.1-.4-1.4s-.7-.5-1.2-.5c-.3 0-.6 0-.9.1s-.4.2-.6.3a1.38 1.38 0 0 0-.4.3c-.1.1-.2.1-.4.1-.1 0-.2 0-.3-.1l-.2-.2-.3-.5c.4-.4.9-.8 1.4-1s1.1-.3 1.7-.3a3.73 3.73 0 0 1 1.2.2c.3.1.6.4.9.6.2.3.4.6.5 1s.2.8.2 1.2v5.5zm-3.7-.9c.3 0 .5 0 .7-.1s.4-.1.6-.2.4-.2.5-.3l.5-.5v-1.7c-.7 0-1.2 0-1.7.1a8.11 8.11 0 0 0-1.1.3c-.3.1-.5.3-.6.5s-.2.4-.2.6 0 .4.1.6a1.38 1.38 0 0 0 .3.4.76.76 0 0 0 .4.2.9.9 0 0 0 .5.1z"/><use xlink:href="#G" x="112.5"/><use xlink:href="#G" x="116.6"/><use xlink:href="#N"/><use xlink:href="#K" x="88.7"/><use xlink:href="#O"/><use xlink:href="#O" x="8.9"/><use xlink:href="#P"/><path d="M372.1 173.7c-.6 0-1.1-.2-1.5-.5-.3-.4-.5-.9-.5-1.5v-5h-1c-.1 0-.2 0-.2-.1s-.1-.1-.1-.2v-.6l1.3-.2.3-2.5c0-.1 0-.1.1-.2s.1-.1.2-.1h.7v2.8h2.3v1h-2.3v4.9c0 .3.1.6.2.8.2.2.4.2.6.2.1 0 .3 0 .4-.1s.2-.1.3-.1.1-.1.2-.1.1-.1.1-.1c.1 0 .1 0 .2.1l.4.7c-.2.2-.5.4-.9.5-.1.2-.4.3-.8.3zm6.7-8.4c.5 0 .9.1 1.3.2.4.2.8.4 1.1.7s.5.7.7 1.1.3 1 .3 1.5c0 .2 0 .4-.1.4s-.1.1-.3.1h-5.4a4.44 4.44 0 0 0 .2 1.3c.1.3.3.7.5.9.2.3.5.4.8.6.3.1.7.2 1 .2.4 0 .7 0 .9-.1.3-.1.5-.2.7-.3s.3-.2.5-.3c.1-.1.2-.1.3-.1s.2 0 .3.1l.4.5-.6.6c-.2.2-.5.3-.8.4s-.6.2-.9.2c-.3.1-.6.1-.9.1-.6 0-1.1-.1-1.5-.3-.5-.2-.9-.5-1.2-.8-.3-.4-.6-.8-.8-1.4s-.3-1.2-.3-1.9c0-.6.1-1.1.3-1.6s.4-.9.7-1.3.7-.6 1.2-.8c.5.1 1.1 0 1.6 0zm.1 1.1c-.7 0-1.2.2-1.6.6s-.6.9-.7 1.7h4.4c0-.3 0-.6-.1-.9s-.2-.5-.4-.7-.4-.4-.6-.5-.7-.2-1-.2z"/><use xlink:href="#Q"/><use xlink:href="#R"/><use xlink:href="#S"/><path d="M401 173.6v-8.1h.8c.2 0 .3.1.4.3l.1.8c.3-.4.6-.7 1-.9s.8-.4 1.3-.4 1 .2 1.3.5.6.7.7 1.2c.1-.3.3-.5.4-.8.2-.2.4-.4.6-.5s.5-.2.7-.3c.3-.1.5-.1.8-.1.4 0 .8.1 1.1.2s.6.3.8.6.4.6.5 1 .2.8.2 1.3v5.2h-1.4v-5.2c0-.6-.1-1.1-.4-1.4s-.7-.5-1.2-.5c-.2 0-.5 0-.7.1s-.4.2-.6.4-.3.4-.4.6-.1.5-.1.8v5.2h-1.4v-5.2c0-.7-.1-1.1-.4-1.5-.3-.3-.6-.5-1.1-.5a1.69 1.69 0 0 0-1 .3c-.3.2-.6.4-.8.8v6H401z"/><use xlink:href="#T"/><use xlink:href="#J" x="189"/><use xlink:href="#U"/><path d="M442 173.6h-.6c-.1 0-.3 0-.3-.1-.1 0-.1-.1-.2-.3l-.2-.8c-.2.2-.4.4-.6.5-.2.2-.4.3-.6.4s-.5.2-.7.2c-.3.1-.5.1-.8.1s-.6 0-.9-.1-.5-.2-.7-.4-.4-.4-.5-.7-.2-.6-.2-1c0-.3.1-.6.3-.9a2.36 2.36 0 0 1 .9-.8 11.64 11.64 0 0 1 1.5-.6c.6-.1 1.4-.2 2.3-.2v-.6c0-.6-.1-1.1-.4-1.4s-.7-.5-1.2-.5c-.3 0-.6 0-.9.1s-.4.2-.6.3a1.38 1.38 0 0 0-.4.3c-.1.1-.2.1-.4.1-.1 0-.2 0-.3-.1l-.2-.2-.3-.5c.4-.4.9-.8 1.4-1s1.1-.3 1.7-.3a3.73 3.73 0 0 1 1.2.2c.4.1.6.4.9.6.2.3.4.6.5 1s.2.8.2 1.2v5.5zm-3.7-.9c.3 0 .5 0 .7-.1s.4-.1.6-.2.4-.2.5-.3c.2-.1.3-.3.5-.5v-1.7c-.7 0-1.2 0-1.7.1s-.8.2-1.1.3-.5.3-.6.5-.2.4-.2.6 0 .4.1.6a1.38 1.38 0 0 0 .3.4.76.76 0 0 0 .4.2c.1.1.3.1.5.1z"/><use xlink:href="#G" x="244.4"/><path d="M451.3 176.3v-10.8h.8c.2 0 .3.1.4.3l.1 1c.3-.4.7-.8 1.2-1 .4-.3 1-.4 1.5-.4s.9.1 1.3.3.7.4 1 .8c.3.3.5.8.6 1.3s.2 1.1.2 1.8c0 .6-.1 1.2-.2 1.7a2.73 2.73 0 0 1-.7 1.3c-.3.3-.7.7-1.1.9s-.9.3-1.5.3c-.5 0-.9-.1-1.3-.2-.4-.2-.7-.4-.9-.7v3.6h-1.4zm3.6-9.8c-.5 0-.9.1-1.2.3s-.7.5-1 .9v3.9c.3.4.5.6.9.7.3.1.7.2 1 .2.8 0 1.3-.3 1.7-.8s.6-1.3.6-2.3c0-.5 0-1-.1-1.4s-.2-.7-.4-.9-.4-.4-.6-.5-.5-.1-.9-.1z"/><use xlink:href="#G" x="260.5"/><use xlink:href="#V"/><path d="M475.9 165.3c.4 0 .7 0 1 .1l.8.3h2.2v.5c0 .2-.1.3-.3.3l-.9.1c.2.3.3.7.3 1.2 0 .4-.1.8-.2 1.1-.2.3-.4.6-.6.8-.3.2-.6.4-1 .5s-.8.2-1.2.2-.7 0-1.1-.1a.78.78 0 0 0-.4.4c-.1.1-.1.3-.1.4 0 .2.1.3.2.5.2.1.4.2.6.2.3 0 .5.1.9.1h1c.3 0 .7 0 1 .1l.9.3a.9.9 0 0 1 .6.6c.1.3.2.5.2.9a1.69 1.69 0 0 1-.3 1c-.2.3-.4.6-.7.9s-.7.5-1.2.6c-.5.2-1 .2-1.6.2s-1.1-.1-1.6-.2c-.4-.1-.8-.3-1.1-.5s-.5-.4-.7-.7c-.1-.3-.2-.5-.2-.8 0-.4.1-.7.4-1s.6-.5 1-.7c-.2-.1-.4-.2-.5-.4s-.2-.4-.2-.7c0-.1 0-.2.1-.4 0-.1.1-.2.2-.4s.2-.2.3-.4.3-.2.4-.3a1.96 1.96 0 0 1-.9-.9c-.2-.4-.3-.8-.3-1.3 0-.4.1-.8.2-1.1.2-.3.4-.6.6-.8.3-.2.6-.4 1-.5.3 0 .7-.1 1.2-.1zm2.5 8.7c0-.2-.1-.4-.2-.5s-.3-.2-.5-.3-.4-.1-.7-.2-.5 0-.8 0h-.8c-.2 0-.6 0-.8-.1-.3.1-.6.3-.7.5a1.08 1.08 0 0 0-.3.7c0 .2 0 .4.1.5a.78.78 0 0 0 .4.4c.2.1.4.2.7.3s.6.1 1 .1.7 0 1-.1l.8-.3c.2-.1.4-.3.5-.5s.3-.3.3-.5zm-2.5-4.4c.3 0 .5 0 .8-.1l.6-.3a.55.55 0 0 0 .3-.5c.1-.2.1-.4.1-.7 0-.5-.2-.9-.5-1.2s-.7-.4-1.3-.4-1 .1-1.3.4-.5.7-.5 1.2c0 .2 0 .5.1.7s.2.4.3.5.3.3.6.3.5.1.8.1z"/><use xlink:href="#S" x="84.4"/><use xlink:href="#J" x="251.3"/><use xlink:href="#W"/><use xlink:href="#T" x="88.7"/><use xlink:href="#X"/><use xlink:href="#T" x="107.1"/><use xlink:href="#V" x="65.9"/><path d="M539 173.6v-8.1h.8c.2 0 .3 0 .3.1.1.1.1.2.1.3l.1 1.3c.3-.6.6-1 1-1.3s.9-.5 1.4-.5c.2 0 .4 0 .6.1s.3.1.5.2l-.2 1.1c0 .1-.1.2-.2.2s-.2 0-.3-.1c-.2-.1-.4-.1-.6-.1-.5 0-.9.1-1.2.4a3.22 3.22 0 0 0-.8 1.3v5.2H539zm9.6 0v-11.8h1.4v4.8a2.73 2.73 0 0 1 1.2-.9c.5-.2.9-.4 1.5-.4.5 0 .9.1 1.3.3s.7.4 1 .8c.3.3.5.8.6 1.3s.2 1.1.2 1.8c0 .6-.1 1.2-.2 1.7a2.73 2.73 0 0 1-.7 1.3c-.3.4-.7.7-1.1.9s-.9.3-1.5.3c-.5 0-1-.1-1.3-.3s-.7-.5-1-.8l-.1.7c0 .2-.2.3-.4.3h-.9zm3.6-7.1c-.5 0-.9.1-1.2.3s-.7.5-1 .9v3.9c.3.4.5.6.9.7s.7.2 1 .2c.8 0 1.3-.3 1.7-.8s.6-1.3.6-2.3c0-.5 0-1-.1-1.4s-.2-.7-.4-.9-.4-.4-.6-.5-.5-.1-.9-.1z"/><use xlink:href="#V" x="93.2"/><use xlink:href="#Q" x="182.4"/><use xlink:href="#U" x="141.4"/><use xlink:href="#J" x="343.4"/><path d="M589.6 165.3c.5 0 .9.1 1.3.2.4.2.8.4 1.1.7s.5.7.7 1.1.3 1 .3 1.5c0 .2 0 .4-.1.4s-.1.1-.3.1h-5.4a4.44 4.44 0 0 0 .2 1.3c.1.3.3.7.5.9.2.3.5.4.8.6.3.1.7.2 1 .2.4 0 .7 0 .9-.1.3-.1.5-.2.7-.3s.3-.2.5-.3c.1-.1.2-.1.3-.1s.2 0 .3.1l.4.5-.6.6c-.2.2-.5.3-.8.4s-.6.2-.9.2c-.3.1-.6.1-.9.1-.6 0-1.1-.1-1.5-.3-.5-.2-.9-.5-1.2-.8-.3-.4-.6-.8-.8-1.4-.2-.5-.3-1.2-.3-1.9 0-.6.1-1.1.3-1.6s.4-.9.7-1.3.7-.6 1.2-.8c.4.1 1 0 1.6 0zm0 1.1c-.7 0-1.2.2-1.6.6s-.6.9-.7 1.7h4.4c0-.3 0-.6-.1-.9s-.2-.5-.4-.7-.4-.4-.6-.5c-.4-.2-.7-.2-1-.2z"/><use xlink:href="#Y"/><use xlink:href="#Y" x="6.9"/><use xlink:href="#Z"/><path d="M627.2 165.3c.5 0 .9.1 1.3.2.4.2.8.4 1.1.7s.5.7.7 1.1.3 1 .3 1.5c0 .2 0 .4-.1.4s-.1.1-.3.1h-5.4a4.44 4.44 0 0 0 .2 1.3c.1.3.3.7.5.9.2.3.5.4.8.6.3.1.7.2 1 .2.4 0 .7 0 .9-.1.3-.1.5-.2.7-.3s.3-.2.5-.3c.1-.1.2-.1.3-.1s.2 0 .3.1l.4.5-.6.6c-.2.2-.5.3-.8.4s-.6.2-.9.2c-.3.1-.6.1-.9.1-.6 0-1.1-.1-1.5-.3-.5-.2-.9-.5-1.2-.8-.3-.4-.6-.8-.8-1.4-.2-.5-.3-1.2-.3-1.9 0-.6.1-1.1.3-1.6s.4-.9.7-1.3.7-.6 1.2-.8c.5.1 1 0 1.6 0zm0 1.1c-.7 0-1.2.2-1.6.6s-.6.9-.7 1.7h4.4c0-.3 0-.6-.1-.9s-.2-.5-.4-.7-.4-.4-.6-.5c-.4-.2-.7-.2-1-.2zm5.2 7.2v-11.8h1.4v4.8a2.73 2.73 0 0 1 1.2-.9c.5-.2.9-.4 1.5-.4.5 0 .9.1 1.3.3s.7.4 1 .8c.3.3.5.8.6 1.3s.2 1.1.2 1.8c0 .6-.1 1.2-.2 1.7a2.73 2.73 0 0 1-.7 1.3c-.3.4-.7.7-1.1.9s-.9.3-1.5.3c-.5 0-1-.1-1.3-.3s-.7-.5-1-.8l-.1.7c0 .2-.2.3-.4.3h-.9zm3.6-7.1c-.5 0-.9.1-1.2.3s-.7.5-1 .9v3.9c.3.4.5.6.9.7s.7.2 1 .2c.8 0 1.3-.3 1.7-.8s.6-1.3.6-2.3c0-.5 0-1-.1-1.4s-.2-.7-.4-.9-.4-.4-.6-.5c-.3-.1-.6-.1-.9-.1z"/><use xlink:href="#Y" x="46.5"/><use xlink:href="#S" x="251.3"/><use xlink:href="#R" x="261.4"/><path d="M661.5 165.3c.5 0 .9.1 1.3.2.4.2.8.4 1.1.7s.5.7.7 1.1.3 1 .3 1.5c0 .2 0 .4-.1.4s-.1.1-.3.1h-5.4a4.44 4.44 0 0 0 .2 1.3c.1.3.3.7.5.9.2.3.5.4.8.6.3.1.7.2 1 .2.4 0 .7 0 .9-.1.3-.1.5-.2.7-.3s.3-.2.5-.3c.1-.1.2-.1.3-.1s.2 0 .3.1l.4.5-.6.6c-.2.2-.5.3-.8.4s-.6.2-.9.2c-.3.1-.6.1-.9.1-.6 0-1.1-.1-1.5-.3-.5-.2-.9-.5-1.2-.8-.3-.4-.6-.8-.8-1.4-.2-.5-.3-1.2-.3-1.9 0-.6.1-1.1.3-1.6s.4-.9.7-1.3.7-.6 1.2-.8c.5.1 1 0 1.6 0zm0 1.1c-.7 0-1.2.2-1.6.6s-.6.9-.7 1.7h4.4c0-.3 0-.6-.1-.9s-.2-.5-.4-.7-.4-.4-.6-.5c-.3-.2-.6-.2-1-.2zm14.2 7.2h-.6c-.1 0-.3 0-.3-.1-.1 0-.1-.1-.2-.3l-.2-.8c-.2.2-.4.4-.6.5-.2.2-.4.3-.6.4s-.5.2-.7.2c-.3.1-.5.1-.8.1s-.6 0-.9-.1-.5-.2-.7-.4-.4-.4-.5-.7-.2-.6-.2-1c0-.3.1-.6.3-.9a2.36 2.36 0 0 1 .9-.8 11.64 11.64 0 0 1 1.5-.6c.6-.1 1.4-.2 2.3-.2v-.6c0-.6-.1-1.1-.4-1.4s-.7-.5-1.2-.5c-.3 0-.6 0-.9.1s-.4.2-.6.3-.3.2-.4.3-.2.1-.4.1c-.1 0-.2 0-.3-.1l-.2-.2-.3-.5c.4-.4.9-.8 1.4-1s1.1-.3 1.7-.3a3.73 3.73 0 0 1 1.2.2c.4.1.6.4.9.6.2.3.4.6.5 1s.2.8.2 1.2v5.5zm-3.7-.9c.3 0 .5 0 .7-.1s.4-.1.6-.2.4-.2.5-.3c.2-.1.3-.3.5-.5v-1.7c-.7 0-1.2 0-1.7.1s-.8.2-1.1.3-.5.3-.6.5-.2.4-.2.6 0 .4.1.6.2.3.3.4a.76.76 0 0 0 .4.2.9.9 0 0 0 .5.1z"/><use xlink:href="#J" x="443.8"/><use xlink:href="#a"/><path d="M160.2 186.5h1.1c.1 0 .2 0 .3.1l.2.2 1.6 5.2c0 .2.1.4.1.6s.1.4.1.5c0-.2.1-.4.1-.5s.1-.4.2-.6l1.7-5.2c0-.1.1-.1.1-.2.1-.1.2-.1.3-.1h.6c.1 0 .2 0 .3.1s.1.1.1.2l1.7 5.2c.1.2.1.4.2.6 0 .2.1.4.1.5 0-.2.1-.4.1-.6s.1-.4.1-.5l1.6-5.2c0-.1.1-.2.2-.2s.2-.1.3-.1h1.1l-2.6 8.1h-1.1c-.1 0-.2-.1-.3-.3l-1.8-5.5c0-.1-.1-.2-.1-.4 0-.1-.1-.2-.1-.4 0 .1-.1.2-.1.4 0 .1-.1.3-.1.4l-1.8 5.5c-.1.2-.2.3-.3.3H163l-2.8-8.1z"/><use xlink:href="#E" x="-8" y="21"/><use xlink:href="#F" x="-8" y="21"/><path d="M191.7 194.6v-8.1h.8c.2 0 .3.1.4.3l.1.9c.4-.4.7-.7 1.2-.9.4-.2.9-.4 1.5-.4.4 0 .8.1 1.2.2.3.1.6.4.8.6.2.3.4.6.5 1s.2.8.2 1.3v5.2H197v-5.2c0-.6-.1-1.1-.4-1.4s-.7-.5-1.3-.5c-.4 0-.8.1-1.2.3s-.7.5-1 .8v6h-1.4z"/><use xlink:href="#H" x="-3.2" y="21"/><path d="M211.9 194.7c-.6 0-1.1-.2-1.5-.5-.3-.4-.5-.9-.5-1.5v-5h-1c-.1 0-.2 0-.2-.1s-.1-.1-.1-.2v-.6l1.3-.2.3-2.5c0-.1 0-.1.1-.2s.1-.1.2-.1h.7v2.8h2.3v1h-2.3v4.9c0 .3.1.6.2.8.2.2.4.2.6.2.1 0 .3 0 .4-.1s.2-.1.3-.1.1-.1.2-.1.1-.1.1-.1c.1 0 .1 0 .2.1l.4.7c-.2.2-.5.4-.9.5 0 .2-.4.3-.8.3zm6.6-.1v-11.8h1.4v4.8a2.73 2.73 0 0 1 1.2-.9c.4-.2.9-.3 1.5-.3.4 0 .8.1 1.2.2.3.1.6.4.8.6.2.3.4.6.5 1s.2.8.2 1.3v5.2h-1.4v-5.2c0-.6-.1-1.1-.4-1.4s-.7-.5-1.3-.5c-.4 0-.8.1-1.2.3s-.7.5-1 .8v6h-1.5z"/><use xlink:href="#M" x="-50.6" y="21"/><use xlink:href="#b"/><use xlink:href="#c"/><use xlink:href="#J" x="13.5" y="21"/><path d="M259.2 186.3c.4 0 .7 0 1 .1l.8.3h2.2v.5c0 .2-.1.3-.3.3l-.9.1c.2.3.3.7.3 1.2 0 .4-.1.8-.2 1.1-.2.3-.4.6-.6.8-.3.2-.6.4-1 .5s-.8.2-1.2.2-.7 0-1.1-.1a.78.78 0 0 0-.4.4c-.1.2-.1.3-.1.4 0 .2.1.3.2.5.2.1.4.2.6.2.3 0 .5.1.9.1h1c.3 0 .7 0 1 .1l.9.3a.9.9 0 0 1 .6.6c.1.3.2.5.2.9a1.69 1.69 0 0 1-.3 1c-.2.3-.4.6-.7.9s-.7.5-1.2.6c-.5.2-1 .2-1.6.2s-1.1-.1-1.6-.2c-.4-.1-.8-.3-1.1-.5s-.5-.4-.7-.7c-.1-.3-.2-.5-.2-.8 0-.4.1-.7.4-1s.6-.5 1-.7c-.2-.1-.4-.2-.5-.4s-.2-.4-.2-.7c0-.1 0-.2.1-.4 0-.1.1-.2.2-.4s.2-.2.3-.4c.1-.1.3-.2.4-.3a1.96 1.96 0 0 1-.9-.9c-.2-.4-.3-.8-.3-1.3 0-.4.1-.8.2-1.1.2-.3.4-.6.6-.8.3-.2.6-.4 1-.5.4 0 .8-.1 1.2-.1zm2.5 8.7c0-.2-.1-.4-.2-.5s-.3-.2-.5-.3-.4-.1-.7-.2h-1.6c-.2 0-.6 0-.8-.1-.3.1-.6.3-.7.5a1.08 1.08 0 0 0-.3.7c0 .2 0 .4.1.5s.2.3.4.4.4.2.7.3.6.1 1 .1.7 0 1-.1l.8-.3c.2-.1.4-.3.5-.5.3-.1.3-.3.3-.5zm-2.5-4.4c.3 0 .5 0 .8-.1l.6-.3a.55.55 0 0 0 .3-.5c.1-.2.1-.4.1-.7 0-.5-.2-.9-.5-1.2s-.7-.4-1.3-.4-1 .1-1.3.4-.5.7-.5 1.2c0 .2 0 .5.1.7s.2.4.3.5.3.3.6.3.5.1.8.1zm14.5 4h-.6c-.1 0-.3 0-.3-.1s-.1-.1-.2-.3l-.2-.8c-.2.2-.4.4-.6.5-.2.2-.4.3-.6.4s-.5.2-.7.2c-.3.1-.5.1-.8.1s-.6 0-.9-.1-.5-.2-.7-.4-.4-.4-.5-.7-.2-.6-.2-1c0-.3.1-.6.3-.9a2.36 2.36 0 0 1 .9-.8 11.64 11.64 0 0 1 1.5-.6c.6-.1 1.4-.2 2.3-.2v-.6c0-.6-.1-1.1-.4-1.4s-.7-.5-1.2-.5c-.3 0-.6 0-.9.1s-.4.2-.6.3a1.38 1.38 0 0 0-.4.3c-.1.1-.2.1-.4.1-.1 0-.2 0-.3-.1l-.2-.2-.3-.5c.4-.4.9-.8 1.4-1s1.1-.3 1.7-.3a3.73 3.73 0 0 1 1.2.2c.3.1.6.4.9.6.2.3.4.6.5 1s.2.8.2 1.2v5.5zm-3.7-.9c.3 0 .5 0 .7-.1s.4-.1.6-.2.4-.2.5-.3l.5-.5v-1.7c-.7 0-1.2 0-1.7.1s-.8.2-1.1.3-.5.3-.6.5-.2.4-.2.6 0 .4.1.6a1.38 1.38 0 0 0 .3.4.76.76 0 0 0 .4.2c.1.1.3.1.5.1z"/><use xlink:href="#J" x="41.8" y="21"/><use xlink:href="#N" x="-35.9" y="21"/><path d="M297.4 182.8v11.8H296v-11.8h1.4z"/><use xlink:href="#d"/><path d="M314.3 187.9c0 .1-.1.1-.1.1h-.2c-.1 0-.2 0-.3-.1s-.2-.1-.4-.2c-.1-.1-.3-.2-.5-.2-.2-.1-.5-.1-.8-.1-.4 0-.7.1-1 .2s-.6.3-.8.6-.4.6-.5 1-.2.8-.2 1.3.1.9.2 1.3.3.7.5 1 .4.5.7.6.6.2 1 .2c.3 0 .6 0 .9-.1l.6-.3c.1-.1.3-.2.4-.3s.2-.1.3-.1.2 0 .3.1l.4.5c-.4.4-.8.7-1.3.9s-1.1.3-1.7.3c-.5 0-1-.1-1.4-.3a4.44 4.44 0 0 1-1.1-.8c-.3-.3-.6-.8-.8-1.3s-.3-1.1-.3-1.8c0-.6.1-1.2.3-1.7s.4-1 .7-1.3a2.73 2.73 0 0 1 1.2-.9c.5-.2 1-.3 1.6-.3s1.1.1 1.5.3.8.4 1.2.8l-.4.6zm3.4-5.1v6.9h.7c.1 0 .1-.1.2-.2l2.6-2.7.2-.2s.2-.1.3-.1h1.3l-3 3.2c-.1.1-.1.2-.2.2-.1.1-.2.1-.2.2.1.1.2.1.3.2s.2.2.2.3l3.2 4H322c-.1 0-.2 0-.3-.1-.1 0-.2-.1-.2-.2l-2.7-3.3-.2-.2c-.1 0-.2-.1-.4-.1h-.4v3.9h-1.4v-11.8h1.3zm10.3 11.8v-6.9l-.9-.1c-.1 0-.2-.1-.3-.1-.1-.1-.1-.1-.1-.2v-.6h1.3v-.4c0-.5.1-1 .2-1.4.2-.4.4-.8.7-1.1s.7-.5 1.2-.7 1-.2 1.6-.2h.6c.2 0 .4.1.5.1v.7c0 .1 0 .1-.1.1h-.6c-.9 0-1.6.2-2.1.6-.4.4-.6 1-.6 1.8v.4h4.9v7.9h-1.4v-6.9h-3.4v6.9H328z"/><use xlink:href="#J" x="102.7" y="21"/><use xlink:href="#P" x="-11.9" y="21"/><use xlink:href="#I" x="124.7" y="21"/><use xlink:href="#J" x="124.7" y="21"/><use xlink:href="#K" x="124.7" y="21"/><use xlink:href="#O" x="39.1" y="21"/><use xlink:href="#J" x="153.7" y="21"/><use xlink:href="#e"/><path d="M410.3 194.6h-1.6v-11.5h1.6v11.5z"/><use xlink:href="#G" x="216.5" y="21"/><use xlink:href="#S" x="23.4" y="21"/><path d="M425.9 182.8v6.9h.7c.1 0 .1-.1.2-.2l2.6-2.7.2-.2c.1-.1.2-.1.3-.1h1.3l-3 3.2c-.1.1-.1.2-.2.2-.1.1-.2.1-.2.2.1.1.2.1.3.2s.2.2.2.3l3.2 4h-1.3c-.1 0-.2 0-.3-.1s-.2-.1-.2-.2L427 191l-.2-.2s-.2-.1-.4-.1h-.4v3.9h-1.4v-11.8h1.3z"/><use xlink:href="#f"/><use xlink:href="#a" x="-246.1" y="21"/><use xlink:href="#T" x="38.6" y="21"/><use xlink:href="#X" x="-50.1" y="21"/><use xlink:href="#W" x="-26.2" y="21"/><use xlink:href="#V" x="12.3" y="21"/><path d="M487 182.8v11.8h-1.4v-11.8h1.4zm2.8 11.8v-6.9l-.9-.1c-.1 0-.2-.1-.3-.1-.1-.1-.1-.1-.1-.2v-.6h1.3v-.4c0-.5.1-1 .2-1.4.2-.4.4-.8.7-1.1s.7-.5 1.2-.7 1-.2 1.6-.2h.6c.2 0 .4.1.5.1v.7c0 .1 0 .1-.1.1h-.6c-.9 0-1.6.2-2.1.6-.4.4-.6 1-.6 1.8v.4h4.9v7.9h-1.4v-6.9h-3.4v6.9h-1.5z"/><use xlink:href="#G" x="298.9" y="21"/><use xlink:href="#G" x="303" y="21"/><path d="M510 186.3c.5 0 .9.1 1.3.2.4.2.8.4 1.1.7s.5.7.7 1.1.3 1 .3 1.5c0 .2 0 .4-.1.4s-.1.1-.3.1h-5.4a4.44 4.44 0 0 0 .2 1.3c.1.3.3.7.5.9.2.3.5.4.8.6.3.1.7.2 1 .2.4 0 .7 0 .9-.1.3-.1.5-.2.7-.3s.3-.2.5-.3c.1-.1.2-.1.3-.1s.2 0 .3.1l.4.5-.6.6c-.2.2-.5.3-.8.4s-.6.2-.9.2c-.3.1-.6.1-.9.1-.6 0-1.1-.1-1.5-.3-.5-.2-.9-.5-1.2-.8-.3-.4-.6-.8-.8-1.4-.2-.5-.3-1.2-.3-1.9 0-.6.1-1.1.3-1.6s.4-.9.7-1.3.7-.6 1.2-.8c.5.1 1.1 0 1.6 0zm.1 1.1c-.7 0-1.2.2-1.6.6s-.6.9-.7 1.7h4.4c0-.3 0-.6-.1-.9s-.2-.5-.4-.7-.4-.4-.6-.5c-.4-.2-.7-.2-1-.2zm10.8 7.2c-.2 0-.3-.1-.4-.3l-.1-1c-.3.4-.7.8-1.2 1s-1 .4-1.5.4-.9-.1-1.3-.3-.7-.4-1-.8-.5-.8-.6-1.3-.2-1.1-.2-1.8c0-.6.1-1.2.2-1.7.2-.5.4-1 .7-1.3.3-.4.7-.7 1.1-.9s.9-.3 1.5-.3c.5 0 .9.1 1.3.3s.7.4.9.7v-4.5h1.4v11.8h-.8zm-2.7-1.1c.5 0 .9-.1 1.2-.3s.7-.5 1-.9v-3.9c-.3-.4-.5-.6-.9-.7-.3-.1-.7-.2-1-.2-.8 0-1.3.3-1.7.8s-.6 1.3-.6 2.3c0 .5 0 1 .1 1.4s.2.7.4.9.4.4.6.5.5.1.9.1z"/><use xlink:href="#T" x="113.1" y="21"/><use xlink:href="#V" x="71.9" y="21"/><path d="M545 194.6v-8.1h.8c.2 0 .3 0 .3.1.1.1.1.2.1.3l.1 1.3c.3-.6.6-1 1-1.3s.9-.5 1.4-.5c.2 0 .4 0 .6.1s.3.1.5.2l-.2 1.1c0 .1-.1.2-.2.2s-.2 0-.3-.1c-.2-.1-.4-.1-.6-.1-.5 0-.9.1-1.2.4a3.22 3.22 0 0 0-.8 1.3v5.2H545z"/><use xlink:href="#X" x="42.9" y="21"/><use xlink:href="#e" x="164.3"/><path d="M576 186.5v10.8h-1.4v-3.9c-.3.4-.7.7-1.2 1-.4.2-.9.4-1.5.4-.5 0-.9-.1-1.3-.3s-.7-.4-1-.8-.5-.8-.6-1.3-.2-1.1-.2-1.8c0-.6.1-1.2.2-1.7.2-.5.4-1 .7-1.3.3-.4.7-.7 1.1-.9s.9-.3 1.5-.3c.5 0 1 .1 1.3.3.4.2.7.5 1 .8l.1-.6c.1-.2.2-.3.4-.3h.9zm-3.6 7c.5 0 .9-.1 1.2-.3s.7-.5 1-.9v-3.9c-.3-.3-.5-.6-.9-.7-.3-.1-.7-.2-1-.2-.8 0-1.3.3-1.7.8s-.6 1.3-.6 2.3c0 .5 0 1 .1 1.4s.2.7.4.9.4.4.6.5.5.1.9.1z"/><use xlink:href="#V" x="114.1" y="21"/><use xlink:href="#U" x="155.3" y="21"/><use xlink:href="#X" x="79.6" y="21"/><use xlink:href="#f" x="165.5"/><path d="M606.2 194.6v-8.1h.8c.2 0 .3.1.4.3l.1.8c.3-.4.6-.7 1-.9s.8-.4 1.3-.4 1 .2 1.3.5.6.7.7 1.2c.1-.3.3-.5.4-.8.2-.2.4-.4.6-.5s.5-.2.7-.3c.3-.1.5-.1.8-.1.4 0 .8.1 1.1.2s.6.3.8.6.4.6.5 1 .2.8.2 1.3v5.2h-1.4v-5.2c0-.6-.1-1.1-.4-1.4s-.7-.5-1.2-.5c-.2 0-.5 0-.7.1s-.4.2-.6.4-.3.4-.4.6-.1.5-.1.8v5.2h-1.4v-5.2c0-.7-.1-1.1-.4-1.5-.3-.3-.6-.5-1.1-.5a1.69 1.69 0 0 0-1 .3c-.3.2-.6.4-.8.8v6h-1.2z"/><use xlink:href="#e" x="222.6"/><path d="M627.7 194.6v-8.1h.8c.2 0 .3.1.4.3l.1.9c.4-.4.7-.7 1.2-.9.4-.2.9-.4 1.5-.4.4 0 .8.1 1.2.2.3.1.6.4.8.6.2.3.4.6.5 1s.2.8.2 1.3v5.2H633v-5.2c0-.6-.1-1.1-.4-1.4s-.7-.5-1.3-.5c-.4 0-.8.1-1.2.3s-.7.5-1 .8v6h-1.4zm11.3.1c-.6 0-1.1-.2-1.5-.5-.3-.4-.5-.9-.5-1.5v-5h-1c-.1 0-.2 0-.2-.1-.1-.1-.1-.1-.1-.2v-.6l1.3-.2.3-2.5c0-.1 0-.1.1-.2s.1-.1.2-.1h.7v2.8h2.3v1h-2.3v4.9c0 .3.1.6.2.8.2.2.4.2.6.2.1 0 .3 0 .4-.1s.2-.1.3-.1.1-.1.2-.1.1-.1.1-.1c.1 0 .1 0 .2.1l.4.7c-.2.2-.5.4-.9.5 0 .2-.4.3-.8.3z"/><use xlink:href="#Y" x="47.8" y="21"/><path d="M649 193.7c0-.1 0-.3.1-.4s.1-.2.2-.3.2-.2.3-.2c.1-.1.3-.1.4-.1s.3 0 .4.1.2.1.3.2.2.2.2.3.1.3.1.4 0 .3-.1.4-.1.2-.2.3-.2.2-.3.2-.3.1-.4.1-.3 0-.4-.1-.2-.1-.3-.2-.2-.2-.2-.3-.1-.3-.1-.4zm9 .9h-1.6v-11.5h1.6v11.5z"/><use xlink:href="#Z" x="52.2" y="21"/><path d="M682.2 194.6h-.6c-.1 0-.3 0-.3-.1-.1 0-.1-.1-.2-.3l-.2-.8c-.2.2-.4.4-.6.5-.2.2-.4.3-.6.4s-.5.2-.7.2c-.3.1-.5.1-.8.1s-.6 0-.9-.1-.5-.2-.7-.4-.4-.4-.5-.7-.2-.6-.2-1c0-.3.1-.6.3-.9a2.36 2.36 0 0 1 .9-.8 11.64 11.64 0 0 1 1.5-.6c.6-.1 1.4-.2 2.3-.2v-.6c0-.6-.1-1.1-.4-1.4s-.7-.5-1.2-.5c-.3 0-.6 0-.9.1s-.4.2-.6.3-.3.2-.4.3-.2.1-.4.1c-.1 0-.2 0-.3-.1l-.2-.2-.3-.5c.4-.4.9-.8 1.4-1s1.1-.3 1.7-.3a3.73 3.73 0 0 1 1.2.2c.4.1.6.4.9.6.2.3.4.6.5 1s.2.8.2 1.2v5.5zm-3.7-.9c.3 0 .5 0 .7-.1s.4-.1.6-.2.4-.2.5-.3c.2-.1.3-.3.5-.5v-1.7c-.7 0-1.2 0-1.7.1s-.8.2-1.1.3-.5.3-.6.5-.2.4-.2.6 0 .4.1.6.2.3.3.4a.76.76 0 0 0 .4.2c.1.1.3.1.5.1z"/><use xlink:href="#Y" x="89.6" y="21"/><path d="M167.3 215.6h-.6c-.1 0-.3 0-.3-.1-.1 0-.1-.1-.2-.3l-.2-.8c-.2.2-.4.4-.6.5-.2.2-.4.3-.6.4s-.5.2-.7.2c-.3.1-.5.1-.8.1s-.6 0-.9-.1-.5-.2-.7-.4-.4-.4-.5-.7-.2-.6-.2-1c0-.3.1-.6.3-.9a2.36 2.36 0 0 1 .9-.8 11.64 11.64 0 0 1 1.5-.6c.6-.1 1.4-.2 2.3-.2v-.6c0-.6-.1-1.1-.4-1.4s-.7-.5-1.2-.5c-.3 0-.6 0-.9.1s-.4.2-.6.3a1.38 1.38 0 0 0-.4.3c-.1.1-.2.1-.4.1-.1 0-.2 0-.3-.1l-.2-.2-.3-.5c.4-.4.9-.8 1.4-1s1.1-.3 1.7-.3a3.73 3.73 0 0 1 1.2.2c.3.1.6.4.9.6.2.3.4.6.5 1s.2.8.2 1.2v5.5zm-3.7-.9c.3 0 .5 0 .7-.1.2 0 .4-.1.6-.2s.4-.2.5-.3c.2-.1.3-.3.5-.5v-1.7c-.7 0-1.2 0-1.7.1a8.11 8.11 0 0 0-1.1.3c-.3.1-.5.3-.6.5s-.2.4-.2.6 0 .4.1.6a1.38 1.38 0 0 0 .3.4.76.76 0 0 0 .4.2c.1.1.3.1.5.1zm5.9.9v-11.8h1.4v4.8a2.73 2.73 0 0 1 1.2-.9c.4-.2.9-.4 1.5-.4.5 0 .9.1 1.3.3s.7.4 1 .8c.3.3.5.8.6 1.3s.2 1.1.2 1.8c0 .6-.1 1.2-.2 1.7a2.73 2.73 0 0 1-.7 1.3c-.3.3-.7.7-1.1.9s-.9.3-1.5.3c-.5 0-1-.1-1.3-.3-.4-.2-.7-.5-1-.8l-.1.7c0 .2-.2.3-.4.3h-.9zm3.6-7.1c-.5 0-.9.1-1.2.3s-.7.5-1 .9v3.9c.3.4.5.6.9.7.3.1.7.2 1 .2.8 0 1.3-.3 1.7-.8s.6-1.3.6-2.3c0-.5 0-1-.1-1.4s-.2-.7-.4-.9-.4-.4-.6-.5-.6-.1-.9-.1zm8.5-1.2c.6 0 1.1.1 1.6.3s.9.5 1.2.8c.3.4.6.8.8 1.3s.3 1.1.3 1.7-.1 1.2-.3 1.7-.4 1-.8 1.3c-.3.4-.7.6-1.2.8s-1 .3-1.6.3-1.1-.1-1.6-.3-.9-.5-1.2-.8-.6-.8-.8-1.3-.3-1.1-.3-1.7.1-1.2.3-1.7.4-1 .8-1.3.7-.6 1.2-.8 1-.3 1.6-.3zm0 7.3c.8 0 1.4-.3 1.8-.8s.6-1.3.6-2.2c0-1-.2-1.7-.6-2.3-.4-.5-1-.8-1.8-.8-.4 0-.8.1-1.1.2s-.5.3-.7.6-.3.6-.4 1-.1.8-.1 1.3 0 .9.1 1.3.2.7.4 1 .4.5.7.6c.4 0 .7.1 1.1.1z"/><use xlink:href="#d" x="-112.6" y="21"/><path d="M198.6 215.7c-.6 0-1.1-.2-1.5-.5-.3-.4-.5-.9-.5-1.5v-5h-1c-.1 0-.2 0-.2-.1s-.1-.1-.1-.2v-.6l1.3-.2.3-2.5c0-.1 0-.1.1-.2.1 0 .1-.1.2-.1h.7v2.8h2.3v1H198v4.9c0 .3.1.6.2.8.2.2.4.2.6.2.1 0 .3 0 .4-.1s.2-.1.3-.1.1-.1.2-.1.1-.1.1-.1c.1 0 .1 0 .2.1l.4.7c-.2.2-.5.4-.9.5-.2.2-.5.3-.9.3zm9.1 0c-.6 0-1.1-.2-1.5-.5-.3-.4-.5-.9-.5-1.5v-5h-1c-.1 0-.2 0-.2-.1s-.1-.1-.1-.2v-.6l1.3-.2.3-2.5c0-.1 0-.1.1-.2.1 0 .1-.1.2-.1h.7v2.8h2.3v1H207v4.9c0 .3.1.6.2.8.2.2.4.2.6.2.1 0 .3 0 .4-.1s.2-.1.3-.1.1-.1.2-.1.1-.1.1-.1c.1 0 .1 0 .2.1l.4.7c-.2.2-.5.4-.9.5-.1.2-.5.3-.8.3zm6.8-8.4c.6 0 1.1.1 1.6.3s.9.5 1.2.8c.3.4.6.8.8 1.3s.3 1.1.3 1.7-.1 1.2-.3 1.7-.4 1-.8 1.3c-.3.4-.7.6-1.2.8s-1 .3-1.6.3-1.1-.1-1.6-.3-.9-.5-1.2-.8-.6-.8-.8-1.3-.3-1.1-.3-1.7.1-1.2.3-1.7.4-1 .8-1.3.7-.6 1.2-.8c.4-.2 1-.3 1.6-.3zm0 7.3c.8 0 1.4-.3 1.8-.8s.6-1.3.6-2.2c0-1-.2-1.7-.6-2.3-.4-.5-1-.8-1.8-.8-.4 0-.8.1-1.1.2s-.5.3-.7.6-.3.6-.4 1-.1.8-.1 1.3 0 .9.1 1.3.2.7.4 1 .4.5.7.6c.3 0 .6.1 1.1.1zm11.4-7.3c.4 0 .7 0 1 .1l.8.3h2.2v.5c0 .2-.1.3-.3.3l-.9.1c.2.3.3.7.3 1.2 0 .4-.1.8-.2 1.1s-.4.6-.6.8c-.3.2-.6.4-1 .5s-.8.2-1.2.2-.7 0-1.1-.1a.78.78 0 0 0-.4.4c-.1.2-.1.3-.1.4 0 .2.1.3.2.5.2.1.4.2.6.2.3 0 .5.1.9.1h1c.3 0 .7 0 1 .1l.9.3a.9.9 0 0 1 .6.6c.1.3.2.5.2.9a1.69 1.69 0 0 1-.3 1c-.2.3-.4.6-.7.9s-.7.5-1.2.6c-.5.2-1 .2-1.6.2s-1.1-.1-1.6-.2c-.4-.1-.8-.3-1.1-.5s-.5-.4-.7-.7c-.1-.3-.2-.5-.2-.8 0-.4.1-.7.4-1s.6-.5 1-.7c-.2-.1-.4-.2-.5-.4s-.2-.4-.2-.7c0-.1 0-.2.1-.4 0-.1.1-.2.2-.4.1-.1.2-.2.3-.4.1-.1.3-.2.4-.3a1.96 1.96 0 0 1-.9-.9c-.2-.4-.3-.8-.3-1.3 0-.4.1-.8.2-1.1.2-.3.4-.6.6-.8.3-.2.6-.4 1-.5s.7-.1 1.2-.1zm2.5 8.7c0-.2-.1-.4-.2-.5s-.3-.2-.5-.3-.4-.1-.7-.2h-1.6c-.2 0-.6 0-.8-.1-.3.1-.6.3-.7.5a1.08 1.08 0 0 0-.3.7c0 .2 0 .4.1.5a.78.78 0 0 0 .4.4c.2.1.4.2.7.3s.6.1 1 .1.7 0 1-.1l.8-.3c.2-.1.4-.3.5-.5.3-.1.3-.3.3-.5zm-2.5-4.4c.3 0 .5 0 .8-.1l.6-.3c.1-.1.3-.3.3-.5s.1-.4.1-.7c0-.5-.2-.9-.5-1.2s-.7-.4-1.3-.4-1 .1-1.3.4-.5.7-.5 1.2c0 .2 0 .5.1.7s.2.4.3.5.3.3.6.3.5.1.8.1z"/><use xlink:href="#g"/><use xlink:href="#b" x="0.1" y="21"/><use xlink:href="#h"/><use xlink:href="#d" x="-45" y="21"/><path d="M263.8 218.3v-10.8h.8c.2 0 .3.1.4.3l.1 1c.3-.4.7-.8 1.2-1 .4-.3 1-.4 1.5-.4s.9.1 1.3.3.7.4 1 .8c.3.3.5.8.6 1.3s.2 1.1.2 1.8c0 .6-.1 1.2-.2 1.7-.2.5-.4 1-.7 1.3-.3.4-.7.7-1.1.9s-.9.3-1.5.3c-.5 0-.9-.1-1.3-.2-.4-.2-.7-.4-.9-.7v3.6h-1.4zm3.6-9.8c-.5 0-.9.1-1.2.3s-.7.5-1 .9v3.9c.3.4.5.6.9.7.3.1.7.2 1 .2.8 0 1.3-.3 1.7-.8s.6-1.3.6-2.3c0-.5 0-1-.1-1.4s-.2-.7-.4-.9-.4-.4-.6-.5-.6-.1-.9-.1zm14.2 7.1h-.6c-.1 0-.3 0-.3-.1-.1 0-.1-.1-.2-.3l-.2-.8c-.2.2-.4.4-.6.5-.2.2-.4.3-.6.4s-.5.2-.7.2c-.3.1-.5.1-.8.1s-.6 0-.9-.1-.5-.2-.7-.4-.4-.4-.5-.7-.2-.6-.2-1c0-.3.1-.6.3-.9a2.36 2.36 0 0 1 .9-.8 11.64 11.64 0 0 1 1.5-.6c.6-.1 1.4-.2 2.3-.2v-.6c0-.6-.1-1.1-.4-1.4s-.7-.5-1.2-.5c-.3 0-.6 0-.9.1s-.4.2-.6.3a1.38 1.38 0 0 0-.4.3c-.1.1-.2.1-.4.1-.1 0-.2 0-.3-.1l-.2-.2-.3-.5c.4-.4.9-.8 1.4-1s1.1-.3 1.7-.3a3.73 3.73 0 0 1 1.2.2c.3.1.6.4.9.6.2.3.4.6.5 1s.2.8.2 1.2v5.5zm-3.6-.9c.3 0 .5 0 .7-.1.2 0 .4-.1.6-.2s.4-.2.5-.3c.2-.1.3-.3.5-.5v-1.7c-.7 0-1.2 0-1.7.1s-.8.2-1.1.3-.5.3-.6.5-.2.4-.2.6 0 .4.1.6a1.38 1.38 0 0 0 .3.4.76.76 0 0 0 .4.2c.1.1.3.1.5.1z"/><use xlink:href="#J" x="49.7" y="42"/><path d="M298.4 215.6c-.2 0-.3-.1-.4-.3l-.1-1c-.3.4-.7.8-1.2 1-.4.3-1 .4-1.5.4s-.9-.1-1.3-.3-.7-.4-1-.8c-.3-.3-.5-.8-.6-1.3s-.2-1.1-.2-1.8c0-.6.1-1.2.2-1.7a2.73 2.73 0 0 1 .7-1.3c.3-.4.7-.7 1.1-.9s.9-.3 1.5-.3c.5 0 .9.1 1.3.3s.7.4.9.7v-4.5h1.4v11.8h-.8zm-2.8-1.1c.5 0 .9-.1 1.2-.3s.7-.5 1-.9v-3.9c-.3-.4-.5-.6-.9-.7s-.7-.2-1-.2c-.8 0-1.3.3-1.7.8s-.6 1.3-.6 2.3c0 .5 0 1 .1 1.4s.2.7.4.9.4.4.6.5c.3.1.6.1.9.1zm11.6 1.2c-.6 0-1.1-.2-1.5-.5-.3-.4-.5-.9-.5-1.5v-5h-1c-.1 0-.2 0-.2-.1s-.1-.1-.1-.2v-.6l1.3-.2.3-2.5c0-.1 0-.1.1-.2.1 0 .1-.1.2-.1h.7v2.8h2.3v1h-2.3v4.9c0 .3.1.6.2.8.2.2.4.2.6.2.1 0 .3 0 .4-.1s.2-.1.3-.1.1-.1.2-.1.1-.1.1-.1c.1 0 .1 0 .2.1l.4.7c-.2.2-.5.4-.9.5-.1.2-.4.3-.8.3zm3.5-.1v-11.8h1.4v4.8a2.73 2.73 0 0 1 1.2-.9c.4-.2.9-.3 1.5-.3.4 0 .8.1 1.2.2.3.1.6.4.8.6.2.3.4.6.5 1s.2.8.2 1.3v5.2H316v-5.2c0-.6-.1-1.1-.4-1.4s-.7-.5-1.3-.5c-.4 0-.8.1-1.2.3s-.7.5-1 .8v6h-1.4z"/><use xlink:href="#i"/><path d="M328 215.6v-8.1h.8c.2 0 .3.1.4.3l.1.9c.4-.4.7-.7 1.2-.9.4-.2.9-.4 1.5-.4.4 0 .8.1 1.2.2.3.1.6.4.8.6.2.3.4.6.5 1s.2.8.2 1.3v5.2h-1.4v-5.2c0-.6-.1-1.1-.4-1.4s-.7-.5-1.3-.5c-.4 0-.8.1-1.2.3s-.7.5-1 .8v6H328zm14 0h-1.6v-11.5h1.6v11.5zm11.5-6.7c0 .1-.1.1-.1.1h-.2c-.1 0-.2 0-.3-.1s-.2-.1-.4-.2-.3-.2-.5-.2c-.2-.1-.5-.1-.8-.1-.4 0-.7.1-1 .2s-.6.3-.8.6-.4.6-.5 1-.2.8-.2 1.3.1.9.2 1.3.3.7.5 1 .4.5.7.6.6.2 1 .2c.3 0 .6 0 .9-.1l.6-.3a1.38 1.38 0 0 0 .4-.3c.1-.1.2-.1.3-.1s.2 0 .3.1l.4.5c-.4.4-.8.7-1.3.9s-1.1.3-1.7.3c-.5 0-1-.1-1.4-.3a4.44 4.44 0 0 1-1.1-.8c-.3-.3-.6-.8-.8-1.3s-.3-1.1-.3-1.8c0-.6.1-1.2.3-1.7s.4-1 .7-1.3.7-.7 1.2-.9 1-.3 1.6-.3 1.1.1 1.5.3.8.4 1.2.8l-.4.6zm7.9 6.7h-.6c-.1 0-.3 0-.3-.1-.1 0-.1-.1-.2-.3l-.2-.8c-.2.2-.4.4-.6.5-.2.2-.4.3-.6.4s-.5.2-.7.2c-.3.1-.5.1-.8.1s-.6 0-.9-.1-.5-.2-.7-.4-.4-.4-.5-.7-.2-.6-.2-1c0-.3.1-.6.3-.9a2.36 2.36 0 0 1 .9-.8 11.64 11.64 0 0 1 1.5-.6c.6-.1 1.4-.2 2.3-.2v-.6c0-.6-.1-1.1-.4-1.4s-.7-.5-1.2-.5c-.3 0-.6 0-.9.1s-.4.2-.6.3a1.38 1.38 0 0 0-.4.3c-.1.1-.2.1-.4.1-.1 0-.2 0-.3-.1l-.2-.2-.3-.5c.4-.4.9-.8 1.4-1s1.1-.3 1.7-.3a3.73 3.73 0 0 1 1.2.2c.3.1.6.4.9.6.2.3.4.6.5 1s.2.8.2 1.2v5.5zm-3.7-.9c.3 0 .5 0 .7-.1.2 0 .4-.1.6-.2s.4-.2.5-.3c.2-.1.3-.3.5-.5v-1.7c-.7 0-1.2 0-1.7.1s-.8.2-1.1.3-.5.3-.6.5-.2.4-.2.6 0 .4.1.6a1.38 1.38 0 0 0 .3.4.76.76 0 0 0 .4.2c.1.1.3.1.5.1zm5.9.9v-8.1h.8c.2 0 .3.1.4.3l.1.8c.3-.4.6-.7 1-.9s.8-.4 1.3-.4 1 .2 1.3.5.6.7.7 1.2c.1-.3.3-.5.4-.8s.4-.4.6-.5.5-.2.7-.3c.3-.1.5-.1.8-.1.4 0 .8.1 1.1.2s.6.3.8.6.4.6.5 1 .2.8.2 1.3v5.2h-1.4v-5.2c0-.6-.1-1.1-.4-1.4s-.7-.5-1.2-.5c-.2 0-.5 0-.7.1s-.4.2-.6.4-.3.4-.4.6-.1.5-.1.8v5.2h-1.4v-5.2c0-.7-.1-1.1-.4-1.5-.3-.3-.6-.5-1.1-.5a1.69 1.69 0 0 0-1 .3c-.3.2-.6.4-.8.8v6h-1.2z"/><use xlink:href="#i" x="57.1"/><path d="M394.1 215.6h-.6c-.1 0-.3 0-.3-.1-.1 0-.1-.1-.2-.3l-.2-.8c-.2.2-.4.4-.6.5-.2.2-.4.3-.6.4s-.5.2-.7.2c-.3.1-.5.1-.8.1s-.6 0-.9-.1-.5-.2-.7-.4-.4-.4-.5-.7-.2-.6-.2-1c0-.3.1-.6.3-.9a2.36 2.36 0 0 1 .9-.8 11.64 11.64 0 0 1 1.5-.6c.6-.1 1.4-.2 2.3-.2v-.6c0-.6-.1-1.1-.4-1.4s-.7-.5-1.2-.5c-.3 0-.6 0-.9.1s-.4.2-.6.3a1.38 1.38 0 0 0-.4.3c-.1.1-.2.1-.4.1-.1 0-.2 0-.3-.1l-.2-.2-.3-.5c.4-.4.9-.8 1.4-1s1.1-.3 1.7-.3a3.73 3.73 0 0 1 1.2.2c.4.1.6.4.9.6.2.3.4.6.5 1s.2.8.2 1.2v5.5zm-3.7-.9c.3 0 .5 0 .7-.1.2 0 .4-.1.6-.2s.4-.2.5-.3c.2-.1.3-.3.5-.5v-1.7c-.7 0-1.2 0-1.7.1s-.8.2-1.1.3-.5.3-.6.5-.2.4-.2.6 0 .4.1.6a1.38 1.38 0 0 0 .3.4.76.76 0 0 0 .4.2.9.9 0 0 0 .5.1zm11.4-5.8c0 .1-.1.1-.1.1h-.2c-.1 0-.2 0-.3-.1s-.2-.1-.4-.2c-.1-.1-.3-.2-.5-.2s-.5-.1-.8-.1c-.4 0-.7.1-1 .2s-.6.3-.8.6-.4.6-.5 1-.2.8-.2 1.3.1.9.2 1.3.3.7.5 1 .4.5.7.6.6.2 1 .2c.3 0 .6 0 .9-.1l.6-.3a1.38 1.38 0 0 0 .4-.3c.1-.1.2-.1.3-.1s.2 0 .3.1l.4.5c-.4.4-.8.7-1.3.9s-1.1.3-1.7.3c-.5 0-1-.1-1.4-.3a4.44 4.44 0 0 1-1.1-.8c-.3-.3-.6-.8-.8-1.3s-.3-1.1-.3-1.8c0-.6.1-1.2.3-1.7s.4-1 .7-1.3a2.73 2.73 0 0 1 1.2-.9c.5-.2 1-.3 1.6-.3s1.1.1 1.5.3.8.4 1.2.8l-.4.6z"/><use xlink:href="#j"/><use xlink:href="#k"/><use xlink:href="#l"/><use xlink:href="#l" x="7"/><use xlink:href="#m"/><use xlink:href="#n"/><use xlink:href="#l" x="33.1"/><path d="M461.6 215.7c-.6 0-1.1-.2-1.5-.5-.3-.4-.5-.9-.5-1.5v-5h-1c-.1 0-.2 0-.2-.1-.1-.1-.1-.1-.1-.2v-.6l1.3-.2.3-2.5c0-.1 0-.1.1-.2.1 0 .1-.1.2-.1h.7v2.8h2.3v1H461v4.9c0 .3.1.6.2.8.2.2.4.2.6.2.1 0 .3 0 .4-.1s.2-.1.3-.1.1-.1.2-.1.1-.1.1-.1c.1 0 .1 0 .2.1l.4.7c-.2.2-.5.4-.9.5-.2.2-.5.3-.9.3z"/><use xlink:href="#c" x="221.6" y="21"/><path d="M469.2 215.6v-8.1h.8c.2 0 .3.1.4.3l.1.8c.3-.4.6-.7 1-.9s.8-.4 1.3-.4 1 .2 1.3.5.6.7.7 1.2c.1-.3.3-.5.4-.8.2-.2.4-.4.6-.5s.5-.2.7-.3.5-.1.8-.1c.4 0 .8.1 1.1.2s.6.3.8.6.4.6.5 1 .2.8.2 1.3v5.2h-1.4v-5.2c0-.6-.1-1.1-.4-1.4s-.7-.5-1.2-.5c-.2 0-.5 0-.7.1s-.4.2-.6.4-.3.4-.4.6-.1.5-.1.8v5.2H474v-5.2c0-.7-.1-1.1-.4-1.5-.3-.3-.6-.5-1.1-.5a1.69 1.69 0 0 0-1 .3c-.3.2-.6.4-.8.8v6h-1.5z"/><use xlink:href="#k" x="72.1"/><use xlink:href="#o"/><use xlink:href="#c" x="256.6" y="21"/><path d="M510.2 215.6h-.6c-.1 0-.3 0-.3-.1-.1 0-.1-.1-.2-.3l-.2-.8c-.2.2-.4.4-.6.5-.2.2-.4.3-.6.4s-.5.2-.7.2c-.3.1-.5.1-.8.1s-.6 0-.9-.1-.5-.2-.7-.4-.4-.4-.5-.7-.2-.6-.2-1c0-.3.1-.6.3-.9a2.36 2.36 0 0 1 .9-.8 11.64 11.64 0 0 1 1.5-.6c.6-.1 1.4-.2 2.3-.2v-.6c0-.6-.1-1.1-.4-1.4s-.7-.5-1.2-.5c-.3 0-.6 0-.9.1s-.4.2-.6.3a1.38 1.38 0 0 0-.4.3c-.1.1-.2.1-.4.1-.1 0-.2 0-.3-.1l-.2-.2-.3-.5c.4-.4.9-.8 1.4-1s1.1-.3 1.7-.3a3.73 3.73 0 0 1 1.2.2c.4.1.6.4.9.6.2.3.4.6.5 1s.2.8.2 1.2v5.5zm-3.7-.9c.3 0 .5 0 .7-.1.2 0 .4-.1.6-.2s.4-.2.5-.3c.2-.1.3-.3.5-.5v-1.7c-.7 0-1.2 0-1.7.1s-.8.2-1.1.3-.5.3-.6.5-.2.4-.2.6 0 .4.1.6a1.38 1.38 0 0 0 .3.4.76.76 0 0 0 .4.2c.1.1.3.1.5.1z"/><use xlink:href="#G" x="312.6" y="42"/><path d="M516.1 210.2h4v1.2h-4v-1.2zm6.1 5.4v-11.5h3.7c.7 0 1.3.1 1.8.2s.9.3 1.3.6.6.6.7.9a4.44 4.44 0 0 1 .2 1.3c0 .3 0 .6-.1.8-.1.3-.2.5-.4.7s-.4.4-.7.6-.6.3-.9.4c.8.2 1.5.5 1.9.9s.6 1 .6 1.7c0 .5-.1.9-.3 1.3s-.4.7-.8 1c-.3.3-.8.5-1.3.7s-1.1.2-1.7.2h-4zm1.6-6.4h2c.4 0 .8 0 1.1-.1s.6-.2.8-.4.4-.4.5-.6.2-.5.2-.8c0-.7-.2-1.2-.6-1.5s-1-.5-1.9-.5h-2.1v3.9zm0 1.1v4h2.5c.4 0 .8-.1 1.1-.2s.6-.2.8-.4.4-.4.5-.7.1-.5.1-.8c0-.6-.2-1.1-.6-1.4s-1.1-.5-1.9-.5h-2.5z"/><use xlink:href="#p"/><use xlink:href="#l" x="121.7"/><use xlink:href="#q"/><use xlink:href="#m" x="120.7"/><path d="M567.7 207.3c.5 0 .9.1 1.3.2.4.2.8.4 1.1.7s.5.7.7 1.1c.2.5.3 1 .3 1.5 0 .2 0 .4-.1.4 0 .1-.1.1-.3.1h-5.4a4.44 4.44 0 0 0 .2 1.3c.1.3.3.7.5.9.2.3.5.4.8.6.3.1.7.2 1 .2.4 0 .7 0 .9-.1s.5-.2.7-.3.3-.2.5-.3c.1-.1.2-.1.3-.1s.2 0 .3.1l.4.5-.6.6c-.2.2-.5.3-.8.4s-.6.2-.9.2-.6.1-.9.1c-.6 0-1.1-.1-1.5-.3-.5-.2-.9-.5-1.2-.8-.3-.4-.6-.8-.8-1.4-.2-.5-.3-1.2-.3-1.9 0-.6.1-1.1.3-1.6s.4-.9.7-1.3.7-.6 1.2-.8 1 0 1.6 0zm0 1.1c-.7 0-1.2.2-1.6.6s-.6.9-.7 1.7h4.4c0-.3 0-.6-.1-.9s-.2-.5-.4-.7-.4-.4-.6-.5c-.4-.2-.6-.2-1-.2z"/><use xlink:href="#l" x="153.8"/><use xlink:href="#r"/><path d="M587.7 204.9c0 .1 0 .3-.1.4s-.1.2-.2.3-.2.2-.3.2c-.1.1-.3.1-.4.1s-.3 0-.4-.1-.2-.1-.3-.2-.2-.2-.2-.3c-.1-.1-.1-.2-.1-.4s0-.3.1-.4.1-.2.2-.3.2-.2.3-.2c.1-.1.2-.1.4-.1s.3 0 .4.1.2.1.3.2.2.2.2.3c.1.1.1.3.1.4zm-.3 2.6v8.1H586v-8.1h1.4z"/><use xlink:href="#s"/><use xlink:href="#k" x="192.8"/><use xlink:href="#o" x="120.7"/><path d="M622.7 204.9c0 .1 0 .3-.1.4s-.1.2-.2.3-.2.2-.3.2c-.1.1-.3.1-.4.1s-.3 0-.4-.1-.2-.1-.3-.2-.2-.2-.2-.3c-.1-.1-.1-.2-.1-.4s0-.3.1-.4.1-.2.2-.3.2-.2.3-.2c.1-.1.2-.1.4-.1s.3 0 .4.1.2.1.3.2.2.2.2.3c.1.1.1.3.1.4zm-.3 2.6v8.1H621v-8.1h1.4zm8.5 8.1h-.6c-.1 0-.3 0-.3-.1-.1 0-.1-.1-.2-.3l-.2-.8c-.2.2-.4.4-.6.5-.2.2-.4.3-.6.4s-.5.2-.7.2c-.3.1-.5.1-.8.1s-.6 0-.9-.1-.5-.2-.7-.4-.4-.4-.5-.7-.2-.6-.2-1c0-.3.1-.6.3-.9a2.36 2.36 0 0 1 .9-.8 11.64 11.64 0 0 1 1.5-.6c.6-.1 1.4-.2 2.3-.2v-.6c0-.6-.1-1.1-.4-1.4s-.7-.5-1.2-.5c-.3 0-.6 0-.9.1s-.4.2-.6.3-.3.2-.4.3-.2.1-.4.1c-.1 0-.2 0-.3-.1l-.2-.2-.3-.5c.4-.4.9-.8 1.4-1s1.1-.3 1.7-.3a3.73 3.73 0 0 1 1.2.2c.4.1.6.4.9.6.2.3.4.6.5 1s.2.8.2 1.2v5.5zm-3.7-.9c.3 0 .5 0 .7-.1.2 0 .4-.1.6-.2s.4-.2.5-.3c.2-.1.3-.3.5-.5v-1.7c-.7 0-1.2 0-1.7.1s-.8.2-1.1.3-.5.3-.6.5-.2.4-.2.6 0 .4.1.6a1.38 1.38 0 0 0 .3.4.76.76 0 0 0 .4.2c.1.1.3.1.5.1z"/><use xlink:href="#G" x="433.3" y="42"/><use xlink:href="#l" x="218.1"/><path d="M653.2 205.9c0 .1-.1.1-.2.2-.1 0-.1.1-.2.1s-.2 0-.3-.1-.3-.2-.5-.3-.4-.2-.7-.3-.6-.1-.9-.1-.7 0-.9.1c-.3.1-.5.2-.7.4s-.3.3-.4.6-.1.4-.1.7.1.6.2.8.4.4.6.5l.9.4 1 .3c.3.1.7.2 1 .4s.6.3.9.6c.3.2.5.5.6.8a3.73 3.73 0 0 1 .2 1.2c0 .5-.1 1-.3 1.4s-.4.8-.7 1.1-.7.6-1.2.8-1 .3-1.6.3c-.7 0-1.4-.1-2-.4s-1.1-.6-1.6-1.1l.4-.7c0-.1.1-.1.2-.1s.1-.1.2-.1.2.1.4.2c.1.1.3.3.5.4s.5.3.8.4.7.2 1.1.2.7 0 1-.2.5-.2.7-.4.4-.4.5-.7.2-.5.2-.9c0-.3-.1-.6-.2-.9l-.6-.6c-.2-.2-.5-.3-.9-.4l-1-.3c-.3-.1-.7-.2-1-.4-.3-.1-.6-.3-.9-.6-.3-.2-.5-.5-.6-.9-.2-.3-.2-.8-.2-1.3 0-.4.1-.8.2-1.2.2-.4.4-.7.7-1s.7-.5 1.1-.7.9-.3 1.5-.3 1.2.1 1.8.3c.5.2 1 .5 1.4.9l-.4.9zm2.4 9.7v-11.8h1.4v4.8a2.73 2.73 0 0 1 1.2-.9c.4-.2.9-.3 1.5-.3.4 0 .8.1 1.2.2s.6.4.8.6.4.6.5 1 .2.8.2 1.3v5.2H661v-5.2c0-.6-.1-1.1-.4-1.4s-.7-.5-1.3-.5c-.4 0-.8.1-1.2.3s-.7.5-1 .8v6h-1.5z"/><use xlink:href="#k" x="254.3"/><path d="M672.4 207.5h1.1c.1 0 .2 0 .3.1l.2.2 1.6 5.2c0 .2.1.4.1.6s.1.4.1.5c0-.2.1-.4.1-.5s.1-.4.2-.6l1.7-5.2c0-.1.1-.1.1-.2.1-.1.2-.1.3-.1h.6c.1 0 .2 0 .3.1s.1.1.1.2l1.7 5.2c.1.2.1.4.2.6 0 .2.1.4.1.5 0-.2.1-.4.1-.6s.1-.4.1-.5l1.6-5.2c0-.1.1-.2.2-.2.1-.1.2-.1.3-.1h1.1l-2.6 8.1h-1.1c-.1 0-.2-.1-.3-.3l-1.8-5.5c0-.1-.1-.2-.1-.4s-.1-.2-.1-.4c0 .1-.1.2-.1.4 0 .1-.1.3-.1.4l-1.8 5.5c-.1.2-.2.3-.3.3H675l-2.6-8.1zm12.9 2.7h4v1.2h-4v-1.2zm-518.5 19.7c0 .1-.1.1-.1.1h-.2c-.1 0-.2 0-.3-.1s-.2-.1-.4-.2-.3-.2-.5-.2c-.2-.1-.5-.1-.8-.1-.4 0-.7.1-1 .2s-.6.3-.8.6-.4.6-.5 1-.2.8-.2 1.3.1.9.2 1.3.3.7.5 1 .4.5.7.6.6.2 1 .2c.3 0 .6 0 .9-.1l.6-.3c.1-.1.3-.2.4-.3s.2-.1.3-.1.2 0 .3.1l.4.5c-.4.4-.8.7-1.3.9s-1.1.3-1.7.3c-.5 0-1-.1-1.4-.3a4.44 4.44 0 0 1-1.1-.8c-.3-.4-.6-.8-.8-1.3s-.3-1.1-.3-1.8c0-.6.1-1.2.3-1.7s.4-1 .7-1.3.7-.7 1.2-.9 1-.3 1.6-.3 1.1.1 1.5.3.8.4 1.2.8l-.4.6zm7.9 6.7h-.6c-.1 0-.3 0-.3-.1-.1 0-.1-.1-.2-.3l-.2-.8c-.2.2-.4.4-.6.5-.2.2-.4.3-.6.4s-.5.2-.7.2c-.3.1-.5.1-.8.1s-.6 0-.9-.1-.5-.2-.7-.4-.4-.4-.5-.7-.2-.6-.2-1c0-.3.1-.6.3-.9a2.36 2.36 0 0 1 .9-.8 11.64 11.64 0 0 1 1.5-.6c.6-.1 1.4-.2 2.3-.2v-.6c0-.6-.1-1.1-.4-1.4s-.7-.5-1.2-.5c-.3 0-.6 0-.9.1s-.4.2-.6.3a1.38 1.38 0 0 0-.4.3c-.1.1-.2.1-.4.1-.1 0-.2 0-.3-.1l-.2-.2-.3-.5c.4-.4.9-.8 1.4-1s1.1-.3 1.7-.3a3.73 3.73 0 0 1 1.2.2c.3.1.6.4.9.6.2.3.4.6.5 1s.2.8.2 1.2v5.5zm-3.7-.9c.3 0 .5 0 .7-.1s.4-.1.6-.2.4-.2.5-.3c.2-.1.3-.3.5-.5v-1.7c-.7 0-1.2 0-1.7.1a8.11 8.11 0 0 0-1.1.3c-.3.1-.5.3-.6.5s-.2.4-.2.6 0 .4.1.6a1.38 1.38 0 0 0 .3.4.76.76 0 0 0 .4.2.9.9 0 0 0 .5.1zm10.5-5.9c-.1.1-.2.2-.3.2s-.2 0-.3-.1-.2-.1-.4-.2c-.1-.1-.3-.1-.5-.2s-.4-.1-.7-.1c-.2 0-.5 0-.6.1-.2.1-.4.1-.5.3-.1.1-.2.2-.3.4-.1.1-.1.3-.1.5s.1.4.2.5.3.3.5.4.4.2.7.3.5.2.8.2.5.2.8.3.5.2.7.4.4.4.5.6.2.5.2.8c0 .4-.1.7-.2 1s-.3.6-.6.8-.6.4-1 .5-.8.2-1.3.2c-.6 0-1.1-.1-1.5-.3-.5-.2-.8-.4-1.2-.7l.3-.5c0-.1.1-.1.2-.2.1 0 .1-.1.2-.1s.2 0 .3.1.2.2.4.2c.2.1.3.2.6.2.2.1.5.1.8.1s.5 0 .7-.1.4-.2.5-.3.2-.3.3-.4c.1-.2.1-.3.1-.5s-.1-.4-.2-.6c-.1-.1-.3-.3-.5-.4s-.4-.2-.7-.3-.5-.2-.8-.2l-.8-.3c-.3-.1-.5-.2-.7-.4s-.4-.4-.5-.6-.2-.5-.2-.9c0-.3.1-.6.2-.9s.3-.5.6-.8c.2-.2.5-.4.9-.5s.8-.2 1.2-.2c.5 0 1 .1 1.4.3s.8.4 1.1.7l-.3.7z"/><use xlink:href="#h" x="-59.6" y="21"/><use xlink:href="#t"/><use xlink:href="#G" x="5.4" y="63"/><use xlink:href="#u"/><path d="M220.8 228.3c.4 0 .7 0 1 .1l.8.3h2.2v.5c0 .2-.1.3-.3.3l-.9.1c.2.3.3.7.3 1.2 0 .4-.1.8-.2 1.1s-.4.6-.6.8c-.3.2-.6.4-1 .5s-.8.2-1.2.2-.7 0-1.1-.1a.78.78 0 0 0-.4.4c-.1.2-.1.3-.1.4 0 .2.1.3.2.5.2.1.4.2.6.2.3 0 .5.1.9.1h1c.3 0 .7 0 1 .1l.9.3a.9.9 0 0 1 .6.6c.2.2.2.5.2.9a1.69 1.69 0 0 1-.3 1c-.2.3-.4.6-.7.9s-.7.5-1.2.6c-.5.2-1 .2-1.6.2s-1.1-.1-1.6-.2c-.4-.1-.8-.3-1.1-.5s-.5-.4-.7-.7c-.1-.3-.2-.5-.2-.8 0-.4.1-.7.4-1s.6-.5 1-.7c-.2-.1-.4-.2-.5-.4s-.2-.4-.2-.7c0-.1 0-.2.1-.4 0-.1.1-.2.2-.4.1-.1.2-.2.3-.4.1-.1.3-.2.4-.3a1.96 1.96 0 0 1-.9-.9c-.2-.4-.3-.8-.3-1.3 0-.4.1-.8.2-1.1.2-.3.4-.6.6-.8.3-.2.6-.4 1-.5s.7-.1 1.2-.1zm2.5 8.7c0-.2-.1-.4-.2-.5s-.3-.2-.5-.3-.4-.1-.7-.2h-1.6c-.2 0-.6 0-.8-.1-.3.1-.6.3-.7.5a1.08 1.08 0 0 0-.3.7c0 .2 0 .4.1.5s.2.3.4.4.4.2.7.3.6.1 1 .1.7 0 1-.1l.8-.3c.2-.1.4-.3.5-.5.3-.1.3-.3.3-.5zm-2.5-4.4c.3 0 .5 0 .8-.1l.6-.3c.1-.1.3-.3.3-.5s.1-.4.1-.7c0-.5-.2-.9-.5-1.2s-.7-.4-1.3-.4-1 .1-1.3.4-.5.7-.5 1.2c0 .2 0 .5.1.7s.2.4.3.5.3.3.6.3.5.1.8.1z"/><use xlink:href="#g" x="-5.1" y="21"/><use xlink:href="#J" x="-3.8" y="63"/><path d="M242.6 236.6v-6.9l-.9-.1c-.1 0-.2-.1-.3-.1-.1-.1-.1-.1-.1-.2v-.6h1.3v-.8a3.73 3.73 0 0 1 .2-1.2c.1-.4.3-.7.6-.9s.5-.4.9-.6.7-.2 1.2-.2c.4 0 .7.1 1 .2v.7c0 .1-.1.2-.1.2h-.6c-.2 0-.5 0-.7.1s-.4.2-.5.3-.3.3-.3.6c-.1.2-.1.5-.1.9v.7h2.3v1h-2.3v6.9h-1.6z"/><use xlink:href="#v"/><use xlink:href="#L" x="-11.9" y="63"/><path d="M265.1 225.1h1.3c.1 0 .3 0 .3.1.1.1.2.2.2.3l2.4 8c0 .1.1.3.1.5s.1.3.1.5c0-.2.1-.4.1-.5 0-.2.1-.3.1-.5l2.7-8c0-.1.1-.2.2-.3s.2-.1.3-.1h.4c.1 0 .3 0 .3.1.1.1.2.2.2.3l2.7 8 .3 1c0-.2.1-.3.1-.5s.1-.3.1-.4l2.4-8c0-.1.1-.2.2-.3s.2-.1.3-.1h1.2l-3.6 11.5h-1.4l-2.9-8.7c-.1-.2-.1-.4-.2-.6 0 .1-.1.2-.1.3s0 .2-.1.3l-2.9 8.7h-1.4l-3.4-11.6zm20.4 3.2c.6 0 1.1.1 1.6.3s.9.5 1.2.8c.3.4.6.8.8 1.3s.3 1.1.3 1.7-.1 1.2-.3 1.7-.4.9-.8 1.3c-.3.4-.7.6-1.2.8s-1 .3-1.6.3-1.1-.1-1.6-.3-.9-.5-1.2-.8c-.3-.4-.6-.8-.8-1.3s-.3-1.1-.3-1.7.1-1.2.3-1.7.4-1 .8-1.3.7-.6 1.2-.8c.4-.2 1-.3 1.6-.3zm0 7.3c.8 0 1.4-.3 1.8-.8s.6-1.3.6-2.2c0-1-.2-1.7-.6-2.3-.4-.5-1-.8-1.8-.8-.4 0-.8.1-1.1.2s-.5.3-.7.6-.3.6-.4 1-.1.8-.1 1.3 0 .9.1 1.3.2.7.4 1 .4.5.7.6c.3 0 .7.1 1.1.1z"/><use xlink:href="#L" x="22.6" y="63"/><path d="M303.2 236.6c-.2 0-.3-.1-.4-.3l-.1-1c-.3.4-.7.8-1.2 1-.4.3-1 .4-1.5.4s-.9-.1-1.3-.3-.7-.4-1-.8c-.3-.3-.5-.8-.6-1.3s-.2-1.1-.2-1.8c0-.6.1-1.2.2-1.7a2.73 2.73 0 0 1 .7-1.3c.3-.4.7-.7 1.1-.9s.9-.3 1.5-.3c.5 0 .9.1 1.3.3s.7.4.9.7v-4.5h1.4v11.8h-.8zm-2.7-1.1c.5 0 .9-.1 1.2-.3s.7-.5 1-.9v-3.9c-.3-.4-.5-.6-.9-.7s-.7-.2-1-.2c-.8 0-1.3.3-1.7.8s-.6 1.3-.6 2.3c0 .5 0 1 .1 1.4s.2.7.4.9.4.4.6.5.6.1.9.1z"/><use xlink:href="#t" x="111.2"/><use xlink:href="#L" x="47.8" y="63"/><use xlink:href="#i" x="3.1" y="21"/><use xlink:href="#w"/><use xlink:href="#w" x="7"/><use xlink:href="#x"/><path d="M353.5 236.6H352v-11.5h1.6v11.5zm6 0v-11.8h1.4v4.8a2.73 2.73 0 0 1 1.2-.9c.4-.2.9-.4 1.5-.4.5 0 .9.1 1.3.3s.7.4 1 .8c.3.3.5.8.6 1.3s.2 1.1.2 1.8c0 .6-.1 1.2-.2 1.7-.2.5-.4 1-.7 1.3s-.7.7-1.1.9-.9.3-1.5.3c-.5 0-1-.1-1.3-.3-.4-.2-.7-.5-1-.8l-.1.7c0 .2-.2.3-.4.3h-.9zm3.6-7.1c-.5 0-.9.1-1.2.3s-.7.5-1 .9v3.9c.3.4.5.6.9.7s.7.2 1 .2c.8 0 1.3-.3 1.7-.8s.6-1.3.6-2.3c0-.5 0-1-.1-1.4s-.2-.7-.4-.9-.4-.4-.6-.5-.6-.1-.9-.1z"/><use xlink:href="#v" x="120.7"/><use xlink:href="#u" x="168.1"/><path d="M388.9 228.3c.4 0 .7 0 1 .1l.8.3h2.2v.5c0 .2-.1.3-.3.3l-.9.1c.2.3.3.7.3 1.2 0 .4-.1.8-.2 1.1s-.4.6-.6.8-.6.4-1 .5-.8.2-1.2.2-.7 0-1.1-.1a.78.78 0 0 0-.4.4c-.1.1-.1.3-.1.4 0 .2.1.3.2.5.2.1.4.2.6.2s.5.1.9.1h1c.3 0 .7 0 1 .1l.9.3a.9.9 0 0 1 .6.6c.2.2.2.5.2.9a1.69 1.69 0 0 1-.3 1c-.2.3-.4.6-.7.9s-.7.5-1.2.6c-.5.2-1 .2-1.6.2s-1.1-.1-1.6-.2c-.4-.1-.8-.3-1.1-.5s-.5-.4-.7-.7c-.1-.3-.2-.5-.2-.8 0-.4.1-.7.4-1s.6-.5 1-.7c-.2-.1-.4-.2-.5-.4s-.2-.4-.2-.7c0-.1 0-.2.1-.4 0-.1.1-.2.2-.4a1.38 1.38 0 0 0 .3-.4c.1-.1.3-.2.4-.3a1.96 1.96 0 0 1-.9-.9c-.2-.4-.3-.8-.3-1.3 0-.4.1-.8.2-1.1.2-.3.4-.6.6-.8.3-.2.6-.4 1-.5s.8-.1 1.2-.1zm2.5 8.7c0-.2-.1-.4-.2-.5s-.3-.2-.5-.3-.4-.1-.7-.2h-1.6c-.2 0-.6 0-.8-.1-.3.1-.6.3-.7.5s-.3.5-.3.7 0 .4.1.5a.78.78 0 0 0 .4.4c.2.1.4.2.7.3s.6.1 1 .1.7 0 1-.1l.8-.3c.2-.1.4-.3.5-.5s.3-.3.3-.5zm-2.5-4.4c.3 0 .5 0 .8-.1l.6-.3c.1-.1.3-.3.3-.5.1-.2.1-.4.1-.7 0-.5-.2-.9-.5-1.2s-.7-.4-1.3-.4-1 .1-1.3.4-.5.7-.5 1.2c0 .2 0 .5.1.7s.2.4.3.5.3.3.6.3.5.1.8.1z"/><use xlink:href="#y"/><path d="M405.7 236.7c-.6 0-1.1-.2-1.5-.5-.3-.4-.5-.9-.5-1.5v-5h-1c-.1 0-.2 0-.2-.1-.1-.1-.1-.1-.1-.2v-.6l1.3-.2.3-2.5c0-.1 0-.1.1-.2.1 0 .1-.1.2-.1h.7v2.8h2.3v1H405v4.9c0 .3.1.6.2.8.2.2.4.2.6.2.1 0 .3 0 .4-.1s.2-.1.3-.1.1-.1.2-.1.1-.1.1-.1c.1 0 .1 0 .2.1l.4.7c-.2.2-.5.4-.9.5-.1.2-.4.3-.8.3z"/><use xlink:href="#r" x="-167.5" y="21"/><use xlink:href="#y" x="23.9"/><path d="M430.4 228.3c.5 0 .9.1 1.3.2.4.2.8.4 1.1.7s.5.7.7 1.1c.2.5.3 1 .3 1.5 0 .2 0 .4-.1.4 0 .1-.1.1-.3.1H428a4.44 4.44 0 0 0 .2 1.3c.1.3.3.7.5.9.2.3.5.4.8.6.3.1.7.2 1 .2.4 0 .7 0 .9-.1s.5-.2.7-.3.3-.2.5-.3c.1-.1.2-.1.3-.1s.2 0 .3.1l.4.5-.6.6c-.2.2-.5.3-.8.4s-.6.2-.9.2-.6.1-.9.1c-.6 0-1.1-.1-1.5-.3-.5-.2-.9-.5-1.2-.8-.3-.4-.6-.8-.8-1.4-.2-.5-.3-1.2-.3-1.9 0-.6.1-1.1.3-1.6s.4-.9.7-1.3.7-.6 1.2-.8 1 0 1.6 0zm0 1.1c-.7 0-1.2.2-1.6.6s-.6.9-.7 1.7h4.4c0-.3 0-.6-.1-.9s-.2-.5-.4-.7-.4-.4-.6-.5c-.4-.2-.6-.2-1-.2zm8.3 7.2v-11.8h1.4v4.8a2.73 2.73 0 0 1 1.2-.9c.5-.2.9-.4 1.5-.4.5 0 .9.1 1.3.3s.7.4 1 .8.5.8.6 1.3.2 1.1.2 1.8c0 .6-.1 1.2-.2 1.7-.2.5-.4 1-.7 1.3-.3.4-.7.7-1.1.9s-.9.3-1.5.3c-.5 0-1-.1-1.3-.3-.4-.2-.7-.5-1-.8l-.1.7c0 .2-.2.3-.4.3h-.9zm3.6-7.1c-.5 0-.9.1-1.2.3s-.7.5-1 .9v3.9c.3.4.5.6.9.7s.7.2 1 .2c.8 0 1.3-.3 1.7-.8s.6-1.3.6-2.3c0-.5 0-1-.1-1.4s-.2-.7-.4-.9-.4-.4-.6-.5-.6-.1-.9-.1zm8.5-1.2c.5 0 .9.1 1.3.2.4.2.8.4 1.1.7s.5.7.7 1.1c.2.5.3 1 .3 1.5 0 .2 0 .4-.1.4 0 .1-.1.1-.3.1h-5.4a4.44 4.44 0 0 0 .2 1.3c.1.3.3.7.5.9.2.3.5.4.8.6.3.1.7.2 1 .2.4 0 .7 0 .9-.1s.5-.2.7-.3.3-.2.5-.3c.1-.1.2-.1.3-.1s.2 0 .3.1l.4.5-.6.6c-.2.2-.5.3-.8.4s-.6.2-.9.2-.6.1-.9.1c-.6 0-1.1-.1-1.5-.3-.5-.2-.9-.5-1.2-.8-.3-.4-.6-.8-.8-1.4-.2-.5-.3-1.2-.3-1.9 0-.6.1-1.1.3-1.6s.4-.9.7-1.3.7-.6 1.2-.8 1 0 1.6 0zm0 1.1c-.7 0-1.2.2-1.6.6s-.6.9-.7 1.7h4.4c0-.3 0-.6-.1-.9s-.2-.5-.4-.7-.4-.4-.6-.5c-.3-.2-.6-.2-1-.2z"/><use xlink:href="#l" x="36.9" y="21"/><path d="M465.4 236.7c-.6 0-1.1-.2-1.5-.5-.3-.4-.5-.9-.5-1.5v-5h-1c-.1 0-.2 0-.2-.1-.1-.1-.1-.1-.1-.2v-.6l1.3-.2.3-2.5c0-.1 0-.1.1-.2.1 0 .1-.1.2-.1h.7v2.8h2.3v1h-2.3v4.9c0 .3.1.6.2.8.2.2.4.2.6.2.1 0 .3 0 .4-.1s.2-.1.3-.1.1-.1.2-.1.1-.1.1-.1c.1 0 .1 0 .2.1l.4.7c-.2.2-.5.4-.9.5-.1.2-.4.3-.8.3z"/><use xlink:href="#q" x="-75.7" y="21"/><use xlink:href="#p" x="-54.4" y="21"/><use xlink:href="#l" x="67.3" y="21"/><path d="M495.7 236.7c-.6 0-1.1-.2-1.5-.5-.3-.4-.5-.9-.5-1.5v-5h-1c-.1 0-.2 0-.2-.1-.1-.1-.1-.1-.1-.2v-.6l1.3-.2.3-2.5c0-.1 0-.1.1-.2.1 0 .1-.1.2-.1h.7v2.8h2.3v1H495v4.9c0 .3.1.6.2.8.2.2.4.2.6.2.1 0 .3 0 .4-.1s.2-.1.3-.1.1-.1.2-.1.1-.1.1-.1c.1 0 .1 0 .2.1l.4.7c-.2.2-.5.4-.9.5 0 .2-.4.3-.8.3z"/><use xlink:href="#z"/><use xlink:href="#s" x="-86.6" y="21"/><path d="M519.8 228.3c.6 0 1.1.1 1.6.3s.9.5 1.2.8c.3.4.6.8.8 1.3s.3 1.1.3 1.7-.1 1.2-.3 1.7-.4.9-.8 1.3c-.3.4-.7.6-1.2.8s-1 .3-1.6.3-1.1-.1-1.6-.3-.9-.5-1.2-.8c-.3-.4-.6-.8-.8-1.3s-.3-1.1-.3-1.7.1-1.2.3-1.7.4-1 .8-1.3.7-.6 1.2-.8 1-.3 1.6-.3zm0 7.3c.8 0 1.4-.3 1.8-.8s.6-1.3.6-2.2c0-1-.2-1.7-.6-2.3s-1-.8-1.8-.8c-.4 0-.8.1-1.1.2s-.5.3-.7.6-.3.6-.4 1-.1.8-.1 1.3 0 .9.1 1.3.2.7.4 1 .4.5.7.6.7.1 1.1.1z"/><use xlink:href="#o" x="34.2" y="21"/><use xlink:href="#I" x="304.3" y="63"/><path d="M544.3 236.6h-.6c-.1 0-.3 0-.3-.1-.1 0-.1-.1-.2-.3l-.2-.8c-.2.2-.4.4-.6.5-.2.2-.4.3-.6.4s-.5.2-.7.2c-.3.1-.5.1-.8.1s-.6 0-.9-.1-.5-.2-.7-.4-.4-.4-.5-.7-.2-.6-.2-1c0-.3.1-.6.3-.9a2.36 2.36 0 0 1 .9-.8 11.64 11.64 0 0 1 1.5-.6c.6-.1 1.4-.2 2.3-.2v-.6c0-.6-.1-1.1-.4-1.4s-.7-.5-1.2-.5c-.3 0-.6 0-.9.1s-.4.2-.6.3a1.38 1.38 0 0 0-.4.3c-.1.1-.2.1-.4.1-.1 0-.2 0-.3-.1l-.2-.2-.3-.5c.4-.4.9-.8 1.4-1s1.1-.3 1.7-.3a3.73 3.73 0 0 1 1.2.2c.4.1.6.4.9.6.2.3.4.6.5 1s.2.8.2 1.2v5.5zm-3.7-.9c.3 0 .5 0 .7-.1s.4-.1.6-.2.4-.2.5-.3c.2-.1.3-.3.5-.5v-1.7c-.7 0-1.2 0-1.7.1s-.8.2-1.1.3-.5.3-.6.5-.2.4-.2.6 0 .4.1.6.2.3.3.4a.76.76 0 0 0 .4.2c.1 0 .3.1.5.1z"/><use xlink:href="#G" x="346.8" y="63"/><path d="M553.7 239.3v-10.8h.8c.2 0 .3.1.4.3l.1 1c.3-.4.7-.8 1.2-1 .4-.3 1-.4 1.5-.4s.9.1 1.3.3.7.4 1 .8c.3.3.5.8.6 1.3s.2 1.1.2 1.8c0 .6-.1 1.2-.2 1.7-.2.5-.4 1-.7 1.3s-.7.7-1.1.9-.9.3-1.5.3c-.5 0-.9-.1-1.3-.2s-.7-.4-.9-.7v3.6h-1.4zm3.6-9.8c-.5 0-.9.1-1.2.3s-.7.5-1 .9v3.9c.3.4.5.6.9.7.3.1.7.2 1 .2.8 0 1.3-.3 1.7-.8s.6-1.3.6-2.3c0-.5 0-1-.1-1.4s-.2-.7-.4-.9-.4-.4-.6-.5c-.3-.1-.6-.1-.9-.1z"/><use xlink:href="#G" x="362.8" y="63"/><use xlink:href="#V" x="102.3" y="63"/><path d="M578.2 228.3c.4 0 .7 0 1 .1l.8.3h2.2v.5c0 .2-.1.3-.3.3l-.9.1c.2.3.3.7.3 1.2 0 .4-.1.8-.2 1.1s-.4.6-.6.8-.6.4-1 .5-.8.2-1.2.2-.7 0-1.1-.1a.78.78 0 0 0-.4.4c-.1.1-.1.3-.1.4 0 .2.1.3.2.5.2.1.4.2.6.2s.5.1.9.1h1c.3 0 .7 0 1 .1l.9.3a.9.9 0 0 1 .6.6c.2.2.2.5.2.9a1.69 1.69 0 0 1-.3 1c-.2.3-.4.6-.7.9s-.7.5-1.2.6c-.5.2-1 .2-1.6.2s-1.1-.1-1.6-.2c-.4-.1-.8-.3-1.1-.5s-.5-.4-.7-.7c-.1-.3-.2-.5-.2-.8 0-.4.1-.7.4-1s.6-.5 1-.7c-.2-.1-.4-.2-.5-.4s-.2-.4-.2-.7c0-.1 0-.2.1-.4 0-.1.1-.2.2-.4.1-.1.2-.2.3-.4.1-.1.3-.2.4-.3a1.96 1.96 0 0 1-.9-.9c-.2-.4-.3-.8-.3-1.3 0-.4.1-.8.2-1.1.2-.3.4-.6.6-.8.3-.2.6-.4 1-.5s.8-.1 1.2-.1zm2.5 8.7c0-.2-.1-.4-.2-.5s-.3-.2-.5-.3-.4-.1-.7-.2h-1.6c-.2 0-.6 0-.8-.1-.3.1-.6.3-.7.5s-.3.5-.3.7 0 .4.1.5a.78.78 0 0 0 .4.4c.2.1.4.2.7.3s.6.1 1 .1.7 0 1-.1l.8-.3c.2-.1.4-.3.5-.5s.3-.3.3-.5zm-2.5-4.4c.3 0 .5 0 .8-.1l.6-.3c.1-.1.3-.3.3-.5.1-.2.1-.4.1-.7 0-.5-.2-.9-.5-1.2s-.7-.4-1.3-.4-1 .1-1.3.4-.5.7-.5 1.2c0 .2 0 .5.1.7s.2.4.3.5.3.3.6.3.5.1.8.1z"/><use xlink:href="#z" x="84.4"/><use xlink:href="#o" x="96.6" y="21"/><use xlink:href="#x" x="251.7"/><use xlink:href="#x" x="255.1"/><use xlink:href="#x" x="258.5"/><g fill="#1d9ef7"><path d="M611.8 231.8v4.8h-1.5v-11.5h3.2c.7 0 1.4.1 1.9.2s1 .4 1.3.6c.3.3.6.6.8 1s.2.8.2 1.3c0 .4-.1.8-.2 1.1-.1.4-.3.7-.6.9-.2.3-.5.5-.9.7-.3.2-.7.3-1.2.4.2.1.4.3.5.5l3.3 4.6h-1.4c-.3 0-.5-.1-.6-.3l-3-4.1-.3-.3c-.1-.1-.3-.1-.5-.1h-1zm0-1.1h1.6a3.73 3.73 0 0 0 1.2-.2c.3-.1.6-.3.9-.5.2-.2.4-.4.5-.7s.2-.6.2-.9c0-.7-.2-1.2-.7-1.5s-1.1-.5-2-.5h-1.7v4.3zm11.6-2.4c.5 0 .9.1 1.3.2.4.2.8.4 1.1.7s.5.7.7 1.1c.2.5.3 1 .3 1.5 0 .2 0 .4-.1.4 0 .1-.1.1-.3.1H621a4.44 4.44 0 0 0 .2 1.3c.1.3.3.7.5.9.2.3.5.4.8.6.3.1.7.2 1 .2.4 0 .7 0 .9-.1s.5-.2.7-.3.3-.2.5-.3c.1-.1.2-.1.3-.1s.2 0 .3.1l.4.5-.6.6c-.2.2-.5.3-.8.4s-.6.2-.9.2-.6.1-.9.1c-.6 0-1.1-.1-1.5-.3-.5-.2-.9-.5-1.2-.8-.3-.4-.6-.8-.8-1.4-.2-.5-.3-1.2-.3-1.9 0-.6.1-1.1.3-1.6s.4-.9.7-1.3.7-.6 1.2-.8 1 0 1.6 0zm.1 1.1c-.7 0-1.2.2-1.6.6s-.6.9-.7 1.7h4.4c0-.3 0-.6-.1-.9s-.2-.5-.4-.7-.4-.4-.6-.5c-.4-.2-.7-.2-1-.2zm11.1 7.2h-.6c-.1 0-.3 0-.3-.1-.1 0-.1-.1-.2-.3l-.2-.8c-.2.2-.4.4-.6.5-.2.2-.4.3-.6.4s-.5.2-.7.2c-.3.1-.5.1-.8.1s-.6 0-.9-.1-.5-.2-.7-.4-.4-.4-.5-.7-.2-.6-.2-1c0-.3.1-.6.3-.9a2.36 2.36 0 0 1 .9-.8 11.64 11.64 0 0 1 1.5-.6c.6-.1 1.4-.2 2.3-.2v-.6c0-.6-.1-1.1-.4-1.4s-.7-.5-1.2-.5c-.3 0-.6 0-.9.1s-.4.2-.6.3-.3.2-.4.3-.2.1-.4.1c-.1 0-.2 0-.3-.1l-.2-.2-.3-.5c.4-.4.9-.8 1.4-1s1.1-.3 1.7-.3a3.73 3.73 0 0 1 1.2.2c.4.1.6.4.9.6.2.3.4.6.5 1s.2.8.2 1.2v5.5zm-3.7-.9c.3 0 .5 0 .7-.1s.4-.1.6-.2.4-.2.5-.3c.2-.1.3-.3.5-.5v-1.7c-.7 0-1.2 0-1.7.1s-.8.2-1.1.3-.5.3-.6.5-.2.4-.2.6 0 .4.1.6.2.3.3.4a.76.76 0 0 0 .4.2c.1 0 .3.1.5.1zm11.5.9c-.2 0-.3-.1-.4-.3l-.1-1c-.3.4-.7.8-1.2 1-.4.3-1 .4-1.5.4s-.9-.1-1.3-.3-.7-.4-1-.8-.5-.8-.6-1.3-.2-1.1-.2-1.8c0-.6.1-1.2.2-1.7.2-.5.4-1 .7-1.3.3-.4.7-.7 1.1-.9s.9-.3 1.5-.3c.5 0 .9.1 1.3.3s.7.4.9.7v-4.5h1.4v11.8h-.8zm-2.7-1.1c.5 0 .9-.1 1.2-.3s.7-.5 1-.9v-3.9c-.3-.4-.5-.6-.9-.7-.3-.1-.7-.2-1-.2-.8 0-1.3.3-1.7.8s-.6 1.3-.6 2.3c0 .5 0 1 .1 1.4s.2.7.4.9.4.4.6.5.5.1.9.1zm15.1-2.7c.1.1.1.3.2.4.1-.1.1-.3.2-.4s.1-.3.2-.4l3.9-7c.1-.1.1-.2.2-.2h1.4v11.5h-1.4v-9.2l-3.9 7.2c-.1.2-.3.4-.6.4h-.2c-.2 0-.4-.1-.6-.4l-4-7.2v9.2H649v-11.5h1.4c.1 0 .1.1.2.2l4 7.1c.1 0 .2.2.2.3zm11.9-4.5c.6 0 1.1.1 1.6.3s.9.5 1.2.8c.3.4.6.8.8 1.3s.3 1.1.3 1.7-.1 1.2-.3 1.7-.4.9-.8 1.3c-.3.4-.7.6-1.2.8s-1 .3-1.6.3-1.1-.1-1.6-.3-.9-.5-1.2-.8c-.3-.4-.6-.8-.8-1.3s-.3-1.1-.3-1.7.1-1.2.3-1.7.4-1 .8-1.3.7-.6 1.2-.8a4.53 4.53 0 0 1 1.6-.3zm0 7.3c.8 0 1.4-.3 1.8-.8s.6-1.3.6-2.2c0-1-.2-1.7-.6-2.3s-1-.8-1.8-.8c-.4 0-.8.1-1.1.2s-.5.3-.7.6-.3.6-.4 1-.1.8-.1 1.3 0 .9.1 1.3.2.7.4 1 .4.5.7.6.7.1 1.1.1z"/><use xlink:href="#j" x="268.7" y="21"/><use xlink:href="#n" x="235" y="21"/></g><path d="M413.2 314.5h-12.7c-1.5 0-2.6 1.2-2.6 2.6v12.7c0 1.5 1.2 2.6 2.6 2.6h5.3v-6.3h-2.1V323h2.1v-2.1c0-1.7 1.4-3.2 3.2-3.2h3.2v3.2H409v2.1h3.2l-.5 3.2H409v6.3h4.2a2.65 2.65 0 0 0 2.6-2.6v-12.7c0-1.5-1.2-2.7-2.6-2.7zm24.8.9c-.7-.7-1.5-1-2.4-1h-11.3c-.9 0-1.7.3-2.4 1s-1 1.5-1 2.4v11.3c0 .9.3 1.7 1 2.4s1.5 1 2.4 1h11.3c.9 0 1.7-.3 2.4-1s1-1.5 1-2.4v-11.3c0-.9-.3-1.7-1-2.4zm-3.2 6v.3c0 .7-.1 1.3-.3 2s-.5 1.3-.9 1.9-.9 1.1-1.4 1.6c-.6.5-1.2.8-2 1.1s-1.6.4-2.5.4c-1.4 0-2.6-.4-3.8-1.1h.6c1.1 0 2.2-.4 3.1-1.1-.5 0-1-.2-1.4-.5a2.73 2.73 0 0 1-.9-1.2h.5c.2 0 .4 0 .6-.1a2.37 2.37 0 0 1-1.5-.9c-.4-.5-.6-1-.6-1.6h0c.4.2.8.3 1.2.3-.7-.5-1.1-1.2-1.1-2.1a3.08 3.08 0 0 1 .3-1.3c.6.8 1.4 1.4 2.3 1.8.9.5 1.8.7 2.9.8 0-.1-.1-.3-.1-.6 0-.7.2-1.3.7-1.8s1.1-.7 1.8-.7 1.3.3 1.8.8c.5-.1 1.1-.3 1.6-.6-.2.6-.6 1.1-1.1 1.4.5-.1 1-.2 1.4-.4-.3.8-.7 1.2-1.2 1.6zm24.7-6.9h-12.7c-1.5 0-2.6 1.2-2.6 2.6v12.7c0 1.5 1.2 2.6 2.6 2.6h12.7c1.5 0 2.6-1.2 2.6-2.6v-12.7c0-1.5-1.1-2.6-2.6-2.6zm-9 14.3h-2.1v-7.4h2.1v7.4zm0-8.5h-2.1v-2.1h2.1v2.1zm7.4 8.5h-2.1v-4.2a1.11 1.11 0 0 0-1.1-1.1 1.11 1.11 0 0 0-1.1 1.1v4.2h-2.1v-7.4h2.1v.4c.6-.2.9-.4 1.6-.4 1.4 0 2.6 1.3 2.6 2.8v4.6z" fill="#999"/></svg>