<svg xmlns="http://www.w3.org/2000/svg" xmlns:xlink="http://www.w3.org/1999/xlink" viewBox="0 0 800 400" xmlns:v="https://vecta.io/nano"><style><![CDATA[.W{font-family:Lato-Regular}.X{font-size:16px}.Y{fill:#92653d}.Z{enable-background:new}.a{stroke-miterlimit:10}.b{fill-rule:evenodd}]]></style><path d="M0 0h800v400H0z" fill="#fff" stroke="#aaa" stroke-width="2.254" class="a"/><circle cx="93.5" cy="142.5" r="42.6" fill="#ddd"/><defs><circle id="A" cx="93.5" cy="142.5" r="42.6"/><path id="B" d="M189.1 252.4c-.8 0-1.3-.2-1.8-.6-.4-.4-.6-1-.6-1.8v-5h-.9c-.1 0-.2 0-.3-.1s-.1-.2-.1-.3v-.8l1.4-.2.4-2.4c0-.1.1-.2.2-.3s.2-.1.3-.1h1.1v2.8h2.3v1.5h-2.3v4.8c0 .3.1.5.2.6.1.2.3.2.5.2h.3c.1 0 .2-.1.2-.1.1 0 .1-.1.2-.1h.4l.1.1.6 1c-.3.3-.7.5-1.1.6-.3.1-.7.2-1.1.2z"/><path id="C" d="M169.5 264.1l2.3 5.5 6 .5c.4 0 .6.6.3.8l-4.5 3.9 1.4 5.8c.1.4-.4.7-.7.5l-5.1-3.1-5.1 3.1c-.4.2-.8-.1-.7-.5l1.4-5.8-4.5-3.9c-.3-.3-.2-.7.3-.8l6-.5 2.3-5.5c0-.4.5-.4.6 0z"/><path id="D" d="M208.9 264.1l2.3 5.5 6 .5c.4 0 .6.6.3.8l-4.5 3.9 1.4 5.8c.1.4-.4.7-.7.5l-5.1-3.1-5.1 3.1c-.4.2-.8-.1-.7-.5l1.4-5.8-4.5-3.9c-.3-.3-.2-.7.3-.8l6-.5 2.3-5.5c-.1-.4.4-.4.6 0z"/><path id="E" d="M206.2 108.9v-9.8h1.4c.3 0 .5.1.6.4l.2.7.5-.5c.2-.2.4-.3.6-.4s.4-.2.7-.3c.2-.1.5-.1.8-.1.6 0 1.1.2 1.5.5s.7.8.9 1.3c.2-.3.3-.6.6-.8.2-.2.5-.4.8-.6.3-.1.6-.3.9-.3.3-.1.6-.1.9-.1.5 0 1 .1 1.4.2.4.2.8.4 1.1.7s.5.7.7 1.2c.1.5.2 1 .2 1.6v6.2h-2.4v-6.2c0-.6-.1-1.1-.4-1.4s-.7-.5-1.2-.5c-.2 0-.5 0-.7.1s-.4.2-.5.4c-.2.2-.3.4-.4.6s-.1.5-.1.8v6.2h-2.4v-6.2c0-.7-.1-1.1-.4-1.4s-.7-.4-1.2-.4c-.3 0-.7.1-.9.3-.3.2-.6.4-.8.7v7.2h-2.4z"/></defs><clipPath id="F"><use xlink:href="#A"/></clipPath><circle cx="93.5" cy="142.5" r="42.6" clip-path="url(#F)" fill="#ddd"/><defs><circle id="G" cx="93.5" cy="142.5" r="42.6"/></defs><clipPath id="H"><use xlink:href="#G"/></clipPath><g clip-path="url(#H)"><g class="b"><g fill="#f5be92"><ellipse transform="matrix(.9499 -.3126 .3126 .9499 -38.5069 31.027)" cx="77.5" cy="135.6" rx="2.3" ry="3.8"/><ellipse transform="matrix(.3129 -.9498 .9498 .3129 -53.4002 197.2998)" cx="109.7" cy="135.6" rx="3.8" ry="2.3"/></g><path d="M104.8 115.9c3.3.5 5.2 2.7 5.9 5.8 2.1 8-2.2 25.3-17 25.5-7.6.1-13-1.9-15-8s-2.8-16.1 1.5-21.6c5.4-7 16.9-7 24.6-1.7z" class="Y"/><path d="M87.4 156.5c-13.8 6-18 9.3-19.5 10.7-2.5 2.2-3.9 10.8-5.5 17.9h62.4c-1.5-7-2.7-15.7-5.3-17.9-1.6-1.4-5.6-4.6-19.4-10.6l-12.7-.1z" fill="#4c9dd2" stroke="#4c9dd2" stroke-width="1.084" stroke-linejoin="round" class="a"/><g fill="#f5be92"><path d="M86.9 144.5v16.4c3.7 4.4 9.8 4.5 13.4 0v-16.3c0-8.3-13.4-8.3-13.4-.1z"/><path d="M93.6 117.1c-22.5 0-14.4 29.3-12.9 31.5 1.6 2.4 9.3 6.6 12.9 6.6s11.3-4.7 12.9-7.1c1.5-2.3 9.6-31-12.9-31z"/></g><path d="M82.7 124.1c3.9 2.4 7-1.2 10.5.3 3.6 1.5 13.8-2.6 15.9 13.6 3.4-11.7-2.3-21.6-15.2-22.1-13.7-.5-19.3 10.2-15.5 21.8-.2-6.3 1.3-10.4 4.3-13.6z" class="Y"/><g fill="#fff" stroke="#fff" stroke-width="2" class="a"><path d="M86.3 156.4l-4.7 2.5 6.9 9.5 5.3-4.9-7.5-7.1z"/><path d="M101 156.4l4.7 2.5-6.9 9.5-5.3-4.9 7.5-7.1z"/></g></g><path d="M82.3 123.1c.3 2 3.2 2.2 4.7 2.4 3.1.3 6.8-.9 9.2-2.6.2-.1.1-.4-.1-.4-2.6-.1-5 1.6-7.7 1.9-1.9.1-4.5-.1-6-1.4 0-.1-.1 0-.1.1h0z" class="Y"/><path d="M84.4 137.7s.8 1.2 3 1.2 2.6-1.1 2.6-1.4c0 0-.9-1.4-2.6-1.4-1.8-.1-3 1.6-3 1.6z" fill="#fff"/><radialGradient id="I" cx="87.351" cy="262.593" r="1.281" gradientTransform="matrix(1 0 0 -1 0 400)" gradientUnits="userSpaceOnUse"><stop offset="0" stop-color="#624a2e"/><stop offset=".036" stop-color="#6d5633"/><stop offset=".122" stop-color="#816b3d"/><stop offset=".223" stop-color="#907c45"/><stop offset=".348" stop-color="#9b884a"/><stop offset=".523" stop-color="#a18f4d"/><stop offset="1" stop-color="#a3914e"/></radialGradient><circle cx="87.3" cy="137.5" r="1.3" fill="url(#I)"/><path d="M87.3 136.3c.7 0 1.2.5 1.2 1.2s-.5 1.2-1.2 1.2-1.2-.5-1.2-1.2c.1-.7.6-1.2 1.2-1.2m0-.3c-.8 0-1.4.7-1.4 1.4 0 .8.7 1.4 1.4 1.4.8 0 1.4-.7 1.4-1.4s-.6-1.4-1.4-1.4h0z" fill="#624a2e"/><circle cx="87.3" cy="137.5" r=".5"/><path d="M102.7 137.7s-.8 1.2-3 1.2-2.6-1.1-2.6-1.4c0 0 .9-1.4 2.6-1.4s3 1.6 3 1.6z" fill="#fff"/><radialGradient id="J" cx="-471.401" cy="262.593" r="1.281" gradientTransform="matrix(-1 0 0 -1 -371.5322 400)" gradientUnits="userSpaceOnUse"><stop offset="0" stop-color="#624a2e"/><stop offset=".036" stop-color="#6d5633"/><stop offset=".122" stop-color="#816b3d"/><stop offset=".223" stop-color="#907c45"/><stop offset=".348" stop-color="#9b884a"/><stop offset=".523" stop-color="#a18f4d"/><stop offset="1" stop-color="#a3914e"/></radialGradient><circle cx="99.9" cy="137.5" r="1.3" fill="url(#J)"/><path d="M99.9 136.3c.7 0 1.2.5 1.2 1.2s-.5 1.2-1.2 1.2-1.2-.5-1.2-1.2.5-1.2 1.2-1.2m0-.3c-.8 0-1.4.7-1.4 1.4 0 .8.7 1.4 1.4 1.4.8 0 1.4-.7 1.4-1.4-.1-.7-.7-1.4-1.4-1.4h0z" fill="#624a2e"/><circle cx="99.9" cy="137.5" r=".5"/><g fill="#e48f67"><path d="M91.1 143.6c-.3.2-.4.5-.1.9.7.4 1.4.4 2.2.4s1.6-.1 2.3-.4c.3-.2.5-.9.1-1.1-.1 0-.2 0-.2.1s.1.3.1.4c0 .2-.3.3-.4.3-.4.2-1 .2-1.5.2-.5.1-2.9.2-2.5-.8h0zm-1.8 5.8c2.4 1.8 6.2 1.3 8.5-.3.1 0 0-.1-.1-.1-2.8 1.2-5.4 1.5-8.4.4 0-.2 0-.1 0 0h0z"/></g><g class="Y"><path d="M81.9 132.5c2.7-.4 5.5-.8 8 .7.2.1.4-.2.2-.3-2.1-1.5-6-2-8.2-.4 0-.1 0 0 0 0h0zm23.2-.1c-2.2-1.5-6.1-1-8.2.3-.2.1 0 .5.2.3 2.5-1.3 5.3-.9 8-.6 0 .1 0 0 0 0h0z"/></g><path d="M99.7 142.9h.3c3.5-.3 4.3-1.9 4.7-3.8.4-2.2.4-3 1-3.1.4-.1.5-.7.5-1.2s0-.7-.7-.9c-.5-.2-3.5-.4-5.7-.3v.5c1.8-.1 3.4.1 3.9.4 1.1.8.8 4.2-.1 5.9-.7 1.2-2.4 1.8-3.9 1.9v.6zm-6.4-8.1c-.8 0-3.9-.9-6.1-1.1h-.4v.5c1.9.1 3.7.4 4.3 1.4 1.1 1.5-.9 5.5-2.5 6.4a5.44 5.44 0 0 1-2 .4v.5c3 0 4.1-2.2 4.5-2.8.7-1.3.5-3.2 2.3-3.3 1.8 0 1.5 1.9 2.1 3.2.3.8 1.3 3 4.4 2.8v-.5c-.8 0-1.5-.1-2.1-.4-1.6-.9-3.3-4.7-2.2-6.4.7-1 2.5-1.4 4.4-1.4v-.5h-.4c-2 .2-4.5 1.1-6.3 1.2zm-6.6-1.1c-2.2-.1-5.2.1-5.7.3-.7.2-.8.3-.8.9 0 .5 0 1.1.4 1.2.5.2.5 1 .9 3.1.2 2 1 3.5 4.5 3.8h.5v-.5c-1.5 0-3.4-.5-3.9-1.9-.9-1.8-1-5.2.2-5.9.5-.3 2.2-.5 3.8-.4l.1-.6z" fill="#0a6f90" class="b"/><g class="Y"><path d="M107.9 129.5c-.7-.1-1.2-.4-1.6-.9-.2-.2-.4-.5-.5-.9-.1-.3 0-.5-.3-.9-.1-.1-.4-.2-.5-.1h0v-.3c.1-.4-.4-.8-.8-.4-.2.1-.3.3-.4.5 0-.3-.3-.8-.8-.7-.4.1-1.1 0-1.5-.1v-.2c-.2-.7-.7-1-1-1.5-.2-.5-1.2-.4-1.3.2v.1c-.1-.2-.2-.4-.3-.5-.2-.2-.5-.2-.7.1-.1.2-.1.5-.1.8-.2.1-.4.2-.7.2 0 0-.1 0-.1-.1-.9-.3-1.6-.7-2.4-1.2-.2-.2-.5-.2-.8 0-.3-.2-.9-.2-1.2.2-1.2 1.9-2.1.1-3.1-.3-.4-.2-.9 0-.9.5v.2c-.1-.1-.1-.2-.2-.3-.2-.4-.9-.4-1.2-.1-.9.7-1.9 1-3 1.1h-.4c.2-.1.3-.3.2-.5 0-.1 0 0 0 0 0-.2-.1-.4-.4-.5-.4-.1-.9-.3-1.3-.4-.3 0-.5.3-.3.5l.1.1v.1c-.3-.2-.7-.5-1-.9-.2-.1-.4-.1-.5.1-.9 3.5 4.5 3 6.9 1.9 1.8 2.1 5.5 2.5 6.6-.1.7.9 2.1 1 3.3.8.3 0 .7-.1.9-.3.3.5.7.9 1.1 1.2 1.1.8 2.5.9 3.8.4.2-.1.3-.2.3-.3-.1.8.2 1.6.7 2.2.8 1 2.1 1.8 3.4 1.6.5-.2.7-1.2 0-1.3zM81 118.9h0c.2-.1.3-.3.3-.4.3.1.8-.1.8-.5-.1-1 .1-1.6 1.1-1.9.8-.2 1.8-.1 2.5 0 .5 0 .9-.8.4-1.1-.3-.3-.7-.5-1.1-.7.2-.1.3-.2.5-.3.1 0 .2-.1.4-.1v.9c0 .4.5.2.5-.1s.1-.5.2-.8c.3.1.5.2.9.1.2-.1.3-.2.3-.4.3.1.5.2.9.4.3.2.4.5.9.7.3.1.5-.1.5-.4 0-.4-.3-.9-.8-1.1.4-.7 1.2-.8 2-.5 0 .2.1.4.4.5s.5.1.9.2h.1c0 .3.1.8.2 1.1s.5.2.5-.1c0-1.4 1-1.6 2.1-1.4a3.15 3.15 0 0 1 1.5.8c.3.3.7.8 1.1 1 .2.1.5 0 .5-.2.4-1.6-2.3-2.7-3.5-2.8-.7-.1-1.4.1-2 .5-.1 0-.1.1-.2.2 0 0 0-.1-.1-.1-1.2-1.2-4.1-1.2-4.5.5-.4-.1-.8-.1-1.1-.1-.2 0-.3 0-.5.1-.7-.1-1.4 0-2 .2-.4.2-.9.5-1.2 1-.1.1-.1.2-.1.3-.8 0-1.5.1-2.2.3-1.5.5-1.6 2-1.5 3.3-1.5.3-3 2.6-2.3 3.8.1.4.2.9.5 1.2-.7.1-1.2.5-1.4 1.1-1 1-1 3 0 4.1.1.1.1.2.2.3s.2.1.2.1c.5.1 1.2-.4.9-1-.3-.5-.4-1.2-.3-1.9 0-.2.1-.4.2-.5h.2c.3 0 .5-.3.7-.5.1 0 .2 0 .2-.1.7-.1.5-.9.1-1.2.2-.2.3-.7 0-1-.7-.9.1-2.2 1-2.7.7-.4 1-.4 1.1-.8z"/></g></g><g class="Z"><path d="M167.8 247.7c.1.2.2.4.2.6.1-.2.2-.4.2-.6s.2-.4.3-.6l3.7-6.9c0-.1.1-.2.1-.2 0-.1.1-.1.2-.1h2.2v12.4h-2v-9l-3.7 7a1.38 1.38 0 0 1-.3.4c-.1.1-.3.1-.5.1h-.3c-.2 0-.3 0-.5-.1s-.2-.2-.3-.4l-3.8-7.1v9.1h-2v-12.4h2.2c.1 0 .1.1.2.1.1.1.1.1.1.2l3.7 6.9c.2.2.3.4.3.6zm16.3 4.5h-1c-.2 0-.4 0-.5-.1s-.2-.2-.3-.4l-.2-.6c-.2.2-.4.4-.7.5-.2.2-.4.3-.7.4-.2.1-.5.2-.7.2-.3.1-.5.1-.9.1s-.7-.1-1-.2-.6-.3-.8-.5a3.04 3.04 0 0 1-.5-.7c-.1-.3-.2-.6-.2-1a1.93 1.93 0 0 1 .3-1c.2-.3.5-.6.9-.9s.9-.5 1.6-.6c.7-.2 1.5-.3 2.5-.3v-.5c0-.6-.1-1-.4-1.3-.2-.3-.6-.4-1.1-.4-.3 0-.6 0-.9.1l-.6.3c-.2.1-.3.2-.5.3-.1.1-.3.1-.5.1-.1 0-.3 0-.4-.1s-.2-.2-.2-.3l-.4-.7c1-.9 2.2-1.4 3.7-1.4.5 0 1 .1 1.4.3s.7.4 1 .7.5.7.6 1.1.2.9.2 1.4v5.5zm-4.1-1.3c.2 0 .4 0 .6-.1.2 0 .4-.1.5-.2.2-.1.3-.2.5-.3s.3-.3.5-.4v-1.5c-.6 0-1.1 0-1.5.1l-1 .3c-.3.1-.4.3-.5.4-.1.2-.2.3-.2.5 0 .4.1.6.3.8.1.3.4.4.8.4z"/><use xlink:href="#B"/><use xlink:href="#B" x="6.6"/><path d="M209.4 247.7c.1.2.2.4.2.6.1-.2.2-.4.2-.6s.2-.4.3-.6l3.7-6.9c0-.1.1-.2.1-.2 0-.1.1-.1.2-.1h2.2v12.4h-2v-9l-3.7 7a1.38 1.38 0 0 1-.3.4c-.1.1-.3.1-.5.1h-.3c-.2 0-.3 0-.5-.1s-.2-.2-.3-.4l-3.8-7.1v9.1h-2v-12.4h2.2c.1 0 .1.1.2.1.1.1.1.1.1.2l3.7 6.9.3.6zm11.2-4.3v5.6c0 .5.1 1 .4 1.2.2.3.6.4 1.1.4.4 0 .7-.1 1-.2s.6-.4.9-.7v-6.4h2.1v8.8h-1.3c-.3 0-.5-.1-.5-.4l-.1-.7c-.2.2-.4.3-.6.5s-.4.3-.6.4-.5.2-.7.2c-.3.1-.5.1-.8.1-.5 0-.9-.1-1.3-.2s-.7-.4-.9-.7c-.3-.3-.4-.7-.6-1.1-.1-.4-.2-.9-.2-1.4v-5.6h2.1zm10.1-3.9v12.7h-2.1v-12.7h2.1zm4.7 0v12.7h-2.1v-12.7h2.1zm6 3.8c.6 0 1.1.1 1.5.3.5.2.9.4 1.2.8.3.3.6.8.8 1.3s.3 1.1.3 1.7v.4c0 .1 0 .2-.1.2 0 .1-.1.1-.1.1h-5.6c.1.9.3 1.6.7 2s1 .6 1.7.6c.3 0 .6 0 .9-.1s.5-.2.7-.3.3-.2.5-.3.3-.1.4-.1.2 0 .2.1c.1 0 .1.1.2.1l.6.8c-.2.3-.5.5-.8.7s-.6.3-.9.4-.6.2-1 .2c-.3 0-.6.1-1 .1-.6 0-1.2-.1-1.7-.3s-1-.5-1.4-.9-.7-.9-.9-1.5-.3-1.3-.3-2c0-.6.1-1.2.3-1.7s.5-1 .8-1.4c.4-.4.8-.7 1.3-.9.4-.2 1-.3 1.7-.3zm0 1.5c-.6 0-1.1.2-1.4.5s-.6.8-.7 1.5h4c0-.3 0-.5-.1-.8s-.2-.5-.3-.6c-.2-.2-.3-.3-.6-.4s-.5-.2-.9-.2zm5.5 7.4v-8.8h1.3c.3 0 .5.1.5.4l.1.7c.2-.2.4-.3.6-.5s.4-.3.6-.4.5-.2.7-.2c.3-.1.5-.1.8-.1.5 0 .9.1 1.3.2.4.2.7.4.9.7s.4.6.6 1.1c.1.4.2.9.2 1.4v5.6h-2.1v-5.6c0-.5-.1-1-.4-1.2-.2-.3-.6-.4-1.1-.4-.4 0-.7.1-1 .2-.3.2-.6.4-.9.7v6.4h-2.1zm8.6-8.8h1.7c.2 0 .3 0 .4.1s.2.2.2.3l1.3 4.7c.1.3.1.5.2.8 0 .2.1.5.1.7.1-.2.1-.5.2-.7s.1-.5.2-.8l1.5-4.7c0-.1.1-.2.2-.3s.2-.1.4-.1h.9c.2 0 .3 0 .4.1s.2.2.2.3l1.4 4.8c.1.2.1.5.2.7s.1.5.2.7c0-.2.1-.5.1-.7s.1-.5.2-.8l1.3-4.7c0-.1.1-.2.2-.3s.2-.1.4-.1h1.6l-2.8 8.8h-1.7c-.2 0-.3-.1-.4-.4l-1.6-5.1c-.1-.2-.1-.3-.1-.5s-.1-.3-.1-.5c0 .2-.1.3-.1.5s-.1.3-.1.5l-1.6 5.1c-.1.3-.2.4-.5.4h-1.6l-2.9-8.8zm18.2-.1c.6 0 1.1.1 1.5.3.5.2.9.4 1.2.8.3.3.6.8.8 1.3s.3 1.1.3 1.7v.4c0 .1 0 .2-.1.2 0 .1-.1.1-.1.1h-5.6c.1.9.3 1.6.7 2s1 .6 1.7.6c.3 0 .6 0 .9-.1s.5-.2.7-.3.3-.2.5-.3.3-.1.4-.1.2 0 .2.1c.1 0 .1.1.2.1l.6.8c-.2.3-.5.5-.8.7s-.6.3-.9.4-.6.2-1 .2c-.3 0-.6.1-1 .1-.6 0-1.2-.1-1.7-.3s-1-.5-1.4-.9-.7-.9-.9-1.5-.3-1.3-.3-2c0-.6.1-1.2.3-1.7s.5-1 .8-1.4c.4-.4.8-.7 1.3-.9s1.1-.3 1.7-.3zm.1 1.5c-.6 0-1.1.2-1.4.5s-.6.8-.7 1.5h4c0-.3 0-.5-.1-.8s-.2-.5-.3-.6c-.2-.2-.3-.3-.6-.4s-.6-.2-.9-.2zm8.5-1.5c.4 0 .7 0 1.1.1s.6.2.9.3h2.5v.8c0 .1 0 .2-.1.3s-.2.1-.4.2l-.8.1c.1.1.1.3.1.5v.5c0 .4-.1.8-.3 1.2s-.4.7-.7.9-.7.4-1.1.6c-.4.1-.9.2-1.4.2-.3 0-.7 0-1-.1-.3.2-.4.4-.4.6s.1.3.2.4c.2.1.4.1.6.2.3 0 .6.1.9.1h1c.3 0 .7.1 1 .2l.9.3c.3.2.5.4.6.6.2.3.2.6.2 1s-.1.8-.3 1.1c-.2.4-.5.7-.8 1-.4.3-.8.5-1.3.7s-1.1.3-1.8.3-1.2-.1-1.7-.2-.9-.3-1.2-.5-.6-.5-.7-.7a2.39 2.39 0 0 1-.2-.9c0-.4.1-.8.4-1s.6-.5 1-.7c-.2-.1-.4-.3-.5-.5s-.2-.5-.2-.8c0-.1 0-.3.1-.4a.76.76 0 0 1 .2-.4c.1-.1.2-.3.4-.4.1-.1.3-.2.5-.3-.4-.2-.8-.6-1.1-1s-.4-.9-.4-1.4c0-.4.1-.8.3-1.2s.4-.7.7-.9.7-.4 1.1-.6c.7-.2 1.2-.2 1.7-.2zm2.3 9.3c0-.2-.1-.3-.2-.4a1.38 1.38 0 0 0-.4-.3c-.2-.1-.4-.1-.6-.1h-1.6c-.3 0-.6 0-.8-.1-.2.1-.4.3-.6.5-.1.2-.2.4-.2.6s0 .3.1.4.2.2.4.3.4.2.7.2c.3.1.6.1 1 .1s.7 0 1-.1.5-.1.7-.3a.78.78 0 0 0 .4-.4c.1-.1.1-.2.1-.4zm-2.3-5c.3 0 .5 0 .7-.1s.4-.2.5-.3.2-.3.3-.5.1-.4.1-.6c0-.4-.1-.8-.4-1-.3-.3-.7-.4-1.2-.4s-.9.1-1.2.4-.4.6-.4 1c0 .2 0 .4.1.6s.2.3.3.5c.1.1.3.2.5.3s.4.1.7.1z"/><path d="M169.5 303.3c.1 0 .2 0 .2.1l.7.7c-.5.6-1 1-1.7 1.3s-1.5.5-2.4.5c-.8 0-1.6-.1-2.3-.4s-1.3-.7-1.7-1.2c-.5-.5-.8-1.1-1.1-1.9s-.4-1.5-.4-2.4.1-1.7.4-2.4.7-1.3 1.2-1.9c.5-.5 1.1-.9 1.8-1.2s1.5-.4 2.3-.4 1.5.1 2.2.4c.6.3 1.2.6 1.7 1.1l-.6.8c0 .1-.1.1-.1.1-.1 0-.1.1-.2.1s-.2-.1-.4-.2c-.1-.1-.3-.2-.5-.3s-.5-.2-.8-.3a3.73 3.73 0 0 0-1.2-.2c-.6 0-1.1.1-1.6.3a2.73 2.73 0 0 0-1.2.9c-.3.4-.6.8-.8 1.4-.2.5-.3 1.2-.3 1.9s.1 1.3.3 1.9.5 1 .8 1.4.8.7 1.2.9 1 .3 1.5.3c.3 0 .6 0 .9-.1.3 0 .5-.1.7-.2l.6-.3c.2-.1.4-.3.6-.5l.1-.1c0-.1.1-.1.1-.1zm9.8 1.1v1.4h-7.1v-11.5h7.1v1.4h-5.4v3.6h4.4v1.3h-4.4v3.7h5.4zm12.6-4.4c0 .9-.1 1.6-.4 2.4-.3.7-.7 1.3-1.2 1.9-.5.5-1.1.9-1.8 1.2s-1.5.4-2.3.4-1.6-.1-2.3-.4-1.3-.7-1.8-1.2-.9-1.1-1.2-1.9c-.3-.7-.4-1.5-.4-2.4s.1-1.6.4-2.4c.3-.7.7-1.3 1.2-1.9.5-.5 1.1-.9 1.8-1.2s1.5-.4 2.3-.4c.9 0 1.6.1 2.3.4s1.3.7 1.8 1.2.9 1.1 1.2 1.9c.2.8.4 1.6.4 2.4zm-1.8 0c0-.7-.1-1.3-.3-1.8s-.5-1-.8-1.4-.8-.7-1.2-.9c-.5-.2-1-.3-1.6-.3s-1.1.1-1.6.3-.9.5-1.3.9-.6.8-.8 1.4c-.2.5-.3 1.2-.3 1.8 0 .7.1 1.3.3 1.8s.5 1 .8 1.4.8.7 1.3.9 1 .3 1.6.3 1.1-.1 1.6-.3a2.73 2.73 0 0 0 1.2-.9c.3-.4.6-.8.8-1.4.2-.5.3-1.1.3-1.8zm7.5.3h4v1.3h-4v-1.3zm19.4 5.5h-1.3c-.1 0-.3 0-.4-.1s-.2-.2-.2-.3l-1-2.7H209l-1 2.7c0 .1-.1.2-.2.3s-.2.1-.4.1h-1.3l4.6-11.5h1.7l4.6 11.5zm-3.4-4.3l-1.7-4.5-.4-1.2c-.1.2-.1.4-.2.6s-.1.4-.2.5l-1.7 4.4h4.2zm11.1-3.9v8.1h-.9c-.2 0-.4-.1-.4-.3l-.1-.8c-.2.2-.4.4-.6.5-.2.2-.4.3-.6.4s-.5.2-.7.3-.5.1-.8.1c-.4 0-.8-.1-1.2-.2-.3-.1-.6-.4-.9-.6-.2-.3-.4-.6-.5-1s-.2-.8-.2-1.3v-5.2h1.6v5.2c0 .6.1 1 .4 1.4.3.3.7.5 1.2.5.4 0 .8-.1 1.1-.3s.7-.4 1-.8v-6h1.6zm4.7 8.3c-.7 0-1.2-.2-1.5-.6-.4-.4-.5-.9-.5-1.6v-4.9h-.9c-.1 0-.2 0-.2-.1-.1-.1-.1-.1-.1-.3v-.6l1.3-.2.4-2.4c0-.1.1-.2.1-.2.1 0 .1-.1.2-.1h.8v2.7h2.3v1.1H229v4.8c0 .3.1.6.2.7.2.2.4.2.6.2.1 0 .3 0 .4-.1s.2-.1.3-.1.1-.1.2-.1.1-.1.1-.1h.1l.1.1.5.8c-.3.2-.6.4-.9.5-.5.4-.8.5-1.2.5zm6.6-8.4c.6 0 1.1.1 1.6.3s.9.5 1.2.8c.3.4.6.8.8 1.3s.3 1.1.3 1.7-.1 1.2-.3 1.7-.4 1-.8 1.3c-.3.4-.7.6-1.2.8s-1 .3-1.6.3-1.1-.1-1.6-.3-.9-.5-1.2-.8c-.3-.4-.6-.8-.8-1.3s-.3-1.1-.3-1.7.1-1.2.3-1.7.4-1 .8-1.3.8-.6 1.2-.8c.5-.2 1-.3 1.6-.3zm0 7.2c.8 0 1.3-.3 1.7-.8s.6-1.2.6-2.2c0-.9-.2-1.7-.6-2.2s-1-.8-1.7-.8c-.8 0-1.4.3-1.7.8-.4.5-.6 1.2-.6 2.2 0 .9.2 1.7.6 2.2s1 .8 1.7.8zm5.7 1.1v-8.1h.9c.2 0 .4.1.4.3l.1.8c.3-.4.6-.6 1-.9s.8-.3 1.3-.3 1 .1 1.3.4.6.7.7 1.2c.1-.3.3-.5.5-.7s.4-.4.6-.5.5-.2.7-.3c.3-.1.5-.1.8-.1.4 0 .8.1 1.2.2.3.1.6.3.9.6.2.3.4.6.5 1s.2.8.2 1.3v5.2h-1.6v-5.2c0-.6-.1-1.1-.4-1.4s-.6-.5-1.2-.5c-.2 0-.4 0-.6.1s-.4.2-.5.3c-.2.2-.3.3-.4.6-.1.2-.1.5-.1.8v5.2h-1.6v-5.2c0-.6-.1-1.1-.4-1.4s-.6-.4-1.1-.4c-.3 0-.6.1-.9.3s-.6.4-.8.7v6h-1.5zm13-7c.5-.4.9-.8 1.5-1s1.1-.3 1.7-.3a3.73 3.73 0 0 1 1.2.2c.4.2.7.4.9.6l.6 1c.1.4.2.8.2 1.3v5.2h-.7c-.2 0-.3 0-.4-.1s-.1-.1-.2-.3l-.2-.7c-.2.2-.4.4-.6.5s-.4.3-.6.4-.5.2-.7.2c-.3.1-.5.1-.8.1s-.6 0-.9-.1-.5-.2-.7-.4-.4-.4-.5-.7-.2-.6-.2-1c0-.3.1-.6.3-.9s.5-.6.8-.8a11.64 11.64 0 0 1 1.5-.6l2.3-.3v-.6c0-.6-.1-1.1-.4-1.4s-.6-.5-1.2-.5c-.3 0-.6 0-.9.1l-.6.3a1.38 1.38 0 0 0-.4.3c-.1.1-.3.1-.4.1s-.2 0-.3-.1l-.2-.2-.1-.3zm4.6 3.4c-.6 0-1.2.1-1.6.1l-1.1.3c-.3.1-.5.3-.6.5s-.2.4-.2.6 0 .4.1.5.2.3.3.4.2.2.4.2.3.1.5.1.5 0 .7-.1c.2 0 .4-.1.6-.2s.3-.2.5-.3.3-.3.5-.4v-1.7zm16.3 3.6H274v-6.9h-3.9v4.8c0 .3.1.6.2.7s.4.2.6.2c.1 0 .3 0 .4-.1s.2-.1.3-.1.1-.1.2-.1.1-.1.1-.1h.1l.1.1.5.8c-.3.2-.6.4-.9.5-.4.1-.7.2-1.1.2-.7 0-1.2-.2-1.5-.6-.4-.4-.5-.9-.5-1.6v-4.9h-3.7v4.8c0 .3.1.6.2.7.2.2.4.2.6.2.1 0 .3 0 .4-.1s.2-.1.3-.1.1-.1.2-.1.1-.1.1-.1h.1l.1.1.5.8c-.3.2-.6.4-.9.5-.4.1-.7.2-1.1.2-.7 0-1.2-.2-1.5-.6-.4-.4-.5-.9-.5-1.6v-4.9h-.9c-.1 0-.2 0-.2-.1-.1-.1-.1-.1-.1-.3v-.6l1.3-.2.3-2.4c0-.1.1-.2.1-.2.1 0 .1-.1.2-.1h.8v2.7h3.7l.4-2.4c0-.1.1-.2.1-.2.1 0 .1-.1.2-.1h.8v2.7h5.5v8.5zm.3-10.7c0 .1 0 .3-.1.4s-.1.2-.2.3-.2.2-.3.2c-.1.1-.3.1-.4.1s-.3 0-.4-.1-.2-.1-.3-.2-.2-.2-.2-.3c-.1-.1-.1-.3-.1-.4s0-.3.1-.4.1-.2.2-.3.2-.2.3-.2c.1-.1.3-.1.4-.1s.3 0 .4.1.2.1.3.2.2.2.2.3c.1.1.1.2.1.4zm7.6 4.1c0 .1-.1.1-.1.1s-.1.1-.2.1-.2 0-.3-.1-.2-.1-.4-.2c-.1-.1-.3-.1-.5-.2s-.4-.1-.7-.1c-.4 0-.7.1-1 .2s-.5.3-.7.6-.3.6-.4.9c-.1.4-.2.8-.2 1.2 0 .5.1.9.2 1.3s.3.7.5.9c.2.3.4.4.7.6.3.1.6.2.9.2s.6 0 .8-.1.4-.2.5-.3.3-.2.4-.3.2-.1.3-.1.2 0 .3.1l.4.6-.6.6c-.2.2-.5.3-.7.4-.3.1-.5.2-.8.2s-.6.1-.9.1c-.5 0-1-.1-1.4-.3a4.44 4.44 0 0 1-1.1-.8c-.3-.4-.6-.8-.8-1.3s-.3-1.1-.3-1.8c0-.6.1-1.2.3-1.7s.4-1 .7-1.3a2.73 2.73 0 0 1 1.2-.9c.5-.2 1-.3 1.6-.3s1.1.1 1.5.3.8.5 1.2.8l-.4.6z"/></g><g fill="#ffae04"><use xlink:href="#C"/><path d="M189.2 264.1l2.3 5.5 6 .5c.4 0 .6.6.3.8l-4.5 3.9 1.4 5.8c.1.4-.4.7-.7.5l-5.1-3.1-5.1 3.1c-.4.2-.8-.1-.7-.5l1.4-5.8-4.5-3.9c-.3-.3-.2-.7.3-.8l6-.5 2.3-5.5c0-.4.4-.4.6 0z"/><use xlink:href="#D"/><use xlink:href="#D" x="19.7"/><use xlink:href="#C" x="78.7"/></g><text transform="translate(160.1 143.133)" class="W X">I was looking for a really good testimonial plugin for our business website and </text><text transform="translate(160.1 164.133)" class="W X">was not having any luck finding one I liked or fulfilled our requirements. I was </text><text transform="translate(160.1 185.133)" class="W X">about to give up and then I came across Testimonial-Best Testimonials Showcase </text><text transform="translate(160.1 206.133)" class="W X">Plugin for WordPress. I bought the best testimonial plugin... </text><text class="Z"><tspan x="574.4" fill="#ff3d43" y="206.133" class="W X">See More</tspan></text><g class="Z"><path d="M173.6 108.9h-2c-.2 0-.4-.1-.5-.2s-.2-.2-.3-.4l-1-2.8H164l-1 2.8c-.1.1-.2.3-.3.4s-.3.2-.5.2h-2l5.4-13.8h2.6l5.4 13.8zm-8.9-5.2h4.4l-1.7-4.6c-.1-.2-.2-.4-.3-.7l-.3-.9-.3.9c-.1.3-.2.5-.3.7l-1.5 4.6zm24 3.3c.6 0 1.1-.1 1.5-.2s.8-.2 1.2-.4v-2.5h-1.7c-.2 0-.3 0-.4-.1s-.1-.2-.1-.3V102h4.6v5.6c-.3.3-.7.5-1.1.7s-.8.3-1.2.5l-1.4.3c-.5.1-1 .1-1.6.1-1 0-1.9-.2-2.8-.5-.8-.3-1.6-.8-2.2-1.5-.6-.6-1.1-1.4-1.4-2.2-.3-.9-.5-1.8-.5-2.8a8.21 8.21 0 0 1 .5-2.8c.3-.9.8-1.6 1.4-2.2s1.4-1.1 2.3-1.4 1.9-.5 3-.5 2.1.2 2.9.5 1.5.8 2.1 1.3l-.7 1.2c-.1.2-.3.4-.6.4-.2 0-.3-.1-.5-.2s-.4-.2-.6-.4c-.2-.1-.4-.2-.7-.3s-.5-.2-.9-.2c-.3-.1-.7-.1-1.1-.1-.7 0-1.3.1-1.8.3s-1 .6-1.4 1-.7.9-.9 1.5-.3 1.3-.3 2c0 .8.1 1.5.3 2.1s.5 1.1.9 1.6c.4.4.9.8 1.4 1s1.2 0 1.8 0zm11.4-8c.6 0 1.2.1 1.7.3s1 .5 1.3.9.7.8.9 1.4c.2.5.3 1.2.3 1.9v.4c0 .1 0 .2-.1.3 0 .1-.1.1-.2.1h-6.3c.1 1 .3 1.7.8 2.2s1.1.7 1.9.7c.4 0 .7 0 1-.1s.5-.2.7-.3.4-.2.5-.3.3-.1.5-.1c.1 0 .2 0 .2.1s.1.1.2.2l.7.9c-.3.3-.6.6-.9.8a4.67 4.67 0 0 1-1 .5c-.3.1-.7.2-1.1.3s-.7.1-1.1.1c-.7 0-1.3-.1-1.9-.3s-1.1-.6-1.5-1-.8-1-1-1.6c-.2-.7-.4-1.4-.4-2.3 0-.7.1-1.3.3-1.9s.5-1.1.9-1.5.9-.8 1.5-1c.7-.6 1.3-.7 2.1-.7zm0 1.7c-.7 0-1.2.2-1.6.6s-.6.9-.7 1.6h4.4c0-.3 0-.6-.1-.9s-.2-.5-.4-.7-.4-.4-.6-.5c-.3-.1-.6-.1-1-.1z"/><use xlink:href="#E"/><path d="M226.4 108.9v-8l-.8-.1c-.2 0-.3-.1-.4-.2s-.2-.2-.2-.4v-1h1.5v-.7c0-.6.1-1.1.3-1.5s.4-.8.7-1.1.7-.5 1.1-.7c.5-.2 1-.2 1.5-.2s.9.1 1.3.2v1.2c0 .2-.1.3-.3.3s-.3.1-.6.1-.5 0-.7.1l-.6.3c-.2.1-.3.3-.3.6-.1.2-.1.5-.1.9v.6h2.5v1.7h-2.5v8h-2.4zm6.2 0v-9.8h1.4c.2 0 .4 0 .5.1s.2.2.2.5l.1 1.2c.3-.6.8-1.1 1.2-1.4s1-.5 1.6-.5c.5 0 .9.1 1.2.3l-.3 1.8c0 .1-.1.2-.1.2-.1 0-.1.1-.3.1-.1 0-.2 0-.4-.1-.2 0-.4-.1-.7-.1-.5 0-.9.1-1.3.4-.3.3-.6.7-.9 1.2v6.1h-2.2zm12-9.9c.7 0 1.4.1 2 .4.6.2 1.1.6 1.5 1s.7 1 1 1.6c.2.6.3 1.3.3 2.1s-.1 1.5-.3 2.1-.6 1.2-1 1.6-.9.8-1.5 1-1.3.4-2 .4-1.4-.1-2-.4c-.6-.2-1.1-.6-1.5-1s-.7-1-1-1.6c-.2-.6-.3-1.3-.3-2.1s.1-1.5.3-2.1.6-1.1 1-1.6c.4-.4.9-.8 1.5-1 .6-.3 1.3-.4 2-.4zm0 8.2c.8 0 1.4-.3 1.8-.8s.6-1.3.6-2.4-.2-1.9-.6-2.4-1-.8-1.8-.8-1.4.3-1.8.8c-.4.6-.6 1.4-.6 2.4s.2 1.8.6 2.4c.3.6 1 .8 1.8.8z"/><use xlink:href="#E" x="45"/><path d="M278.5 97.6c-.1.1-.2.2-.2.3-.1.1-.2.1-.3.1s-.3 0-.4-.1c-.2-.1-.3-.2-.6-.3-.2-.1-.5-.2-.8-.3s-.6-.1-1-.1-.7 0-.9.1c-.3.1-.5.2-.7.4s-.3.3-.4.5-.1.4-.1.7.1.6.3.8.4.4.7.6.6.3 1 .4.8.2 1.2.4.8.3 1.2.5.7.4 1 .7.5.6.7 1 .3.9.3 1.5-.1 1.2-.3 1.7-.5 1-.9 1.4-.9.7-1.5 1-1.3.3-2 .3c-.4 0-.9 0-1.3-.1s-.8-.2-1.2-.4-.8-.3-1.1-.6c-.3-.2-.6-.5-.9-.7l.7-1.2c.1-.1.2-.2.3-.2s.2-.1.3-.1c.2 0 .3.1.5.2s.4.3.7.4a2.47 2.47 0 0 0 .9.4 3.73 3.73 0 0 0 1.2.2c.7 0 1.3-.2 1.7-.5s.6-.8.6-1.5c0-.4-.1-.7-.3-.9s-.4-.4-.7-.6-.6-.3-1-.4-.8-.2-1.2-.4-.8-.3-1.2-.5-.7-.4-1-.7-.5-.6-.7-1.1-.3-1-.3-1.6c0-.5.1-1 .3-1.5s.5-.9.9-1.3.9-.7 1.4-.9 1.2-.3 1.9-.3c.8 0 1.6.1 2.2.4.7.3 1.3.6 1.8 1.1l-.8 1.2zm2.7 11.3V94.7h2.4v5.4c.4-.4.8-.7 1.3-.9s1-.3 1.6-.3c.5 0 1 .1 1.4.3s.8.4 1 .8.5.7.6 1.2.2 1 .2 1.5v6.2h-2.4v-6.2c0-.6-.1-1.1-.4-1.4s-.7-.5-1.2-.5c-.4 0-.8.1-1.1.3s-.7.4-1 .8v7.1h-2.4zm18.5 0h-1.1c-.2 0-.4 0-.5-.1a1.38 1.38 0 0 1-.3-.4l-.2-.7c-.2.2-.5.4-.7.6s-.5.3-.7.4l-.8.3c-.3.1-.6.1-1 .1s-.8-.1-1.1-.2-.6-.3-.9-.5-.4-.5-.6-.8-.2-.7-.2-1.2c0-.4.1-.7.3-1.1s.5-.7 1-1 1.1-.5 1.8-.7 1.7-.3 2.8-.3v-.6c0-.7-.1-1.1-.4-1.5-.3-.3-.7-.5-1.2-.5-.4 0-.7 0-1 .1s-.5.2-.7.3-.4.2-.5.3c-.2.1-.3.1-.5.1s-.3 0-.4-.1l-.3-.3-.4-.8c1.1-1 2.5-1.5 4.1-1.5.6 0 1.1.1 1.5.3s.8.4 1.1.8c.3.3.5.7.7 1.2s.2 1 .2 1.5v6.3zm-4.6-1.5c.2 0 .5 0 .7-.1.2 0 .4-.1.6-.2s.4-.2.5-.3c.2-.1.3-.3.5-.5v-1.6c-.7 0-1.3 0-1.7.1-.5.1-.8.2-1.1.3s-.5.3-.6.5-.2.4-.2.6c0 .4.1.7.4.9.2.2.5.3.9.3zm6.9 4.7v-13h1.4c.2 0 .3 0 .4.1s.2.2.2.3l.2.9c.4-.5.8-.8 1.4-1.1.5-.3 1.1-.4 1.8-.4.5 0 1 .1 1.5.3a2.59 2.59 0 0 1 1.1 1c.3.5.6.9.7 1.6.2.6.3 1.3.3 2.1 0 .7-.1 1.4-.3 2s-.5 1.2-.8 1.6c-.4.5-.8.8-1.3 1.1s-1.1.4-1.7.4-1-.1-1.4-.3-.7-.4-1-.7v4H302zm4.6-11.3c-.5 0-.9.1-1.3.3-.3.2-.7.5-1 .9v4.4c.3.3.6.6.9.7s.7.2 1 .2c.4 0 .7-.1 1-.2s.5-.3.7-.6.4-.6.5-1 .2-.9.2-1.5 0-1.1-.1-1.5-.2-.7-.4-1-.4-.4-.6-.5c-.3-.1-.6-.2-.9-.2zm10.2-1.8c.6 0 1.2.1 1.7.3s1 .5 1.3.9.7.8.9 1.4c.2.5.3 1.2.3 1.9v.4c0 .1 0 .2-.1.3 0 .1-.1.1-.2.1h-6.3c.1 1 .3 1.7.8 2.2s1.1.7 1.9.7c.4 0 .7 0 1-.1s.5-.2.7-.3.4-.2.5-.3.3-.1.5-.1c.1 0 .2 0 .2.1s.1.1.2.2l.7.9c-.3.3-.6.6-.9.8a4.67 4.67 0 0 1-1 .5c-.3.1-.7.2-1.1.3s-.7.1-1.1.1c-.7 0-1.3-.1-1.9-.3s-1.1-.6-1.5-1-.8-1-1-1.6c-.2-.7-.4-1.4-.4-2.3 0-.7.1-1.3.3-1.9s.5-1.1.9-1.5.9-.8 1.5-1c.7-.6 1.4-.7 2.1-.7zm.1 1.7c-.7 0-1.2.2-1.6.6s-.6.9-.7 1.6h4.4c0-.3 0-.6-.1-.9s-.2-.5-.4-.7-.4-.4-.6-.5c-.4-.1-.7-.1-1-.1zm13 8.2c-.3 0-.5-.1-.6-.4l-.2-.9-.6.6c-.2.2-.5.3-.7.5s-.5.2-.8.3-.6.1-1 .1c-.5 0-1-.1-1.5-.3a2.59 2.59 0 0 1-1.1-1c-.3-.4-.6-.9-.7-1.6s-.3-1.3-.3-2.1c0-.7.1-1.4.3-2s.5-1.2.8-1.6c.4-.5.8-.8 1.3-1.1s1.1-.4 1.7-.4c.5 0 1 .1 1.4.3s.7.4 1 .7v-5.2h2.4V109h-1.4zm-3.2-1.7c.5 0 .9-.1 1.2-.3s.7-.5 1-.9v-4.4c-.3-.3-.6-.6-.9-.7s-.7-.2-1-.2c-.4 0-.7.1-1 .2s-.5.3-.7.6-.4.6-.5 1-.2.9-.2 1.5 0 1.1.1 1.5.2.7.4 1 .4.4.6.5c.4.1.7.2 1 .2zm9.9-3.1v4.9H334V95.1h4.5c.9 0 1.7.1 2.4.3s1.2.5 1.7.9c.4.4.8.9 1 1.4s.3 1.1.3 1.8-.1 1.3-.3 1.8c-.2.6-.6 1-1 1.4s-1 .7-1.7.9-1.4.3-2.3.3h-2zm0-2.1h1.9a3.73 3.73 0 0 0 1.2-.2c.3-.1.6-.3.9-.5.2-.2.4-.5.5-.8s.2-.7.2-1.1-.1-.7-.2-1-.3-.6-.5-.8-.5-.4-.9-.5a4.3 4.3 0 0 0-1.2-.2h-1.9v5.1zm11.7-7.3v14.2h-2.4V94.7h2.4zm4.8 4.4v6.2c0 .6.1 1.1.4 1.4s.7.5 1.2.5c.4 0 .8-.1 1.1-.3.4-.2.7-.4 1-.7v-7.1h2.4v9.8h-1.4c-.3 0-.5-.1-.6-.4l-.2-.8-.6.6c-.2.2-.4.3-.7.4-.2.1-.5.2-.8.3s-.6.1-.9.1c-.5 0-1-.1-1.4-.3s-.8-.4-1-.8c-.3-.3-.5-.7-.6-1.2s-.2-1-.2-1.5v-6.2h2.3zm12-.1c.4 0 .8 0 1.2.1s.7.2 1 .4h2.8v.9c0 .1 0 .3-.1.3-.1.1-.2.1-.4.2l-.9.2a.9.9 0 0 1 .1.5c0 .2.1.4.1.6 0 .5-.1.9-.3 1.3s-.5.7-.8 1-.7.5-1.2.6-1 .2-1.5.2c-.4 0-.7 0-1.1-.1-.3.2-.5.4-.5.6s.1.3.3.4.4.2.7.2.6.1 1 .1h1.2c.4 0 .8.1 1.2.2s.7.2 1 .4.5.4.7.7.3.7.3 1.1a3.08 3.08 0 0 1-.3 1.3c-.2.4-.5.8-.9 1.1a5.3 5.3 0 0 1-1.5.8c-.6.2-1.3.3-2 .3s-1.4-.1-1.9-.2-1-.3-1.4-.6-.6-.5-.8-.8a1.69 1.69 0 0 1-.3-1c0-.5.1-.8.4-1.2.3-.3.7-.6 1.2-.7-.2-.1-.4-.3-.6-.5-.1-.2-.2-.5-.2-.9 0-.1 0-.3.1-.5s.1-.3.2-.5a.78.78 0 0 1 .4-.4c.2-.1.3-.3.6-.4-.5-.3-.9-.6-1.2-1.1-.3-.4-.4-1-.4-1.6 0-.5.1-.9.3-1.3s.5-.7.8-1 .8-.5 1.2-.6c.5-.1 1-.1 1.5-.1zm2.6 10.3c0-.2-.1-.4-.2-.5s-.3-.2-.5-.3-.4-.1-.7-.2-.5 0-.8 0h-.9c-.3 0-.6 0-.9-.1-.3.1-.5.3-.6.5-.2.2-.2.4-.2.7 0 .2 0 .3.1.5a.78.78 0 0 0 .4.4c.2.1.4.2.7.3s.7.1 1.1.1.8 0 1.1-.1l.8-.3c.2-.1.4-.3.5-.4.1-.2.1-.4.1-.6zm-2.6-5.5c.3 0 .5 0 .8-.1.2-.1.4-.2.5-.3s.3-.3.3-.5c.1-.2.1-.4.1-.6 0-.5-.1-.9-.4-1.1-.3-.3-.7-.4-1.3-.4s-1 .1-1.3.4-.4.7-.4 1.1c0 .2 0 .4.1.6s.2.4.3.5.3.3.5.3c.3 0 .6.1.8.1zm9.4-7.5c0 .2 0 .4-.1.6s-.2.3-.3.5c-.1.1-.3.2-.5.3s-.4.1-.6.1-.4 0-.6-.1-.3-.2-.5-.3c-.1-.1-.2-.3-.3-.5s-.1-.4-.1-.6 0-.4.1-.6.2-.3.3-.5c.1-.1.3-.2.5-.3s.4-.1.6-.1.4 0 .6.1.3.2.5.3c.1.1.2.3.3.5 0 .2.1.4.1.6zm-.4 2.8v9.8h-2.4v-9.8h2.4zm2.7 9.8v-9.8h1.4c.3 0 .5.1.6.4l.2.8.6-.6c.2-.2.5-.3.7-.4s.5-.2.8-.3.6-.1.9-.1c.5 0 1 .1 1.4.3s.8.4 1 .8.5.7.6 1.2.2 1 .2 1.5v6.2h-2.4v-6.2c0-.6-.1-1.1-.4-1.4s-.7-.5-1.2-.5c-.4 0-.8.1-1.1.3s-.7.4-1 .8v7.1h-2.3z"/></g></svg>