<svg xmlns="http://www.w3.org/2000/svg" xmlns:xlink="http://www.w3.org/1999/xlink" viewBox="0 0 800 400" xmlns:v="https://vecta.io/nano"><style><![CDATA[.W{enable-background:new}.X{fill:#92653d}.Y{stroke-miterlimit:10}.Z{fill-rule:evenodd}]]></style><g fill="#fff" class="Y"><path d="M0 0h800v400H0z" stroke="#aaa" stroke-width="2.254"/><path d="M93.5 38.9h655.4v323.2H93.5z" stroke="#ddd" stroke-width="1.123"/></g><circle cx="93.5" cy="115.5" r="38.9" fill="#ddd"/><defs><circle id="A" cx="93.5" cy="115.5" r="38.9"/><path id="B" d="M159.3 86.2c.1.2.2.4.2.6.1-.2.2-.4.2-.6s.2-.4.3-.6l3.7-6.9c0-.1.1-.2.1-.2 0-.1.1-.1.2-.1h2.2v12.4h-2v-9l-3.7 7a1.38 1.38 0 0 1-.3.4c-.1.1-.3.1-.5.1h-.3c-.2 0-.3 0-.5-.1s-.2-.2-.3-.4l-3.8-7.1v9.1h-2V78.4h2.2c.1 0 .1.1.2.1.1.1.1.1.1.2l3.7 6.9.3.6z"/><path id="C" d="M212.5 160.1c.2-.5.5-.8.8-1.1s.7-.4 1.2-.4c.2 0 .3 0 .4.1s.3.1.4.2l-.1 1c0 .1-.1.2-.2.2h-.7c-.2 0-.4 0-.6.1s-.3.2-.5.3c-.1.1-.3.3-.4.5l-.3.6v4.5h-1.4V159h.8c.1 0 .3 0 .3.1s.1.1.1.3l.2.7z"/><path id="D" d="M248.3 160c0 .1-.1.1-.1.1h-.2c-.1 0-.2 0-.2-.1s-.2-.1-.3-.2-.3-.1-.5-.2-.4-.1-.6-.1-.4 0-.5.1-.3.1-.4.2l-.3.3c-.1.1-.1.2-.1.4s.1.3.2.4.2.2.4.3.4.2.6.2.4.1.7.2c.2.1.4.2.7.3.2.1.4.2.6.4s.3.3.4.5.2.4.2.7-.1.6-.2.9-.3.5-.5.7-.5.4-.9.5a3.73 3.73 0 0 1-1.2.2c-.5 0-.9-.1-1.4-.2-.4-.2-.8-.4-1-.6l.3-.5c0-.1.1-.1.1-.2s.1-.1.2-.1.2 0 .3.1.2.1.3.2.3.1.5.2.4.1.7.1c.2 0 .4 0 .6-.1s.3-.1.4-.2l.3-.3c.1-.1.1-.3.1-.4 0-.2-.1-.3-.2-.5-.1-.1-.2-.2-.4-.3s-.4-.2-.6-.2-.4-.1-.7-.2c-.2-.1-.5-.2-.7-.3s-.4-.2-.6-.4c-.2-.1-.3-.3-.4-.5s-.2-.5-.2-.8.1-.5.2-.8.3-.5.5-.7.5-.3.8-.5c.3-.1.7-.2 1.1-.2.5 0 .9.1 1.3.2s.7.4 1 .6l-.3.8z"/><path id="E" d="M182.7 185.3v1h-5.4v-1h2.1V178l-1.7 1.4c-.1.1-.1.1-.2.1h-.2c-.1 0-.1 0-.2-.1l-.1-.1-.4-.6 3-2.6h1.1v9h2z"/><path id="F" d="M191.4 181.3c0 .9-.1 1.6-.3 2.3-.2.6-.4 1.2-.8 1.6a2.73 2.73 0 0 1-1.2.9c-.4.2-.9.3-1.4.3s-1-.1-1.4-.3-.8-.5-1.2-.9c-.3-.4-.6-1-.8-1.6s-.3-1.4-.3-2.3.1-1.6.3-2.3.4-1.2.8-1.6a2.73 2.73 0 0 1 1.2-.9c.4-.2.9-.3 1.4-.3s1 .1 1.4.3.8.5 1.2.9c.3.4.6 1 .8 1.6s.3 1.5.3 2.3zm-1.4 0c0-.8-.1-1.4-.2-1.9s-.3-.9-.5-1.2-.4-.5-.7-.7c-.3-.1-.6-.2-.8-.2-.3 0-.6.1-.8.2-.3.1-.5.4-.7.7s-.4.7-.5 1.2-.2 1.1-.2 1.9.1 1.4.2 1.9.3.9.5 1.2.4.5.7.7c.3.1.6.2.8.2.3 0 .6-.1.8-.2a1.54 1.54 0 0 0 .7-.7c.2-.3.4-.7.5-1.2s.2-1.1.2-1.9z"/><path id="G" d="M205.4 185.1c.1 0 .3 0 .4.1s.1.2.1.3v.8h-6.7v-.5c0-.1 0-.2.1-.3 0-.1.1-.2.2-.3l3.2-3.2c.3-.3.5-.5.7-.8s.4-.5.5-.7.3-.5.3-.8.1-.5.1-.8 0-.5-.1-.7-.2-.4-.4-.5-.3-.2-.5-.3-.4-.1-.7-.1-.5 0-.7.1-.4.2-.5.3l-.4.4c-.1.2-.2.4-.2.6-.1.2-.1.3-.2.4s-.2.1-.4 0l-.7-.1c.1-.5.2-.9.4-1.2s.4-.7.7-.9.6-.4 1-.5.8-.2 1.2-.2.8.1 1.2.2.7.3 1 .6c.3.2.5.5.6.9s.2.7.2 1.2c0 .4-.1.7-.2 1s-.3.6-.4.9c-.2.3-.4.6-.7.8-.2.3-.5.5-.8.8l-2.5 2.6c.2-.1.4-.1.6-.1h3.6z"/><path id="H" d="M160.9 102.6l2.3 5.5 6 .5c.4 0 .6.6.3.8l-4.5 3.9 1.4 5.8c.1.4-.4.7-.7.5l-5.1-3.1-5.1 3.1c-.4.2-.8-.1-.7-.5l1.4-5.8-4.5-3.9c-.3-.3-.2-.7.3-.8l6-.5 2.3-5.5c0-.4.5-.4.6 0z"/><path id="I" d="M200.3 102.6l2.3 5.5 6 .5c.4 0 .6.6.3.8l-4.5 3.9 1.4 5.8c.1.4-.4.7-.7.5l-5.1-3.1-5.1 3.1c-.4.2-.8-.1-.7-.5l1.4-5.8-4.5-3.9c-.3-.3-.2-.7.3-.8l6-.5 2.3-5.5c-.1-.4.4-.4.6 0z"/><path id="J" d="M193.3 239.9v11.8h-1.4v-11.8h1.4z"/><path id="K" d="M199.1 243.4c.6 0 1.1.1 1.6.3s.9.5 1.2.8c.3.4.6.8.8 1.3s.3 1.1.3 1.7-.1 1.2-.3 1.7-.4.9-.8 1.3c-.3.4-.7.6-1.2.8s-1 .3-1.6.3-1.1-.1-1.6-.3-.9-.5-1.2-.8c-.3-.4-.6-.8-.8-1.3s-.3-1.1-.3-1.7.1-1.2.3-1.7.4-1 .8-1.3c.3-.4.7-.6 1.2-.8.4-.2 1-.3 1.6-.3zm0 7.3c.8 0 1.4-.3 1.8-.8s.6-1.3.6-2.2c0-1-.2-1.7-.6-2.3-.4-.5-1-.8-1.8-.8-.4 0-.8.1-1.1.2s-.5.3-.7.6-.3.6-.4 1-.1.8-.1 1.3 0 .9.1 1.3.2.7.4 1 .4.5.7.6c.3 0 .7.1 1.1.1z"/><path id="L" d="M215.1 239.9v6.9h.7c.1 0 .1-.1.2-.2l2.6-2.7.2-.2c.1-.1.2-.1.3-.1h1.3l-3 3.2c-.1.1-.1.2-.2.2-.1.1-.2.1-.2.2.1.1.2.1.3.2s.2.2.2.3l3.2 4h-1.3c-.1 0-.2 0-.3-.1-.1 0-.2-.1-.2-.2l-2.7-3.3-.2-.2c-.1 0-.2-.1-.4-.1h-.4v3.9h-1.4v-11.8h1.3z"/><path id="M" d="M223.9 241c0 .1 0 .3-.1.4s-.1.2-.2.3-.2.2-.3.2c-.1.1-.3.1-.4.1s-.3 0-.4-.1-.2-.1-.3-.2-.2-.2-.2-.3c-.1-.1-.1-.2-.1-.4 0-.1 0-.3.1-.4s.1-.2.2-.3.2-.2.3-.2c.1-.1.2-.1.4-.1s.3 0 .4.1.2.1.3.2.2.2.2.3.1.3.1.4zm-.3 2.6v8.1h-1.4v-8.1h1.4z"/><path id="N" d="M226.1 251.7v-8.1h.8c.2 0 .3.1.4.3l.1.9c.4-.4.7-.7 1.2-.9s.9-.4 1.5-.4c.4 0 .8.1 1.2.2.3.1.6.4.8.6.2.3.4.6.5 1s.2.8.2 1.3v5.2h-1.4v-5.2c0-.6-.1-1.1-.4-1.4s-.7-.5-1.3-.5c-.4 0-.8.1-1.2.3s-.7.5-1 .8v6h-1.4z"/><path id="O" d="M237.7 243.4c.4 0 .7 0 1 .1l.8.3h2.2v.5c0 .2-.1.3-.3.3l-.9.1c.2.3.3.7.3 1.2 0 .4-.1.8-.2 1.1-.2.3-.4.6-.6.8-.3.2-.6.4-1 .5s-.8.2-1.2.2-.7 0-1.1-.1a.78.78 0 0 0-.4.4c-.1.1-.1.3-.1.4 0 .2.1.3.2.5.2.1.4.2.6.2.3 0 .5.1.9.1h1c.3 0 .7 0 1 .1l.9.3a.9.9 0 0 1 .6.6c.2.2.2.5.2.9a1.69 1.69 0 0 1-.3 1c-.2.3-.4.6-.7.9s-.7.5-1.2.6c-.5.2-1 .2-1.6.2s-1.1-.1-1.6-.2c-.4-.1-.8-.3-1.1-.5s-.5-.4-.7-.7c-.1-.3-.2-.5-.2-.8 0-.4.1-.7.4-1s.6-.5 1-.7c-.2-.1-.4-.2-.5-.4s-.2-.4-.2-.7c0-.1 0-.2.1-.4 0-.1.1-.2.2-.4s.2-.2.3-.4c.1-.1.3-.2.4-.3a1.96 1.96 0 0 1-.9-.9c-.2-.4-.3-.8-.3-1.3 0-.4.1-.8.2-1.1.2-.3.4-.6.6-.8s.6-.4 1-.5c.3 0 .7-.1 1.2-.1zm2.5 8.7c0-.2-.1-.4-.2-.5s-.3-.2-.5-.3-.4-.1-.7-.2h-1.6c-.2 0-.6 0-.8-.1-.3.1-.6.3-.7.5a1.08 1.08 0 0 0-.3.7c0 .2 0 .4.1.5s.2.3.4.4.4.2.7.3.6.1 1 .1.7 0 1-.1l.8-.3c.2-.1.4-.3.5-.5.3-.1.3-.3.3-.5zm-2.5-4.4c.3 0 .5 0 .8-.1l.6-.3a.55.55 0 0 0 .3-.5c.1-.2.1-.4.1-.7 0-.5-.2-.9-.5-1.2s-.7-.4-1.3-.4-1 .1-1.3.4-.5.7-.5 1.2c0 .2 0 .5.1.7s.2.4.3.5.3.3.6.3.5.1.8.1z"/><path id="P" d="M254.9 243.4c.6 0 1.1.1 1.6.3s.9.5 1.2.8c.3.4.6.8.8 1.3s.3 1.1.3 1.7-.1 1.2-.3 1.7-.4.9-.8 1.3c-.3.4-.7.6-1.2.8s-1 .3-1.6.3-1.1-.1-1.6-.3-.9-.5-1.2-.8c-.3-.4-.6-.8-.8-1.3s-.3-1.1-.3-1.7.1-1.2.3-1.7.4-1 .8-1.3c.3-.4.7-.6 1.2-.8s1-.3 1.6-.3zm0 7.3c.8 0 1.4-.3 1.8-.8s.6-1.3.6-2.2c0-1-.2-1.7-.6-2.3-.4-.5-1-.8-1.8-.8-.4 0-.8.1-1.1.2s-.5.3-.7.6-.3.6-.4 1-.1.8-.1 1.3 0 .9.1 1.3.2.7.4 1 .4.5.7.6c.3 0 .7.1 1.1.1z"/><path id="Q" d="M260.5 251.7v-8.1h.8c.2 0 .3 0 .3.1.1.1.1.2.1.3l.1 1.3c.3-.6.6-1 1-1.3s.9-.5 1.4-.5c.2 0 .4 0 .6.1s.3.1.5.2l-.2 1.1c0 .1-.1.2-.2.2s-.2 0-.3-.1c-.2 0-.4-.1-.6-.1-.5 0-.9.1-1.2.4a3.22 3.22 0 0 0-.8 1.3v5.2h-1.5z"/><path id="R" d="M290.9 243.4c.5 0 .9.1 1.3.2.4.2.8.4 1.1.7s.5.7.7 1.1c.2.5.3 1 .3 1.5 0 .2 0 .4-.1.4 0 .1-.1.1-.3.1h-5.4a4.44 4.44 0 0 0 .2 1.3c.1.3.3.7.5.9.2.3.5.4.8.6.3.1.7.2 1 .2.4 0 .7 0 .9-.1s.5-.2.7-.3.3-.2.5-.3c.1-.1.2-.1.3-.1s.2 0 .3.1l.4.5-.6.6c-.2.2-.5.3-.8.4s-.6.2-.9.2c-.3.1-.6.1-.9.1-.6 0-1.1-.1-1.5-.3-.5-.2-.9-.5-1.2-.8-.3-.4-.6-.8-.8-1.4-.2-.5-.3-1.2-.3-1.9 0-.6.1-1.1.3-1.6s.4-.9.7-1.3.7-.6 1.2-.8 1 0 1.6 0zm0 1.1c-.7 0-1.2.2-1.6.6s-.6.9-.7 1.7h4.4c0-.3 0-.6-.1-.9s-.2-.5-.4-.7-.4-.4-.6-.5-.6-.2-1-.2z"/><path id="S" d="M314.8 254c0 .1-.1.2-.2.3s-.2.1-.3.1h-1.1l1.5-3.2-3.3-7.6h1.2c.1 0 .2 0 .3.1l.2.2 2.2 5.1c0 .1.1.2.1.4 0 .1.1.2.1.4 0-.1.1-.2.1-.4 0-.1.1-.2.1-.4l2.1-5.1c0-.1.1-.2.2-.2.1-.1.2-.1.3-.1h1.1l-4.6 10.4z"/><path id="T" d="M335.1 243.4c.6 0 1.1.1 1.6.3s.9.5 1.2.8c.3.4.6.8.8 1.3s.3 1.1.3 1.7-.1 1.2-.3 1.7-.4.9-.8 1.3c-.3.4-.7.6-1.2.8s-1 .3-1.6.3-1.1-.1-1.6-.3-.9-.5-1.2-.8c-.3-.4-.6-.8-.8-1.3s-.3-1.1-.3-1.7.1-1.2.3-1.7.4-1 .8-1.3c.3-.4.7-.6 1.2-.8s1-.3 1.6-.3zm0 7.3c.8 0 1.4-.3 1.8-.8s.6-1.3.6-2.2c0-1-.2-1.7-.6-2.3-.4-.5-1-.8-1.8-.8-.4 0-.8.1-1.1.2s-.5.3-.7.6-.3.6-.4 1-.1.8-.1 1.3 0 .9.1 1.3.2.7.4 1 .4.5.7.6c.4 0 .7.1 1.1.1z"/><path id="U" d="M355.3 251.7c-.2 0-.3-.1-.4-.3l-.1-1c-.3.4-.7.8-1.2 1-.4.3-1 .4-1.5.4s-.9-.1-1.3-.3-.7-.4-1-.8c-.3-.3-.5-.8-.6-1.3s-.2-1.1-.2-1.8c0-.6.1-1.2.2-1.7a2.73 2.73 0 0 1 .7-1.3c.3-.4.7-.7 1.1-.9s.9-.3 1.5-.3c.5 0 .9.1 1.3.3s.7.4.9.7v-4.5h1.4v11.8h-.8zm-2.7-1.1c.5 0 .9-.1 1.2-.3s.7-.5 1-.9v-3.9c-.3-.4-.5-.6-.9-.7s-.7-.2-1-.2c-.8 0-1.3.3-1.7.8s-.6 1.3-.6 2.3c0 .5 0 1 .1 1.4s.2.7.4.9.4.4.6.5.5.1.9.1z"/><path id="V" d="M364.1 251.8c-.6 0-1.1-.2-1.5-.5-.3-.4-.5-.9-.5-1.5v-5h-1c-.1 0-.2 0-.2-.1s-.1-.1-.1-.2v-.6l1.3-.2.3-2.5c0-.1 0-.1.1-.2s.1-.1.2-.1h.7v2.8h2.3v1h-2.3v4.9c0 .3.1.6.2.8.2.2.4.2.6.2.1 0 .3 0 .4-.1s.2-.1.3-.1.1-.1.2-.1.1-.1.1-.1c.1 0 .1 0 .2.1l.4.7c-.2.2-.5.4-.9.5-.1.2-.4.3-.8.3z"/><path id="W" d="M390.8 241c0 .1 0 .3-.1.4s-.1.2-.2.3-.2.2-.3.2c-.1.1-.3.1-.4.1s-.3 0-.4-.1-.2-.1-.3-.2-.2-.2-.2-.3c-.1-.1-.1-.2-.1-.4 0-.1 0-.3.1-.4s.1-.2.2-.3.2-.2.3-.2c.1-.1.2-.1.4-.1s.3 0 .4.1.2.1.3.2.2.2.2.3c.1.1.1.3.1.4zm-.3 2.6v8.1h-1.4v-8.1h1.4z"/><path id="X" d="M415.1 251.7v-8.1h.8c.2 0 .3.1.4.3l.1.9c.4-.4.7-.7 1.2-.9s.9-.4 1.5-.4c.4 0 .8.1 1.2.2.3.1.6.4.8.6s.4.6.5 1 .2.8.2 1.3v5.2h-1.4v-5.2c0-.6-.1-1.1-.4-1.4s-.7-.5-1.3-.5c-.4 0-.8.1-1.2.3s-.7.5-1 .8v6h-1.4z"/><path id="Y" d="M457.5 243.6v5.2c0 .6.1 1.1.4 1.4s.7.5 1.3.5c.4 0 .8-.1 1.2-.3s.7-.5 1-.8v-6h1.4v8.1h-.8c-.2 0-.3-.1-.4-.3l-.1-.9c-.4.4-.7.7-1.2.9-.4.2-.9.4-1.5.4-.4 0-.8-.1-1.2-.2-.3-.1-.6-.4-.9-.6s-.4-.6-.5-1-.2-.8-.2-1.3v-5.2h1.5z"/><path id="Z" d="M489.7 251.7v-6.9l-.9-.1c-.1 0-.2-.1-.3-.1-.1-.1-.1-.1-.1-.2v-.6h1.3v-.8a3.73 3.73 0 0 1 .2-1.2c.1-.3.3-.7.6-.9.2-.2.5-.4.9-.6a3.73 3.73 0 0 1 1.2-.2c.4 0 .7.1 1 .2v.7c0 .1-.1.2-.1.2h-.6c-.2 0-.5 0-.7.1s-.4.2-.5.3-.3.3-.3.6c-.1.2-.1.5-.1.9v.7h2.3v1h-2.3v6.9h-1.6z"/><path id="a" d="M498.1 243.4c.6 0 1.1.1 1.6.3s.9.5 1.2.8c.3.4.6.8.8 1.3s.3 1.1.3 1.7-.1 1.2-.3 1.7-.4.9-.8 1.3c-.3.4-.7.6-1.2.8s-1 .3-1.6.3-1.1-.1-1.6-.3-.9-.5-1.2-.8c-.3-.4-.6-.8-.8-1.3s-.3-1.1-.3-1.7.1-1.2.3-1.7.4-1 .8-1.3c.3-.4.7-.6 1.2-.8s1-.3 1.6-.3zm0 7.3c.8 0 1.4-.3 1.8-.8s.6-1.3.6-2.2c0-1-.2-1.7-.6-2.3-.4-.5-1-.8-1.8-.8-.4 0-.8.1-1.1.2s-.5.3-.7.6-.3.6-.4 1-.1.8-.1 1.3 0 .9.1 1.3.2.7.4 1 .4.5.7.6.7.1 1.1.1z"/><path id="b" d="M523.4 243.6v5.2c0 .6.1 1.1.4 1.4s.7.5 1.3.5c.4 0 .8-.1 1.2-.3s.7-.5 1-.8v-6h1.4v8.1h-.8c-.2 0-.3-.1-.4-.3l-.1-.9c-.4.4-.7.7-1.2.9-.4.2-.9.4-1.5.4-.4 0-.8-.1-1.2-.2s-.6-.4-.9-.6c-.2-.3-.4-.6-.5-1s-.2-.8-.2-1.3v-5.2h1.5z"/><path id="c" d="M563.1 244.9c-.1.1-.2.2-.3.2s-.2 0-.3-.1-.2-.1-.4-.2-.3-.1-.5-.2-.4-.1-.7-.1c-.2 0-.5 0-.6.1-.2.1-.4.1-.5.3-.1.1-.2.2-.3.4-.1.1-.1.3-.1.5s.1.4.2.5.3.3.5.4.4.2.7.3.5.2.8.2.5.2.8.3.5.2.7.4.4.4.5.6.2.5.2.8c0 .4-.1.7-.2 1s-.3.6-.6.8-.6.4-1 .5-.8.2-1.3.2c-.6 0-1.1-.1-1.5-.3-.5-.2-.8-.4-1.2-.7l.3-.5c0-.1.1-.1.2-.2.1 0 .1-.1.2-.1s.2 0 .3.1.2.2.4.2c.2.1.3.2.6.2.2.1.5.1.8.1s.5 0 .7-.1.4-.2.5-.3.2-.3.3-.4.1-.3.1-.5-.1-.4-.2-.6-.3-.3-.5-.4-.4-.2-.7-.3-.5-.2-.8-.2l-.8-.3c-.3-.1-.5-.2-.7-.4s-.4-.4-.5-.6-.2-.5-.2-.9c0-.3.1-.6.2-.9s.3-.5.6-.8c.2-.2.5-.4.9-.5s.8-.2 1.2-.2c.5 0 1 .1 1.4.3s.8.4 1.1.7l-.3.7z"/><path id="d" d="M567.3 241c0 .1 0 .3-.1.4s-.1.2-.2.3-.2.2-.3.2c-.1.1-.3.1-.4.1s-.3 0-.4-.1-.2-.1-.3-.2-.2-.2-.2-.3c-.1-.1-.1-.2-.1-.4 0-.1 0-.3.1-.4s.1-.2.2-.3.2-.2.3-.2c.1-.1.2-.1.4-.1s.3 0 .4.1.2.1.3.2.2.2.2.3.1.3.1.4zm-.4 2.6v8.1h-1.4v-8.1h1.4z"/><path id="e" d="M569.5 251.7v-8.1h.8c.2 0 .3.1.4.3l.1.9c.4-.4.7-.7 1.2-.9.4-.2.9-.4 1.5-.4.4 0 .8.1 1.2.2s.6.4.8.6.4.6.5 1 .2.8.2 1.3v5.2h-1.4v-5.2c0-.6-.1-1.1-.4-1.4s-.7-.5-1.3-.5c-.4 0-.8.1-1.2.3s-.7.5-1 .8v6h-1.4z"/><path id="f" d="M581.6 243.4c.5 0 .9.1 1.3.2.4.2.8.4 1.1.7s.5.7.7 1.1c.2.5.3 1 .3 1.5 0 .2 0 .4-.1.4 0 .1-.1.1-.3.1h-5.4a4.44 4.44 0 0 0 .2 1.3c.1.3.3.7.5.9.2.3.5.4.8.6.3.1.7.2 1 .2.4 0 .7 0 .9-.1s.5-.2.7-.3.3-.2.5-.3c.1-.1.2-.1.3-.1s.2 0 .3.1l.4.5-.6.6c-.2.2-.5.3-.8.4s-.6.2-.9.2-.6.1-.9.1c-.6 0-1.1-.1-1.5-.3-.5-.2-.9-.5-1.2-.8-.3-.4-.6-.8-.8-1.4-.2-.5-.3-1.2-.3-1.9 0-.6.1-1.1.3-1.6s.4-.9.7-1.3.7-.6 1.2-.8 1 0 1.6 0zm0 1.1c-.7 0-1.2.2-1.6.6s-.6.9-.7 1.7h4.4c0-.3 0-.6-.1-.9s-.2-.5-.4-.7-.4-.4-.6-.5c-.4-.2-.7-.2-1-.2z"/><path id="g" d="M602.7 243.6h1.1c.1 0 .2 0 .3.1l.2.2 1.6 5.2c0 .2.1.4.1.6s.1.4.1.5c0-.2.1-.4.1-.5s.1-.4.2-.6l1.7-5.2c0-.1.1-.1.1-.2.1-.1.2-.1.3-.1h.6c.1 0 .2 0 .3.1s.1.1.1.2l1.7 5.2c.1.2.1.4.2.6s.1.4.1.5c0-.2.1-.4.1-.6s.1-.4.1-.5l1.6-5.2c0-.1.1-.2.2-.2.1-.1.2-.1.3-.1h1.1l-2.6 8.1h-1.1c-.1 0-.2-.1-.3-.3l-1.8-5.5c0-.1-.1-.2-.1-.4 0-.1-.1-.2-.1-.4 0 .1-.1.2-.1.4 0 .1-.1.3-.1.4l-1.8 5.5c-.1.2-.2.3-.3.3h-1.1l-2.8-8.1z"/><path id="h" d="M653.5 243.4c.5 0 .9.1 1.3.2.4.2.8.4 1.1.7s.5.7.7 1.1c.2.5.3 1 .3 1.5 0 .2 0 .4-.1.4 0 .1-.1.1-.3.1h-5.4a4.44 4.44 0 0 0 .2 1.3c.1.3.3.7.5.9.2.3.5.4.8.6.3.1.7.2 1 .2.4 0 .7 0 .9-.1s.5-.2.7-.3.3-.2.5-.3c.1-.1.2-.1.3-.1s.2 0 .3.1l.4.5-.6.6c-.2.2-.5.3-.8.4s-.6.2-.9.2-.6.1-.9.1c-.6 0-1.1-.1-1.5-.3-.5-.2-.9-.5-1.2-.8-.3-.4-.6-.8-.8-1.4-.2-.5-.3-1.2-.3-1.9 0-.6.1-1.1.3-1.6s.4-.9.7-1.3.7-.6 1.2-.8 1 0 1.6 0zm0 1.1c-.7 0-1.2.2-1.6.6s-.6.9-.7 1.7h4.4c0-.3 0-.6-.1-.9s-.2-.5-.4-.7-.4-.4-.6-.5c-.3-.2-.6-.2-1-.2z"/><path id="i" d="M210.5 272.7v-11.8h1.4v4.8a2.73 2.73 0 0 1 1.2-.9c.4-.2.9-.3 1.5-.3.4 0 .8.1 1.2.2.3.1.6.4.8.6.2.3.4.6.5 1s.2.8.2 1.3v5.2h-1.4v-5.2c0-.6-.1-1.1-.4-1.4s-.7-.5-1.3-.5c-.4 0-.8.1-1.2.3s-.7.5-1 .8v6h-1.5z"/><path id="j" d="M225.4 272.7h-.6c-.1 0-.3 0-.3-.1-.1 0-.1-.1-.2-.3l-.2-.8c-.2.2-.4.4-.6.5-.2.2-.4.3-.6.4s-.5.2-.7.2c-.3.1-.5.1-.8.1s-.6 0-.9-.1-.5-.2-.7-.4-.4-.4-.5-.7-.2-.6-.2-1c0-.3.1-.6.3-.9a2.36 2.36 0 0 1 .9-.8 11.64 11.64 0 0 1 1.5-.6c.6-.1 1.4-.2 2.3-.2v-.6c0-.6-.1-1.1-.4-1.4s-.7-.5-1.2-.5c-.3 0-.6 0-.9.1s-.4.2-.6.3a1.38 1.38 0 0 0-.4.3c-.1.1-.2.1-.4.1-.1 0-.2 0-.3-.1-.1 0-.1-.1-.2-.2l-.3-.5c.4-.4.9-.8 1.4-1s1.1-.3 1.7-.3a3.73 3.73 0 0 1 1.2.2c.4.1.6.4.9.6.2.3.4.6.5 1s.2.8.2 1.2v5.5zm-3.7-.9c.3 0 .5 0 .7-.1s.4-.1.6-.2.4-.2.5-.3c.2-.1.3-.3.5-.5V269c-.7 0-1.2 0-1.7.1a8.11 8.11 0 0 0-1.1.3c-.3.1-.5.3-.6.5s-.2.4-.2.6 0 .4.1.6a1.38 1.38 0 0 0 .3.4.76.76 0 0 0 .4.2c.1.1.3.1.5.1z"/><path id="k" d="M226.3 264.6h1.2c.1 0 .2 0 .3.1l.2.2 2.1 5.2c.1.2.1.4.2.6 0 .2.1.4.1.6 0-.2.1-.4.1-.6s.1-.4.2-.6l2.1-5.2c0-.1.1-.2.2-.2.1-.1.2-.1.3-.1h1.1l-3.3 8.1h-1.3l-3.5-8.1z"/><path id="l" d="M251.2 264.4c.4 0 .7 0 1 .1l.8.3h2.2v.5c0 .2-.1.3-.3.3l-.9.1c.2.3.3.7.3 1.2 0 .4-.1.8-.2 1.1-.2.3-.4.6-.6.8-.3.2-.6.4-1 .5s-.8.2-1.2.2-.7 0-1.1-.1a.78.78 0 0 0-.4.4c-.1.1-.1.3-.1.4 0 .2.1.3.2.5.2.1.4.2.6.2.3 0 .5.1.9.1h1c.3 0 .7 0 1 .1l.9.3a.9.9 0 0 1 .6.6c.2.2.2.5.2.9a1.69 1.69 0 0 1-.3 1c-.2.3-.4.6-.7.9s-.7.5-1.2.6c-.5.2-1 .2-1.6.2s-1.1-.1-1.6-.2c-.4-.1-.8-.3-1.1-.5s-.5-.4-.7-.7c-.1-.3-.2-.5-.2-.8 0-.4.1-.7.4-1s.6-.5 1-.7c-.2-.1-.4-.2-.5-.4s-.2-.4-.2-.7c0-.1 0-.2.1-.4 0-.1.1-.2.2-.4s.2-.2.3-.4c.1-.1.3-.2.4-.3a1.96 1.96 0 0 1-.9-.9c-.2-.4-.3-.8-.3-1.3 0-.4.1-.8.2-1.1.2-.3.4-.6.6-.8s.6-.4 1-.5c.4 0 .8-.1 1.2-.1zm2.5 8.7c0-.2-.1-.4-.2-.5s-.3-.2-.5-.3-.4-.1-.7-.2h-1.6c-.2 0-.6 0-.8-.1-.3.1-.6.3-.7.5a1.08 1.08 0 0 0-.3.7c0 .2 0 .4.1.5s.2.3.4.4.4.2.7.3.6.1 1 .1.7 0 1-.1l.8-.3c.2-.1.4-.3.5-.5.3-.1.3-.3.3-.5zm-2.5-4.4c.3 0 .5 0 .8-.1l.6-.3a.55.55 0 0 0 .3-.5c.1-.2.1-.4.1-.7 0-.5-.2-.9-.5-1.2s-.7-.4-1.3-.4-1 .1-1.3.4-.5.7-.5 1.2c0 .2 0 .5.1.7s.2.4.3.5.3.3.6.3.5.1.8.1z"/><path id="m" d="M293.1 264.6v5.2c0 .6.1 1.1.4 1.4s.7.5 1.3.5c.4 0 .8-.1 1.2-.3s.7-.5 1-.8v-6h1.4v8.1h-.8c-.2 0-.3-.1-.4-.3l-.1-.9c-.4.4-.7.7-1.2.9-.4.2-.9.4-1.5.4-.4 0-.8-.1-1.2-.2-.3-.1-.6-.4-.9-.6-.2-.3-.4-.6-.5-1s-.2-.8-.2-1.3v-5.2h1.5z"/><path id="n" d="M306.3 266c0 .1-.1.1-.1.1h-.2c-.1 0-.2 0-.3-.1s-.2-.1-.4-.2-.3-.2-.5-.2c-.2-.1-.5-.1-.8-.1-.4 0-.7.1-1 .2s-.6.3-.8.6-.4.6-.5 1-.2.8-.2 1.3.1.9.2 1.3.3.7.5 1 .4.5.7.6.6.2 1 .2c.3 0 .6 0 .9-.1l.6-.3c.1-.1.3-.2.4-.3s.2-.1.3-.1.2 0 .3.1l.4.5c-.4.4-.8.7-1.3.9s-1.1.3-1.7.3c-.5 0-1-.1-1.4-.3a4.44 4.44 0 0 1-1.1-.8c-.3-.4-.6-.8-.8-1.3s-.3-1.1-.3-1.8c0-.6.1-1.2.3-1.7s.4-1 .7-1.3a2.73 2.73 0 0 1 1.2-.9c.5-.2 1-.3 1.6-.3s1.1.1 1.5.3.8.4 1.2.8l-.4.6z"/><path id="o" d="M391.9 264.4c.5 0 .9.1 1.3.2.4.2.8.4 1.1.7s.5.7.7 1.1c.2.5.3 1 .3 1.5 0 .2 0 .4-.1.4 0 .1-.1.1-.3.1h-5.4a4.44 4.44 0 0 0 .2 1.3c.1.3.3.7.5.9.2.3.5.4.8.6.3.1.7.2 1 .2.4 0 .7 0 .9-.1s.5-.2.7-.3.3-.2.5-.3c.1-.1.2-.1.3-.1s.2 0 .3.1l.4.5-.6.6c-.2.2-.5.3-.8.4s-.6.2-.9.2c-.3.1-.6.1-.9.1-.6 0-1.1-.1-1.5-.3-.5-.2-.9-.5-1.2-.8-.3-.4-.6-.8-.8-1.4-.2-.5-.3-1.2-.3-1.9 0-.6.1-1.1.3-1.6s.4-.9.7-1.3.7-.6 1.2-.8 1 0 1.6 0zm.1 1.1c-.7 0-1.2.2-1.6.6s-.6.9-.7 1.7h4.4c0-.3 0-.6-.1-.9s-.2-.5-.4-.7-.4-.4-.6-.5-.7-.2-1-.2z"/><path id="p" d="M453.6 272.7v-8.1h.8c.2 0 .3 0 .3.1s.1.2.1.3l.1 1.3c.3-.6.6-1 1-1.3s.9-.5 1.4-.5c.2 0 .4 0 .6.1s.3.1.5.2l-.2 1.1c0 .1-.1.2-.2.2s-.2 0-.3-.1c-.2 0-.4-.1-.6-.1-.5 0-.9.1-1.2.4a3.22 3.22 0 0 0-.8 1.3v5.2h-1.5z"/><path id="q" d="M593 264.4c.5 0 .9.1 1.3.2.4.2.8.4 1.1.7s.5.7.7 1.1c.2.5.3 1 .3 1.5 0 .2 0 .4-.1.4 0 .1-.1.1-.3.1h-5.4a4.44 4.44 0 0 0 .2 1.3c.1.3.3.7.5.9.2.3.5.4.8.6.3.1.7.2 1 .2.4 0 .7 0 .9-.1s.5-.2.7-.3.3-.2.5-.3c.1-.1.2-.1.3-.1s.2 0 .3.1l.4.5-.6.6c-.2.2-.5.3-.8.4s-.6.2-.9.2-.6.1-.9.1c-.6 0-1.1-.1-1.5-.3-.5-.2-.9-.5-1.2-.8-.3-.4-.6-.8-.8-1.4-.2-.5-.3-1.2-.3-1.9 0-.6.1-1.1.3-1.6s.4-.9.7-1.3.7-.6 1.2-.8 1 0 1.6 0zm0 1.1c-.7 0-1.2.2-1.6.6s-.6.9-.7 1.7h4.4c0-.3 0-.6-.1-.9s-.2-.5-.4-.7-.4-.4-.6-.5c-.4-.2-.6-.2-1-.2z"/><path id="r" d="M598.2 272.7v-8.1h.8c.2 0 .3.1.4.3l.1.8c.3-.4.6-.7 1-.9s.8-.4 1.3-.4 1 .2 1.3.5.6.7.7 1.2c.1-.3.3-.5.4-.8.2-.2.4-.4.6-.5s.5-.2.7-.3c.3-.1.5-.1.8-.1.4 0 .8.1 1.1.2s.6.3.8.6.4.6.5 1 .2.8.2 1.3v5.2h-1.4v-5.2c0-.6-.1-1.1-.4-1.4s-.7-.5-1.2-.5c-.2 0-.5 0-.7.1s-.4.2-.6.4-.3.4-.4.6-.1.5-.1.8v5.2h-1.4v-5.2c0-.7-.1-1.1-.4-1.5-.3-.3-.6-.5-1.1-.5a1.69 1.69 0 0 0-1 .3c-.3.2-.6.4-.8.8v6h-1.2z"/><path id="s" d="M159.3 293.7h-.6c-.1 0-.3 0-.3-.1-.1 0-.1-.1-.2-.3l-.2-.8c-.2.2-.4.4-.6.5-.2.2-.4.3-.6.4s-.5.2-.7.2c-.3.1-.5.1-.8.1s-.6 0-.9-.1-.5-.2-.7-.4-.4-.4-.5-.7-.2-.6-.2-1c0-.3.1-.6.3-.9a2.36 2.36 0 0 1 .9-.8 11.64 11.64 0 0 1 1.5-.6c.6-.1 1.4-.2 2.3-.2v-.6c0-.6-.1-1.1-.4-1.4s-.7-.5-1.2-.5c-.3 0-.6 0-.9.1s-.4.2-.6.3a1.38 1.38 0 0 0-.4.3c-.1.1-.2.1-.4.1-.1 0-.2 0-.3-.1-.1 0-.1-.1-.2-.2l-.3-.5c.4-.4.9-.8 1.4-1s1.1-.3 1.7-.3a3.73 3.73 0 0 1 1.2.2c.4.1.6.4.9.6.2.3.4.6.5 1s.2.8.2 1.2v5.5zm-3.7-.9c.3 0 .5 0 .7-.1s.4-.1.6-.2.4-.2.5-.3c.2-.1.3-.3.5-.5V290c-.7 0-1.2 0-1.7.1a8.11 8.11 0 0 0-1.1.3c-.3.1-.5.3-.6.5s-.2.4-.2.6 0 .4.1.6a1.38 1.38 0 0 0 .3.4.76.76 0 0 0 .4.2c.1.1.3.1.5.1z"/><path id="t" d="M161.5 293.7v-11.8h1.4v4.8a2.73 2.73 0 0 1 1.2-.9c.4-.2.9-.4 1.5-.4.5 0 .9.1 1.3.3s.7.4 1 .8c.3.3.5.8.6 1.3s.2 1.1.2 1.8c0 .6-.1 1.2-.2 1.7a2.73 2.73 0 0 1-.7 1.3c-.3.3-.7.7-1.1.9s-.9.3-1.5.3c-.5 0-1-.1-1.3-.3-.4-.2-.7-.5-1-.8l-.1.7c0 .2-.2.3-.4.3h-.9zm3.6-7.1c-.5 0-.9.1-1.2.3s-.7.5-1 .9v3.9c.3.4.5.6.9.7s.7.2 1 .2c.8 0 1.3-.3 1.7-.8s.6-1.3.6-2.3c0-.5 0-1-.1-1.4s-.2-.7-.4-.9-.4-.4-.6-.5c-.3-.1-.6-.1-.9-.1z"/><path id="u" d="M415.7 286.9c-.1.1-.2.2-.3.2s-.2 0-.3-.1-.2-.1-.4-.2c-.1-.1-.3-.1-.5-.2s-.4-.1-.7-.1c-.2 0-.5 0-.6.1-.2.1-.4.1-.5.3-.1.1-.2.2-.3.4-.1.1-.1.3-.1.5s.1.4.2.5.3.3.5.4.4.2.7.3.5.2.8.2l.8.3c.3.1.5.2.7.4s.4.4.5.6.2.5.2.8c0 .4-.1.7-.2 1s-.3.6-.6.8-.6.4-1 .5-.8.2-1.3.2c-.6 0-1.1-.1-1.5-.3-.5-.2-.8-.4-1.2-.7l.3-.5c0-.1.1-.1.2-.2.1 0 .1-.1.2-.1s.2 0 .3.1.2.2.4.2c.2.1.3.2.6.2.2.1.5.1.8.1s.5 0 .7-.1.4-.2.5-.3.2-.3.3-.4c.1-.2.1-.3.1-.5s-.1-.4-.2-.6-.3-.3-.5-.4-.4-.2-.7-.3-.5-.2-.8-.2l-.8-.3c-.3-.1-.5-.2-.7-.4s-.4-.4-.5-.6-.2-.5-.2-.9c0-.3.1-.6.2-.9s.3-.5.6-.8c.2-.2.5-.4.9-.5s.8-.2 1.2-.2c.5 0 1 .1 1.4.3s.8.4 1.1.7l-.3.7z"/><path id="v" d="M422.7 286.9c-.1.1-.2.2-.3.2s-.2 0-.3-.1-.2-.1-.4-.2-.3-.1-.5-.2-.4-.1-.7-.1c-.2 0-.5 0-.6.1-.2.1-.4.1-.5.3-.1.1-.2.2-.3.4-.1.1-.1.3-.1.5s.1.4.2.5.3.3.5.4.4.2.7.3c.2.1.5.2.8.2l.8.3c.2.1.5.2.7.4s.4.4.5.6.2.5.2.8c0 .4-.1.7-.2 1s-.3.6-.6.8-.6.4-1 .5-.8.2-1.3.2c-.6 0-1.1-.1-1.5-.3-.5-.2-.8-.4-1.2-.7l.3-.5c0-.1.1-.1.2-.2.1 0 .1-.1.2-.1s.2 0 .3.1.2.2.4.2.3.2.6.2c.2.1.5.1.8.1s.5 0 .7-.1.4-.2.5-.3.2-.3.3-.4.1-.3.1-.5-.1-.4-.2-.6-.3-.3-.5-.4-.4-.2-.7-.3-.5-.2-.8-.2l-.8-.3c-.3-.1-.5-.2-.7-.4s-.4-.4-.5-.6-.2-.5-.2-.9c0-.3.1-.6.2-.9s.3-.5.6-.8c.2-.2.5-.4.9-.5s.8-.2 1.2-.2c.5 0 1 .1 1.4.3s.8.4 1.1.7l-.3.7z"/><path id="w" d="M436.1 282.2v1.3h-3.7v10.2h-1.6v-10.2h-3.7v-1.3h9z"/><path id="x" d="M542.1 293.8c-.6 0-1.1-.2-1.5-.5-.3-.4-.5-.9-.5-1.5v-5h-1c-.1 0-.2 0-.2-.1s-.1-.1-.1-.2v-.6l1.3-.2.3-2.5c0-.1 0-.1.1-.2s.1-.1.2-.1h.7v2.8h2.3v1h-2.3v4.9c0 .3.1.6.2.8s.4.2.6.2c.1 0 .3 0 .4-.1s.2-.1.3-.1.1-.1.2-.1.1-.1.1-.1c.1 0 .1 0 .2.1l.4.7c-.2.2-.5.4-.9.5 0 .2-.4.3-.8.3z"/><path id="y" d="M155.2 310.4v4.3h-1.5v-11.5h3.4c.7 0 1.4.1 1.9.3s1 .4 1.3.7a4.44 4.44 0 0 1 .8 1.1c.2.4.3.9.3 1.5 0 .5-.1 1-.3 1.5a4.44 4.44 0 0 1-.8 1.1c-.4.3-.8.6-1.3.7s-1.1.3-1.8.3h-2zm0-1.3h1.8c.4 0 .8-.1 1.2-.2s.6-.3.9-.5c.2-.2.4-.5.5-.8s.2-.6.2-1c0-.7-.2-1.3-.7-1.7s-1.1-.6-2-.6h-1.8v4.8z"/><path id="z" d="M293.7 307.9c-.1.1-.2.2-.3.2s-.2 0-.3-.1-.2-.1-.4-.2c-.1-.1-.3-.1-.5-.2s-.4-.1-.7-.1c-.2 0-.5 0-.6.1s-.4.1-.5.3a1.38 1.38 0 0 0-.3.4c-.1.1-.1.3-.1.5s.1.4.2.5.3.3.5.4.4.2.7.3.5.2.8.2.5.2.8.3.5.2.7.4.4.4.5.6.2.5.2.8c0 .4-.1.7-.2 1s-.3.6-.6.8-.6.4-1 .5-.8.2-1.3.2c-.6 0-1.1-.1-1.5-.3-.5-.2-.8-.4-1.2-.7l.3-.5c0-.1.1-.1.2-.2.1 0 .1-.1.2-.1s.2 0 .3.1.2.2.4.2c.2.1.3.2.6.2.2.1.5.1.8.1s.5 0 .7-.1.4-.2.5-.3.2-.3.3-.4c.1-.2.1-.3.1-.5s-.1-.4-.2-.6-.3-.3-.5-.4-.4-.2-.7-.3-.5-.2-.8-.2l-.8-.3c-.3-.1-.5-.2-.7-.4s-.4-.4-.5-.6-.2-.5-.2-.9c0-.3.1-.6.2-.9s.3-.5.6-.8c.2-.2.5-.4.9-.5s.8-.2 1.2-.2c.5 0 1 .1 1.4.3s.8.4 1.1.7l-.3.7z"/><path id="AA" d="M302.5 313.8c0-.1 0-.3.1-.4s.1-.2.2-.3.2-.2.3-.2c.1-.1.3-.1.4-.1s.3 0 .4.1.2.1.3.2.2.2.2.3c.1.1.1.3.1.4s0 .3-.1.4-.1.2-.2.3-.2.2-.3.2-.3.1-.4.1-.3 0-.4-.1-.2-.1-.3-.2-.2-.2-.2-.3c-.1-.1-.1-.3-.1-.4z"/></defs><clipPath id="AB"><use xlink:href="#A"/></clipPath><circle cx="93.5" cy="115.5" r="38.9" clip-path="url(#AB)" fill="#ddd"/><defs><circle id="AC" cx="93.5" cy="115.5" r="38.9"/></defs><clipPath id="AD"><use xlink:href="#AC"/></clipPath><g clip-path="url(#AD)"><g class="Z"><g fill="#f5be92"><ellipse transform="matrix(.9499 -.3126 .3126 .9499 -30.1853 30.1416)" cx="78.9" cy="109.2" rx="2.1" ry="3.5"/><ellipse transform="matrix(.3129 -.9498 .9498 .3129 -29.3057 177.8214)" cx="108.2" cy="109.2" rx="3.5" ry="2.1"/></g><path d="M103.8 91.2c3 .5 4.7 2.5 5.4 5.3 1.9 7.3-2 23.1-15.5 23.3-6.9.1-11.9-1.7-13.7-7.3s-2.6-14.7 1.4-19.7c4.9-6.4 15.4-6.4 22.4-1.6z" class="X"/><path d="M87.9 128.3c-12.6 5.5-16.4 8.5-17.8 9.8-2.3 2-3.6 9.9-5 16.3h57c-1.4-6.4-2.5-14.3-4.8-16.3-1.5-1.3-5.1-4.2-17.7-9.7l-11.7-.1z" fill="#4c9dd2" stroke="#4c9dd2" stroke-width="1.084" stroke-linejoin="round" class="Y"/><g fill="#f5be92"><path d="M87.5 117.3v15c3.4 4 8.9 4.1 12.2 0v-14.9c0-7.6-12.2-7.6-12.2-.1z"/><path d="M93.6 92.3c-20.5 0-13.1 26.7-11.8 28.7 1.5 2.2 8.5 6 11.8 6s10.3-4.3 11.8-6.5c1.3-2 8.7-28.2-11.8-28.2z"/></g><path d="M83.6 98.7c3.6 2.2 6.4-1.1 9.6.3 3.3 1.4 12.6-2.4 14.5 12.4 3.1-10.7-2.1-19.7-13.9-20.2-12.5-.5-17.6 9.3-14.1 19.9-.2-5.7 1.2-9.5 3.9-12.4z" class="X"/><g fill="#fff" stroke="#fff" stroke-width="2" class="Y"><path d="M86.9 128.2l-4.3 2.3 6.3 8.7 4.8-4.5-6.8-6.5z"/><path d="M100.3 128.2l4.3 2.3-6.3 8.7-4.8-4.5 6.8-6.5z"/></g></g><path d="M83.3 97.8c.3 1.8 2.9 2 4.3 2.2 2.8.3 6.2-.8 8.4-2.4.2-.1.1-.4-.1-.4-2.4-.1-4.6 1.5-7 1.7-1.7.1-4.1-.1-5.5-1.3 0 0-.1.1-.1.2h0z" class="X"/><path d="M85.2 111.1s.7 1.1 2.7 1.1 2.4-1 2.4-1.3c0 0-.8-1.3-2.4-1.3s-2.7 1.5-2.7 1.5z" fill="#fff"/><radialGradient id="AE" cx="87.89" cy="289.147" r="1.168" gradientTransform="matrix(1 0 0 -1 0 400)" gradientUnits="userSpaceOnUse"><stop offset="0" stop-color="#624a2e"/><stop offset=".036" stop-color="#6d5633"/><stop offset=".122" stop-color="#816b3d"/><stop offset=".223" stop-color="#907c45"/><stop offset=".348" stop-color="#9b884a"/><stop offset=".523" stop-color="#a18f4d"/><stop offset="1" stop-color="#a3914e"/></radialGradient><circle cx="87.8" cy="110.9" r="1.2" fill="url(#AE)"/><path d="M87.8 109.8a1.11 1.11 0 0 1 1.1 1.1 1.11 1.11 0 0 1-1.1 1.1 1.11 1.11 0 0 1-1.1-1.1c.1-.6.6-1.1 1.1-1.1m0-.2c-.7 0-1.3.6-1.3 1.3s.6 1.3 1.3 1.3 1.3-.6 1.3-1.3-.5-1.3-1.3-1.3h0z" fill="#624a2e"/><circle cx="87.8" cy="110.9" r=".5"/><path d="M101.9 111.1s-.7 1.1-2.7 1.1-2.4-1-2.4-1.3c0 0 .8-1.3 2.4-1.3s2.7 1.5 2.7 1.5z" fill="#fff"/><radialGradient id="AF" cx="-470.843" cy="289.147" r="1.168" gradientTransform="matrix(-1 0 0 -1 -371.5322 400)" gradientUnits="userSpaceOnUse"><stop offset="0" stop-color="#624a2e"/><stop offset=".036" stop-color="#6d5633"/><stop offset=".122" stop-color="#816b3d"/><stop offset=".223" stop-color="#907c45"/><stop offset=".348" stop-color="#9b884a"/><stop offset=".523" stop-color="#a18f4d"/><stop offset="1" stop-color="#a3914e"/></radialGradient><circle cx="99.3" cy="110.9" r="1.2" fill="url(#AF)"/><path d="M99.3 109.8a1.11 1.11 0 0 1 1.1 1.1 1.11 1.11 0 0 1-1.1 1.1 1.11 1.11 0 0 1-1.1-1.1 1.11 1.11 0 0 1 1.1-1.1m0-.2c-.7 0-1.3.6-1.3 1.3s.6 1.3 1.3 1.3 1.3-.6 1.3-1.3c-.1-.7-.6-1.3-1.3-1.3h0z" fill="#624a2e"/><circle cx="99.3" cy="110.9" r=".5"/><g fill="#e48f67"><path d="M91.3 116.5c-.3.2-.4.5-.1.8.6.4 1.3.4 2 .4s1.5-.1 2.1-.4c.3-.2.5-.8.1-1-.1 0-.2 0-.2.1s.1.3.1.4c0 .2-.3.3-.4.3-.4.2-.9.2-1.4.2-.4 0-2.6.1-2.2-.8h0zm-1.6 5.3c2.2 1.6 5.7 1.2 7.8-.3.1 0 0-.1-.1-.1-2.6 1.1-5 1.4-7.7.4 0-.2 0-.1 0 0h0z"/></g><g class="X"><path d="M82.9 106.4c2.5-.4 5-.7 7.3.6.2.1.4-.2.2-.3-1.9-1.3-5.5-1.8-7.5-.3 0-.1 0 0 0 0h0zm21.2-.1c-2-1.4-5.6-.9-7.5.3-.2.1 0 .5.2.3 2.3-1.3 4.8-.9 7.3-.6 0 .1 0 0 0 0h0z"/></g><path d="M99.2 115.9h.3c3.2-.3 3.9-1.7 4.3-3.5.4-2 .4-2.7.9-2.8.4-.1.5-.6.5-1.1s0-.6-.6-.8c-.5-.2-3.2-.4-5.2-.3v.5c1.6-.1 3.1.1 3.6.4 1 .7.7 3.8-.1 5.4-.6 1.1-2.2 1.6-3.6 1.7l-.1.5zm-5.9-7.4c-.7 0-3.6-.8-5.6-1h-.4v.5c1.7.1 3.4.4 3.9 1.3 1 1.4-.8 5-2.3 5.8-.5.2-1.1.4-1.8.4v.5c2.7 0 3.7-2 4.1-2.6.6-1.2.5-2.9 2.1-3 1.6 0 1.4 1.7 1.9 2.9.3.7 1.2 2.7 4 2.6v-.5c-.7 0-1.4-.1-1.9-.4-1.5-.8-3-4.3-2-5.8.6-.9 2.3-1.3 4-1.3v-.5h-.4c-1.7.2-3.9 1-5.6 1.1zm-6-1c-2-.1-4.7.1-5.2.3-.6.2-.7.3-.7.8s0 1 .4 1.1c.5.2.5.9.8 2.8.2 1.8.9 3.2 4.1 3.5h.5v-.5c-1.4 0-3.1-.5-3.6-1.7-.8-1.6-.9-4.7.2-5.4.5-.3 2-.5 3.5-.4v-.5z" fill="#0a6f90" class="Z"/><g class="X"><path d="M106.6 103.6c-.6-.1-1.1-.4-1.5-.8-.2-.2-.4-.5-.5-.8s0-.5-.3-.8c-.1-.1-.4-.2-.5-.1h0v-.3c.1-.4-.4-.7-.7-.4-.2.1-.3.3-.4.5 0-.3-.3-.7-.7-.6s-1 0-1.4-.1v-.2c-.2-.6-.6-.9-.9-1.4-.2-.5-1.1-.4-1.2.2v.1c-.1-.2-.2-.4-.3-.5-.2-.2-.5-.2-.6.1-.1.2-.1.5-.1.7-.2.1-.4.2-.6.2 0 0-.1 0-.1-.1-.8-.3-1.5-.6-2.2-1.1-.2-.2-.5-.2-.7 0-.3-.2-.8-.2-1.1.2-1.1 1.7-1.9.1-2.8-.3-.4-.2-.8 0-.8.5v.2c-.1-.1-.1-.2-.2-.3-.2-.4-.8-.4-1.1-.1-.8.6-1.7.9-2.7 1h-.4c.2-.1.3-.3.2-.5 0-.1 0 0 0 0 0-.2-.1-.4-.4-.5-.4-.1-.8-.3-1.2-.4-.3 0-.5.3-.3.5l.1.1v.1c-.3-.2-.6-.5-.9-.8-.2-.1-.4-.1-.5.1-.8 3.2 4.1 2.7 6.3 1.7 1.6 1.9 5 2.3 6-.1.6.8 1.9.9 3 .7.3 0 .6-.1.8-.3.3.5.6.8 1 1.1 1 .7 2.3.8 3.5.4.2-.1.3-.2.3-.3-.1.7.2 1.5.6 2 .7.9 1.9 1.6 3.1 1.5.7-.1.9-1 .2-1.1zM82.1 94h0c.2-.1.3-.3.3-.4.3.1.7-.1.7-.5-.1-.9.1-1.5 1-1.7.7-.2 1.6-.1 2.3 0 .5 0 .8-.7.4-1-.3-.3-.6-.5-1-.6.2-.1.3-.2.5-.3.1 0 .2-.1.4-.1v.8c0 .3.5.2.5-.1s.1-.5.2-.7c.3.1.5.2.8.1.2-.1.3-.2.3-.4.3.1.5.2.8.4s.4.5.8.6c.3.1.5-.1.5-.4 0-.4-.3-.8-.7-1 .4-.6 1.1-.7 1.8-.5 0 .2.1.4.4.5s.5.1.8.2h.1c0 .3.1.7.2 1s.5.2.5-.1c0-1.3.9-1.5 1.9-1.3.5.1 1 .4 1.4.7.3.3.6.7 1 .9.2.1.5 0 .5-.2.4-1.5-2.1-2.5-3.2-2.6-.6-.1-1.3.1-1.8.5-.1 0-.1.1-.2.2 0 0 0-.1-.1-.1-1.1-1.1-3.7-1.1-4.1.5-.4-.1-.7-.1-1-.1-.2 0-.3 0-.5.1-.6-.1-1.3 0-1.8.2-.4.2-.8.5-1.1.9-.1.1-.1.2-.1.3-.7 0-1.4.1-2 .3-1.4.5-1.5 1.8-1.4 3-1.4.3-2.7 2.4-2.1 3.5.1.4.2.8.5 1.1-.6.1-1.1.5-1.3 1-.9.9-.9 2.7 0 3.7.1.1.1.2.2.3s.2.1.2.1c.5.1 1.1-.4.8-.9s-.4-1.1-.3-1.7c0-.2.1-.4.2-.5h.2c.3 0 .5-.3.6-.5.1 0 .2 0 .2-.1.6-.1.5-.8.1-1.1.2-.2.3-.6 0-.9-.6-.8.1-2 .9-2.5.3-.3.6-.3.7-.6z"/></g></g><path d="M574.3 305.5c0 .1-.1.1-.2.2-.1 0-.1.1-.2.1s-.2 0-.3-.1-.3-.2-.5-.3-.4-.2-.7-.3-.6-.1-.9-.1-.7 0-.9.1c-.3.1-.5.2-.7.4s-.3.3-.4.6-.1.4-.1.7.1.6.2.8c.2.2.4.4.6.5.3.1.6.3.9.4l1 .3c.3.1.7.2 1 .4.3.1.6.3.9.6s.5.5.6.8a3.73 3.73 0 0 1 .2 1.2c0 .5-.1 1-.3 1.4s-.4.8-.7 1.1-.7.6-1.2.8-1 .3-1.6.3c-.7 0-1.4-.1-2-.4s-1.1-.6-1.6-1.1l.4-.7c0-.1.1-.1.2-.1s.1-.1.2-.1.2.1.4.2.3.3.5.4.5.3.8.4.7.2 1.1.2.7-.1 1-.2.5-.2.7-.4.4-.4.5-.7.2-.5.2-.9c0-.3-.1-.6-.2-.9l-.6-.6c-.2-.2-.5-.3-.9-.4l-1-.3c-.3-.1-.7-.2-1-.4-.3-.1-.6-.3-.9-.6s-.5-.5-.6-.9-.2-.8-.2-1.3c0-.4.1-.8.2-1.2.2-.4.4-.7.7-1s.7-.5 1.1-.7.9-.3 1.5-.3 1.2.1 1.8.3c.5.2 1 .5 1.4.9l-.4.9zm2.4 9.6v-11.8h1.4v4.8a2.73 2.73 0 0 1 1.2-.9c.4-.2.9-.3 1.5-.3.4 0 .8.1 1.2.2.3.1.6.4.8.6s.4.6.5 1 .2.8.2 1.3v5.2H582V310c0-.6-.1-1.1-.4-1.4s-.7-.5-1.3-.5c-.4 0-.8.1-1.2.3s-.7.5-1 .8v6h-1.4zm12.2-8.2c.6 0 1.1.1 1.6.3s.9.5 1.2.8c.3.4.6.8.8 1.3s.3 1.1.3 1.7-.1 1.2-.3 1.7-.4.9-.8 1.3c-.3.4-.7.6-1.2.8s-1 .3-1.6.3-1.1-.1-1.6-.3-.9-.5-1.2-.8c-.3-.4-.6-.8-.8-1.3s-.3-1.1-.3-1.7.1-1.2.3-1.7.4-1 .8-1.3c.3-.4.7-.6 1.2-.8.4-.2 1-.3 1.6-.3zm0 7.2c.8 0 1.4-.3 1.8-.8s.6-1.3.6-2.2c0-1-.2-1.7-.6-2.3-.4-.5-1-.8-1.8-.8-.4 0-.8.1-1.1.2s-.5.3-.7.6-.3.6-.4 1-.1.8-.1 1.3 0 .9.1 1.3.2.7.4 1 .4.5.7.6.7.1 1.1.1zm4.5-7.1h1.1c.1 0 .2 0 .3.1l.2.2 1.6 5.2c0 .2.1.4.1.6s.1.4.1.5c0-.2.1-.4.1-.5.1-.2.1-.4.2-.6l1.7-5.2c0-.1.1-.1.1-.2.1-.1.2-.1.3-.1h.6c.1 0 .2 0 .3.1s.1.1.1.2l1.7 5.2c.1.2.1.4.2.6 0 .2.1.4.1.5 0-.2.1-.4.1-.6s.1-.4.1-.5l1.6-5.2c0-.1.1-.2.2-.2.1-.1.2-.1.3-.1h1.1l-2.6 8.1h-1.1c-.1 0-.2-.1-.3-.3l-1.8-5.5c0-.1-.1-.2-.1-.4 0-.1-.1-.2-.1-.4 0 .1-.1.2-.1.4s-.1.3-.1.4l-1.8 5.5c-.1.2-.2.3-.3.3H596l-2.6-8.1zm22.5 4.4c.1.1.1.3.2.4.1-.1.1-.3.2-.4s.1-.3.2-.4l3.9-7c.1-.1.1-.2.2-.2h1.4v11.5h-1.4v-9.2l-3.9 7.2c-.1.2-.3.4-.6.4h-.2c-.2 0-.4-.1-.6-.4l-4-7.2v9.2H610v-11.5h1.4c.1 0 .1.1.2.2l4 7.1c.2 0 .2.2.3.3zm11.9-4.5c.6 0 1.1.1 1.6.3s.9.5 1.2.8c.3.4.6.8.8 1.3s.3 1.1.3 1.7-.1 1.2-.3 1.7-.4.9-.8 1.3c-.3.4-.7.6-1.2.8s-1 .3-1.6.3-1.1-.1-1.6-.3-.9-.5-1.2-.8c-.3-.4-.6-.8-.8-1.3s-.3-1.1-.3-1.7.1-1.2.3-1.7.4-1 .8-1.3c.3-.4.7-.6 1.2-.8s1-.3 1.6-.3zm0 7.2c.8 0 1.4-.3 1.8-.8s.6-1.3.6-2.2c0-1-.2-1.7-.6-2.3-.4-.5-1-.8-1.8-.8-.4 0-.8.1-1.1.2s-.5.3-.7.6-.3.6-.4 1-.1.8-.1 1.3 0 .9.1 1.3.2.7.4 1 .4.5.7.6c.4.1.7.1 1.1.1zm5.6 1V307h.8c.2 0 .3 0 .3.1.1.1.1.2.1.3l.1 1.3c.3-.6.6-1 1-1.3s.9-.5 1.4-.5c.2 0 .4 0 .6.1s.3.1.5.2l-.2 1.1c0 .1-.1.2-.2.2s-.2 0-.3-.1c-.2 0-.4-.1-.6-.1-.5 0-.9.1-1.2.4a3.22 3.22 0 0 0-.8 1.3v5.2h-1.5zm9.7-8.2c.5 0 .9.1 1.3.2.4.2.8.4 1.1.7s.5.7.7 1.1c.2.5.3 1 .3 1.5 0 .2 0 .4-.1.4 0 .1-.1.1-.3.1h-5.4a4.44 4.44 0 0 0 .2 1.3c.1.3.3.7.5.9.2.3.5.4.8.6.3.1.7.2 1 .2.4 0 .7 0 .9-.1s.5-.2.7-.3.3-.2.5-.3c.1-.1.2-.1.3-.1s.2 0 .3.1l.4.5-.6.6c-.2.2-.5.3-.8.4s-.6.2-.9.2c-.3.1-.6.1-.9.1-.6 0-1.1-.1-1.5-.3s-.9-.5-1.2-.8c-.3-.4-.6-.8-.8-1.4-.2-.5-.3-1.2-.3-1.9 0-.6.1-1.1.3-1.6s.4-.9.7-1.3.7-.6 1.2-.8c.5.1 1 0 1.6 0zm0 1c-.7 0-1.2.2-1.6.6s-.6.9-.7 1.7h4.4c0-.3 0-.6-.1-.9s-.2-.5-.4-.7-.4-.4-.6-.5c-.4-.1-.7-.2-1-.2z" fill="#1d9ef7" class="W"/><g class="W"><use xlink:href="#B"/><path d="M175.5 90.8h-1c-.2 0-.4 0-.5-.1a1.38 1.38 0 0 1-.3-.4l-.2-.6c-.2.2-.4.4-.7.5-.2.2-.4.3-.7.4-.2.1-.5.2-.7.2-.3.1-.5.1-.9.1s-.7-.1-1-.2-.6-.3-.8-.5a3.04 3.04 0 0 1-.5-.7c-.1-.3-.2-.6-.2-1a1.93 1.93 0 0 1 .3-1c.2-.3.5-.6.9-.9s.9-.5 1.6-.6c.7-.2 1.5-.3 2.5-.3v-.5c0-.6-.1-1-.4-1.3-.2-.3-.6-.4-1.1-.4-.3 0-.6 0-.9.1l-.6.3c-.2.1-.3.2-.5.3-.1.1-.3.1-.5.1-.1 0-.3 0-.4-.1s-.2-.2-.2-.3l-.4-.7c1-.9 2.2-1.4 3.7-1.4.5 0 1 .1 1.4.3s.7.4 1 .7.5.7.6 1.1.2.9.2 1.4v5.5zm-4.1-1.4c.2 0 .4 0 .6-.1.2 0 .4-.1.5-.2.2-.1.3-.2.5-.3s.3-.3.5-.4V87c-.6 0-1.1 0-1.5.1l-1 .3c-.3.1-.4.3-.5.4-.1.2-.2.3-.2.5 0 .4.1.6.3.8.2.3.4.3.8.3zm9.1 1.5c-.8 0-1.3-.2-1.8-.6-.4-.4-.6-1-.6-1.8v-4.9h-.9c-.1 0-.2 0-.3-.1s-.1-.2-.1-.3v-.8l1.4-.2.4-2.4c0-.1.1-.2.2-.3s.2-.1.3-.1h1.1V82h2.3v1.5h-2.3v4.8c0 .3.1.5.2.6.1.2.3.2.5.2h.3c.1 0 .2-.1.2-.1.1 0 .1-.1.2-.1h.4l.1.1.6 1c-.3.3-.7.5-1.1.6-.3.2-.7.3-1.1.3zm6.6 0c-.8 0-1.3-.2-1.8-.6-.4-.4-.6-1-.6-1.8v-4.9h-.9c-.1 0-.2 0-.3-.1s-.1-.2-.1-.3v-.8l1.4-.2.4-2.4c0-.1.1-.2.2-.3s.2-.1.3-.1h1.1V82h2.3v1.5h-2.3v4.8c0 .3.1.5.2.6.1.2.3.2.5.2h.3c.1 0 .2-.1.2-.1.1 0 .1-.1.2-.1h.4l.1.1.6 1c-.3.3-.7.5-1.1.6-.2.2-.6.3-1.1.3z"/><use xlink:href="#B" x="41.5"/><path d="M212.1 82v5.6c0 .5.1 1 .4 1.2.2.3.6.4 1.1.4.4 0 .7-.1 1-.2s.6-.4.9-.7V82h2.1v8.8h-1.3c-.3 0-.5-.1-.5-.4l-.1-.7c-.2.2-.4.3-.6.5s-.4.3-.6.4-.5.2-.7.2c-.3.1-.5.1-.8.1-.5 0-.9-.1-1.3-.2s-.7-.4-.9-.7c-.3-.3-.4-.7-.6-1.1-.1-.4-.2-.9-.2-1.4V82h2.1zm10.1-4v12.7H220V78h2.2zm4.6 0v12.7h-2.1V78h2.1zm6 3.8c.6 0 1.1.1 1.5.3.5.2.9.4 1.2.8.3.3.6.8.8 1.3s.3 1.1.3 1.7v.4c0 .1 0 .2-.1.2 0 .1-.1.1-.1.1h-5.6c.1.9.3 1.6.7 2s1 .6 1.7.6c.3 0 .6 0 .9-.1s.5-.2.7-.3.3-.2.5-.3.3-.1.4-.1.2 0 .2.1c.1 0 .1.1.2.1l.6.8c-.2.3-.5.5-.8.7s-.6.3-.9.4-.6.2-1 .2c-.3 0-.6.1-1 .1-.6 0-1.2-.1-1.7-.3s-1-.5-1.4-.9-.7-.9-.9-1.5-.3-1.3-.3-2c0-.6.1-1.2.3-1.7s.5-1 .8-1.4c.4-.4.8-.7 1.3-.9s1.1-.3 1.7-.3zm.1 1.5c-.6 0-1.1.2-1.4.5s-.6.8-.7 1.5h4c0-.3 0-.5-.1-.8s-.2-.5-.3-.6c-.2-.2-.3-.3-.6-.4s-.6-.2-.9-.2zm5.5 7.5V82h1.3c.3 0 .5.1.5.4l.1.7c.2-.2.4-.3.6-.5s.4-.3.6-.4.5-.2.7-.2c.3-.1.5-.1.8-.1.5 0 .9.1 1.3.2.4.2.7.4.9.7s.4.6.6 1.1c.1.4.2.9.2 1.4v5.6h-2.1v-5.6c0-.5-.1-1-.4-1.2-.2-.3-.6-.4-1.1-.4-.4 0-.7.1-1 .2-.3.2-.6.4-.9.7V91h-2.1zm8.5-8.8h1.7c.2 0 .3 0 .4.1s.2.2.2.3l1.3 4.7c.1.3.1.5.2.8 0 .2.1.5.1.7.1-.2.1-.5.2-.7s.1-.5.2-.8l1.5-4.7c0-.1.1-.2.2-.3s.2-.1.4-.1h.9c.2 0 .3 0 .4.1s.2.2.2.3l1.4 4.8c.1.2.1.5.2.7s.1.5.2.7c0-.2.1-.5.1-.7s.1-.5.2-.8l1.3-4.7c0-.1.1-.2.2-.3s.2-.1.4-.1h1.6l-2.8 8.8h-1.7c-.2 0-.3-.1-.4-.4l-1.6-5.1c-.1-.2-.1-.3-.1-.5s-.1-.3-.1-.5c0 .2-.1.3-.1.5s-.1.3-.1.5l-1.6 5.1c-.1.3-.2.4-.5.4h-1.6l-2.9-8.8zm18.3-.2c.6 0 1.1.1 1.5.3.5.2.9.4 1.2.8.3.3.6.8.8 1.3s.3 1.1.3 1.7v.4c0 .1 0 .2-.1.2 0 .1-.1.1-.1.1H263c.1.9.3 1.6.7 2s1 .6 1.7.6c.3 0 .6 0 .9-.1s.5-.2.7-.3.3-.2.5-.3.3-.1.4-.1.2 0 .2.1c.1 0 .1.1.2.1l.6.8c-.2.3-.5.5-.8.7s-.6.3-.9.4-.6.2-1 .2c-.3 0-.6.1-1 .1-.6 0-1.2-.1-1.7-.3s-1-.5-1.4-.9-.7-.9-.9-1.5-.3-1.3-.3-2c0-.6.1-1.2.3-1.7s.5-1 .8-1.4c.4-.4.8-.7 1.3-.9.6-.2 1.2-.3 1.9-.3zm0 1.5c-.6 0-1.1.2-1.4.5s-.6.8-.7 1.5h4c0-.3 0-.5-.1-.8s-.2-.5-.3-.6c-.2-.2-.3-.3-.6-.4s-.6-.2-.9-.2zm8.5-1.5c.4 0 .7 0 1.1.1s.6.2.9.3h2.5v.8c0 .1 0 .2-.1.3s-.2.1-.4.2l-.8.1c.1.1.1.3.1.5v.5c0 .4-.1.8-.3 1.2s-.4.7-.7.9-.7.4-1.1.6c-.4.1-.9.2-1.4.2-.3 0-.7 0-1-.1-.3.2-.4.4-.4.6s.1.3.2.4c.2.1.4.1.6.2.3 0 .6.1.9.1h1c.3 0 .7.1 1 .2l.9.3c.3.2.5.4.6.6.2.3.2.6.2 1s-.1.8-.3 1.1c-.2.4-.5.7-.8 1-.4.3-.8.5-1.3.7s-1.1.3-1.8.3-1.2-.1-1.7-.2-.9-.3-1.2-.5-.6-.5-.7-.7a2.39 2.39 0 0 1-.2-.9c0-.4.1-.8.4-1s.6-.5 1-.7c-.2-.1-.4-.3-.5-.5s-.2-.5-.2-.8c0-.1 0-.3.1-.4a.76.76 0 0 1 .2-.4c.1-.1.2-.3.4-.4.1-.1.3-.2.5-.3-.4-.2-.8-.6-1.1-1s-.4-.9-.4-1.4c0-.4.1-.8.3-1.2s.4-.7.7-.9.7-.4 1.1-.6l1.7-.2zm2.4 9.3c0-.2-.1-.3-.2-.4a1.38 1.38 0 0 0-.4-.3c-.2-.1-.4-.1-.6-.1h-1.6c-.3 0-.6 0-.8-.1-.2.1-.4.3-.6.5-.1.2-.2.4-.2.6s0 .3.1.4.2.2.4.3.4.2.7.2c.3.1.6.1 1 .1s.7 0 1-.1.5-.1.7-.3a.78.78 0 0 0 .4-.4s.1-.2.1-.4zm-2.4-5c.3 0 .5 0 .7-.1s.4-.2.5-.3.2-.3.3-.5.1-.4.1-.6c0-.4-.1-.8-.4-1-.3-.3-.7-.4-1.2-.4s-.9.1-1.2.4-.4.6-.4 1c0 .2 0 .4.1.6s.2.3.3.5c.1.1.3.2.5.3s.5.1.7.1z"/><path d="M161.4 141c.1 0 .2 0 .2.1l.6.7c-.4.5-1 .9-1.6 1.2s-1.4.4-2.3.4c-.8 0-1.5-.1-2.1-.4s-1.2-.6-1.6-1.1-.8-1.1-1-1.7-.4-1.4-.4-2.2.1-1.6.4-2.2c.3-.7.6-1.3 1.1-1.7s1-.9 1.7-1.1c.6-.3 1.4-.4 2.1-.4.8 0 1.4.1 2 .4s1.1.6 1.6 1l-.5.7c0 .1-.1.1-.1.1-.1 0-.1.1-.2.1s-.2 0-.3-.1-.3-.2-.5-.3-.5-.2-.8-.3-.7-.1-1.1-.1c-.5 0-1 .1-1.5.3-.4.2-.8.5-1.2.8-.3.4-.6.8-.8 1.3s-.3 1.1-.3 1.7c0 .7.1 1.2.3 1.7s.4.9.8 1.3c.3.4.7.6 1.1.8s.9.3 1.4.3c.3 0 .6 0 .8-.1.2 0 .5-.1.7-.2l.6-.3c.2-.1.4-.3.5-.4l.1-.1s.2-.2.3-.2zm9.1 1v1.3h-6.7v-10.8h6.7v1.3h-5.1v3.4h4.1v1.3h-4.1v3.5h5.1zm11.8-4.1c0 .8-.1 1.5-.4 2.2s-.6 1.3-1.1 1.7c-.5.5-1 .9-1.7 1.1-.7.3-1.4.4-2.2.4s-1.5-.1-2.2-.4-1.2-.6-1.7-1.1-.8-1.1-1.1-1.7c-.3-.7-.4-1.4-.4-2.2s.1-1.5.4-2.2.6-1.3 1.1-1.7c.5-.5 1-.9 1.7-1.1.7-.3 1.4-.4 2.2-.4s1.5.1 2.2.4 1.2.7 1.7 1.1c.5.5.8 1.1 1.1 1.7.3.7.4 1.4.4 2.2zm-1.6 0c0-.6-.1-1.2-.3-1.7s-.4-.9-.7-1.3-.7-.6-1.2-.8-1-.3-1.5-.3c-.6 0-1.1.1-1.5.3-.5.2-.8.5-1.2.8-.3.4-.6.8-.8 1.3s-.3 1.1-.3 1.7.1 1.2.3 1.7.4.9.8 1.3c.3.4.7.6 1.2.8s1 .3 1.5.3c.6 0 1.1-.1 1.5-.3s.8-.5 1.2-.8c.3-.4.6-.8.7-1.3.2-.5.3-1 .3-1.7zm7 .3h3.8v1.2h-3.8v-1.2zm18.2 5.1h-1.2c-.1 0-.3 0-.3-.1-.1-.1-.2-.2-.2-.3l-1-2.5h-4.7l-1 2.5c0 .1-.1.2-.2.3s-.2.1-.3.1h-1.2l4.3-10.8h1.6l4.2 10.8zm-3.2-4l-1.6-4.2a8.11 8.11 0 0 1-.3-1.1c-.1.2-.1.4-.2.6s-.1.3-.2.5l-1.6 4.2h3.9zm10.4-3.6v7.6h-.9c-.2 0-.3-.1-.4-.3l-.1-.8-.5.5c-.2.1-.4.3-.6.4s-.4.2-.7.2c-.2.1-.5.1-.7.1-.4 0-.8-.1-1.1-.2s-.6-.3-.8-.6-.4-.6-.5-.9c-.1-.4-.2-.7-.2-1.2v-4.9h1.5v4.9c0 .5.1 1 .4 1.3s.6.5 1.1.5a1.69 1.69 0 0 0 1-.3c.3-.2.6-.4.9-.7v-5.6h1.6zm4.4 7.7c-.6 0-1.1-.2-1.4-.5s-.5-.8-.5-1.5v-4.6h-.9c-.1 0-.2 0-.2-.1-.1-.1-.1-.1-.1-.2v-.5l1.2-.2.3-2.3c0-.1.1-.2.1-.2s.1-.1.2-.1h.7v2.6h2.2v1.1H217v4.5c0 .3.1.5.2.7s.3.2.6.2c.1 0 .3 0 .3-.1.1 0 .2-.1.3-.1s.1-.1.2-.1.1-.1.1-.1h.1l.1.1.4.7c-.2.2-.5.4-.9.5-.2.2-.6.2-.9.2zm6.2-7.8c.6 0 1.1.1 1.5.3.5.2.8.4 1.2.8s.6.8.7 1.2c.2.5.3 1 .3 1.6s-.1 1.1-.3 1.6-.4.9-.7 1.2-.7.6-1.2.8-1 .3-1.5.3c-.6 0-1.1-.1-1.5-.3-.5-.2-.8-.4-1.2-.8-.3-.3-.6-.8-.7-1.2-.2-.5-.3-1-.3-1.6s.1-1.1.3-1.6.4-.9.7-1.2.7-.6 1.2-.8c.5-.3 1-.3 1.5-.3zm0 6.7c.7 0 1.3-.2 1.6-.7.4-.5.5-1.2.5-2 0-.9-.2-1.6-.5-2.1-.4-.5-.9-.7-1.6-.7s-1.3.2-1.6.7-.5 1.2-.5 2.1.2 1.6.5 2c.4.4.9.7 1.6.7zm5.3 1v-7.6h.9c.2 0 .3.1.4.3l.1.7c.3-.3.6-.6.9-.8s.7-.3 1.2-.3.9.1 1.2.4.5.7.7 1.1c.1-.3.3-.5.4-.7s.4-.4.6-.5.4-.2.7-.3c.2-.1.5-.1.7-.1.4 0 .8.1 1.1.2s.6.3.8.6c.2.2.4.5.5.9s.2.8.2 1.2v4.9H238v-4.9c0-.6-.1-1-.4-1.3s-.6-.4-1.1-.4c-.2 0-.4 0-.6.1s-.4.2-.5.3-.3.3-.3.5-.1.5-.1.8v4.9h-1.5v-4.9c0-.6-.1-1-.4-1.3s-.6-.4-1-.4c-.3 0-.6.1-.9.2s-.5.4-.7.7v5.7H229zm12.2-6.6c.4-.4.9-.7 1.4-.9s1-.3 1.6-.3c.4 0 .8.1 1.2.2s.6.3.8.6.4.6.5.9c.1.4.2.7.2 1.2v4.9h-.7c-.1 0-.3 0-.3-.1-.1 0-.1-.1-.2-.3l-.2-.7c-.2.2-.4.3-.6.5-.2.1-.4.3-.6.4s-.4.2-.7.2-.5.1-.8.1-.6 0-.8-.1c-.3-.1-.5-.2-.7-.4s-.3-.4-.5-.6c-.1-.3-.2-.6-.2-.9s.1-.6.2-.9a1.85 1.85 0 0 1 .8-.7c.4-.2.8-.4 1.4-.5s1.3-.2 2.2-.2v-.6c0-.6-.1-1-.4-1.3-.2-.3-.6-.4-1.1-.4-.3 0-.6 0-.8.1l-.6.3a1.38 1.38 0 0 0-.4.3c-.1.1-.2.1-.4.1-.1 0-.2 0-.3-.1l-.2-.2.2-.6zm4.3 3.2c-.6 0-1.1.1-1.5.1l-1 .3c-.3.1-.4.3-.6.4-.1.2-.2.3-.2.5s0 .4.1.5.1.2.3.3c.1.1.2.2.4.2s.3.1.5.1.4 0 .6-.1.4-.1.5-.2c.2-.1.3-.2.5-.3l.4-.4v-1.4zm15.3 3.4h-1.5v-6.4h-3.7v4.5c0 .3.1.5.2.7s.3.2.6.2c.1 0 .3 0 .3-.1.1 0 .2-.1.3-.1s.1-.1.2-.1.1-.1.1-.1h.1l.1.1.4.7c-.2.2-.5.4-.9.5-.3.1-.7.2-1 .2-.6 0-1.1-.2-1.4-.5s-.5-.8-.5-1.5v-4.6h-3.4v4.5c0 .3.1.5.2.7s.3.2.6.2c.1 0 .3 0 .3-.1.1 0 .2-.1.3-.1s.1-.1.2-.1.1-.1.1-.1h.1l.1.1.4.7c-.2.2-.5.4-.9.5-.3.1-.7.2-1 .2-.6 0-1.1-.2-1.4-.5s-.5-.8-.5-1.5v-4.6h-.9c-.1 0-.2 0-.2-.1-.1-.1-.1-.1-.1-.2v-.4l1.2-.2.3-2.3c0-.1.1-.2.1-.2s.1-.1.2-.1h.7v2.6h3.5l.3-2.3c0-.1.1-.2.1-.2.1 0 .1-.1.2-.1h.8v2.6h5.1v7.5zm.3-10c0 .1 0 .3-.1.4s-.1.2-.2.3-.2.2-.3.2-.3.1-.4.1-.3 0-.4-.1-.2-.1-.3-.2-.2-.2-.2-.3c-.1-.1-.1-.3-.1-.4s0-.3.1-.4.1-.2.2-.3.2-.2.3-.2c.1-.1.2-.1.4-.1.1 0 .3 0 .4.1s.2.1.3.2.2.2.2.3c.1.1.1.2.1.4zm7.1 3.8c0 .1-.1.1-.1.1h-.2c-.1 0-.2 0-.3-.1s-.2-.1-.3-.2-.3-.1-.5-.2-.4-.1-.7-.1c-.4 0-.7.1-1 .2s-.5.3-.7.6a2.47 2.47 0 0 0-.4.9c-.1.3-.1.7-.1 1.2 0 .4 0 .8.1 1.2a2.47 2.47 0 0 0 .4.9c.2.2.4.4.7.5s.6.2.9.2.6 0 .8-.1.4-.2.5-.3l.3-.3c.1-.1.2-.1.3-.1s.2 0 .3.1l.4.5c-.2.2-.4.4-.6.5-.2.2-.4.3-.7.4-.2.1-.5.2-.8.2s-.5.1-.8.1c-.5 0-.9-.1-1.3-.3s-.8-.4-1.1-.8c-.3-.3-.5-.7-.7-1.2s-.3-1-.3-1.7c0-.6.1-1.1.2-1.6.2-.5.4-.9.7-1.2a4.44 4.44 0 0 1 1.1-.8c.4-.2 1-.3 1.5-.3s1 .1 1.4.3.8.4 1.1.7l-.1.7z"/><path d="M152.5 165.9v-7.1h.8c.2 0 .3.1.4.3l.1.7c.3-.3.6-.6.9-.8s.7-.3 1.1-.3c.5 0 .9.1 1.1.4.3.3.5.6.6 1.1.1-.3.2-.5.4-.7s.3-.3.5-.4l.6-.3c.2-.1.5-.1.7-.1.4 0 .7.1 1 .2s.5.3.8.5c.2.2.4.5.5.8s.2.7.2 1.1v4.5h-1.4v-4.5c0-.5-.1-.9-.3-1.2s-.6-.4-1-.4c-.2 0-.4 0-.6.1s-.3.2-.5.3c-.1.1-.2.3-.3.5s-.1.4-.1.7v4.5h-1.4v-4.5c0-.6-.1-1-.3-1.2-.2-.3-.5-.4-1-.4-.3 0-.6.1-.8.2-.3.2-.5.4-.7.6v5.3h-1.3zm11.4-6.2c.4-.4.8-.7 1.3-.8s1-.3 1.5-.3c.4 0 .8.1 1.1.2s.6.3.8.6c.2.2.4.5.5.9.1.3.2.7.2 1.1v4.5h-.6c-.1 0-.2 0-.3-.1-.1 0-.1-.1-.2-.2l-.1-.6c-.2.2-.4.3-.5.4l-.6.3c-.2.1-.4.2-.6.2s-.5.1-.7.1c-.3 0-.5 0-.8-.1-.2-.1-.5-.2-.6-.4-.2-.2-.3-.4-.4-.6s-.2-.5-.2-.8.1-.5.2-.8c.2-.3.4-.5.7-.7s.8-.4 1.3-.5c.6-.1 1.2-.2 2-.2v-.5c0-.5-.1-.9-.3-1.2s-.6-.4-1-.4c-.3 0-.5 0-.8.1-.2.1-.4.2-.5.2s-.3.2-.4.2c-.1.1-.2.1-.3.1s-.2 0-.2-.1l-.2-.2-.3-.4zm4 3c-.6 0-1 .1-1.4.1-.4.1-.7.2-.9.3s-.4.2-.5.4-.2.3-.2.5a.9.9 0 0 0 .1.5c.1.1.1.2.2.3s.2.1.4.2c.1 0 .3.1.4.1.2 0 .4 0 .6-.1.2 0 .3-.1.5-.2a1.38 1.38 0 0 0 .4-.3c.1-.1.3-.2.4-.4v-1.4zm5.3 3.3c-.6 0-1-.2-1.3-.5s-.5-.8-.5-1.4v-4.3h-.8c-.1 0-.1 0-.2-.1-.1 0-.1-.1-.1-.2v-.5l1.2-.2.3-2.1c0-.1.1-.1.1-.2.1 0 .1-.1.2-.1h.7v2.4h3.2l.3-2.1c0-.1 0-.1.1-.2.1 0 .1-.1.2-.1h.7v2.4h2v1h-2v4.2c0 .3.1.5.2.6s.3.2.5.2h.3c.1 0 .2-.1.2-.1.1 0 .1-.1.2-.1h.2l.1.1.4.7c-.2.2-.5.4-.8.5s-.6.2-1 .2c-.6 0-1-.2-1.3-.5s-.5-.8-.5-1.4v-4.3h-3.2v4.2c0 .3.1.5.2.6s.3.2.5.2h.3c.1 0 .2-.1.2-.1.1 0 .1-.1.2-.1h.2l.1.1.4.7c-.2.2-.5.4-.8.5-.1-.1-.4 0-.7 0zm14.3-3.9c-.1.3-.1.6-.1.8s0 .4.1.5.2.2.3.2.2.1.4.1.4-.1.6-.2.4-.3.5-.5.3-.5.4-.8.1-.7.1-1.1c0-.6-.1-1.2-.3-1.7s-.5-.9-.8-1.2a2.73 2.73 0 0 0-1.3-.7c-.5-.1-1-.2-1.6-.2s-1.2.1-1.7.4c-.5.2-1 .6-1.4 1s-.7.9-.9 1.5-.3 1.2-.3 1.8c0 .8.1 1.5.4 2.1.2.6.6 1.1 1 1.5s.9.7 1.5.9 1.2.3 1.9.3 1.3-.1 1.9-.2 1-.3 1.4-.6c.1-.1.2-.1.3-.1s.1.1.2.2l.2.5c-.5.3-1.1.6-1.7.8s-1.4.3-2.2.3-1.6-.1-2.3-.4-1.3-.6-1.8-1.1-.9-1.1-1.2-1.8-.4-1.5-.4-2.4c0-.5.1-1 .2-1.5s.3-.9.5-1.3a4.44 4.44 0 0 1 .8-1.1c.3-.3.7-.6 1.1-.9l1.3-.6c.5-.2 1-.2 1.5-.2.4 0 .9 0 1.3.1s.8.2 1.2.4.7.4 1 .7.6.6.8.9c.2.4.4.7.5 1.2.1.4.2.9.2 1.4s-.1 1-.2 1.4-.3.8-.6 1.1-.5.6-.9.7c-.3.2-.7.3-1.1.3s-.6-.1-.9-.3c-.2-.2-.4-.4-.5-.8-.3.4-.6.6-.9.8s-.7.2-1 .2-.5 0-.7-.1-.4-.2-.5-.4l-.3-.6c-.1-.2-.1-.5-.1-.8 0-.4.1-.8.2-1.2.2-.4.4-.8.7-1.1a4.44 4.44 0 0 1 1.1-.8c.4-.2 1-.3 1.6-.3.3 0 .6 0 .8.1s.5.1.7.2l-1 2.6zm-.5-2c-.2 0-.4-.1-.6-.1-.3 0-.6.1-.9.2s-.5.3-.7.6c-.2.2-.4.5-.5.8s-.2.6-.2.9.1.6.2.8.4.3.7.3c.1 0 .3 0 .4-.1a.76.76 0 0 0 .4-.2c.1-.1.2-.3.4-.4.1-.2.2-.4.3-.7l.5-2.1zm15.2-1.3l-2.3 7.1h-1.1c-.1 0-.2-.1-.3-.3L197 161c0-.1-.1-.2-.1-.3s-.1-.2-.1-.3c0 .2-.1.5-.2.7l-1.5 4.6c0 .2-.1.3-.3.3h-1l-2.3-7.1h1.1c.1 0 .2 0 .3.1s.1.1.1.2l1.3 4.4c0 .2.1.3.1.5s.1.3.1.5c0-.2.1-.3.1-.5s.1-.3.2-.5l1.4-4.4c0-.1.1-.1.1-.2s.1-.1.2-.1h.6c.1 0 .2 0 .3.1.1 0 .1.1.1.2l1.4 4.4c.1.2.1.4.1.5 0 .2.1.3.1.5 0-.2.1-.3.1-.5s.1-.3.1-.5l1.3-4.4c0-.1.1-.1.1-.2.1-.1.2-.1.2-.1h1.3zm4.1-.2c.5 0 1 .1 1.4.3s.8.4 1.1.7.5.7.7 1.2.2 1 .2 1.5c0 .6-.1 1.1-.2 1.5s-.4.8-.7 1.2-.7.6-1.1.7c-.4.2-.9.3-1.4.3s-1-.1-1.4-.3-.8-.4-1.1-.7-.5-.7-.7-1.2-.2-1-.2-1.5c0-.6.1-1.1.2-1.5s.4-.8.7-1.2.7-.6 1.1-.7c.4-.2.9-.3 1.4-.3zm0 6.3c.7 0 1.2-.2 1.5-.7s.5-1.1.5-1.9-.2-1.5-.5-1.9c-.3-.5-.8-.7-1.5-.7s-1.2.2-1.5.7-.5 1.1-.5 1.9.2 1.5.5 1.9c.3.5.8.7 1.5.7z"/><use xlink:href="#C"/><path d="M222.1 155.5v10.3h-.8c-.2 0-.3-.1-.4-.3l-.1-.8c-.3.4-.6.6-1 .9-.4.2-.8.3-1.3.3-.4 0-.8-.1-1.1-.2-.3-.2-.6-.4-.8-.7s-.4-.7-.5-1.1c-.1-.5-.2-1-.2-1.6 0-.5.1-1 .2-1.5s.3-.8.6-1.2c.3-.3.6-.6 1-.8s.8-.3 1.3-.3c.4 0 .8.1 1.1.2s.6.3.8.6v-3.9h1.2zm-1.4 5c-.2-.3-.5-.5-.7-.6-.3-.1-.5-.2-.9-.2-.6 0-1.1.2-1.5.7-.3.5-.5 1.1-.5 2 0 .5 0 .8.1 1.2l.3.8c.1.2.3.4.5.4.2.1.5.1.7.1a1.69 1.69 0 0 0 1-.3c.3-.2.6-.4.8-.7v-3.4zm4.6-.7c.1-.2.3-.3.5-.5.2-.1.4-.3.5-.4.2-.1.4-.2.6-.2.2-.1.5-.1.7-.1.4 0 .8.1 1.1.2.3.2.6.4.8.7s.4.7.5 1.1c.1.5.2 1 .2 1.6 0 .5-.1 1-.2 1.5s-.3.8-.6 1.2-.6.6-1 .8-.8.3-1.3.3c-.4 0-.8-.1-1.1-.2s-.6-.3-.8-.6v3.1H224v-9.5h.8c.2 0 .3.1.4.3l.1.7zm.1 4.3c.2.3.5.5.7.6.3.1.5.2.9.2.6 0 1.1-.2 1.5-.7.3-.5.5-1.1.5-2 0-.5 0-.8-.1-1.2l-.3-.8c-.1-.2-.3-.4-.5-.4-.2-.1-.5-.1-.7-.1a1.69 1.69 0 0 0-1 .3c-.3.2-.6.4-.8.8v3.3z"/><use xlink:href="#C" x="20.7"/><path d="M242.6 164.9c-.2.2-.4.4-.6.5s-.5.3-.7.3c-.2.1-.5.2-.8.2s-.5.1-.8.1c-.5 0-.9-.1-1.4-.2-.4-.2-.8-.4-1.1-.7s-.5-.7-.7-1.2-.3-1-.3-1.6c0-.5.1-1 .2-1.4.2-.4.4-.8.7-1.1s.6-.6 1.1-.7c.4-.2.9-.3 1.4-.3.4 0 .8.1 1.2.2s.7.3.9.6c.3.3.5.6.6 1 .2.4.2.8.2 1.4 0 .2 0 .4-.1.4 0 .1-.1.1-.3.1h-4.7c0 .4.1.8.2 1.1s.3.6.4.8c.2.2.4.4.7.5s.6.2.9.2.6 0 .8-.1.4-.1.6-.2.3-.2.4-.2.2-.1.3-.1.2 0 .3.1l.6.3zm-1.2-3.4c0-.3 0-.5-.1-.7l-.3-.6c-.1-.2-.3-.3-.5-.4s-.5-.1-.7-.1c-.6 0-1 .2-1.4.5-.3.3-.5.8-.6 1.4h3.6z"/><use xlink:href="#D"/><use xlink:href="#D" x="6.1"/><path d="M256.1 165c0-.1 0-.2.1-.4 0-.1.1-.2.2-.3s.2-.2.3-.2.2-.1.4-.1c.1 0 .2 0 .4.1.1 0 .2.1.3.2s.2.2.2.3.1.2.1.4c0 .1 0 .3-.1.4s-.1.2-.2.3-.2.1-.3.2c-.1 0-.2.1-.4.1-.1 0-.3 0-.4-.1-.1 0-.2-.1-.3-.2s-.1-.2-.2-.3-.1-.2-.1-.4zm6.6-6.4c.5 0 1 .1 1.4.3s.8.4 1.1.7.5.7.7 1.2.2 1 .2 1.5c0 .6-.1 1.1-.2 1.5s-.4.8-.7 1.2-.7.6-1.1.7c-.4.2-.9.3-1.4.3s-1-.1-1.4-.3-.8-.4-1.1-.7-.5-.7-.7-1.2-.2-1-.2-1.5c0-.6.1-1.1.2-1.5s.4-.8.7-1.2.7-.6 1.1-.7c.4-.2.8-.3 1.4-.3zm0 6.3c.7 0 1.2-.2 1.5-.7s.5-1.1.5-1.9-.2-1.5-.5-1.9c-.3-.5-.8-.7-1.5-.7s-1.2.2-1.5.7-.5 1.1-.5 1.9.2 1.5.5 1.9c.3.5.8.7 1.5.7z"/><use xlink:href="#C" x="56.4"/><path d="M278.6 159v.5c0 .2-.1.3-.3.3l-.8.1c.1.1.1.3.2.5 0 .2.1.3.1.5 0 .4-.1.7-.2.9-.1.3-.3.5-.6.7-.2.2-.5.4-.9.5s-.7.2-1.1.2c-.3 0-.6 0-.9-.1l-.3.3c-.1.1-.1.2-.1.3 0 .2.1.3.2.4s.3.1.5.2.5.1.8.1h.9c.3 0 .6.1.9.1.3.1.5.1.8.3s.4.3.5.5.2.5.2.8-.1.6-.2.9-.4.5-.7.8c-.3.2-.6.4-1.1.5-.4.1-.9.2-1.4.2s-1-.1-1.4-.2-.7-.2-1-.4-.5-.4-.6-.6-.2-.5-.2-.7c0-.3.1-.6.3-.9.2-.2.5-.4.9-.6-.2-.1-.4-.2-.5-.4s-.2-.4-.2-.6c0-.1 0-.2.1-.3 0-.1.1-.2.2-.3l.3-.3c.1-.1.2-.2.4-.3-.3-.2-.6-.5-.8-.8s-.3-.7-.3-1.1a2.39 2.39 0 0 1 .2-.9c.1-.3.3-.5.6-.7.2-.2.5-.4.9-.5.3-.1.7-.2 1.1-.2.6 0 1.1.1 1.6.4h1.9zm-1.3 7.2c0-.2 0-.3-.1-.4s-.2-.2-.4-.2c-.2-.1-.3-.1-.6-.1-.2 0-.4 0-.7-.1h-.7c-.2 0-.5 0-.7-.1-.2.1-.4.3-.6.4s-.2.4-.2.6c0 .1 0 .3.1.4s.2.2.4.3.4.2.6.2.5.1.9.1c.3 0 .6 0 .9-.1s.5-.1.6-.2a.78.78 0 0 0 .4-.4c.1-.2.1-.2.1-.4zm-2.2-3.9c.2 0 .5 0 .6-.1.2-.1.3-.2.5-.3s.2-.3.3-.4c.1-.2.1-.4.1-.6 0-.4-.1-.7-.4-1s-.6-.4-1.1-.4-.8.1-1.1.4a1.53 1.53 0 0 0-.4 1c0 .2 0 .4.1.5s.2.3.3.4.3.2.5.3c.1.2.3.2.6.2z"/></g><g fill="#444" class="W"><path d="M156.3 182.9c0 .6-.1 1.1-.2 1.5s-.3.8-.6 1.1-.6.5-1 .7-.9.2-1.4.2-.9-.1-1.4-.2l.1-.9c0-.1 0-.2.1-.2s.1-.1.2-.1.2 0 .3.1c.1 0 .3.1.5.1.3 0 .6 0 .8-.1s.4-.2.6-.4.3-.4.4-.7.1-.6.1-1.1v-6.6h1.5v6.6zm1.7-2.6c.4-.4.8-.7 1.3-.8s1-.3 1.5-.3c.4 0 .8.1 1.1.2s.6.3.8.6c.2.2.4.5.5.9.1.3.2.7.2 1.1v4.5h-.6c-.1 0-.2 0-.3-.1-.1 0-.1-.1-.2-.2l-.1-.6c-.2.2-.4.3-.5.4l-.6.3c-.2.1-.4.2-.6.2s-.5.1-.7.1c-.3 0-.5 0-.8-.1-.2-.1-.5-.2-.6-.4-.2-.2-.3-.4-.4-.6s-.2-.5-.2-.8.1-.5.2-.8c.2-.3.4-.5.7-.7s.8-.4 1.3-.5c.6-.1 1.2-.2 2-.2v-.5c0-.5-.1-.9-.3-1.2s-.6-.4-1-.4c-.3 0-.5 0-.8.1-.2.1-.4.2-.5.2s-.3.2-.4.2c-.1.1-.2.1-.3.1s-.2 0-.2-.1l-.2-.2-.3-.4zm4 2.9c-.6 0-1 .1-1.4.1-.4.1-.7.2-.9.3s-.4.2-.5.4-.2.3-.2.5a.9.9 0 0 0 .1.5c.1.1.1.2.2.3s.2.1.4.2c.1 0 .3.1.4.1.2 0 .4 0 .6-.1.2 0 .3-.1.5-.2a1.38 1.38 0 0 0 .4-.3c.1-.1.3-.2.4-.4v-1.4zm4.4-3c.2-.2.3-.3.5-.4s.3-.3.5-.3c.2-.1.4-.2.6-.2.2-.1.4-.1.7-.1.4 0 .7.1 1 .2s.5.3.7.5.4.5.5.9.2.7.2 1.1v4.5h-1.4v-4.5c0-.5-.1-.9-.4-1.2-.2-.3-.6-.4-1.1-.4-.4 0-.7.1-1 .2-.3.2-.6.4-.9.7v5.2h-1.4v-7.1h.8c.2 0 .3.1.4.3l.3.6z"/><use xlink:href="#E"/><use xlink:href="#F"/><path d="M193.4 186.4c-.1 0-.2 0-.3-.1-.1 0-.2-.1-.3-.2s-.1-.2-.2-.3c0-.1-.1-.2-.1-.4 0-.1 0-.2.1-.3s.1-.2.2-.3.2-.1.3-.2c.1 0 .2-.1.4-.1.1 0 .3 0 .4.1s.2.1.3.2.1.2.2.3c0 .1.1.3.1.4 0 .2 0 .4-.1.7-.1.2-.1.5-.3.7s-.3.5-.4.7l-.6.6-.2-.2c-.1-.1-.1-.1-.1-.2v-.1s0-.1.1-.1c0-.1.1-.1.2-.2s.1-.2.2-.3.1-.2.2-.4c-.1 0-.1-.2-.1-.3h0z"/><use xlink:href="#G"/><use xlink:href="#F" x="23"/><use xlink:href="#G" x="16.3"/><use xlink:href="#E" x="47.4"/></g><g fill="#ffae04"><use xlink:href="#H"/><path d="M180.6 102.6l2.3 5.5 6 .5c.4 0 .6.6.3.8l-4.5 3.9 1.4 5.8c.1.4-.4.7-.7.5l-5.1-3.1-5.1 3.1c-.4.2-.8-.1-.7-.5l1.4-5.8-4.5-3.9c-.3-.3-.2-.7.3-.8l6-.5 2.3-5.5c0-.4.4-.4.6 0z"/><use xlink:href="#I"/><use xlink:href="#I" x="19.7"/><use xlink:href="#H" x="78.7"/></g><g class="W"><path d="M155.4 251.7h-1.6v-11.5h1.6v11.5zm4.8-8.1h1.1c.1 0 .2 0 .3.1l.2.2 1.6 5.2c0 .2.1.4.1.6s.1.4.1.5c0-.2.1-.4.1-.5s.1-.4.2-.6l1.7-5.2c0-.1.1-.1.1-.2.1-.1.2-.1.3-.1h.6c.1 0 .2 0 .3.1s.1.1.1.2l1.7 5.2c.1.2.1.4.2.6s.1.4.1.5c0-.2.1-.4.1-.6s.1-.4.1-.5l1.6-5.2c0-.1.1-.2.2-.2.1-.1.2-.1.3-.1h1.1l-2.6 8.1h-1.1c-.1 0-.2-.1-.3-.3l-1.8-5.5c0-.1-.1-.2-.1-.4 0-.1-.1-.2-.1-.4 0 .1-.1.2-.1.4 0 .1-.1.3-.1.4l-1.8 5.5c-.1.2-.2.3-.3.3H163l-2.8-8.1zm19.3 8.1h-.6c-.1 0-.3 0-.3-.1-.1 0-.1-.1-.2-.3l-.2-.8c-.2.2-.4.4-.6.5-.2.2-.4.3-.6.4s-.5.2-.7.2c-.3.1-.5.1-.8.1s-.6 0-.9-.1-.5-.2-.7-.4-.4-.4-.5-.7-.2-.6-.2-1c0-.3.1-.6.3-.9a2.36 2.36 0 0 1 .9-.8 11.64 11.64 0 0 1 1.5-.6c.6-.1 1.4-.2 2.3-.2v-.6c0-.6-.1-1.1-.4-1.4s-.7-.5-1.2-.5c-.3 0-.6 0-.9.1s-.4.2-.6.3a1.38 1.38 0 0 0-.4.3c-.1.1-.2.1-.4.1-.1 0-.2 0-.3-.1-.1 0-.1-.1-.2-.2l-.3-.5c.4-.4.9-.8 1.4-1s1.1-.3 1.7-.3a3.73 3.73 0 0 1 1.2.2c.4.1.6.4.9.6.2.3.4.6.5 1s.2.8.2 1.2v5.5zm-3.7-.9c.3 0 .5 0 .7-.1s.4-.1.6-.2.4-.2.5-.3c.2-.1.3-.3.5-.5V248c-.7 0-1.2 0-1.7.1s-.8.2-1.1.3-.5.3-.6.5-.2.4-.2.6 0 .4.1.6a1.38 1.38 0 0 0 .3.4.76.76 0 0 0 .4.2.9.9 0 0 0 .5.1zm10.5-5.9c-.1.1-.2.2-.3.2s-.2 0-.3-.1-.2-.1-.4-.2c-.1-.1-.3-.1-.5-.2s-.4-.1-.7-.1c-.2 0-.5 0-.6.1s-.4.1-.5.3c-.1.1-.2.2-.3.4-.1.1-.1.3-.1.5s.1.4.2.5.3.3.5.4.4.2.7.3.5.2.8.2.5.2.8.3.5.2.7.4.4.4.5.6.2.5.2.8c0 .4-.1.7-.2 1s-.3.6-.6.8-.6.4-1 .5-.8.2-1.3.2c-.6 0-1.1-.1-1.5-.3-.5-.2-.8-.4-1.2-.7l.3-.5c0-.1.1-.1.2-.2.1 0 .1-.1.2-.1s.2 0 .3.1.2.2.4.2c.2.1.3.2.6.2.2.1.5.1.8.1s.5 0 .7-.1.4-.2.5-.3.2-.3.3-.4a.9.9 0 0 0 .1-.5c0-.2-.1-.4-.2-.6s-.3-.3-.5-.4-.4-.2-.7-.3-.5-.2-.8-.2l-.8-.3c-.3-.1-.5-.2-.7-.4s-.4-.4-.5-.6-.2-.5-.2-.9c0-.3.1-.6.2-.9s.3-.5.6-.8c.2-.2.5-.4.9-.5s.8-.2 1.2-.2c.5 0 1 .1 1.4.3s.8.4 1.1.7l-.3.7z"/><use xlink:href="#J"/><use xlink:href="#K"/><use xlink:href="#K" x="8.9"/><use xlink:href="#L"/><use xlink:href="#M"/><use xlink:href="#N"/><use xlink:href="#O"/><path d="M246.5 251.7v-6.9l-.9-.1c-.1 0-.2-.1-.3-.1-.1-.1-.1-.1-.1-.2v-.6h1.3v-.8a3.73 3.73 0 0 1 .2-1.2c.1-.4.3-.7.6-.9s.5-.4.9-.6a3.73 3.73 0 0 1 1.2-.2c.4 0 .7.1 1 .2v.7c0 .1-.1.2-.1.2h-.6c-.2 0-.5 0-.7.1s-.4.2-.5.3-.3.3-.3.6c-.1.2-.1.5-.1.9v.7h2.3v1H248v6.9h-1.5z"/><use xlink:href="#P"/><use xlink:href="#Q"/><path d="M276 251.7h-.6c-.1 0-.3 0-.3-.1-.1 0-.1-.1-.2-.3l-.2-.8c-.2.2-.4.4-.6.5-.2.2-.4.3-.6.4s-.5.2-.7.2c-.3.1-.5.1-.8.1s-.6 0-.9-.1-.5-.2-.7-.4-.4-.4-.5-.7-.2-.6-.2-1c0-.3.1-.6.3-.9a2.36 2.36 0 0 1 .9-.8 11.64 11.64 0 0 1 1.5-.6c.6-.1 1.4-.2 2.3-.2v-.6c0-.6-.1-1.1-.4-1.4s-.7-.5-1.2-.5c-.3 0-.6 0-.9.1s-.4.2-.6.3a1.38 1.38 0 0 0-.4.3c-.1.1-.2.1-.4.1-.1 0-.2 0-.3-.1-.1 0-.1-.1-.2-.2l-.3-.5c.4-.4.9-.8 1.4-1s1.1-.3 1.7-.3a3.73 3.73 0 0 1 1.2.2c.4.1.6.4.9.6.2.3.4.6.5 1s.2.8.2 1.2v5.5zm-3.7-.9c.3 0 .5 0 .7-.1s.4-.1.6-.2.4-.2.5-.3c.2-.1.3-.3.5-.5V248c-.7 0-1.2 0-1.7.1s-.8.2-1.1.3-.5.3-.6.5-.2.4-.2.6 0 .4.1.6a1.38 1.38 0 0 0 .3.4.76.76 0 0 0 .4.2c.1.1.3.1.5.1z"/><use xlink:href="#Q" x="20.7"/><use xlink:href="#R"/><path d="M302 251.7h-.6c-.1 0-.3 0-.3-.1-.1 0-.1-.1-.2-.3l-.2-.8c-.2.2-.4.4-.6.5-.2.2-.4.3-.6.4s-.5.2-.7.2c-.3.1-.5.1-.8.1s-.6 0-.9-.1-.5-.2-.7-.4-.4-.4-.5-.7-.2-.6-.2-1c0-.3.1-.6.3-.9a2.36 2.36 0 0 1 .9-.8 11.64 11.64 0 0 1 1.5-.6c.6-.1 1.4-.2 2.3-.2v-.6c0-.6-.1-1.1-.4-1.4s-.7-.5-1.2-.5c-.3 0-.6 0-.9.1s-.4.2-.6.3a1.38 1.38 0 0 0-.4.3c-.1.1-.2.1-.4.1-.1 0-.2 0-.3-.1-.1 0-.1-.1-.2-.2l-.3-.5c.4-.4.9-.8 1.4-1s1.1-.3 1.7-.3a3.73 3.73 0 0 1 1.2.2c.4.1.6.4.9.6.2.3.4.6.5 1s.2.8.2 1.2v5.5zm-3.7-.9c.3 0 .5 0 .7-.1s.4-.1.6-.2.4-.2.5-.3c.2-.1.3-.3.5-.5V248c-.7 0-1.2 0-1.7.1s-.8.2-1.1.3-.5.3-.6.5-.2.4-.2.6 0 .4.1.6a1.38 1.38 0 0 0 .3.4.76.76 0 0 0 .4.2c.2.1.4.1.5.1z"/><use xlink:href="#J" x="112.5"/><use xlink:href="#J" x="116.6"/><use xlink:href="#S"/><use xlink:href="#O" x="88.7"/><use xlink:href="#T"/><use xlink:href="#T" x="8.9"/><use xlink:href="#U"/><use xlink:href="#V"/><path d="M370.8 243.4c.5 0 .9.1 1.3.2.4.2.8.4 1.1.7s.5.7.7 1.1c.2.5.3 1 .3 1.5 0 .2 0 .4-.1.4 0 .1-.1.1-.3.1h-5.4a4.44 4.44 0 0 0 .2 1.3c.1.3.3.7.5.9.2.3.5.4.8.6.3.1.7.2 1 .2.4 0 .7 0 .9-.1s.5-.2.7-.3.3-.2.5-.3c.1-.1.2-.1.3-.1s.2 0 .3.1l.4.5-.6.6c-.2.2-.5.3-.8.4s-.6.2-.9.2c-.3.1-.6.1-.9.1-.6 0-1.1-.1-1.5-.3-.5-.2-.9-.5-1.2-.8-.3-.4-.6-.8-.8-1.4-.2-.5-.3-1.2-.3-1.9 0-.6.1-1.1.3-1.6s.4-.9.7-1.3.7-.6 1.2-.8 1.1 0 1.6 0zm.1 1.1c-.7 0-1.2.2-1.6.6s-.6.9-.7 1.7h4.4c0-.3 0-.6-.1-.9s-.2-.5-.4-.7-.4-.4-.6-.5-.7-.2-1-.2zm9.8.4c-.1.1-.2.2-.3.2s-.2 0-.3-.1-.2-.1-.4-.2c-.1-.1-.3-.1-.5-.2s-.4-.1-.7-.1c-.2 0-.5 0-.6.1s-.4.1-.5.3a1.38 1.38 0 0 0-.3.4c-.1.1-.1.3-.1.5s.1.4.2.5.3.3.5.4.4.2.7.3.5.2.8.2.5.2.8.3.5.2.7.4.4.4.5.6.2.5.2.8c0 .4-.1.7-.2 1s-.3.6-.6.8-.6.4-1 .5-.8.2-1.3.2c-.6 0-1.1-.1-1.5-.3-.5-.2-.8-.4-1.2-.7l.3-.5c0-.1.1-.1.2-.2.1 0 .1-.1.2-.1s.2 0 .3.1.2.2.4.2c.2.1.3.2.6.2.2.1.5.1.8.1s.5 0 .7-.1.4-.2.5-.3.2-.3.3-.4a.9.9 0 0 0 .1-.5c0-.2-.1-.4-.2-.6s-.3-.3-.5-.4-.4-.2-.7-.3-.5-.2-.8-.2l-.8-.3c-.3-.1-.5-.2-.7-.4s-.4-.4-.5-.6-.2-.5-.2-.9c0-.3.1-.6.2-.9s.3-.5.6-.8c.2-.2.5-.4.9-.5s.8-.2 1.2-.2c.5 0 1 .1 1.4.3s.8.4 1.1.7l-.3.7z"/><use xlink:href="#V" x="21.3"/><use xlink:href="#W"/><path d="M393 251.7v-8.1h.8c.2 0 .3.1.4.3l.1.8c.3-.4.6-.7 1-.9s.8-.4 1.3-.4 1 .2 1.3.5.6.7.7 1.2c.1-.3.3-.5.4-.8.2-.2.4-.4.6-.5s.5-.2.7-.3c.3-.1.5-.1.8-.1.4 0 .8.1 1.1.2s.6.3.8.6.4.6.5 1 .2.8.2 1.3v5.2h-1.4v-5.2c0-.6-.1-1.1-.4-1.4s-.7-.5-1.2-.5c-.2 0-.5 0-.7.1s-.4.2-.6.4-.3.4-.4.6-.1.5-.1.8v5.2h-1.4v-5.2c0-.7-.1-1.1-.4-1.5-.3-.3-.6-.5-1.1-.5a1.69 1.69 0 0 0-1 .3c-.3.2-.6.4-.8.8v6H393z"/><use xlink:href="#T" x="74.3"/><use xlink:href="#X"/><path d="M425.9 241c0 .1 0 .3-.1.4s-.1.2-.2.3-.2.2-.3.2c-.1.1-.3.1-.4.1s-.3 0-.4-.1-.2-.1-.3-.2-.2-.2-.2-.3-.1-.2-.1-.4c0-.1 0-.3.1-.4s.1-.2.2-.3.2-.2.3-.2c.1-.1.2-.1.4-.1s.3 0 .4.1.2.1.3.2.2.2.2.3.1.3.1.4zm-.4 2.6v8.1h-1.4v-8.1h1.4zm8.5 8.1h-.6c-.1 0-.2 0-.3-.1-.1 0-.1-.1-.2-.3l-.2-.8c-.2.2-.4.4-.6.5-.2.2-.4.3-.6.4s-.5.2-.7.2c-.3.1-.5.1-.8.1s-.6 0-.9-.1-.5-.2-.7-.4-.4-.4-.5-.7-.2-.6-.2-1c0-.3.1-.6.3-.9a2.36 2.36 0 0 1 .9-.8 11.64 11.64 0 0 1 1.5-.6c.6-.1 1.4-.2 2.3-.2v-.6c0-.6-.1-1.1-.4-1.4s-.7-.5-1.2-.5c-.3 0-.6 0-.9.1s-.4.2-.6.3a1.38 1.38 0 0 0-.4.3c-.1.1-.2.1-.4.1-.1 0-.2 0-.3-.1-.1 0-.1-.1-.2-.2l-.3-.5c.4-.4.9-.8 1.4-1s1.1-.3 1.7-.3a3.73 3.73 0 0 1 1.2.2c.4.1.6.4.9.6.2.3.4.6.5 1s.2.8.2 1.2v5.5zm-3.7-.9c.3 0 .5 0 .7-.1s.4-.1.6-.2.4-.2.5-.3c.2-.1.3-.3.5-.5V248c-.7 0-1.2 0-1.7.1s-.8.2-1.1.3-.5.3-.6.5-.2.4-.2.6 0 .4.1.6a1.38 1.38 0 0 0 .3.4.76.76 0 0 0 .4.2c.1.1.3.1.5.1z"/><use xlink:href="#J" x="244.4"/><path d="M443.3 254.4v-10.8h.8c.2 0 .3.1.4.3l.1 1c.3-.4.7-.8 1.2-1s1-.4 1.5-.4.9.1 1.3.3.7.4 1 .8c.3.3.5.8.6 1.3s.2 1.1.2 1.8c0 .6-.1 1.2-.2 1.7a2.73 2.73 0 0 1-.7 1.3c-.3.4-.7.7-1.1.9s-.9.3-1.5.3c-.5 0-.9-.1-1.3-.2s-.7-.4-.9-.7v3.6h-1.4zm3.7-9.8c-.5 0-.9.1-1.2.3s-.7.5-1 .9v3.9c.3.4.5.6.9.7.3.1.7.2 1 .2.8 0 1.3-.3 1.7-.8s.6-1.3.6-2.3c0-.5 0-1-.1-1.4s-.2-.7-.4-.9-.4-.4-.6-.5c-.3-.1-.6-.1-.9-.1z"/><use xlink:href="#J" x="260.5"/><use xlink:href="#Y"/><path d="M467.9 243.4c.4 0 .7 0 1 .1l.8.3h2.2v.5c0 .2-.1.3-.3.3l-.9.1c.2.3.3.7.3 1.2 0 .4-.1.8-.2 1.1-.2.3-.4.6-.6.8-.3.2-.6.4-1 .5s-.8.2-1.2.2-.7 0-1.1-.1a.78.78 0 0 0-.4.4c-.1.1-.1.3-.1.4 0 .2.1.3.2.5.2.1.4.2.6.2.3 0 .5.1.9.1h1c.3 0 .7 0 1 .1l.9.3a.9.9 0 0 1 .6.6c.2.2.2.5.2.9a1.69 1.69 0 0 1-.3 1c-.2.3-.4.6-.7.9s-.7.5-1.2.6c-.5.2-1 .2-1.6.2s-1.1-.1-1.6-.2c-.4-.1-.8-.3-1.1-.5s-.5-.4-.7-.7c-.1-.3-.2-.5-.2-.8 0-.4.1-.7.4-1s.6-.5 1-.7c-.2-.1-.4-.2-.5-.4s-.2-.4-.2-.7c0-.1 0-.2.1-.4 0-.1.1-.2.2-.4s.2-.2.3-.4c.1-.1.3-.2.4-.3a1.96 1.96 0 0 1-.9-.9c-.2-.4-.3-.8-.3-1.3 0-.4.1-.8.2-1.1.2-.3.4-.6.6-.8.3-.2.6-.4 1-.5.3 0 .7-.1 1.2-.1zm2.5 8.7c0-.2-.1-.4-.2-.5s-.3-.2-.5-.3-.4-.1-.7-.2h-1.6c-.2 0-.6 0-.8-.1-.3.1-.6.3-.7.5s-.3.5-.3.7 0 .4.1.5a.78.78 0 0 0 .4.4c.2.1.4.2.7.3s.6.1 1 .1.7 0 1-.1l.8-.3c.2-.1.4-.3.5-.5s.3-.3.3-.5zm-2.5-4.4c.3 0 .5 0 .8-.1l.6-.3a.55.55 0 0 0 .3-.5c.1-.2.1-.4.1-.7 0-.5-.2-.9-.5-1.2s-.7-.4-1.3-.4-1 .1-1.3.4-.5.7-.5 1.2c0 .2 0 .5.1.7s.2.4.3.5.3.3.6.3.5.1.8.1z"/><use xlink:href="#W" x="84.4"/><use xlink:href="#X" x="62.3"/><use xlink:href="#Z"/><use xlink:href="#a"/><use xlink:href="#Q" x="243.2"/><use xlink:href="#a" x="18.4"/><use xlink:href="#b"/><path d="M531 251.7v-8.1h.8c.2 0 .3 0 .3.1s.1.2.1.3l.1 1.3c.3-.6.6-1 1-1.3s.9-.5 1.4-.5c.2 0 .4 0 .6.1s.3.1.5.2l-.2 1.1c0 .1-.1.2-.2.2s-.2 0-.3-.1c-.2 0-.4-.1-.6-.1-.5 0-.9.1-1.2.4a3.22 3.22 0 0 0-.8 1.3v5.2H531zm9.6 0v-11.8h1.4v4.8a2.73 2.73 0 0 1 1.2-.9c.5-.2.9-.4 1.5-.4.5 0 .9.1 1.3.3s.7.4 1 .8c.3.3.5.8.6 1.3s.2 1.1.2 1.8c0 .6-.1 1.2-.2 1.7a2.73 2.73 0 0 1-.7 1.3c-.3.4-.7.7-1.1.9s-.9.3-1.5.3c-.5 0-1-.1-1.3-.3-.4-.2-.7-.5-1-.8l-.1.7c0 .2-.2.3-.4.3h-.9zm3.6-7.1c-.5 0-.9.1-1.2.3s-.7.5-1 .9v3.9c.3.4.5.6.9.7.3.1.7.2 1 .2.8 0 1.3-.3 1.7-.8s.6-1.3.6-2.3c0-.5 0-1-.1-1.4s-.2-.7-.4-.9-.4-.4-.6-.5-.5-.1-.9-.1z"/><use xlink:href="#Y" x="93.3"/><use xlink:href="#c"/><use xlink:href="#d"/><use xlink:href="#e"/><use xlink:href="#f"/><use xlink:href="#c" x="28.3"/><use xlink:href="#c" x="35.2"/><use xlink:href="#g"/><use xlink:href="#f" x="37.6"/><path d="M624.4 251.7v-11.8h1.4v4.8a2.73 2.73 0 0 1 1.2-.9c.5-.2.9-.4 1.5-.4.5 0 .9.1 1.3.3s.7.4 1 .8c.3.3.5.8.6 1.3s.2 1.1.2 1.8c0 .6-.1 1.2-.2 1.7a2.73 2.73 0 0 1-.7 1.3c-.3.4-.7.7-1.1.9s-.9.3-1.5.3c-.5 0-1-.1-1.3-.3-.4-.2-.7-.5-1-.8l-.1.7c0 .2-.2.3-.4.3h-.9zm3.6-7.1c-.5 0-.9.1-1.2.3s-.7.5-1 .9v3.9c.3.4.5.6.9.7s.7.2 1 .2c.8 0 1.3-.3 1.7-.8s.6-1.3.6-2.3c0-.5 0-1-.1-1.4s-.2-.7-.4-.9-.4-.4-.6-.5c-.3-.1-.6-.1-.9-.1z"/><use xlink:href="#c" x="74.8"/><use xlink:href="#W" x="251.3"/><path d="M646.8 251.8c-.6 0-1.1-.2-1.5-.5-.3-.4-.5-.9-.5-1.5v-5h-1c-.1 0-.2 0-.2-.1-.1-.1-.1-.1-.1-.2v-.6l1.3-.2.3-2.5c0-.1 0-.1.1-.2s.1-.1.2-.1h.7v2.8h2.3v1h-2.3v4.9c0 .3.1.6.2.8.2.2.4.2.6.2.1 0 .3 0 .4-.1s.2-.1.3-.1.1-.1.2-.1.1-.1.1-.1c.1 0 .1 0 .2.1l.4.7c-.2.2-.5.4-.9.5-.1.2-.4.3-.8.3z"/><use xlink:href="#h"/><path d="M667.7 251.7h-.6c-.1 0-.3 0-.3-.1-.1 0-.1-.1-.2-.3l-.2-.8c-.2.2-.4.4-.6.5-.2.2-.4.3-.6.4s-.5.2-.7.2c-.3.1-.5.1-.8.1s-.6 0-.9-.1-.5-.2-.7-.4-.4-.4-.5-.7-.2-.6-.2-1c0-.3.1-.6.3-.9a2.36 2.36 0 0 1 .9-.8 11.64 11.64 0 0 1 1.5-.6c.6-.1 1.4-.2 2.3-.2v-.6c0-.6-.1-1.1-.4-1.4s-.7-.5-1.2-.5c-.3 0-.6 0-.9.1s-.4.2-.6.3-.3.2-.4.3-.2.1-.4.1c-.1 0-.2 0-.3-.1-.1 0-.1-.1-.2-.2l-.3-.5c.4-.4.9-.8 1.4-1s1.1-.3 1.7-.3a3.73 3.73 0 0 1 1.2.2c.4.1.6.4.9.6.2.3.4.6.5 1s.2.8.2 1.2v5.5zm-3.7-.9c.3 0 .5 0 .7-.1s.4-.1.6-.2.4-.2.5-.3c.2-.1.3-.3.5-.5V248c-.7 0-1.2 0-1.7.1s-.8.2-1.1.3-.5.3-.6.5-.2.4-.2.6 0 .4.1.6.2.3.3.4a.76.76 0 0 0 .4.2c.1 0 .3.1.5.1z"/><use xlink:href="#e" x="100.4"/><path d="M684.5 251.7c-.2 0-.3-.1-.4-.3l-.1-1c-.3.4-.7.8-1.2 1-.4.3-1 .4-1.5.4s-.9-.1-1.3-.3-.7-.4-1-.8-.5-.8-.6-1.3-.2-1.1-.2-1.8c0-.6.1-1.2.2-1.7.2-.5.4-1 .7-1.3.3-.4.7-.7 1.1-.9s.9-.3 1.5-.3c.5 0 .9.1 1.3.3s.7.4.9.7v-4.5h1.4v11.8h-.8zm-2.8-1.1c.5 0 .9-.1 1.2-.3s.7-.5 1-.9v-3.9c-.3-.4-.5-.6-.9-.7-.3-.1-.7-.2-1-.2-.8 0-1.3.3-1.7.8s-.6 1.3-.6 2.3c0 .5 0 1 .1 1.4s.2.7.4.9.4.4.6.5c.3.1.6.1.9.1z"/><path d="M152.2 264.6h1.1c.1 0 .2 0 .3.1l.2.2 1.6 5.2c0 .2.1.4.1.6s.1.4.1.5c0-.2.1-.4.1-.5s.1-.4.2-.6l1.7-5.2c0-.1.1-.1.1-.2.1-.1.2-.1.3-.1h.6c.1 0 .2 0 .3.1s.1.1.1.2l1.7 5.2c.1.2.1.4.2.6s.1.4.1.5c0-.2.1-.4.1-.6s.1-.4.1-.5l1.6-5.2c0-.1.1-.2.2-.2.1-.1.2-.1.3-.1h1.1l-2.6 8.1h-1.1c-.1 0-.2-.1-.3-.3l-1.8-5.5c0-.1-.1-.2-.1-.4 0-.1-.1-.2-.1-.4 0 .1-.1.2-.1.4 0 .1-.1.3-.1.4l-1.8 5.5c-.1.2-.2.3-.3.3H155l-2.8-8.1zm19.3 8.1h-.6c-.1 0-.3 0-.3-.1-.1 0-.1-.1-.2-.3l-.2-.8c-.2.2-.4.4-.6.5-.2.2-.4.3-.6.4s-.5.2-.7.2c-.3.1-.5.1-.8.1s-.6 0-.9-.1-.5-.2-.7-.4-.4-.4-.5-.7-.2-.6-.2-1c0-.3.1-.6.3-.9a2.36 2.36 0 0 1 .9-.8 11.64 11.64 0 0 1 1.5-.6c.6-.1 1.4-.2 2.3-.2v-.6c0-.6-.1-1.1-.4-1.4s-.7-.5-1.2-.5c-.3 0-.6 0-.9.1s-.4.2-.6.3a1.38 1.38 0 0 0-.4.3c-.1.1-.2.1-.4.1-.1 0-.2 0-.3-.1-.1 0-.1-.1-.2-.2l-.3-.5c.4-.4.9-.8 1.4-1s1.1-.3 1.7-.3a3.73 3.73 0 0 1 1.2.2c.4.1.6.4.9.6.2.3.4.6.5 1s.2.8.2 1.2v5.5zm-3.7-.9c.3 0 .5 0 .7-.1s.4-.1.6-.2.4-.2.5-.3c.2-.1.3-.3.5-.5V269c-.7 0-1.2 0-1.7.1a8.11 8.11 0 0 0-1.1.3c-.3.1-.5.3-.6.5s-.2.4-.2.6 0 .4.1.6a1.38 1.38 0 0 0 .3.4.76.76 0 0 0 .4.2.9.9 0 0 0 .5.1zm10.5-5.9c-.1.1-.2.2-.3.2s-.2 0-.3-.1-.2-.1-.4-.2c-.1-.1-.3-.1-.5-.2s-.4-.1-.7-.1c-.2 0-.5 0-.6.1s-.4.1-.5.3c-.1.1-.2.2-.3.4-.1.1-.1.3-.1.5s.1.4.2.5.3.3.5.4.4.2.7.3.5.2.8.2.5.2.8.3.5.2.7.4.4.4.5.6.2.5.2.8c0 .4-.1.7-.2 1s-.3.6-.6.8-.6.4-1 .5-.8.2-1.3.2c-.6 0-1.1-.1-1.5-.3-.5-.2-.8-.4-1.2-.7l.3-.5c0-.1.1-.1.2-.2.1 0 .1-.1.2-.1s.2 0 .3.1.2.2.4.2c.2.1.3.2.6.2.2.1.5.1.8.1s.5 0 .7-.1.4-.2.5-.3.2-.3.3-.4c.1-.2.1-.3.1-.5s-.1-.4-.2-.6-.3-.3-.5-.4-.4-.2-.7-.3-.5-.2-.8-.2l-.8-.3c-.3-.1-.5-.2-.7-.4s-.4-.4-.5-.6-.2-.5-.2-.9c0-.3.1-.6.2-.9s.3-.5.6-.8c.2-.2.5-.4.9-.5s.8-.2 1.2-.2c.5 0 1 .1 1.4.3s.8.4 1.1.7l-.3.7zm5.4 6.8v-8.1h.8c.2 0 .3.1.4.3l.1.9c.4-.4.7-.7 1.2-.9s.9-.4 1.5-.4c.4 0 .8.1 1.2.2.3.1.6.4.8.6.2.3.4.6.5 1s.2.8.2 1.3v5.2H189v-5.2c0-.6-.1-1.1-.4-1.4s-.7-.5-1.3-.5c-.4 0-.8.1-1.2.3s-.7.5-1 .8v6h-1.4z"/><use xlink:href="#K" x="-3.2" y="21"/><path d="M203.9 272.8c-.6 0-1.1-.2-1.5-.5-.3-.4-.5-.9-.5-1.5v-5h-1c-.1 0-.2 0-.2-.1s-.1-.1-.1-.2v-.6l1.3-.2.3-2.5c0-.1 0-.1.1-.2s.1-.1.2-.1h.7v2.8h2.3v1h-2.3v4.9c0 .3.1.6.2.8.2.2.4.2.6.2.1 0 .3 0 .4-.1s.2-.1.3-.1.1-.1.2-.1.1-.1.1-.1c.1 0 .1 0 .2.1l.4.7c-.2.2-.5.4-.9.5 0 .2-.4.3-.8.3z"/><use xlink:href="#i"/><use xlink:href="#j"/><use xlink:href="#k"/><use xlink:href="#W" x="-153.4" y="21"/><use xlink:href="#N" x="13.5" y="21"/><use xlink:href="#l"/><use xlink:href="#j" x="40.3"/><use xlink:href="#N" x="41.8" y="21"/><use xlink:href="#S" x="-35.9" y="21"/><path d="M289.4 260.9v11.8H288v-11.8h1.4z"/><use xlink:href="#m"/><use xlink:href="#n"/><path d="M309.7 260.9v6.9h.7c.1 0 .1-.1.2-.2l2.6-2.7.2-.2c.1-.1.2-.1.3-.1h1.3l-3 3.2c-.1.1-.1.2-.2.2-.1.1-.2.1-.2.2.1.1.2.1.3.2s.2.2.2.3l3.2 4H314c-.1 0-.2 0-.3-.1-.1 0-.2-.1-.2-.2l-2.7-3.3-.2-.2c-.1 0-.2-.1-.4-.1h-.4v3.9h-1.4v-11.8h1.3zm10.3 11.8v-6.9l-.9-.1c-.1 0-.2-.1-.3-.1-.1-.1-.1-.1-.1-.2v-.6h1.3v-.4c0-.5.1-1 .2-1.4.2-.4.4-.8.7-1.1s.7-.5 1.2-.7 1-.2 1.6-.2h.6c.2 0 .4.1.5.1v.7c0 .1 0 .1-.1.1h-.6c-.9 0-1.6.2-2.1.6-.4.4-.6 1-.6 1.8v.4h4.9v7.9h-1.4v-6.9h-3.4v6.9H320z"/><use xlink:href="#N" x="102.7" y="21"/><use xlink:href="#U" x="-11.9" y="21"/><use xlink:href="#M" x="124.7" y="21"/><use xlink:href="#N" x="124.7" y="21"/><use xlink:href="#O" x="124.7" y="21"/><use xlink:href="#T" x="39.1" y="21"/><use xlink:href="#N" x="153.7" y="21"/><use xlink:href="#o"/><path d="M402.3 272.7h-1.6v-11.5h1.6v11.5z"/><use xlink:href="#J" x="216.5" y="21"/><use xlink:href="#W" x="23.4" y="21"/><use xlink:href="#L" x="202.8" y="21"/><path d="M427.5 264.4c.5 0 .9.1 1.3.2.4.2.8.4 1.1.7s.5.7.7 1.1c.2.5.3 1 .3 1.5 0 .2 0 .4-.1.4 0 .1-.1.1-.3.1h-5.4a4.44 4.44 0 0 0 .2 1.3c.1.3.3.7.5.9.2.3.5.4.8.6.3.1.7.2 1 .2.4 0 .7 0 .9-.1s.5-.2.7-.3.3-.2.5-.3.2-.1.3-.1.2 0 .3.1l.4.5-.6.6c-.2.2-.5.3-.8.4s-.6.2-.9.2-.6.1-.9.1c-.6 0-1.1-.1-1.5-.3-.5-.2-.9-.5-1.2-.8s-.6-.8-.8-1.4c-.2-.5-.3-1.2-.3-1.9 0-.6.1-1.1.3-1.6s.4-.9.7-1.3.7-.6 1.2-.8c.5.1 1 0 1.6 0zm0 1.1c-.7 0-1.2.2-1.6.6s-.6.9-.7 1.7h4.4c0-.3 0-.6-.1-.9s-.2-.5-.4-.7-.4-.4-.6-.5c-.4-.2-.6-.2-1-.2zm10.9 7.2c-.2 0-.3-.1-.4-.3l-.1-1c-.3.4-.7.8-1.2 1-.4.3-1 .4-1.5.4s-.9-.1-1.3-.3-.7-.4-1-.8c-.3-.3-.5-.8-.6-1.3s-.2-1.1-.2-1.8c0-.6.1-1.2.2-1.7a2.73 2.73 0 0 1 .7-1.3c.3-.4.7-.7 1.1-.9s.9-.3 1.5-.3c.5 0 .9.1 1.3.3s.7.4.9.7v-4.5h1.4v11.8h-.8zm-2.8-1.1c.5 0 .9-.1 1.2-.3s.7-.5 1-.9v-3.9c-.3-.4-.5-.6-.9-.7-.3-.1-.7-.2-1-.2-.8 0-1.3.3-1.7.8s-.6 1.3-.6 2.3c0 .5 0 1 .1 1.4s.2.7.4.9.4.4.6.5.6.1.9.1z"/><use xlink:href="#P" x="193.1" y="21"/><use xlink:href="#p"/><use xlink:href="#Z" x="-26.2" y="21"/><use xlink:href="#b" x="-53.6" y="21"/><path d="M479 260.9v11.8h-1.4v-11.8h1.4zm2.8 11.8v-6.9l-.9-.1c-.1 0-.2-.1-.3-.1-.1-.1-.1-.1-.1-.2v-.6h1.3v-.4c0-.5.1-1 .2-1.4s.4-.8.7-1.1.7-.5 1.2-.7 1-.2 1.6-.2h.6c.2 0 .4.1.5.1v.7c0 .1 0 .1-.1.1h-.6c-.9 0-1.6.2-2.1.6-.4.4-.6 1-.6 1.8v.4h4.9v7.9h-1.4v-6.9h-3.4v6.9h-1.5z"/><use xlink:href="#J" x="298.9" y="21"/><use xlink:href="#J" x="303" y="21"/><path d="M502 264.4c.5 0 .9.1 1.3.2.4.2.8.4 1.1.7s.5.7.7 1.1c.2.5.3 1 .3 1.5 0 .2 0 .4-.1.4 0 .1-.1.1-.3.1h-5.4a4.44 4.44 0 0 0 .2 1.3c.1.3.3.7.5.9.2.3.5.4.8.6.3.1.7.2 1 .2.4 0 .7 0 .9-.1s.5-.2.7-.3.3-.2.5-.3.2-.1.3-.1.2 0 .3.1l.4.5-.6.6c-.2.2-.5.3-.8.4s-.6.2-.9.2-.6.1-.9.1c-.6 0-1.1-.1-1.5-.3-.5-.2-.9-.5-1.2-.8s-.6-.8-.8-1.4c-.2-.5-.3-1.2-.3-1.9 0-.6.1-1.1.3-1.6s.4-.9.7-1.3.7-.6 1.2-.8c.5.1 1.1 0 1.6 0zm.1 1.1c-.7 0-1.2.2-1.6.6s-.6.9-.7 1.7h4.4c0-.3 0-.6-.1-.9s-.2-.5-.4-.7-.4-.4-.6-.5c-.4-.2-.7-.2-1-.2zm10.8 7.2c-.2 0-.3-.1-.4-.3l-.1-1c-.3.4-.7.8-1.2 1-.4.3-1 .4-1.5.4s-.9-.1-1.3-.3-.7-.4-1-.8c-.3-.3-.5-.8-.6-1.3s-.2-1.1-.2-1.8c0-.6.1-1.2.2-1.7a2.73 2.73 0 0 1 .7-1.3c.3-.4.7-.7 1.1-.9s.9-.3 1.5-.3c.5 0 .9.1 1.3.3s.7.4.9.7v-4.5h1.4v11.8h-.8zm-2.7-1.1c.5 0 .9-.1 1.2-.3s.7-.5 1-.9v-3.9c-.3-.4-.5-.6-.9-.7-.3-.1-.7-.2-1-.2-.8 0-1.3.3-1.7.8s-.6 1.3-.6 2.3c0 .5 0 1 .1 1.4s.2.7.4.9.4.4.6.5.5.1.9.1z"/><use xlink:href="#T" x="187.4" y="21"/><use xlink:href="#b" x="6" y="21"/><path d="M537 272.7v-8.1h.8c.2 0 .3 0 .3.1.1.1.1.2.1.3l.1 1.3c.3-.6.6-1 1-1.3s.9-.5 1.4-.5c.2 0 .4 0 .6.1s.3.1.5.2l-.2 1.1c0 .1-.1.2-.2.2s-.2 0-.3-.1c-.2 0-.4-.1-.6-.1-.5 0-.9.1-1.2.4a3.22 3.22 0 0 0-.8 1.3v5.2H537z"/><use xlink:href="#p" x="93"/><path d="M556.2 264.4c.5 0 .9.1 1.3.2.4.2.8.4 1.1.7s.5.7.7 1.1c.2.5.3 1 .3 1.5 0 .2 0 .4-.1.4 0 .1-.1.1-.3.1h-5.4a4.44 4.44 0 0 0 .2 1.3c.1.3.3.7.5.9.2.3.5.4.8.6.3.1.7.2 1 .2.4 0 .7 0 .9-.1s.5-.2.7-.3.3-.2.5-.3c.1-.1.2-.1.3-.1s.2 0 .3.1l.4.5-.6.6c-.2.2-.5.3-.8.4s-.6.2-.9.2-.6.1-.9.1c-.6 0-1.1-.1-1.5-.3-.5-.2-.9-.5-1.2-.8-.3-.4-.6-.8-.8-1.4-.2-.5-.3-1.2-.3-1.9 0-.6.1-1.1.3-1.6s.4-.9.7-1.3.7-.6 1.2-.8 1 0 1.6 0zm.1 1.1c-.7 0-1.2.2-1.6.6s-.6.9-.7 1.7h4.4c0-.3 0-.6-.1-.9s-.2-.5-.4-.7-.4-.4-.6-.5c-.4-.2-.7-.2-1-.2zm11.7-.9v10.8h-1.4v-3.9c-.3.4-.7.7-1.2 1s-.9.4-1.5.4c-.5 0-.9-.1-1.3-.3s-.7-.4-1-.8-.5-.8-.6-1.3-.2-1.1-.2-1.8c0-.6.1-1.2.2-1.7.2-.5.4-1 .7-1.3.3-.4.7-.7 1.1-.9s.9-.3 1.5-.3c.5 0 1 .1 1.3.3s.7.5 1 .8l.1-.6c.1-.2.2-.3.4-.3h.9zm-3.6 7c.5 0 .9-.1 1.2-.3s.7-.5 1-.9v-3.9c-.3-.3-.5-.6-.9-.7-.3-.1-.7-.2-1-.2-.8 0-1.3.3-1.7.8s-.6 1.3-.6 2.3c0 .5 0 1 .1 1.4s.2.7.4.9.4.4.6.5.5.1.9.1z"/><use xlink:href="#Y" x="114.1" y="21"/><use xlink:href="#d" x="13.9" y="21"/><use xlink:href="#p" x="129.7"/><use xlink:href="#q"/><use xlink:href="#r"/><use xlink:href="#h" x="-39" y="21"/><path d="M619.7 272.7v-8.1h.8c.2 0 .3.1.4.3l.1.9c.4-.4.7-.7 1.2-.9.4-.2.9-.4 1.5-.4.4 0 .8.1 1.2.2s.6.4.8.6.4.6.5 1 .2.8.2 1.3v5.2H625v-5.2c0-.6-.1-1.1-.4-1.4s-.7-.5-1.3-.5c-.4 0-.8.1-1.2.3s-.7.5-1 .8v6h-1.4zm11.3.1c-.6 0-1.1-.2-1.5-.5-.3-.4-.5-.9-.5-1.5v-5h-1c-.1 0-.2 0-.2-.1-.1-.1-.1-.1-.1-.2v-.6l1.3-.2.3-2.5c0-.1 0-.1.1-.2s.1-.1.2-.1h.7v2.8h2.3v1h-2.3v4.9c0 .3.1.6.2.8.2.2.4.2.6.2.1 0 .3 0 .4-.1s.2-.1.3-.1.1-.1.2-.1.1-.1.1-.1c.1 0 .1 0 .2.1l.4.7c-.2.2-.5.4-.9.5 0 .2-.4.3-.8.3z"/><use xlink:href="#c" x="76.1" y="21"/><path d="M641 271.8c0-.1 0-.3.1-.4s.1-.2.2-.3.2-.2.3-.2c.1-.1.3-.1.4-.1s.3 0 .4.1.2.1.3.2.2.2.2.3c.1.1.1.3.1.4s0 .3-.1.4-.1.2-.2.3-.2.2-.3.2-.3.1-.4.1-.3 0-.4-.1-.2-.1-.3-.2-.2-.2-.2-.3-.1-.3-.1-.4zm9 .9h-1.6v-11.5h1.6v11.5z"/><use xlink:href="#g" x="52.2" y="21"/><path d="M674.2 272.7h-.6c-.1 0-.3 0-.3-.1-.1 0-.1-.1-.2-.3l-.2-.8c-.2.2-.4.4-.6.5-.2.2-.4.3-.6.4s-.5.2-.7.2c-.3.1-.5.1-.8.1s-.6 0-.9-.1-.5-.2-.7-.4-.4-.4-.5-.7-.2-.6-.2-1c0-.3.1-.6.3-.9a2.36 2.36 0 0 1 .9-.8 11.64 11.64 0 0 1 1.5-.6c.6-.1 1.4-.2 2.3-.2v-.6c0-.6-.1-1.1-.4-1.4s-.7-.5-1.2-.5c-.3 0-.6 0-.9.1s-.4.2-.6.3-.3.2-.4.3-.2.1-.4.1c-.1 0-.2 0-.3-.1-.1 0-.1-.1-.2-.2l-.3-.5c.4-.4.9-.8 1.4-1s1.1-.3 1.7-.3a3.73 3.73 0 0 1 1.2.2c.4.1.6.4.9.6.2.3.4.6.5 1s.2.8.2 1.2v5.5zm-3.7-.9c.3 0 .5 0 .7-.1s.4-.1.6-.2.4-.2.5-.3c.2-.1.3-.3.5-.5V269c-.7 0-1.2 0-1.7.1a8.11 8.11 0 0 0-1.1.3c-.3.1-.5.3-.6.5s-.2.4-.2.6 0 .4.1.6.2.3.3.4a.76.76 0 0 0 .4.2c.1 0 .3.1.5.1z"/><use xlink:href="#c" x="117.9" y="21"/><use xlink:href="#s"/><use xlink:href="#t"/><use xlink:href="#T" x="-161.5" y="42"/><use xlink:href="#m" x="-112.6" y="21"/><path d="M190.6 293.8c-.6 0-1.1-.2-1.5-.5-.3-.4-.5-.9-.5-1.5v-5h-1c-.1 0-.2 0-.2-.1s-.1-.1-.1-.2v-.6l1.3-.2.3-2.5c0-.1 0-.1.1-.2s.1-.1.2-.1h.7v2.8h2.3v1H190v4.9c0 .3.1.6.2.8.2.2.4.2.6.2.1 0 .3 0 .4-.1s.2-.1.3-.1.1-.1.2-.1.1-.1.1-.1c.1 0 .1 0 .2.1l.4.7c-.2.2-.5.4-.9.5-.2.2-.5.3-.9.3zm9.1 0c-.6 0-1.1-.2-1.5-.5-.3-.4-.5-.9-.5-1.5v-5h-1c-.1 0-.2 0-.2-.1s-.1-.1-.1-.2v-.6l1.3-.2.3-2.5c0-.1 0-.1.1-.2s.1-.1.2-.1h.7v2.8h2.3v1H199v4.9c0 .3.1.6.2.8.2.2.4.2.6.2.1 0 .3 0 .4-.1s.2-.1.3-.1.1-.1.2-.1.1-.1.1-.1c.1 0 .1 0 .2.1l.4.7c-.2.2-.5.4-.9.5-.1.2-.5.3-.8.3zm6.8-8.4c.6 0 1.1.1 1.6.3s.9.5 1.2.8c.3.4.6.8.8 1.3s.3 1.1.3 1.7-.1 1.2-.3 1.7-.4.9-.8 1.3c-.3.4-.7.6-1.2.8s-1 .3-1.6.3-1.1-.1-1.6-.3-.9-.5-1.2-.8c-.3-.4-.6-.8-.8-1.3s-.3-1.1-.3-1.7.1-1.2.3-1.7.4-1 .8-1.3c.3-.4.7-.6 1.2-.8.4-.2 1-.3 1.6-.3zm0 7.3c.8 0 1.4-.3 1.8-.8s.6-1.3.6-2.2c0-1-.2-1.7-.6-2.3-.4-.5-1-.8-1.8-.8-.4 0-.8.1-1.1.2s-.5.3-.7.6-.3.6-.4 1-.1.8-.1 1.3 0 .9.1 1.3.2.7.4 1 .4.5.7.6c.3 0 .6.1 1.1.1z"/><use xlink:href="#O" x="-19.8" y="42"/><use xlink:href="#W" x="-165.6" y="42"/><use xlink:href="#k" x="0.1" y="21"/><use xlink:href="#o" x="-153.3" y="21"/><use xlink:href="#m" x="-45" y="21"/><path d="M255.8 296.4v-10.8h.8c.2 0 .3.1.4.3l.1 1c.3-.4.7-.8 1.2-1s1-.4 1.5-.4.9.1 1.3.3.7.4 1 .8c.3.3.5.8.6 1.3s.2 1.1.2 1.8c0 .6-.1 1.2-.2 1.7-.2.5-.4 1-.7 1.3-.3.4-.7.7-1.1.9s-.9.3-1.5.3c-.5 0-.9-.1-1.3-.2-.4-.2-.7-.4-.9-.7v3.6h-1.4zm3.6-9.8c-.5 0-.9.1-1.2.3s-.7.5-1 .9v3.9c.3.4.5.6.9.7s.7.2 1 .2c.8 0 1.3-.3 1.7-.8s.6-1.3.6-2.3c0-.5 0-1-.1-1.4s-.2-.7-.4-.9-.4-.4-.6-.5c-.3-.1-.6-.1-.9-.1zm14.2 7.1h-.6c-.1 0-.3 0-.3-.1-.1 0-.1-.1-.2-.3l-.2-.8c-.2.2-.4.4-.6.5-.2.2-.4.3-.6.4s-.5.2-.7.2c-.3.1-.5.1-.8.1s-.6 0-.9-.1-.5-.2-.7-.4-.4-.4-.5-.7-.2-.6-.2-1c0-.3.1-.6.3-.9a2.36 2.36 0 0 1 .9-.8 11.64 11.64 0 0 1 1.5-.6c.6-.1 1.4-.2 2.3-.2v-.6c0-.6-.1-1.1-.4-1.4s-.7-.5-1.2-.5c-.3 0-.6 0-.9.1s-.4.2-.6.3a1.38 1.38 0 0 0-.4.3c-.1.1-.2.1-.4.1-.1 0-.2 0-.3-.1-.1 0-.1-.1-.2-.2l-.3-.5c.4-.4.9-.8 1.4-1s1.1-.3 1.7-.3a3.73 3.73 0 0 1 1.2.2c.4.1.6.4.9.6.2.3.4.6.5 1s.2.8.2 1.2v5.5zm-3.6-.9c.3 0 .5 0 .7-.1s.4-.1.6-.2.4-.2.5-.3c.2-.1.3-.3.5-.5V290c-.7 0-1.2 0-1.7.1a8.11 8.11 0 0 0-1.1.3c-.3.1-.5.3-.6.5s-.2.4-.2.6 0 .4.1.6a1.38 1.38 0 0 0 .3.4.76.76 0 0 0 .4.2c.1.1.3.1.5.1z"/><use xlink:href="#N" x="49.7" y="42"/><path d="M290.4 293.7c-.2 0-.3-.1-.4-.3l-.1-1c-.3.4-.7.8-1.2 1-.4.3-1 .4-1.5.4s-.9-.1-1.3-.3-.7-.4-1-.8c-.3-.3-.5-.8-.6-1.3s-.2-1.1-.2-1.8c0-.6.1-1.2.2-1.7a2.73 2.73 0 0 1 .7-1.3c.3-.4.7-.7 1.1-.9s.9-.3 1.5-.3c.5 0 .9.1 1.3.3s.7.4.9.7v-4.5h1.4v11.8h-.8zm-2.8-1.1c.5 0 .9-.1 1.2-.3s.7-.5 1-.9v-3.9c-.3-.4-.5-.6-.9-.7s-.7-.2-1-.2c-.8 0-1.3.3-1.7.8s-.6 1.3-.6 2.3c0 .5 0 1 .1 1.4s.2.7.4.9.4.4.6.5.6.1.9.1z"/><use xlink:href="#V" x="-64.9" y="42"/><path d="M302.7 293.7v-11.8h1.4v4.8a2.73 2.73 0 0 1 1.2-.9c.4-.2.9-.3 1.5-.3.4 0 .8.1 1.2.2.3.1.6.4.8.6.2.3.4.6.5 1s.2.8.2 1.3v5.2H308v-5.2c0-.6-.1-1.1-.4-1.4s-.7-.5-1.3-.5c-.4 0-.8.1-1.2.3s-.7.5-1 .8v6h-1.4z"/><use xlink:href="#R" x="23.9" y="42"/><path d="M320 293.7v-8.1h.8c.2 0 .3.1.4.3l.1.9c.4-.4.7-.7 1.2-.9s.9-.4 1.5-.4c.4 0 .8.1 1.2.2.3.1.6.4.8.6.2.3.4.6.5 1s.2.8.2 1.3v5.2h-1.4v-5.2c0-.6-.1-1.1-.4-1.4s-.7-.5-1.3-.5c-.4 0-.8.1-1.2.3s-.7.5-1 .8v6H320zm14 0h-1.6v-11.5h1.6v11.5z"/><use xlink:href="#n" x="39.2" y="21"/><use xlink:href="#s" x="194.1"/><use xlink:href="#r" x="-242.6" y="21"/><use xlink:href="#R" x="81" y="42"/><path d="M386.1 293.7h-.6c-.1 0-.3 0-.3-.1-.1 0-.1-.1-.2-.3l-.2-.8c-.2.2-.4.4-.6.5-.2.2-.4.3-.6.4s-.5.2-.7.2c-.3.1-.5.1-.8.1s-.6 0-.9-.1-.5-.2-.7-.4-.4-.4-.5-.7-.2-.6-.2-1c0-.3.1-.6.3-.9a2.36 2.36 0 0 1 .9-.8 11.64 11.64 0 0 1 1.5-.6c.6-.1 1.4-.2 2.3-.2v-.6c0-.6-.1-1.1-.4-1.4s-.7-.5-1.2-.5c-.3 0-.6 0-.9.1s-.4.2-.6.3a1.38 1.38 0 0 0-.4.3c-.1.1-.2.1-.4.1-.1 0-.2 0-.3-.1-.1 0-.1-.1-.2-.2l-.3-.5c.4-.4.9-.8 1.4-1s1.1-.3 1.7-.3a3.73 3.73 0 0 1 1.2.2c.4.1.6.4.9.6.2.3.4.6.5 1s.2.8.2 1.2v5.5zm-3.7-.9c.3 0 .5 0 .7-.1s.4-.1.6-.2.4-.2.5-.3c.2-.1.3-.3.5-.5V290c-.7 0-1.2 0-1.7.1a8.11 8.11 0 0 0-1.1.3c-.3.1-.5.3-.6.5s-.2.4-.2.6 0 .4.1.6a1.38 1.38 0 0 0 .3.4.76.76 0 0 0 .4.2.9.9 0 0 0 .5.1z"/><use xlink:href="#n" x="87.5" y="21"/><use xlink:href="#Q" x="135.2" y="42"/><use xlink:href="#K" x="206.4" y="42"/><use xlink:href="#u"/><use xlink:href="#v"/><use xlink:href="#w"/><path d="M439 285.4c.5 0 .9.1 1.3.2.4.2.8.4 1.1.7s.5.7.7 1.1c.2.5.3 1 .3 1.5 0 .2 0 .4-.1.4 0 .1-.1.1-.3.1h-5.4a4.44 4.44 0 0 0 .2 1.3c.1.3.3.7.5.9.2.3.5.4.8.6.3.1.7.2 1 .2.4 0 .7 0 .9-.1s.5-.2.7-.3.3-.2.5-.3.2-.1.3-.1.2 0 .3.1l.4.5-.6.6c-.2.2-.5.3-.8.4s-.6.2-.9.2-.6.1-.9.1c-.6 0-1.1-.1-1.5-.3-.5-.2-.9-.5-1.2-.8s-.6-.8-.8-1.4c-.2-.5-.3-1.2-.3-1.9 0-.6.1-1.1.3-1.6s.4-.9.7-1.3.7-.6 1.2-.8c.5.1 1 0 1.6 0zm.1 1.1c-.7 0-1.2.2-1.6.6s-.6.9-.7 1.7h4.4c0-.3 0-.6-.1-.9s-.2-.5-.4-.7-.4-.4-.6-.5c-.4-.2-.7-.2-1-.2z"/><use xlink:href="#u" x="33.1"/><path d="M453.6 293.8c-.6 0-1.1-.2-1.5-.5-.3-.4-.5-.9-.5-1.5v-5h-1c-.1 0-.2 0-.2-.1s-.1-.1-.1-.2v-.6l1.3-.2.3-2.5c0-.1 0-.1.1-.2s.1-.1.2-.1h.7v2.8h2.3v1H453v4.9c0 .3.1.6.2.8s.4.2.6.2c.1 0 .3 0 .4-.1s.2-.1.3-.1.1-.1.2-.1.1-.1.1-.1c.1 0 .1 0 .2.1l.4.7c-.2.2-.5.4-.9.5-.2.2-.5.3-.9.3z"/><use xlink:href="#W" x="68.2" y="42"/><path d="M461.2 293.7v-8.1h.8c.2 0 .3.1.4.3l.1.8c.3-.4.6-.7 1-.9s.8-.4 1.3-.4 1 .2 1.3.5.6.7.7 1.2c.1-.3.3-.5.4-.8.2-.2.4-.4.6-.5s.5-.2.7-.3c.3-.1.5-.1.8-.1.4 0 .8.1 1.1.2s.6.3.8.6.4.6.5 1 .2.8.2 1.3v5.2h-1.4v-5.2c0-.6-.1-1.1-.4-1.4s-.7-.5-1.2-.5c-.2 0-.5 0-.7.1s-.4.2-.6.4-.3.4-.4.6-.1.5-.1.8v5.2H466v-5.2c0-.7-.1-1.1-.4-1.5-.3-.3-.6-.5-1.1-.5a1.69 1.69 0 0 0-1 .3c-.3.2-.6.4-.8.8v6h-1.5z"/><use xlink:href="#a" x="-20.5" y="42"/><use xlink:href="#X" x="68.1" y="42"/><use xlink:href="#W" x="103.2" y="42"/><path d="M502.2 293.7h-.6c-.1 0-.3 0-.3-.1-.1 0-.1-.1-.2-.3l-.2-.8c-.2.2-.4.4-.6.5-.2.2-.4.3-.6.4s-.5.2-.7.2c-.3.1-.5.1-.8.1s-.6 0-.9-.1-.5-.2-.7-.4-.4-.4-.5-.7-.2-.6-.2-1c0-.3.1-.6.3-.9a2.36 2.36 0 0 1 .9-.8 11.64 11.64 0 0 1 1.5-.6c.6-.1 1.4-.2 2.3-.2v-.6c0-.6-.1-1.1-.4-1.4s-.7-.5-1.2-.5c-.3 0-.6 0-.9.1s-.4.2-.6.3a1.38 1.38 0 0 0-.4.3c-.1.1-.2.1-.4.1-.1 0-.2 0-.3-.1-.1 0-.1-.1-.2-.2l-.3-.5c.4-.4.9-.8 1.4-1s1.1-.3 1.7-.3a3.73 3.73 0 0 1 1.2.2c.4.1.6.4.9.6.2.3.4.6.5 1s.2.8.2 1.2v5.5zm-3.7-.9c.3 0 .5 0 .7-.1s.4-.1.6-.2.4-.2.5-.3c.2-.1.3-.3.5-.5V290c-.7 0-1.2 0-1.7.1a8.11 8.11 0 0 0-1.1.3c-.3.1-.5.3-.6.5s-.2.4-.2.6 0 .4.1.6a1.38 1.38 0 0 0 .3.4.76.76 0 0 0 .4.2c.1 0 .3.1.5.1z"/><use xlink:href="#J" x="312.6" y="42"/><path d="M508.1 288.3h4v1.2h-4v-1.2zm6.1 5.4v-11.5h3.7c.7 0 1.3.1 1.8.2s.9.3 1.3.6.6.6.7.9c.2.4.2.8.2 1.3 0 .3 0 .6-.1.8-.1.3-.2.5-.4.7s-.4.4-.7.6-.6.3-.9.4c.8.2 1.5.5 1.9.9s.6 1 .6 1.7c0 .5-.1.9-.3 1.3s-.4.7-.8 1-.8.5-1.3.7-1.1.2-1.7.2h-4zm1.6-6.4h2c.4 0 .8 0 1.1-.1s.6-.2.8-.4.4-.4.5-.6.2-.5.2-.8c0-.7-.2-1.2-.6-1.5s-1-.5-1.9-.5h-2.1v3.9zm0 1.1v4h2.5c.4 0 .8 0 1.1-.2s.6-.2.8-.4.4-.4.5-.7.1-.5.1-.8c0-.6-.2-1.1-.6-1.4s-1.1-.5-1.9-.5h-2.5zm11.8-3c.5 0 .9.1 1.3.2.4.2.8.4 1.1.7s.5.7.7 1.1c.2.5.3 1 .3 1.5 0 .2 0 .4-.1.4 0 .1-.1.1-.3.1h-5.4a4.44 4.44 0 0 0 .2 1.3c.1.3.3.7.5.9.2.3.5.4.8.6.3.1.7.2 1 .2.4 0 .7 0 .9-.1s.5-.2.7-.3.3-.2.5-.3c.1-.1.2-.1.3-.1s.2 0 .3.1l.4.5-.6.6c-.2.2-.5.3-.8.4s-.6.2-.9.2c-.3.1-.6.1-.9.1-.6 0-1.1-.1-1.5-.3s-.9-.5-1.2-.8c-.3-.4-.6-.8-.8-1.4-.2-.5-.3-1.2-.3-1.9 0-.6.1-1.1.3-1.6s.4-.9.7-1.3.7-.6 1.2-.8c.4.1 1 0 1.6 0zm0 1.1c-.7 0-1.2.2-1.6.6s-.6.9-.7 1.7h4.4c0-.3 0-.6-.1-.9s-.2-.5-.4-.7-.4-.4-.6-.5c-.4-.2-.7-.2-1-.2z"/><use xlink:href="#v" x="114.7"/><use xlink:href="#x"/><use xlink:href="#w" x="120.7"/><use xlink:href="#q" x="-33.3" y="21"/><use xlink:href="#c" x="6.4" y="42"/><path d="M574.3 293.8c-.6 0-1.1-.2-1.5-.5-.3-.4-.5-.9-.5-1.5v-5h-1c-.1 0-.2 0-.2-.1-.1-.1-.1-.1-.1-.2v-.6l1.3-.2.3-2.5c0-.1 0-.1.1-.2s.1-.1.2-.1h.7v2.8h2.3v1h-2.3v4.9c0 .3.1.6.2.8.2.2.4.2.6.2.1 0 .3 0 .4-.1s.2-.1.3-.1.1-.1.2-.1.1-.1.1-.1c.1 0 .1 0 .2.1l.4.7c-.2.2-.5.4-.9.5-.1.2-.5.3-.8.3zm5.4-10.8c0 .1 0 .3-.1.4s-.1.2-.2.3-.2.2-.3.2c-.1.1-.3.1-.4.1s-.3 0-.4-.1-.2-.1-.3-.2-.2-.2-.2-.3c-.1-.1-.1-.2-.1-.4 0-.1 0-.3.1-.4s.1-.2.2-.3.2-.2.3-.2c.1-.1.2-.1.4-.1s.3 0 .4.1.2.1.3.2.2.2.2.3c.1.1.1.3.1.4zm-.3 2.6v8.1H578v-8.1h1.4z"/><use xlink:href="#r" x="-16.3" y="21"/><use xlink:href="#a" x="100.2" y="42"/><use xlink:href="#e" x="34.4" y="42"/><path d="M614.7 283c0 .1 0 .3-.1.4s-.1.2-.2.3-.2.2-.3.2c-.1.1-.3.1-.4.1s-.3 0-.4-.1-.2-.1-.3-.2-.2-.2-.2-.3c-.1-.1-.1-.2-.1-.4 0-.1 0-.3.1-.4s.1-.2.2-.3.2-.2.3-.2c.1-.1.2-.1.4-.1s.3 0 .4.1.2.1.3.2.2.2.2.3c.1.1.1.3.1.4zm-.3 2.6v8.1H613v-8.1h1.4zm8.5 8.1h-.6c-.1 0-.3 0-.3-.1-.1 0-.1-.1-.2-.3l-.2-.8c-.2.2-.4.4-.6.5-.2.2-.4.3-.6.4s-.5.2-.7.2c-.3.1-.5.1-.8.1s-.6 0-.9-.1-.5-.2-.7-.4-.4-.4-.5-.7-.2-.6-.2-1c0-.3.1-.6.3-.9a2.36 2.36 0 0 1 .9-.8 11.64 11.64 0 0 1 1.5-.6c.6-.1 1.4-.2 2.3-.2v-.6c0-.6-.1-1.1-.4-1.4s-.7-.5-1.2-.5c-.3 0-.6 0-.9.1s-.4.2-.6.3-.3.2-.4.3-.2.1-.4.1c-.1 0-.2 0-.3-.1-.1 0-.1-.1-.2-.2l-.3-.5c.4-.4.9-.8 1.4-1s1.1-.3 1.7-.3a3.73 3.73 0 0 1 1.2.2c.4.1.6.4.9.6.2.3.4.6.5 1s.2.8.2 1.2v5.5zm-3.7-.9c.3 0 .5 0 .7-.1s.4-.1.6-.2.4-.2.5-.3c.2-.1.3-.3.5-.5V290c-.7 0-1.2 0-1.7.1a8.11 8.11 0 0 0-1.1.3c-.3.1-.5.3-.6.5s-.2.4-.2.6 0 .4.1.6a1.38 1.38 0 0 0 .3.4.76.76 0 0 0 .4.2c.1 0 .3.1.5.1z"/><use xlink:href="#J" x="433.3" y="42"/><use xlink:href="#c" x="70.7" y="42"/><path d="M645.2 284c0 .1-.1.1-.2.2-.1 0-.1.1-.2.1s-.2 0-.3-.1-.3-.2-.5-.3-.4-.2-.7-.3-.6-.1-.9-.1-.7 0-.9.1c-.3.1-.5.2-.7.4s-.3.3-.4.6-.1.4-.1.7.1.6.2.8c.2.2.4.4.6.5l.9.4 1 .3c.3.1.7.2 1 .4.3.1.6.3.9.6s.5.5.6.8a3.73 3.73 0 0 1 .2 1.2c0 .5-.1 1-.3 1.4s-.4.8-.7 1.1-.7.6-1.2.8-1 .3-1.6.3c-.7 0-1.4-.1-2-.4s-1.1-.6-1.6-1.1l.4-.7c0-.1.1-.1.2-.1s.1-.1.2-.1.2.1.4.2c.1.1.3.3.5.4s.5.3.8.4.7.2 1.1.2.7-.1 1-.2.5-.2.7-.4.4-.4.5-.7.2-.5.2-.9c0-.3-.1-.6-.2-.9l-.6-.6c-.2-.2-.5-.3-.9-.4l-1-.3c-.3-.1-.7-.2-1-.4-.3-.1-.6-.3-.9-.6-.3-.2-.5-.5-.6-.9s-.2-.8-.2-1.3c0-.4.1-.8.2-1.2.2-.4.4-.7.7-1s.7-.5 1.1-.7.9-.3 1.5-.3 1.2.1 1.8.3c.5.2 1 .5 1.4.9l-.4.9zm2.4 9.7v-11.8h1.4v4.8a2.73 2.73 0 0 1 1.2-.9c.4-.2.9-.3 1.5-.3.4 0 .8.1 1.2.2s.6.4.8.6.4.6.5 1 .2.8.2 1.3v5.2H653v-5.2c0-.6-.1-1.1-.4-1.4s-.7-.5-1.3-.5c-.4 0-.8.1-1.2.3s-.7.5-1 .8v6h-1.5z"/><use xlink:href="#a" x="161.7" y="42"/><path d="M664.4 285.6h1.1c.1 0 .2 0 .3.1l.2.2 1.6 5.2c0 .2.1.4.1.6s.1.4.1.5c0-.2.1-.4.1-.5s.1-.4.2-.6l1.7-5.2c0-.1.1-.1.1-.2.1-.1.2-.1.3-.1h.6c.1 0 .2 0 .3.1s.1.1.1.2l1.7 5.2c.1.2.1.4.2.6s.1.4.1.5c0-.2.1-.4.1-.6s.1-.4.1-.5l1.6-5.2c0-.1.1-.2.2-.2.1-.1.2-.1.3-.1h1.1l-2.6 8.1h-1.1c-.1 0-.2-.1-.3-.3l-1.8-5.5c0-.1-.1-.2-.1-.4 0-.1-.1-.2-.1-.4 0 .1-.1.2-.1.4 0 .1-.1.3-.1.4l-1.8 5.5c-.1.2-.2.3-.3.3H667l-2.6-8.1zm18.8 1.4c0 .1-.1.1-.1.1h-.2c-.1 0-.2 0-.3-.1s-.2-.1-.4-.2c-.1-.1-.3-.2-.5-.2-.2-.1-.5-.1-.8-.1-.4 0-.7.1-1 .2s-.6.3-.8.6-.4.6-.5 1-.2.8-.2 1.3.1.9.2 1.3.3.7.5 1 .4.5.7.6.6.2 1 .2c.3 0 .6 0 .9-.1l.6-.3c.1-.1.3-.2.4-.3s.2-.1.3-.1.2 0 .3.1l.4.5c-.4.4-.8.7-1.3.9s-1.1.3-1.7.3c-.5 0-1-.1-1.4-.3a4.44 4.44 0 0 1-1.1-.8c-.3-.4-.6-.8-.8-1.3s-.3-1.1-.3-1.8c0-.6.1-1.2.3-1.7s.4-1 .7-1.3a2.73 2.73 0 0 1 1.2-.9c.5-.2 1-.3 1.6-.3s1.1.1 1.5.3.8.4 1.2.8l-.4.6zm7.9 6.7h-.6c-.1 0-.3 0-.3-.1-.1 0-.1-.1-.2-.3l-.2-.8c-.2.2-.4.4-.6.5-.2.2-.4.3-.6.4s-.5.2-.7.2c-.3.1-.5.1-.8.1s-.6 0-.9-.1-.5-.2-.7-.4-.4-.4-.5-.7-.2-.6-.2-1c0-.3.1-.6.3-.9a2.36 2.36 0 0 1 .9-.8 11.64 11.64 0 0 1 1.5-.6c.6-.1 1.4-.2 2.3-.2v-.6c0-.6-.1-1.1-.4-1.4s-.7-.5-1.2-.5c-.3 0-.6 0-.9.1s-.4.2-.6.3-.3.2-.4.3-.2.1-.4.1c-.1 0-.2 0-.3-.1-.1 0-.1-.1-.2-.2l-.3-.5c.4-.4.9-.8 1.4-1s1.1-.3 1.7-.3a3.73 3.73 0 0 1 1.2.2c.4.1.6.4.9.6.2.3.4.6.5 1s.2.8.2 1.2v5.5zm-3.7-.9c.3 0 .5 0 .7-.1s.4-.1.6-.2.4-.2.5-.3c.2-.1.3-.3.5-.5V290c-.7 0-1.2 0-1.7.1a8.11 8.11 0 0 0-1.1.3c-.3.1-.5.3-.6.5s-.2.4-.2.6 0 .4.1.6.2.3.3.4a.76.76 0 0 0 .4.2c.1 0 .3.1.5.1z"/><use xlink:href="#c" x="134.8" y="42"/><path d="M703.4 285.4c.5 0 .9.1 1.3.2.4.2.8.4 1.1.7s.5.7.7 1.1c.2.5.3 1 .3 1.5 0 .2 0 .4-.1.4 0 .1-.1.1-.3.1H701a4.44 4.44 0 0 0 .2 1.3c.1.3.3.7.5.9.2.3.5.4.8.6.3.1.7.2 1 .2.4 0 .7 0 .9-.1s.5-.2.7-.3.3-.2.5-.3c.1-.1.2-.1.3-.1s.2 0 .3.1l.4.5-.6.6c-.2.2-.5.3-.8.4s-.6.2-.9.2-.6.1-.9.1c-.6 0-1.1-.1-1.5-.3-.5-.2-.9-.5-1.2-.8-.3-.4-.6-.8-.8-1.4-.2-.5-.3-1.2-.3-1.9 0-.6.1-1.1.3-1.6s.4-.9.7-1.3.7-.6 1.2-.8 1 0 1.6 0zm0 1.1c-.7 0-1.2.2-1.6.6s-.6.9-.7 1.7h4.4c0-.3 0-.6-.1-.9s-.2-.5-.4-.7-.4-.4-.6-.5c-.3-.2-.6-.2-1-.2z"/><use xlink:href="#y"/><use xlink:href="#J" x="-28.6" y="63"/><use xlink:href="#m" x="-124.7" y="42"/><use xlink:href="#O" x="-58.9" y="63"/><use xlink:href="#W" x="-204.7" y="63"/><use xlink:href="#N" x="-37.8" y="63"/><path d="M200.6 314.7v-6.9l-.9-.1c-.1 0-.2-.1-.3-.1-.1-.1-.1-.1-.1-.2v-.6h1.3v-.8a3.73 3.73 0 0 1 .2-1.2c.1-.4.3-.7.6-.9s.5-.4.9-.6a3.73 3.73 0 0 1 1.2-.2c.4 0 .7.1 1 .2v.7c0 .1-.1.2-.1.2h-.6c-.2 0-.5 0-.7.1s-.4.2-.5.3-.3.3-.3.6c-.1.2-.1.5-.1.9v.7h2.3v1h-2.3v6.9h-1.6z"/><use xlink:href="#P" x="-45.9" y="63"/><use xlink:href="#Q" x="-45.9" y="63"/><path d="M223.1 303.2h1.3c.1 0 .3 0 .3.1.1.1.2.2.2.3l2.4 8c0 .1.1.3.1.5s.1.3.1.5c0-.2.1-.4.1-.5 0-.2.1-.3.1-.5l2.7-8c0-.1.1-.2.2-.3s.2-.1.3-.1h.4c.1 0 .3 0 .3.1.1.1.2.2.2.3l2.7 8 .3 1c0-.2.1-.3.1-.5s.1-.3.1-.4l2.4-8c0-.1.1-.2.2-.3s.2-.1.3-.1h1.2l-3.6 11.5h-1.4l-2.9-8.7c-.1-.2-.1-.4-.2-.6 0 .1-.1.2-.1.3s0 .2-.1.3l-2.9 8.7h-1.4l-3.4-11.6z"/><use xlink:href="#K" x="44.4" y="63"/><use xlink:href="#Q" x="-11.4" y="63"/><path d="M261.2 314.7c-.2 0-.3-.1-.4-.3l-.1-1c-.3.4-.7.8-1.2 1-.4.3-1 .4-1.5.4s-.9-.1-1.3-.3-.7-.4-1-.8c-.3-.3-.5-.8-.6-1.3s-.2-1.1-.2-1.8c0-.6.1-1.2.2-1.7a2.73 2.73 0 0 1 .7-1.3c.3-.4.7-.7 1.1-.9s.9-.3 1.5-.3c.5 0 .9.1 1.3.3s.7.4.9.7v-4.5h1.4v11.8h-.8zm-2.7-1.1c.5 0 .9-.1 1.2-.3s.7-.5 1-.9v-3.9c-.3-.4-.5-.6-.9-.7s-.7-.2-1-.2c-.8 0-1.3.3-1.7.8s-.6 1.3-.6 2.3c0 .5 0 1 .1 1.4s.2.7.4.9.4.4.6.5.6.1.9.1z"/><use xlink:href="#y" x="111.2"/><use xlink:href="#Q" x="13.8" y="63"/><use xlink:href="#R" x="-7" y="63"/><use xlink:href="#z"/><use xlink:href="#z" x="7"/><use xlink:href="#AA"/><path d="M311.5 314.7H310v-11.5h1.6v11.5z"/><use xlink:href="#t" x="156" y="21"/><use xlink:href="#P" x="74.8" y="63"/><use xlink:href="#m" x="43.4" y="42"/><use xlink:href="#l" x="95.7" y="42"/><use xlink:href="#i" x="141.9" y="42"/><path d="M363.7 314.8c-.6 0-1.1-.2-1.5-.5-.3-.4-.5-.9-.5-1.5v-5h-1c-.1 0-.2 0-.2-.1s-.1-.1-.1-.2v-.6l1.3-.2.3-2.5c0-.1 0-.1.1-.2s.1-.1.2-.1h.7v2.8h2.3v1H363v4.9c0 .3.1.6.2.8.2.2.4.2.6.2.1 0 .3 0 .4-.1s.2-.1.3-.1.1-.1.2-.1.1-.1.1-.1c.1 0 .1 0 .2.1l.4.7c-.2.2-.5.4-.9.5-.1.2-.4.3-.8.3zm9.1 0c-.6 0-1.1-.2-1.5-.5-.3-.4-.5-.9-.5-1.5v-5h-1c-.1 0-.2 0-.2-.1s-.1-.1-.1-.2v-.6l1.3-.2.3-2.5c0-.1 0-.1.1-.2s.1-.1.2-.1h.7v2.8h2.3v1h-2.3v4.9c0 .3.1.6.2.8.2.2.4.2.6.2.1 0 .3 0 .4-.1s.2-.1.3-.1.1-.1.2-.1.1-.1.1-.1c.1 0 .1 0 .2.1l.4.7c-.2.2-.5.4-.9.5-.1.2-.5.3-.8.3z"/><use xlink:href="#i" x="165.8" y="42"/><path d="M388.4 306.4c.5 0 .9.1 1.3.2.4.2.8.4 1.1.7s.5.7.7 1.1c.2.5.3 1 .3 1.5 0 .2 0 .4-.1.4 0 .1-.1.1-.3.1H386a4.44 4.44 0 0 0 .2 1.3c.1.3.3.7.5.9.2.3.5.4.8.6.3.1.7.2 1 .2.4 0 .7 0 .9-.1s.5-.2.7-.3.3-.2.5-.3c.1-.1.2-.1.3-.1s.2 0 .3.1l.4.5-.6.6c-.2.2-.5.3-.8.4s-.6.2-.9.2c-.3.1-.6.1-.9.1-.6 0-1.1-.1-1.5-.3-.5-.2-.9-.5-1.2-.8-.3-.4-.6-.8-.8-1.4-.2-.5-.3-1.2-.3-1.9 0-.6.1-1.1.3-1.6s.4-.9.7-1.3.7-.6 1.2-.8 1 0 1.6 0zm0 1.1c-.7 0-1.2.2-1.6.6s-.6.9-.7 1.7h4.4c0-.3 0-.6-.1-.9s-.2-.5-.4-.7-.4-.4-.6-.5-.7-.2-1-.2zm8.3 7.2v-11.8h1.4v4.8a2.73 2.73 0 0 1 1.2-.9c.4-.2.9-.4 1.5-.4.5 0 .9.1 1.3.3s.7.4 1 .8c.3.3.5.8.6 1.3s.2 1.1.2 1.8c0 .6-.1 1.2-.2 1.7a2.73 2.73 0 0 1-.7 1.3c-.3.4-.7.7-1.1.9s-.9.3-1.5.3c-.5 0-1-.1-1.3-.3-.4-.2-.7-.5-1-.8l-.1.7c0 .2-.2.3-.4.3h-.9zm3.6-7.1c-.5 0-.9.1-1.2.3s-.7.5-1 .9v3.9c.3.4.5.6.9.7s.7.2 1 .2c.8 0 1.3-.3 1.7-.8s.6-1.3.6-2.3c0-.5 0-1-.1-1.4s-.2-.7-.4-.9-.4-.4-.6-.5c-.3-.1-.6-.1-.9-.1zm8.5-1.2c.5 0 .9.1 1.3.2.4.2.8.4 1.1.7s.5.7.7 1.1c.2.5.3 1 .3 1.5 0 .2 0 .4-.1.4 0 .1-.1.1-.3.1h-5.4a4.44 4.44 0 0 0 .2 1.3c.1.3.3.7.5.9.2.3.5.4.8.6.3.1.7.2 1 .2.4 0 .7 0 .9-.1s.5-.2.7-.3.3-.2.5-.3.2-.1.3-.1.2 0 .3.1l.4.5-.6.6c-.2.2-.5.3-.8.4s-.6.2-.9.2-.6.1-.9.1c-.6 0-1.1-.1-1.5-.3-.5-.2-.9-.5-1.2-.8s-.6-.8-.8-1.4c-.2-.5-.3-1.2-.3-1.9 0-.6.1-1.1.3-1.6s.4-.9.7-1.3.7-.6 1.2-.8c.5.1 1 0 1.6 0zm0 1.1c-.7 0-1.2.2-1.6.6s-.6.9-.7 1.7h4.4c0-.3 0-.6-.1-.9s-.2-.5-.4-.7-.4-.4-.6-.5c-.3-.2-.6-.2-1-.2z"/><use xlink:href="#u" x="2.9" y="21"/><path d="M423.4 314.8c-.6 0-1.1-.2-1.5-.5-.3-.4-.5-.9-.5-1.5v-5h-1c-.1 0-.2 0-.2-.1s-.1-.1-.1-.2v-.6l1.3-.2.3-2.5c0-.1 0-.1.1-.2s.1-.1.2-.1h.7v2.8h2.3v1h-2.3v4.9c0 .3.1.6.2.8s.4.2.6.2c.1 0 .3 0 .4-.1s.2-.1.3-.1.1-.1.2-.1.1-.1.1-.1c.1 0 .1 0 .2.1l.4.7c-.2.2-.5.4-.9.5-.1.2-.4.3-.8.3z"/><use xlink:href="#x" x="-109.7" y="21"/><path d="M439.2 306.4c.5 0 .9.1 1.3.2.4.2.8.4 1.1.7s.5.7.7 1.1c.2.5.3 1 .3 1.5 0 .2 0 .4-.1.4 0 .1-.1.1-.3.1h-5.4a4.44 4.44 0 0 0 .2 1.3c.1.3.3.7.5.9.2.3.5.4.8.6.3.1.7.2 1 .2.4 0 .7 0 .9-.1s.5-.2.7-.3.3-.2.5-.3.2-.1.3-.1.2 0 .3.1l.4.5-.6.6c-.2.2-.5.3-.8.4s-.6.2-.9.2-.6.1-.9.1c-.6 0-1.1-.1-1.5-.3-.5-.2-.9-.5-1.2-.8s-.6-.8-.8-1.4c-.2-.5-.3-1.2-.3-1.9 0-.6.1-1.1.3-1.6s.4-.9.7-1.3.7-.6 1.2-.8c.4.1 1 0 1.6 0zm0 1.1c-.7 0-1.2.2-1.6.6s-.6.9-.7 1.7h4.4c0-.3 0-.6-.1-.9s-.2-.5-.4-.7-.4-.4-.6-.5c-.4-.2-.7-.2-1-.2z"/><use xlink:href="#u" x="33.3" y="21"/><path d="M453.7 314.8c-.6 0-1.1-.2-1.5-.5-.3-.4-.5-.9-.5-1.5v-5h-1c-.1 0-.2 0-.2-.1s-.1-.1-.1-.2v-.6l1.3-.2.3-2.5c0-.1 0-.1.1-.2s.1-.1.2-.1h.7v2.8h2.3v1H453v4.9c0 .3.1.6.2.8s.4.2.6.2c.1 0 .3 0 .4-.1s.2-.1.3-.1.1-.1.2-.1.1-.1.1-.1c.1 0 .1 0 .2.1l.4.7c-.2.2-.5.4-.9.5 0 .2-.4.3-.8.3z"/><use xlink:href="#d" x="-108.1" y="63"/><use xlink:href="#r" x="-136.9" y="42"/><use xlink:href="#a" x="-20.3" y="63"/><use xlink:href="#X" x="68.3" y="63"/><use xlink:href="#M" x="270.3" y="63"/><path d="M502.3 314.7h-.6c-.1 0-.3 0-.3-.1-.1 0-.1-.1-.2-.3l-.2-.8c-.2.2-.4.4-.6.5-.2.2-.4.3-.6.4s-.5.2-.7.2c-.3.1-.5.1-.8.1s-.6 0-.9-.1-.5-.2-.7-.4-.4-.4-.5-.7-.2-.6-.2-1c0-.3.1-.6.3-.9a2.36 2.36 0 0 1 .9-.8 11.64 11.64 0 0 1 1.5-.6c.6-.1 1.4-.2 2.3-.2v-.6c0-.6-.1-1.1-.4-1.4s-.7-.5-1.2-.5c-.3 0-.6 0-.9.1s-.4.2-.6.3a1.38 1.38 0 0 0-.4.3c-.1.1-.2.1-.4.1-.1 0-.2 0-.3-.1-.1 0-.1-.1-.2-.2l-.3-.5c.4-.4.9-.8 1.4-1s1.1-.3 1.7-.3a3.73 3.73 0 0 1 1.2.2c.4.1.6.4.9.6.2.3.4.6.5 1s.2.8.2 1.2v5.5zm-3.7-.9c.3 0 .5 0 .7-.1s.4-.1.6-.2.4-.2.5-.3c.2-.1.3-.3.5-.5V311c-.7 0-1.2 0-1.7.1a8.11 8.11 0 0 0-1.1.3c-.3.1-.5.3-.6.5s-.2.4-.2.6 0 .4.1.6a1.38 1.38 0 0 0 .3.4.76.76 0 0 0 .4.2c.1 0 .3.1.5.1z"/><use xlink:href="#J" x="312.8" y="63"/><path d="M511.7 317.4v-10.8h.8c.2 0 .3.1.4.3l.1 1c.3-.4.7-.8 1.2-1s1-.4 1.5-.4.9.1 1.3.3.7.4 1 .8c.3.3.5.8.6 1.3s.2 1.1.2 1.8c0 .6-.1 1.2-.2 1.7-.2.5-.4 1-.7 1.3s-.7.7-1.1.9-.9.3-1.5.3c-.5 0-.9-.1-1.3-.2-.4-.2-.7-.4-.9-.7v3.6h-1.4zm3.6-9.8c-.5 0-.9.1-1.2.3s-.7.5-1 .9v3.9c.3.4.5.6.9.7.3.1.7.2 1 .2.8 0 1.3-.3 1.7-.8s.6-1.3.6-2.3c0-.5 0-1-.1-1.4s-.2-.7-.4-.9-.4-.4-.6-.5c-.3-.1-.6-.1-.9-.1z"/><use xlink:href="#J" x="328.8" y="63"/><use xlink:href="#b" x="2.4" y="63"/><path d="M536.2 306.4c.4 0 .7 0 1 .1l.8.3h2.2v.5c0 .2-.1.3-.3.3l-.9.1c.2.3.3.7.3 1.2 0 .4-.1.8-.2 1.1-.2.3-.4.6-.6.8-.3.2-.6.4-1 .5s-.8.2-1.2.2-.7 0-1.1-.1a.78.78 0 0 0-.4.4c-.1.1-.1.3-.1.4 0 .2.1.3.2.5.2.1.4.2.6.2.3 0 .5.1.9.1h1c.3 0 .7 0 1 .1l.9.3a.9.9 0 0 1 .6.6c.2.2.2.5.2.9a1.69 1.69 0 0 1-.3 1c-.2.3-.4.6-.7.9s-.7.5-1.2.6c-.5.2-1 .2-1.6.2s-1.1-.1-1.6-.2c-.4-.1-.8-.3-1.1-.5s-.5-.4-.7-.7c-.1-.3-.2-.5-.2-.8 0-.4.1-.7.4-1s.6-.5 1-.7c-.2-.1-.4-.2-.5-.4s-.2-.4-.2-.7c0-.1 0-.2.1-.4 0-.1.1-.2.2-.4s.2-.2.3-.4c.1-.1.3-.2.4-.3a1.96 1.96 0 0 1-.9-.9c-.2-.4-.3-.8-.3-1.3 0-.4.1-.8.2-1.1.2-.3.4-.6.6-.8.3-.2.6-.4 1-.5.4 0 .8-.1 1.2-.1zm2.5 8.7c0-.2-.1-.4-.2-.5s-.3-.2-.5-.3-.4-.1-.7-.2h-1.6c-.2 0-.6 0-.8-.1-.3.1-.6.3-.7.5s-.3.5-.3.7 0 .4.1.5a.78.78 0 0 0 .4.4c.2.1.4.2.7.3s.6.1 1 .1.7 0 1-.1l.8-.3c.2-.1.4-.3.5-.5s.3-.3.3-.5zm-2.5-4.4c.3 0 .5 0 .8-.1l.6-.3a.55.55 0 0 0 .3-.5c.1-.2.1-.4.1-.7 0-.5-.2-.9-.5-1.2s-.7-.4-1.3-.4-1 .1-1.3.4-.5.7-.5 1.2c0 .2 0 .5.1.7s.2.4.3.5.3.3.6.3.5.1.8.1z"/><use xlink:href="#d" x="-23.7" y="63"/><use xlink:href="#X" x="130.7" y="63"/><use xlink:href="#AA" x="251.7"/><use xlink:href="#AA" x="255.1"/><use xlink:href="#AA" x="258.5"/></g><path d="M168.8 202.3h-12.7c-1.5 0-2.6 1.2-2.6 2.6v12.7c0 1.5 1.2 2.6 2.6 2.6h5.3v-6.3h-2.1v-3.1h2.1v-2.1c0-1.7 1.4-3.2 3.2-3.2h3.2v3.2h-3.2v2.1h3.2l-.5 3.2h-2.7v6.3h4.2a2.65 2.65 0 0 0 2.6-2.6V205c0-1.5-1.2-2.7-2.6-2.7zm24.8.9c-.7-.7-1.5-1-2.4-1h-11.3c-.9 0-1.7.3-2.4 1s-1 1.5-1 2.4v11.3c0 .9.3 1.7 1 2.4s1.5 1 2.4 1h11.3c.9 0 1.7-.3 2.4-1s1-1.5 1-2.4v-11.3c0-.9-.3-1.7-1-2.4zm-3.2 6v.3c0 .7-.1 1.3-.3 2s-.5 1.3-.9 1.9-.9 1.1-1.4 1.6c-.6.5-1.2.8-2 1.1s-1.6.4-2.5.4c-1.4 0-2.6-.4-3.8-1.1h.6c1.1 0 2.2-.4 3.1-1.1-.5 0-1-.2-1.4-.5a2.73 2.73 0 0 1-.9-1.2h.5c.2 0 .4 0 .6-.1a2.37 2.37 0 0 1-1.5-.9c-.4-.5-.6-1-.6-1.6h0c.4.2.8.3 1.2.3-.7-.5-1.1-1.2-1.1-2.1a3.08 3.08 0 0 1 .3-1.3c.6.8 1.4 1.4 2.3 1.8.9.5 1.8.7 2.9.8 0-.1-.1-.3-.1-.6 0-.7.2-1.3.7-1.8s1.1-.7 1.8-.7 1.3.3 1.8.8c.5-.1 1.1-.3 1.6-.6-.2.6-.6 1.1-1.1 1.4.5-.1 1-.2 1.4-.4-.3.8-.7 1.2-1.2 1.6zm24.7-6.9h-12.7c-1.5 0-2.6 1.2-2.6 2.6v12.7c0 1.5 1.2 2.6 2.6 2.6h12.7c1.5 0 2.6-1.2 2.6-2.6v-12.7c0-1.5-1.1-2.6-2.6-2.6zm-9 14.3H204v-7.4h2.1v7.4zm0-8.5H204V206h2.1v2.1zm7.4 8.5h-2.1v-4.2a1.11 1.11 0 0 0-1.1-1.1 1.11 1.11 0 0 0-1.1 1.1v4.2h-2.1v-7.4h2.1v.4c.6-.2.9-.4 1.6-.4 1.4 0 2.6 1.3 2.6 2.8v4.6h.1z" fill="#999"/></svg>