<?xml version="1.0" encoding="utf-8"?>
<!-- Generator: Adobe Illustrator 24.3.0, SVG Export Plug-In . SVG Version: 6.00 Build 0)  -->
<svg version="1.1" id="Layer_1" xmlns="http://www.w3.org/2000/svg" xmlns:xlink="http://www.w3.org/1999/xlink" x="0px" y="0px"
	 viewBox="0 0 151 91" enable-background="new 0 0 151 91" xml:space="preserve">
<rect x="0.5" y="0.5" fill="#F7F8F9" stroke="#D2D2D2" stroke-miterlimit="10" width="150" height="90"/>
<g>
	<rect x="47.3" y="24" fill="#BDC5CB" width="60" height="2"/>
	<g>
		<rect x="47.3" y="21" fill="#BDC5CB" width="60" height="2"/>
		<rect x="47.3" y="12" fill="#BDC5CB" width="30" height="3"/>
		<rect x="47.3" y="16" fill="#BDC5CB" width="18" height="2"/>
		<rect x="47.3" y="27" fill="#BDC5CB" width="10" height="2"/>
		<circle fill="#BDC5CB" cx="33.3" cy="20.9" r="10.1"/>
	</g>
</g>
<g>
	<rect x="47.3" y="49" fill="#BDC5CB" width="60" height="2"/>
	<g>
		<rect x="47.3" y="46" fill="#BDC5CB" width="60" height="2"/>
		<rect x="47.3" y="37" fill="#BDC5CB" width="30" height="3"/>
		<rect x="47.3" y="41" fill="#BDC5CB" width="18" height="2"/>
		<rect x="47.3" y="52" fill="#BDC5CB" width="10" height="2"/>
		<circle fill="#BDC5CB" cx="33.3" cy="45.9" r="10.1"/>
	</g>
</g>
<g>
	<rect x="47.3" y="74" fill="#BDC5CB" width="60" height="2"/>
	<g>
		<rect x="47.3" y="71" fill="#BDC5CB" width="60" height="2"/>
		<rect x="47.3" y="62" fill="#BDC5CB" width="30" height="3"/>
		<rect x="47.3" y="66" fill="#BDC5CB" width="18" height="2"/>
		<rect x="47.3" y="77" fill="#BDC5CB" width="10" height="2"/>
		<circle fill="#BDC5CB" cx="33.3" cy="70.9" r="10.1"/>
	</g>
</g>
<g>
</g>
<g>
</g>
<g>
</g>
<g>
</g>
<g>
</g>
<g>
</g>
</svg>
