<svg height='300px' width='300px'  fill="#397AFD"  xmlns="http://www.w3.org/2000/svg" xmlns:xlink="http://www.w3.org/1999/xlink" version="1.1" x="0px" y="0px" viewBox="0 0 100 100" enable-background="new 0 0 100 100" xml:space="preserve"><path d="M80.682,39.725c-5.675,0-10.274,4.601-10.274,10.275c0,5.675,4.6,10.275,10.274,10.275S90.957,55.675,90.957,50  C90.957,44.326,86.356,39.725,80.682,39.725z M56.293,39.725c-5.675,0-10.275,4.601-10.275,10.275  c0,5.675,4.601,10.275,10.275,10.275S66.568,55.675,66.568,50C66.568,44.326,61.968,39.725,56.293,39.725z M32.156,39.726H19.18  c-5.599,0-10.137,4.539-10.137,10.137C9.043,55.461,13.581,60,19.18,60h12.977c5.599,0,10.137-4.539,10.137-10.137  C42.293,44.265,37.755,39.726,32.156,39.726z"></path></svg>