<svg height='300px' width='300px'  fill="#397AFD"  xmlns="http://www.w3.org/2000/svg" xmlns:xlink="http://www.w3.org/1999/xlink" version="1.1" x="0px" y="0px" viewBox="0 0 100 100" style="enable-background:new 0 0 100 100;" xml:space="preserve"><g><path d="M89.8,49c0,0.1,1.5-1.3,1.5-1.2h8.7L84.9,65.3L69.6,47.8h8.7c0-0.1,1.9,1.3,1.9,1.2c0-16.7-12.9-30.2-28.8-30.2   c-7.2,0-13.8,2.8-18.8,7.4l-6.4-7.6c6.8-6.2,15.6-9.9,25.2-9.9C72.6,8.7,89.8,26.8,89.8,49z"></path><path d="M10.2,51c0-0.1-1.5,1.3-1.5,1.2H0l15.1-17.5l15.3,17.5h-8.7c0,0.1-1.9-1.3-1.9-1.2c0,16.7,12.9,30.2,28.8,30.2   c7.2,0,13.8-2.8,18.8-7.4l6.4,7.6c-6.8,6.2-15.6,9.9-25.2,9.9C27.4,91.3,10.2,73.2,10.2,51z"></path></g></svg>