<svg height='300px' width='300px'  fill="#397AFD" xmlns="http://www.w3.org/2000/svg" xmlns:xlink="http://www.w3.org/1999/xlink" version="1.0" x="0px" y="0px" viewBox="0 0 100 100" enable-background="new 0 0 100 100" xml:space="preserve"><path d="M43.333,10h-30C11.501,10,10,11.498,10,13.333v30c0,1.83,1.501,3.333,3.333,3.333h30c1.833,0,3.334-1.504,3.334-3.333v-30  C46.667,11.498,45.166,10,43.333,10z M40,40H16.667V16.667H40V40z"></path><path d="M86.667,10h-30c-1.833,0-3.334,1.498-3.334,3.333v30c0,1.83,1.501,3.333,3.334,3.333h30c1.832,0,3.333-1.504,3.333-3.333  v-30C90,11.498,88.499,10,86.667,10z M83.333,40H60V16.667h23.333V40z"></path><path d="M43.333,53.334h-30c-1.832,0-3.333,1.497-3.333,3.333v30C10,88.496,11.501,90,13.333,90h30c1.833,0,3.334-1.504,3.334-3.333  v-30C46.667,54.831,45.166,53.334,43.333,53.334z M40,83.334H16.667V60H40V83.334z"></path><path d="M86.667,53.334h-30c-1.833,0-3.334,1.497-3.334,3.333v30c0,1.829,1.501,3.333,3.334,3.333h30C88.499,90,90,88.496,90,86.667  v-30C90,54.831,88.499,53.334,86.667,53.334z M83.333,83.334H60V60h23.333V83.334z"></path></svg>