<svg height='300px' width='300px' fill="#397AFD" xmlns="http://www.w3.org/2000/svg" xmlns:xlink="http://www.w3.org/1999/xlink" version="1.1" x="0px" y="0px" viewBox="3537.2 604.2 100 100" enable-background="new 3537.2 604.2 100 100" xml:space="preserve"><g><rect x="3537.2" y="604.2" fill="none" width="100" height="100"></rect><g><path d="M3615.7,701.9c-0.5,0-1-0.4-1-1s0.4-1,1-1l5.1,0c0.5,0,1,0.4,1,1s-0.4,1-1,1l0,0H3615.7z M3610.7,701.9h-5    c-0.5,0-1-0.4-1-1s0.4-1,1-1h5c0.5,0,1,0.4,1,1S3611.3,701.9,3610.7,701.9z M3600.7,701.9h-5c-0.5,0-1-0.4-1-1s0.4-1,1-1h5    c0.5,0,1,0.4,1,1S3601.2,701.9,3600.7,701.9z M3590.6,701.9C3590.6,701.9,3590.6,701.9,3590.6,701.9c-1.8,0-3.6-0.4-5.3-1.1    c-0.5-0.2-0.7-0.8-0.5-1.3c0.2-0.5,0.8-0.7,1.3-0.5c1.4,0.6,3,0.9,4.5,0.9c0.5,0,1,0.4,0.9,1    C3591.6,701.5,3591.2,701.9,3590.6,701.9z M3625.7,701c-0.4,0-0.7-0.2-0.9-0.6c-0.2-0.5,0-1.1,0.5-1.2c1.5-0.6,2.8-1.4,3.9-2.5    c0.4-0.4,1-0.3,1.4,0c0.4,0.4,0.3,1,0,1.4c-1.3,1.2-2.8,2.2-4.5,2.9C3626,701,3625.8,701,3625.7,701z M3581.5,698.2    c-0.2,0-0.5-0.1-0.7-0.3c-1.3-1.2-2.4-2.7-3.1-4.3c-0.2-0.5,0-1.1,0.5-1.3c0.5-0.2,1.1,0,1.3,0.5c0.7,1.4,1.6,2.7,2.7,3.8    c0.4,0.4,0.4,1,0,1.4C3582.1,698.1,3581.8,698.2,3581.5,698.2z M3632.9,694.3c-0.1,0-0.3,0-0.4-0.1c-0.5-0.2-0.7-0.8-0.5-1.3    c0.7-1.4,1.1-2.9,1.2-4.5c0-0.5,0.5-0.9,1-0.9c0.5,0,0.9,0.5,0.9,1c-0.1,1.8-0.6,3.5-1.4,5.2    C3633.6,694.1,3633.3,694.3,3632.9,694.3z M3577.4,689.3c-0.5,0-0.9-0.4-1-0.9c0-0.3,0-0.6,0-0.9v-4.2c0-0.5,0.4-1,1-1s1,0.4,1,1    v4.2c0,0.3,0,0.5,0,0.8C3578.4,688.8,3578,689.3,3577.4,689.3C3577.4,689.3,3577.4,689.3,3577.4,689.3z M3634.2,684.4    c-0.5,0-1-0.4-1-1v-5c0-0.5,0.4-1,1-1s1,0.4,1,1v5C3635.2,684,3634.7,684.4,3634.2,684.4z M3577.4,679.3c-0.5,0-1-0.4-1-1v-5    c0-0.5,0.4-1,1-1s1,0.4,1,1v5C3578.3,678.9,3577.9,679.3,3577.4,679.3z M3634.2,674.4c-0.5,0-1-0.4-1-1v-5c0-0.5,0.4-1,1-1    s1,0.4,1,1v5C3635.2,674,3634.7,674.4,3634.2,674.4z M3577.4,669.2c-0.5,0-1-0.4-1-1v-5c0-0.5,0.4-1,1-1s1,0.4,1,1v5    C3578.3,668.8,3577.9,669.2,3577.4,669.2z M3634.2,664.4c-0.5,0-1-0.4-1-1v-5c0-0.5,0.4-1,1-1s1,0.4,1,1v5    C3635.2,663.9,3634.7,664.4,3634.2,664.4z M3634.2,654.3c-0.5,0-1-0.4-1-1v-5c0-0.5,0.4-1,1-1s1,0.4,1,1v5    C3635.2,653.9,3634.7,654.3,3634.2,654.3z M3577.4,649.2c-0.5,0-1-0.4-1-1v-5c0-0.5,0.4-1,1-1s1,0.4,1,1v5    C3578.3,648.7,3577.9,649.2,3577.4,649.2z M3634.2,644.3c-0.5,0-1-0.4-1-1v-4.2c0-0.3,0-0.5,0-0.8c0-0.5,0.4-1,0.9-1    c0.5,0,1,0.4,1,0.9c0,0.3,0,0.6,0,0.9v4.2C3635.2,643.8,3634.7,644.3,3634.2,644.3z M3577.4,639.1    C3577.4,639.1,3577.4,639.1,3577.4,639.1c-0.6,0-1-0.5-1-1c0.1-1.8,0.6-3.5,1.4-5.2c0.2-0.5,0.8-0.7,1.3-0.4    c0.5,0.2,0.7,0.8,0.4,1.3c-0.7,1.4-1.1,2.9-1.2,4.5C3578.3,638.7,3577.9,639.1,3577.4,639.1z M3632.9,634.4    c-0.4,0-0.7-0.2-0.9-0.6c-0.7-1.4-1.6-2.7-2.7-3.8c-0.4-0.4-0.4-1,0-1.4c0.4-0.4,1-0.4,1.4,0c1.3,1.2,2.4,2.7,3.1,4.3    c0.2,0.5,0,1.1-0.5,1.3C3633.2,634.4,3633.1,634.4,3632.9,634.4z M3581.7,630.3c-0.3,0-0.5-0.1-0.7-0.3c-0.4-0.4-0.3-1,0-1.4    c1.3-1.2,2.8-2.2,4.5-2.9c0.5-0.2,1.1,0,1.2,0.5c0.2,0.5,0,1.1-0.5,1.2c-1.5,0.6-2.8,1.4-3.9,2.5    C3582.1,630.2,3581.9,630.3,3581.7,630.3z M3625.8,627.7c-0.1,0-0.2,0-0.4-0.1c-1.4-0.6-3-0.9-4.5-0.9c-0.5,0-1-0.4-0.9-1    c0-0.5,0.4-0.9,1-0.9c1.8,0,3.6,0.4,5.2,1.1c0.5,0.2,0.7,0.8,0.5,1.3C3626.6,627.4,3626.2,627.7,3625.8,627.7z M3615.9,626.7h-5    c-0.5,0-1-0.4-1-1c0-0.5,0.4-1,1-1h5c0.5,0,1,0.4,1,1C3616.9,626.2,3616.4,626.7,3615.9,626.7z M3605.9,626.7h-5c-0.5,0-1-0.4-1-1    c0-0.5,0.4-1,1-1h5c0.5,0,1,0.4,1,1C3606.8,626.2,3606.4,626.7,3605.9,626.7z M3595.8,626.7h-5c-0.5,0-1-0.4-1-1    c0-0.5,0.4-1,0.9-1h5c0.5,0,1,0.4,1,1C3596.8,626.2,3596.3,626.7,3595.8,626.7z"></path><path d="M3618.2,671.1l-3.7,2.2l0.1-0.8c1.8-10.8-5.5-21.8-16.3-24.5c-1.7-0.4-3.5-0.7-5.3-0.7c-9.5,0-9.2,0.7,0,0.7    c1.7,0,3.4,0.2,5.1,0.6c10.5,2.7,17.5,13,15.9,23.5l-0.2,1.1l-2.2-3.7c-0.1-0.1-0.2-0.2-0.3-0.2c-0.1,0-0.1,0-0.2,0    c-0.1,0-0.1,0.1-0.2,0.2c0,0.1,0,0.2,0,0.3l2.6,4.4c0.1,0.2,0.3,0.2,0.5,0.1l4.4-2.6c0.2-0.1,0.2-0.3,0.1-0.5    C3618.6,671.1,3618.4,671,3618.2,671.1z"></path><path d="M3619.4,670.8c-0.2-0.3-0.6-0.5-1-0.5c-0.2,0-0.4,0.1-0.6,0.2l-2.3,1.3c1.4-10.9-6.1-21.8-17-24.6    c-1.8-0.5-3.6-0.7-5.4-0.7c-9.8,0-8.8,2.2,0,2.2c1.6,0,3.3,0.2,4.9,0.6c9.7,2.5,16.3,11.8,15.4,21.5l-1.1-1.8    c-0.2-0.3-0.6-0.5-1-0.5c-0.2,0-0.4,0.1-0.6,0.2c-0.3,0.2-0.4,0.4-0.5,0.7c-0.1,0.3,0,0.6,0.1,0.8l2.6,4.4c0.2,0.3,0.6,0.5,1,0.5    c0.2,0,0.4-0.1,0.6-0.2l4.4-2.6c0.3-0.2,0.4-0.4,0.5-0.7C3619.6,671.4,3619.5,671.1,3619.4,670.8z M3618.6,671.7l-4.4,2.6    c-0.2,0.1-0.4,0-0.5-0.1l-2.6-4.4c0-0.1-0.1-0.2,0-0.3c0-0.1,0.1-0.2,0.2-0.2c0.1,0,0.1,0,0.2,0c0.1,0,0.2,0.1,0.3,0.2l2.2,3.7    l0.2-1.1c1.6-10.5-5.4-20.8-15.9-23.5c-1.7-0.4-3.4-0.6-5.1-0.6c-9.2,0-9.5-0.7,0-0.7c1.8,0,3.5,0.2,5.3,0.7    c10.8,2.7,18.1,13.7,16.3,24.5l-0.1,0.8l3.7-2.2c0.2-0.1,0.4,0,0.5,0.1C3618.8,671.4,3618.8,671.6,3618.6,671.7z"></path><path d="M3582.6,606.6h-30c-7.4,0-13.4,6-13.4,13.4v48.4c0,7.4,6,13.4,13.4,13.4h30c7.4,0,13.4-6,13.4-13.4V620    C3596,612.6,3590,606.6,3582.6,606.6z M3577.2,655.8h-5.6l3.3,7.7c0.1,0.3,0,0.6-0.3,0.7l-3.6,1.5c-0.1,0-0.1,0-0.2,0    c-0.1,0-0.1,0-0.2,0c-0.1-0.1-0.2-0.2-0.3-0.3l-3.4-8l-4.2,3.6c-0.1,0.1-0.3,0.2-0.5,0.2c-0.5,0-0.8-0.4-0.8-0.8v-20.6    c0-0.7,0.8-1.1,1.4-0.6l15.1,15.1c0.2,0.3,0.2,0.5,0.2,0.6C3578.1,655.5,3577.7,655.8,3577.2,655.8z"></path></g></g></svg>