<svg height='300px' width='300px'  fill="#397AFD" xmlns="http://www.w3.org/2000/svg" xmlns:xlink="http://www.w3.org/1999/xlink" version="1.1" x="0px" y="0px" viewBox="0 0 512 512"  enable-background="new 0 0 512 512" xml:space="preserve"><g><path d="M484.6,2H27.4C13.4,2,2,13.4,2,27.4v457.2c0,14,11.4,25.4,25.4,25.4h457.2c14,0,25.4-11.4,25.4-25.4V27.4   C510,13.4,498.6,2,484.6,2z M459.2,459.2H52.8V52.8h406.4V459.2z"></path><path d="M291.6,179.8h106.7c5.6,0,10.2-4.5,10.2-10.2v-55.9c0-5.6-4.5-10.2-10.2-10.2H291.6c-5.6,0-10.2,4.5-10.2,10.2v55.9   C281.4,175.3,285.9,179.8,291.6,179.8z"></path><path d="M113.8,281.4h106.7c5.6,0,10.2-4.5,10.2-10.2V113.8c0-5.6-4.5-10.2-10.2-10.2H113.8c-5.6,0-10.2,4.5-10.2,10.2v157.5   C103.6,276.8,108.1,281.4,113.8,281.4z"></path><path d="M291.6,408.4h106.7c5.6,0,10.2-4.5,10.2-10.2V240.8c0-5.6-4.5-10.2-10.2-10.2H291.6c-5.6,0-10.2,4.5-10.2,10.2v157.5   C281.4,403.8,285.9,408.4,291.6,408.4z"></path><path d="M230.6,342.4c0-5.6-4.5-10.2-10.2-10.2H113.8c-5.6,0-10.2,4.5-10.2,10.2v66h127V342.4z"></path></g></svg>