<?xml version="1.0" encoding="utf-8"?>
<!-- Generator: Adobe Illustrator 24.3.0, SVG Export Plug-In . SVG Version: 6.00 Build 0)  -->
<svg version="1.1" xmlns="http://www.w3.org/2000/svg" xmlns:xlink="http://www.w3.org/1999/xlink" x="0px" y="0px"
	 viewBox="0 0 2164.4 1555.9" enable-background="new 0 0 2164.4 1555.9" xml:space="preserve">
<g id="leaves">
	<g>
		
			<linearGradient id="SVGID_1_" gradientUnits="userSpaceOnUse" x1="-271.4315" y1="-1148.1454" x2="382.5742" y2="-819.4421" gradientTransform="matrix(0.5864 0.6972 0.6969 -0.6077 1108.1398 575.3852)">
			<stop  offset="0" style="stop-color:#8FD2FF"/>
			<stop  offset="0.1881" style="stop-color:#B1DFFF"/>
			<stop  offset="0.4173" style="stop-color:#D3EDFF"/>
			<stop  offset="0.6353" style="stop-color:#EBF7FF"/>
			<stop  offset="0.8351" style="stop-color:#FAFDFF"/>
			<stop  offset="1" style="stop-color:#FFFFFF"/>
		</linearGradient>
		<path fill="url(#SVGID_1_)" d="M481.6,1047c184.8,83.2,267.9,298.7,267.9,298.7s-216.5,80.8-401.3-2.4S80.4,1044.6,80.4,1044.6
			S296.8,963.8,481.6,1047z"/>
		<g>
			<path fill="#FFFFFF" d="M728.7,1341.5c-0.7,0-1.4-0.1-2.1-0.5l-610.7-274.8c-2.6-1.2-3.8-4.2-2.6-6.8c1.2-2.6,4.2-3.8,6.8-2.6
				l610.7,274.8c2.6,1.2,3.8,4.2,2.6,6.8C732.5,1340.4,730.6,1341.5,728.7,1341.5z"/>
		</g>
		<g>
			<path fill="#FFFFFF" d="M172.2,1161c-2.7,0-5-2.1-5.1-4.9c-0.2-2.8,2-5.3,4.9-5.4l138.2-7.7c2.8-0.2,5.3,2,5.4,4.9
				c0.2,2.8-2,5.3-4.9,5.4l-138.2,7.7C172.4,1161,172.3,1161,172.2,1161z"/>
		</g>
		<g>
			<path fill="#FFFFFF" d="M401.9,1194.5c-2,0-3.9-1.2-4.7-3.1l-62-145.1c-1.1-2.6,0.1-5.7,2.7-6.8c2.6-1.1,5.7,0.1,6.8,2.7
				l62,145.1c1.1,2.6-0.1,5.7-2.7,6.8C403.3,1194.4,402.6,1194.5,401.9,1194.5z"/>
		</g>
		<g>
			<path fill="#FFFFFF" d="M333.1,1309.7c-2.1,0-4.1-1.3-4.9-3.5c-0.9-2.7,0.5-5.6,3.2-6.6l182.9-63.8c2.7-0.9,5.6,0.5,6.6,3.2
				c0.9,2.7-0.5,5.6-3.2,6.6l-182.9,63.8C334.3,1309.6,333.7,1309.7,333.1,1309.7z"/>
		</g>
		<g>
			<path fill="#FFFFFF" d="M620,1292.6c-2.3,0-4.3-1.5-5-3.8l-39.2-139.3c-0.8-2.7,0.8-5.6,3.6-6.4c2.7-0.8,5.6,0.8,6.4,3.6
				l39.2,139.3c0.8,2.7-0.8,5.6-3.6,6.4C620.9,1292.6,620.5,1292.6,620,1292.6z"/>
		</g>
	</g>
	<g>
		
			<linearGradient id="SVGID_2_" gradientUnits="userSpaceOnUse" x1="2038.9495" y1="-706.1728" x2="2348.1477" y2="-161.859" gradientTransform="matrix(-0.5328 0.8462 0.8462 0.5328 2098.7104 -596.0743)">
			<stop  offset="0" style="stop-color:#ABE5FF"/>
			<stop  offset="0.1406" style="stop-color:#C2ECFF"/>
			<stop  offset="0.3476" style="stop-color:#DDF4FF"/>
			<stop  offset="0.5586" style="stop-color:#F0FAFF"/>
			<stop  offset="0.7739" style="stop-color:#FBFEFF"/>
			<stop  offset="1" style="stop-color:#FFFFFF"/>
		</linearGradient>
		<path fill="url(#SVGID_2_)" d="M676.5,958.1c109.3,206.7,79.7,436.8,79.7,436.8s-206.9-105-316.2-311.7s-79.7-436.8-79.7-436.8
			S567.2,751.4,676.5,958.1z"/>
		<g>
			<path fill="#FFFFFF" d="M743.6,1377.4c-2-0.1-3.8-1.2-4.8-3L378.1,692.3c-1.5-2.8-0.4-6.3,2.4-7.7c2.8-1.5,6.3-0.4,7.7,2.4
				L749,1369c1.5,2.8,0.4,6.3-2.4,7.7C745.6,1377.2,744.6,1377.4,743.6,1377.4z"/>
		</g>
		<g>
			<path fill="#FFFFFF" d="M496.1,909.5c-1.3-0.1-2.5-0.5-3.5-1.5L377.6,805.1c-2.4-2.1-2.6-5.7-0.4-8.1c2.1-2.4,5.7-2.6,8.1-0.4
				l115.1,102.9c2.4,2.1,2.6,5.7,0.4,8.1C499.5,908.9,497.8,909.5,496.1,909.5z"/>
		</g>
		<g>
			<path fill="#FFFFFF" d="M550.3,1011.9c-0.1,0-0.2,0-0.3,0c-3.2-0.3-5.5-3.1-5.2-6.3l15.7-165c0.3-3.2,3.1-5.4,6.3-5.2
				c3.2,0.3,5.5,3.1,5.2,6.3l-15.7,165C556,1009.7,553.3,1012,550.3,1011.9z"/>
		</g>
		<g>
			<path fill="#FFFFFF" d="M617.8,1139.5c-0.8,0-1.6-0.2-2.3-0.6l-169.1-86.6c-2.8-1.4-3.9-4.9-2.5-7.7c1.4-2.8,4.9-3.9,7.7-2.5
				l169.1,86.6c2.8,1.4,3.9,4.9,2.5,7.7C622.1,1138.5,620,1139.6,617.8,1139.5z"/>
		</g>
		<g>
			<path fill="#FFFFFF" d="M679.3,1255.8c-0.3,0-0.6-0.1-1-0.1c-3.1-0.7-5-3.8-4.3-6.8l34.2-153.4c0.7-3.1,3.7-5,6.8-4.3
				c3.1,0.7,5,3.8,4.3,6.8l-34.2,153.4C684.6,1254.1,682.1,1255.9,679.3,1255.8z"/>
		</g>
	</g>
	<g>
		
			<linearGradient id="SVGID_3_" gradientUnits="userSpaceOnUse" x1="-795.5169" y1="-1671.8824" x2="-135.4579" y2="-1340.1368" gradientTransform="matrix(-0.5108 0.7777 -0.785 -0.6326 280.4427 612.9636)">
			<stop  offset="0" style="stop-color:#8FD2FF"/>
			<stop  offset="0.1881" style="stop-color:#B1DFFF"/>
			<stop  offset="0.4173" style="stop-color:#D3EDFF"/>
			<stop  offset="0.6353" style="stop-color:#EBF7FF"/>
			<stop  offset="0.8351" style="stop-color:#FAFDFF"/>
			<stop  offset="1" style="stop-color:#FFFFFF"/>
		</linearGradient>
		<path fill="url(#SVGID_3_)" d="M1655.6,1034.9c-181.1,94.8-244,320.5-244,320.5s230.9,71.9,412-22.9
			c181.1-94.8,244-320.5,244-320.5S1836.8,940.1,1655.6,1034.9z"/>
		<g>
			<path fill="#FFFFFF" d="M1432.1,1349.8c-1.8,0-3.6-1-4.6-2.8c-1.3-2.5-0.3-5.6,2.2-6.9l598.2-313.1c2.5-1.3,5.6-0.3,6.9,2.2
				c1.3,2.5,0.3,5.6-2.2,6.9l-598.2,313.1C1433.7,1349.6,1432.9,1349.8,1432.1,1349.8z"/>
		</g>
		<g>
			<path fill="#FFFFFF" d="M1979.5,1136C1979.5,1136,1979.5,1136,1979.5,1136l-137.4-0.8c-2.8,0-5.1-2.3-5.1-5.2
				c0-2.8,2.3-5.1,5.1-5.1c0,0,0,0,0,0l137.4,0.8c2.8,0,5.1,2.3,5.1,5.2C1984.6,1133.7,1982.4,1136,1979.5,1136z"/>
		</g>
		<g>
			<path fill="#FFFFFF" d="M1752.4,1182.1c-0.5,0-1-0.1-1.6-0.2c-2.7-0.9-4.2-3.7-3.3-6.4l50.5-158.6c0.9-2.7,3.7-4.2,6.4-3.3
				c2.7,0.9,4.2,3.7,3.3,6.4l-50.5,158.6C1756.6,1180.8,1754.6,1182.1,1752.4,1182.1z"/>
		</g>
		<g>
			<path fill="#FFFFFF" d="M1825.3,1294c-0.5,0-1-0.1-1.4-0.2l-184.7-53.4c-2.7-0.8-4.3-3.6-3.5-6.4c0.8-2.7,3.6-4.3,6.4-3.5
				l184.7,53.4c2.7,0.8,4.3,3.6,3.5,6.4C1829.5,1292.6,1827.5,1294,1825.3,1294z"/>
		</g>
		<g>
			<path fill="#FFFFFF" d="M1538.6,1294c-0.3,0-0.6,0-0.9-0.1c-2.8-0.5-4.7-3.2-4.2-5.9l28.1-158.9c0.5-2.8,3.1-4.7,5.9-4.2
				c2.8,0.5,4.7,3.2,4.2,5.9l-28.1,158.9C1543.3,1292.3,1541.1,1294,1538.6,1294z"/>
		</g>
	</g>
	<g>
		
			<linearGradient id="SVGID_4_" gradientUnits="userSpaceOnUse" x1="2305.3472" y1="-1401.8829" x2="2595.3896" y2="-891.2906" gradientTransform="matrix(0.685 0.8719 -0.8839 0.5429 -1041.8784 -514.5502)">
			<stop  offset="0" style="stop-color:#ABE5FF"/>
			<stop  offset="0.1406" style="stop-color:#C2ECFF"/>
			<stop  offset="0.3476" style="stop-color:#DDF4FF"/>
			<stop  offset="0.5586" style="stop-color:#F0FAFF"/>
			<stop  offset="0.7739" style="stop-color:#FBFEFF"/>
			<stop  offset="1" style="stop-color:#FFFFFF"/>
		</linearGradient>
		<path fill="url(#SVGID_4_)" d="M1518.4,932.5c-100.3,195.2-46,412.6-46,412.6s216.8-99.2,317.1-294.4s46-412.6,46-412.6
			S1618.7,737.3,1518.4,932.5z"/>
		<g>
			<path fill="#FFFFFF" d="M1483.7,1328.8c-0.9,0-1.8-0.2-2.6-0.6c-2.8-1.4-3.9-4.9-2.5-7.7L1812.2,671c1.4-2.8,4.9-3.9,7.7-2.5
				c2.8,1.4,3.9,4.9,2.5,7.7l-333.5,649.5C1487.8,1327.7,1485.8,1328.8,1483.7,1328.8z"/>
		</g>
		<g>
			<path fill="#FFFFFF" d="M1710.7,886.9c-1.6,0-3.2-0.7-4.3-2c-2.1-2.4-1.8-6,0.6-8l115.7-100.7c2.4-2.1,6-1.8,8,0.6
				c2.1,2.4,1.8,6-0.6,8l-115.7,100.7C1713.3,886.4,1712,886.9,1710.7,886.9z"/>
		</g>
		<g>
			<path fill="#FFFFFF" d="M1661,983.6c-2.6,0-5-1.8-5.6-4.5l-31.7-150.3c-0.6-3.1,1.3-6.1,4.4-6.8c3.1-0.7,6.1,1.3,6.8,4.4
				l31.7,150.3c0.6,3.1-1.3,6.1-4.4,6.8C1661.8,983.6,1661.4,983.6,1661,983.6z"/>
		</g>
		<g>
			<path fill="#FFFFFF" d="M1599.1,1104.1c-2.1,0-4.2-1.2-5.1-3.2c-1.4-2.8-0.2-6.2,2.7-7.6l181.9-87.5c2.8-1.4,6.2-0.2,7.6,2.7
				c1.4,2.8,0.2,6.2-2.7,7.6l-181.9,87.5C1600.8,1104,1599.9,1104.1,1599.1,1104.1z"/>
		</g>
		<g>
			<path fill="#FFFFFF" d="M1542.7,1214c-2.3,0-4.5-1.5-5.4-3.8l-50.4-140.5c-1.1-3,0.5-6.2,3.4-7.3c3-1.1,6.2,0.5,7.3,3.4
				l50.4,140.5c1.1,3-0.5,6.2-3.4,7.3C1544,1213.9,1543.3,1214,1542.7,1214z"/>
		</g>
	</g>
</g>
<g id="shadow">
	<path fill="#2EBFFF" d="M1942.5,1451.9H196.4c-11,0-20-9-20-20v-34.6c0-11,9-20,20-20h1746.1c11,0,20,9,20,20v34.6
		C1962.5,1442.9,1953.6,1451.9,1942.5,1451.9z"/>
</g>
<g id="smartphone">
	<g>
		<g>
			<linearGradient id="SVGID_5_" gradientUnits="userSpaceOnUse" x1="816.0858" y1="84.5811" x2="1272.9437" y2="1360.7394">
				<stop  offset="0" style="stop-color:#8095B2"/>
				<stop  offset="0.4644" style="stop-color:#788AA7"/>
				<stop  offset="1" style="stop-color:#7283A0"/>
			</linearGradient>
			<path fill="url(#SVGID_5_)" d="M709.4,125.4v1202.2c0,33.7,24.6,61.1,55.1,61.1h562.8c30.4,0,55.1-27.3,55.1-61.1V125.4
				c0-33.7-24.6-61.1-55.1-61.1H764.5C734.1,64.4,709.4,91.7,709.4,125.4z"/>
			<linearGradient id="SVGID_6_" gradientUnits="userSpaceOnUse" x1="804.7284" y1="217.4362" x2="1319.0693" y2="1303.163">
				<stop  offset="0" style="stop-color:#C7F1FF"/>
				<stop  offset="0.1299" style="stop-color:#D3F4FF"/>
				<stop  offset="0.4538" style="stop-color:#EBFAFF"/>
				<stop  offset="0.7525" style="stop-color:#FAFEFF"/>
				<stop  offset="1" style="stop-color:#FFFFFF"/>
			</linearGradient>
			<path fill="url(#SVGID_6_)" d="M787.6,96.6h516.6c27.9,0,50.5,26.2,50.5,58.5V1298c0,32.3-22.6,58.5-50.5,58.5H787.6
				c-27.9,0-50.5-26.2-50.5-58.5V155.1C737,122.8,759.7,96.6,787.6,96.6z"/>
			<path fill="#FFFFFF" d="M1354.8,180.7v-25.7c0-32.3-22.6-58.5-50.5-58.5H787.6c-27.9,0-50.5,26.2-50.5,58.5v25.7H1354.8z"/>
			<g>
				
					<line fill="none" stroke="#99CCFF" stroke-width="18" stroke-linecap="round" stroke-linejoin="round" stroke-miterlimit="10" x1="779.8" y1="138.6" x2="841.9" y2="138.6"/>
				<ellipse fill="#99CCFF" cx="880" cy="138.6" rx="12" ry="13.3"/>
				<ellipse fill="#99CCFF" cx="917.4" cy="138.6" rx="12" ry="13.3"/>
				<ellipse fill="#99CCFF" cx="1235" cy="138.6" rx="12" ry="13.3"/>
				<ellipse fill="#99CCFF" cx="1309.9" cy="138.6" rx="12" ry="13.3"/>
				<ellipse fill="#99CCFF" cx="1272.4" cy="138.6" rx="12" ry="13.3"/>
			</g>
		</g>
		<g>
			<linearGradient id="SVGID_7_" gradientUnits="userSpaceOnUse" x1="920.1583" y1="415.509" x2="948.2582" y2="494.0015">
				<stop  offset="0" style="stop-color:#FF9966"/>
				<stop  offset="0.3116" style="stop-color:#FFB473"/>
				<stop  offset="0.7574" style="stop-color:#FFD682"/>
				<stop  offset="1" style="stop-color:#FFE388"/>
			</linearGradient>
			
				<polygon fill="url(#SVGID_7_)" stroke="#FF9933" stroke-width="5" stroke-linecap="round" stroke-linejoin="round" stroke-miterlimit="10" points="
				930.3,409.3 944.1,437.1 974.7,441.5 952.5,463.2 957.8,493.7 930.3,479.3 902.9,493.7 908.1,463.2 886,441.5 916.6,437.1 			"/>
			<linearGradient id="SVGID_8_" gradientUnits="userSpaceOnUse" x1="804.3121" y1="415.509" x2="832.412" y2="494.0015">
				<stop  offset="0" style="stop-color:#FF9966"/>
				<stop  offset="0.3116" style="stop-color:#FFB473"/>
				<stop  offset="0.7574" style="stop-color:#FFD682"/>
				<stop  offset="1" style="stop-color:#FFE388"/>
			</linearGradient>
			
				<polygon fill="url(#SVGID_8_)" stroke="#FF9933" stroke-width="5" stroke-linecap="round" stroke-linejoin="round" stroke-miterlimit="10" points="
				814.5,409.3 828.2,437.1 858.9,441.5 836.7,463.2 841.9,493.7 814.5,479.3 787.1,493.7 792.3,463.2 770.1,441.5 800.8,437.1 			
				"/>
			<linearGradient id="SVGID_9_" gradientUnits="userSpaceOnUse" x1="1034.485" y1="415.509" x2="1062.5848" y2="494.0015">
				<stop  offset="0" style="stop-color:#FF9966"/>
				<stop  offset="0.3116" style="stop-color:#FFB473"/>
				<stop  offset="0.7574" style="stop-color:#FFD682"/>
				<stop  offset="1" style="stop-color:#FFE388"/>
			</linearGradient>
			
				<polygon fill="url(#SVGID_9_)" stroke="#FF9933" stroke-width="5" stroke-linecap="round" stroke-linejoin="round" stroke-miterlimit="10" points="
				1044.7,409.3 1058.4,437.1 1089,441.5 1066.9,463.2 1072.1,493.7 1044.7,479.3 1017.2,493.7 1022.5,463.2 1000.3,441.5 
				1031,437.1 			"/>
			<polygon fill="#7CC2FC" points="1161,409.3 1174.7,437.1 1205.4,441.5 1183.2,463.2 1188.4,493.7 1161,479.3 1133.6,493.7 
				1138.8,463.2 1116.6,441.5 1147.3,437.1 			"/>
			<polygon fill="#7CC2FC" points="1277.3,409.3 1291,437.1 1321.7,441.5 1299.5,463.2 1304.7,493.7 1277.3,479.3 1249.9,493.7 
				1255.1,463.2 1232.9,441.5 1263.6,437.1 			"/>
		</g>
		<g>
			<linearGradient id="SVGID_10_" gradientUnits="userSpaceOnUse" x1="1053.9929" y1="815.3152" x2="1070.7369" y2="862.0869">
				<stop  offset="0" style="stop-color:#FF9966"/>
				<stop  offset="0.3116" style="stop-color:#FFB473"/>
				<stop  offset="0.7574" style="stop-color:#FFD682"/>
				<stop  offset="1" style="stop-color:#FFE388"/>
			</linearGradient>
			
				<polygon fill="url(#SVGID_10_)" stroke="#FF9933" stroke-width="5" stroke-linecap="round" stroke-linejoin="round" stroke-miterlimit="10" points="
				1060.1,811.6 1068.2,828.2 1086.5,830.8 1073.3,843.7 1076.4,861.9 1060.1,853.3 1043.7,861.9 1046.8,843.7 1033.6,830.8 
				1051.9,828.2 			"/>
			<linearGradient id="SVGID_11_" gradientUnits="userSpaceOnUse" x1="984.9631" y1="815.3152" x2="1001.7072" y2="862.0869">
				<stop  offset="0" style="stop-color:#FF9966"/>
				<stop  offset="0.3116" style="stop-color:#FFB473"/>
				<stop  offset="0.7574" style="stop-color:#FFD682"/>
				<stop  offset="1" style="stop-color:#FFE388"/>
			</linearGradient>
			
				<polygon fill="url(#SVGID_11_)" stroke="#FF9933" stroke-width="5" stroke-linecap="round" stroke-linejoin="round" stroke-miterlimit="10" points="
				991,811.6 999.2,828.2 1017.5,830.8 1004.3,843.7 1007.4,861.9 991,853.3 974.7,861.9 977.8,843.7 964.6,830.8 982.9,828.2 			
				"/>
			<linearGradient id="SVGID_12_" gradientUnits="userSpaceOnUse" x1="1122.1172" y1="815.3152" x2="1138.8612" y2="862.0869">
				<stop  offset="0" style="stop-color:#FF9966"/>
				<stop  offset="0.3116" style="stop-color:#FFB473"/>
				<stop  offset="0.7574" style="stop-color:#FFD682"/>
				<stop  offset="1" style="stop-color:#FFE388"/>
			</linearGradient>
			
				<polygon fill="url(#SVGID_12_)" stroke="#FF9933" stroke-width="5" stroke-linecap="round" stroke-linejoin="round" stroke-miterlimit="10" points="
				1128.2,811.6 1136.4,828.2 1154.6,830.8 1141.4,843.7 1144.5,861.9 1128.2,853.3 1111.8,861.9 1115,843.7 1101.7,830.8 
				1120,828.2 			"/>
			<linearGradient id="SVGID_13_" gradientUnits="userSpaceOnUse" x1="1171.0502" y1="836.7607" x2="1223.9381" y2="836.7607">
				<stop  offset="0" style="stop-color:#FF9966"/>
				<stop  offset="0.3116" style="stop-color:#FFB473"/>
				<stop  offset="0.7574" style="stop-color:#FFD682"/>
				<stop  offset="1" style="stop-color:#FFE388"/>
			</linearGradient>
			
				<polygon fill="url(#SVGID_13_)" stroke="#FF9933" stroke-width="5" stroke-linecap="round" stroke-linejoin="round" stroke-miterlimit="10" points="
				1197.5,811.6 1205.7,828.2 1223.9,830.8 1210.7,843.7 1213.8,861.9 1197.5,853.3 1181.2,861.9 1184.3,843.7 1171.1,830.8 
				1189.3,828.2 			"/>
			<polygon fill="#7CC2FC" points="1266.8,811.6 1275,828.2 1293.2,830.8 1280,843.7 1283.1,861.9 1266.8,853.3 1250.5,861.9 
				1253.6,843.7 1240.4,830.8 1258.6,828.2 			"/>
		</g>
		<g>
			<linearGradient id="SVGID_14_" gradientUnits="userSpaceOnUse" x1="1063.3777" y1="1184.4452" x2="1080.1216" y2="1231.2168">
				<stop  offset="0" style="stop-color:#FF9966"/>
				<stop  offset="0.3116" style="stop-color:#FFB473"/>
				<stop  offset="0.7574" style="stop-color:#FFD682"/>
				<stop  offset="1" style="stop-color:#FFE388"/>
			</linearGradient>
			
				<polygon fill="url(#SVGID_14_)" stroke="#FF9933" stroke-width="5" stroke-linecap="round" stroke-linejoin="round" stroke-miterlimit="10" points="
				1069.4,1180.7 1077.6,1197.3 1095.9,1200 1082.7,1212.8 1085.8,1231 1069.4,1222.4 1053.1,1231 1056.2,1212.8 1043,1200 
				1061.3,1197.3 			"/>
			<linearGradient id="SVGID_15_" gradientUnits="userSpaceOnUse" x1="994.3478" y1="1184.4452" x2="1011.0918" y2="1231.2168">
				<stop  offset="0" style="stop-color:#FF9966"/>
				<stop  offset="0.3116" style="stop-color:#FFB473"/>
				<stop  offset="0.7574" style="stop-color:#FFD682"/>
				<stop  offset="1" style="stop-color:#FFE388"/>
			</linearGradient>
			
				<polygon fill="url(#SVGID_15_)" stroke="#FF9933" stroke-width="5" stroke-linecap="round" stroke-linejoin="round" stroke-miterlimit="10" points="
				1000.4,1180.7 1008.6,1197.3 1026.9,1200 1013.6,1212.8 1016.8,1231 1000.4,1222.4 984.1,1231 987.2,1212.8 974,1200 
				992.2,1197.3 			"/>
			<linearGradient id="SVGID_16_" gradientUnits="userSpaceOnUse" x1="1131.502" y1="1184.4452" x2="1148.246" y2="1231.2168">
				<stop  offset="0" style="stop-color:#FF9966"/>
				<stop  offset="0.3116" style="stop-color:#FFB473"/>
				<stop  offset="0.7574" style="stop-color:#FFD682"/>
				<stop  offset="1" style="stop-color:#FFE388"/>
			</linearGradient>
			
				<polygon fill="url(#SVGID_16_)" stroke="#FF9933" stroke-width="5" stroke-linecap="round" stroke-linejoin="round" stroke-miterlimit="10" points="
				1137.6,1180.7 1145.7,1197.3 1164,1200 1150.8,1212.8 1153.9,1231 1137.6,1222.4 1121.2,1231 1124.3,1212.8 1111.1,1200 
				1129.4,1197.3 			"/>
			<polygon fill="#7CC2FC" points="1206.9,1180.7 1215.1,1197.3 1233.3,1200 1220.1,1212.8 1223.2,1231 1206.9,1222.4 1190.5,1231 
				1193.7,1212.8 1180.4,1200 1198.7,1197.3 			"/>
			<polygon fill="#7CC2FC" points="1276.2,1180.7 1284.4,1197.3 1302.6,1200 1289.4,1212.8 1292.5,1231 1276.2,1222.4 1259.8,1231 
				1263,1212.8 1249.7,1200 1268,1197.3 			"/>
		</g>
		<g>
			<linearGradient id="SVGID_17_" gradientUnits="userSpaceOnUse" x1="1246.1577" y1="250.6078" x2="1282.4269" y2="351.9196">
				<stop  offset="0" style="stop-color:#8095B2"/>
				<stop  offset="0.4644" style="stop-color:#788AA7"/>
				<stop  offset="1" style="stop-color:#7283A0"/>
			</linearGradient>
			<path fill="url(#SVGID_17_)" d="M1321.6,301.6c0,16.5-7,31.4-18.2,41.8c-10.2,9.5-24,15.4-39.1,15.4c-15.1,0-28.8-5.9-39.1-15.4
				c-11.2-10.4-18.2-25.3-18.2-41.8c0-31.6,25.6-57.2,57.2-57.2C1296,244.3,1321.6,270,1321.6,301.6z"/>
			
				<ellipse transform="matrix(0.2298 -0.9732 0.9732 0.2298 688.5466 1456.4142)" fill="#FFFFFF" cx="1264.4" cy="293.2" rx="24" ry="24"/>
			<path fill="#FFFFFF" d="M1303.5,343.4c-10.2,9.5-24,15.4-39.1,15.4c-15.1,0-28.8-5.9-39.1-15.4c3.1-16.3,19.4-28.7,39.1-28.7
				S1300.4,327.1,1303.5,343.4z"/>
		</g>
		<g>
			<linearGradient id="SVGID_18_" gradientUnits="userSpaceOnUse" x1="824.4541" y1="725.4555" x2="860.7245" y2="826.7709">
				<stop  offset="0" style="stop-color:#8095B2"/>
				<stop  offset="0.4644" style="stop-color:#788AA7"/>
				<stop  offset="1" style="stop-color:#7283A0"/>
			</linearGradient>
			<circle fill="url(#SVGID_18_)" cx="842.7" cy="776.4" r="57.2"/>
			
				<ellipse transform="matrix(0.5853 -0.8108 0.8108 0.5853 -273.2919 1001.7225)" fill="#FFFFFF" cx="842.7" cy="768" rx="24" ry="24"/>
			<path fill="#FFFFFF" d="M881.8,818.3c-10.2,9.5-24,15.4-39.1,15.4c-15.1,0-28.8-5.9-39.1-15.4c3.1-16.3,19.4-28.7,39.1-28.7
				C862.3,789.6,878.7,802,881.8,818.3z"/>
		</g>
		<g>
			<linearGradient id="SVGID_19_" gradientUnits="userSpaceOnUse" x1="834.5727" y1="1079.5718" x2="870.843" y2="1180.8871">
				<stop  offset="0" style="stop-color:#8095B2"/>
				<stop  offset="0.4644" style="stop-color:#788AA7"/>
				<stop  offset="1" style="stop-color:#7283A0"/>
			</linearGradient>
			<circle fill="url(#SVGID_19_)" cx="852.8" cy="1130.5" r="57.2"/>
			
				<ellipse transform="matrix(0.2321 -0.9727 0.9727 0.2321 -436.6634 1691.1896)" fill="#FFFFFF" cx="852.8" cy="1122.2" rx="24" ry="24"/>
			<path fill="#FFFFFF" d="M891.9,1172.4c-10.2,9.5-24,15.4-39.1,15.4c-15.1,0-28.8-5.9-39.1-15.4c3.1-16.3,19.4-28.7,39.1-28.7
				C872.5,1143.7,888.8,1156.1,891.9,1172.4z"/>
		</g>
		<g>
			<path fill="#A9D8FF" d="M1128.7,279.6v-20.9c0-12.7-10.3-23-23-23H793.2c-12.7,0-23,10.3-23,23v75.6c0,12.7,10.3,23,23,23h312.5
				c12.7,0,23-10.3,23-23v-20.9l50.8-17L1128.7,279.6z"/>
			
				<line fill="none" stroke="#FFFFFF" stroke-width="12" stroke-linecap="round" stroke-linejoin="round" stroke-miterlimit="10" x1="800.6" y1="264.1" x2="882.9" y2="264.1"/>
			
				<line fill="none" stroke="#FFFFFF" stroke-width="12" stroke-linecap="round" stroke-linejoin="round" stroke-miterlimit="10" x1="913.1" y1="264.1" x2="995.4" y2="264.1"/>
			
				<line fill="none" stroke="#FFFFFF" stroke-width="12" stroke-linecap="round" stroke-linejoin="round" stroke-miterlimit="10" x1="800.6" y1="296.5" x2="1058.2" y2="296.5"/>
			
				<line fill="none" stroke="#FFFFFF" stroke-width="12" stroke-linecap="round" stroke-linejoin="round" stroke-miterlimit="10" x1="800.6" y1="328.9" x2="954.3" y2="328.9"/>
		</g>
		<g>
			<path fill="#C0E7FF" d="M945.3,672.5v72.8l-27.5,42.3l52.5-19.5h307.4c14.4,0,26.2-11.7,26.2-26.2v-69.4
				c0-14.4-11.7-26.2-26.2-26.2H971.5C957.1,646.4,945.3,658.1,945.3,672.5z"/>
			
				<line fill="none" stroke="#FFFFFF" stroke-width="12" stroke-linecap="round" stroke-linejoin="round" stroke-miterlimit="10" x1="981.4" y1="673.6" x2="1025.2" y2="673.6"/>
			
				<line fill="none" stroke="#FFFFFF" stroke-width="12" stroke-linecap="round" stroke-linejoin="round" stroke-miterlimit="10" x1="1055.5" y1="673.6" x2="1176.2" y2="673.6"/>
			
				<line fill="none" stroke="#FFFFFF" stroke-width="12" stroke-linecap="round" stroke-linejoin="round" stroke-miterlimit="10" x1="981.4" y1="706" x2="1128.2" y2="706"/>
			
				<line fill="none" stroke="#FFFFFF" stroke-width="12" stroke-linecap="round" stroke-linejoin="round" stroke-miterlimit="10" x1="981.4" y1="738.4" x2="1054.8" y2="738.4"/>
			
				<line fill="none" stroke="#FFFFFF" stroke-width="12" stroke-linecap="round" stroke-linejoin="round" stroke-miterlimit="10" x1="1157.3" y1="706" x2="1240.4" y2="706"/>
		</g>
		<g>
			<path fill="#C0E7FF" d="M955.5,1035v72.8l-27.5,42.3l52.5-19.5h307.4c14.4,0,26.2-11.7,26.2-26.2V1035
				c0-14.4-11.7-26.2-26.2-26.2H981.6C967.2,1008.8,955.5,1020.5,955.5,1035z"/>
			
				<line fill="none" stroke="#FFFFFF" stroke-width="12" stroke-linecap="round" stroke-linejoin="round" stroke-miterlimit="10" x1="989.2" y1="1040.9" x2="1033.1" y2="1040.9"/>
			
				<line fill="none" stroke="#FFFFFF" stroke-width="12" stroke-linecap="round" stroke-linejoin="round" stroke-miterlimit="10" x1="1063.3" y1="1040.9" x2="1225.6" y2="1040.9"/>
			
				<line fill="none" stroke="#FFFFFF" stroke-width="12" stroke-linecap="round" stroke-linejoin="round" stroke-miterlimit="10" x1="989.2" y1="1073.3" x2="1083.5" y2="1073.3"/>
			
				<line fill="none" stroke="#FFFFFF" stroke-width="12" stroke-linecap="round" stroke-linejoin="round" stroke-miterlimit="10" x1="989.2" y1="1105.7" x2="1152.6" y2="1105.7"/>
			
				<line fill="none" stroke="#FFFFFF" stroke-width="12" stroke-linecap="round" stroke-linejoin="round" stroke-miterlimit="10" x1="1111.9" y1="1073.3" x2="1248.2" y2="1073.3"/>
		</g>
		<path opacity="0.3" fill="#FFFFFF" d="M1304.2,96.6H787.6c-27.9,0-50.5,26.2-50.5,58.5v1113.4L1341,115
			C1331.8,103.7,1318.7,96.6,1304.2,96.6z"/>
	</g>
</g>
<g id="boy">
	<g>
		<path fill="#191926" d="M1505.1,1447.8c-4.9-6.4-3.1-33.1,0-45.6h38.6c9,12.5,24.3,43.4,17.9,48.6S1512.5,1457.5,1505.1,1447.8z"
			/>
		<path fill="#191926" d="M1726.8,1401.5c0,0-4,6.9-5.5,20.7c-1.5,13.3-0.6,16.1,3.8,21c4.4,4.9,104.8,4.6,104.8,4.6
			s5.3-10.2-10.8-21.2c-16.1-11-56.9-24.4-56.9-24.4L1726.8,1401.5z"/>
		<path fill="#354A68" d="M1532.4,614.8c0,0-70.8,59.3-81.1,107.3c-21.4,99.4,44.7,680,44.7,680h56.1l46-526.8
			c0,0,51.5,117.6,71.9,190.1c14.2,50.5,40,292.4,52.4,336.6l55.9-0.7c0,0,11.8-279.3,7.3-344.7c-5.3-77.1-114.6-436.5-114.6-436.5
			L1532.4,614.8z"/>
		<path fill="#683737" d="M1661.8,108.2c0,0-19.2,4.6-40.7-3.2c-21.5-7.8-69-18.7-97.7-2.7c-28.7,16-31.5,42.6-28.1,54.9
			c3.3,12.3,21.1,47.9,24.6,60.6c3.5,12.7,8,32.2,8,32.2l63.2-21.8l33.7-88L1661.8,108.2z"/>
		<path fill="#FFFFFF" d="M1690.7,613.1c1.3,16.2,6.1,72,7.5,90.9c-27.7,8.3-59.8,11.5-92.5,15c-60.6,6.5-112,2.6-154.5,3.2
			c1.6-20.3,6-76.2,6.4-102.5c0.6-33.1-39.3-283.7-39.3-283.7s2.8-1.1,18-8.4c15.2-7.3,72.9-29.1,72.9-29.1h92.8l84.9,37.1
			C1686.9,335.5,1689,591.7,1690.7,613.1z"/>
		<path fill="#2EBFFF" d="M1498.5,302.5c0,0,33.1,134.4,43.1,263.2c10,128.9-15.9,208.2-28.2,218.9c-12.3,10.6-75.1,6.4-80.5,0
			c-5.3-6.4,14.9-118.2,14.9-151.2c0-33-20.2-163-20.2-163l-9.3-134.9L1498.5,302.5z"/>
		<path fill="#118BEF" d="M1467.2,722.7c6.2-1.5,6.2,14.7,10.6,16.8c4.4,2,5.4-3.5,5.4-3.5s6.5-5.3,11.6-1.1
			c5.1,4.2,8.2-4.8,8.2-4.8s-5-7.5,5.8-7.3c10.8,0.2,7.6-2.6,7.6-2.6s-13.9-31.1-5.9-29.3c7.9,1.8,7.7-3.2,7.7-3.2l-9.6-23.5
			l-52.7-3.2c0,0,8.8-27.3,5.3-76.6c-3.5-49.3-24.2-151.1-24.2-151.1l-9.2,37.1c0,0,20.2,130,20.2,163c0,33-20.2,144.8-14.9,151.2
			c0-18,13.2-56.8,13.2-56.8S1461.1,724.2,1467.2,722.7z"/>
		<path fill="#F4B19A" d="M1608.2,301.2c2.2,6.6,0.5,27.7-41.4,32.6c-34.6,4-68.3-31.2-68.3-31.2c7.6-2.9,26.9-15,28.4-35.6
			c2.6-34.7,0.1-58.4,0.1-58.4l71.5,33.7C1598.5,242.3,1598.5,272.8,1608.2,301.2z"/>
		<path fill="#E08D80" d="M1601.9,276.2c0,0-3.7,19.2-35,8.3c-39.5-13.7-39.6-69.8-39.6-69.8L1601.9,276.2z"/>
		<path fill="#F4B19A" d="M1598.4,276.7c-31.5,7.8-62.9-33.7-67.9-49.7c-5-16-21.6-77.4,38.9-94.4c15-4.2,54.2-0.8,56.7,11
			c1.9,9.1,7.2,49.3,7.9,60.4C1634.6,215.1,1637.5,267,1598.4,276.7z"/>
		<path fill="#FFFFFF" d="M1573.2,244.6l44-8.3c0,0,0.3,17.7-16,21.9C1584.9,262.3,1573.2,244.6,1573.2,244.6z"/>
		<path fill="#F4B19A" d="M1524.9,185.2c0,0-17.4-11.9-21.5,4.5c-4.1,16.4,25.3,26.1,25.3,26.1L1524.9,185.2z"/>
		<path fill="#E08D80" d="M1627.1,147.9l-0.5,0.1l-11.5-12.9c-6.1-2.2-14.1-3.5-22-4l-38.1,6.9c-11.6,5.9-19.1,13.9-23.7,22.8
			l2.2,26.3c0,0,5.6-19.9,18.5-26.3c12.9-6.4,26.1-7.1,48.6-4.1c11.3,1.5,21.8,3.1,27.8,2.4C1628.1,154.2,1627.9,152.6,1627.1,147.9
			z"/>
		<path fill="#683737" d="M1533.6,187.2c0,0-0.7,10.4-1.4,16.7c-0.9,7.5-5.9-5.3-5.9-5.3s-5.6-25.2-5.5-32.8
			c0.1-7.6,8.2-32.1,32.2-42.9c24-10.8,50.6-6.2,63.3-3.8c12.7,2.4,22.9,1.8,28.7-0.5c5.9-2.4,16.9-10.4,16.9-10.4
			s-4.8,26-27.6,33.5c-22.8,7.5-47.4-6.6-73.8,4.1C1534,156.5,1533.4,179.4,1533.6,187.2z"/>
		<path fill="#512424" d="M1603.4,138c-30.6-5.6-52.9-6.8-68.5,14c-15.6,20.8-2.7,51.8-2.7,51.8l0,0c0.8-7.8,1.4-16.7,1.4-16.7
			c-0.1-7.8,0.6-24.7,27-35.4c26.4-10.7,49.9,2.1,72.7-5.4c9.3-3,16.4-13.8,20.6-20C1637.5,134.3,1626.3,142.2,1603.4,138z"/>
		<path fill="#0D151E" d="M1504.5,493.7"/>
		<path fill="#F4B19A" d="M1419.9,366.6c0,0-134.2,136.2-115.7,187.2c18.5,51.1,120.8,136.2,122.4,144.3c1.5,8.1,2.3,18.6,10,21.9
			c7.7,3.2,27.4-6.3,33.1-5.5c3.4,0.5,7,1.8,8.8,5.3c3.7,7.4,4.1,19.6,7.3,19.7c4.9,0.1,5-16.4,2-26.6c-2.2-7.4-9.6-10.6-9.6-10.6
			s2.1-2.4,8.7,3.2c6.7,5.7,15.7,30.1,20.4,26.3c5.9-4.8-4.6-30.7-4.6-30.7s9.8,23.2,13.7,19c4.8-5.2-3.2-28.7-10.5-35.5
			c-4.8-4.5-16.2-8.3-16.2-8.3s12.9-2.2,17.4,0.1c5.2,2.6,6.6,15.2,11.1,11.3c5.6-4.9-2.4-19.8-9.6-23.5c-6.4-3.3-65.1,8.1-65.1,8.1
			s-74.7-120.8-73.1-133.8c1.5-13,48-90.7,48-90.7L1419.9,366.6z"/>
		<g>
			<path fill="#CC766A" d="M1503.2,704.2c-0.9-1.9-2-3.7-3.2-5.4c-1.2-1.7-2.5-3.3-4.1-4.7c-0.4-0.3-0.8-0.6-1.2-0.9l-0.6-0.4
				c-0.2-0.1-0.4-0.3-0.6-0.4c-0.9-0.5-1.8-1-2.7-1.5c-0.9-0.5-1.9-0.9-2.8-1.4c-0.5-0.2-0.9-0.4-1.4-0.6c-0.5-0.2-1-0.4-1.4-0.5
				l0,0c-0.8-0.2-1.2-1-1-1.8c0.2-0.8,1-1.2,1.8-1c0,0,0.1,0,0.1,0c0.6,0.2,1.1,0.4,1.6,0.7c0.5,0.2,1,0.5,1.5,0.7
				c1,0.5,1.9,1,2.9,1.6c0.9,0.6,1.9,1.1,2.8,1.8c0.4,0.3,0.9,0.7,1.4,1c0.4,0.4,0.9,0.7,1.3,1.2c1.6,1.6,2.9,3.4,4,5.2
				c1.1,1.9,2.1,3.8,3,5.8c0.1,0.3,0,0.7-0.4,0.9C1503.8,704.7,1503.4,704.5,1503.2,704.2L1503.2,704.2z"/>
		</g>
		<path fill="#2EBFFF" d="M1686.9,335.5l43.6,93c0,0-3.1-83.3,3.6-85.3c9.3-2.7,55.9,6.2,55.8,14.4c-0.2,24.3,19.3,195.4-44,195.8
			c-47.1,0.3-53.2-81.9-53.2-81.9L1686.9,335.5z"/>
		<path fill="#118BEF" d="M1709.3,529.4c-10.6-16-15-37.1-21.1-62.4l2-95.7C1701.7,426.8,1708.6,479.7,1709.3,529.4z"/>
		<path fill="#2EBFFF" d="M1608.2,301.2c0,0,51.3,114.3,51.3,183.8c0,69.5,11.9,261.9,20.4,276.8c8.5,14.9,38.4,6.6,38.4,6.6
			s-21.2-161-20.2-186.6c1-25.6-2.4-133.9-4.6-166.9s-6.7-79.3-6.7-79.3L1608.2,301.2z"/>
		<path fill="#2EBFFF" d="M1418.3,335.5c0,0-135.5,167.2-121.5,207.5c14,40.2,108,163.6,114.3,159.1c6.3-4.5,32.2-36.7,30.4-46.6
			c-1.8-9.9-65.1-119.9-65.1-119.9l51.2-65.2c0,0,12.8-20.1,8.2-62.4S1418.3,335.5,1418.3,335.5z"/>
		<path fill="#273B51" d="M1598,875.4c0,0,5.4-46.9,15.7-56.3c10.3-9.4,40.2-26.3,40.2-26.3c-22.5,45.9-12,141.6,10.8,255.6
			L1598,875.4z"/>
		<path fill="#F4B19A" d="M1739.7,342.7c0,0-9.8-6.5-12.3-21.8c-2.5-15.2-1.6-24.8-6.1-33c-7.2-13.1,2.5-19.9,12.7,0
			c7.2,14.1,5.6,15.9,5.6,15.9s7.9-33.2,35-23.8c27.1,9.5,25.2,22.4,21.5,34.2c-3.9,12.2-16.4,36.2-16.4,36.2L1739.7,342.7z"/>
		
			<ellipse transform="matrix(0.993 -0.1177 0.1177 0.993 -16.2884 201.8348)" fill="#118BEF" cx="1700.3" cy="238.8" rx="16" ry="21.4"/>
		<path fill="#E08D80" d="M1740.7,300.1c0,0-2.8,15.6,5.3,19.2c5.8,2.6,3.5,7.3,16,9.8c12.5,2.5,15.7-2.9,19.7-2.5
			c3.9,0.4,9.4,0.5,12.9-8.6c4.2-11.2,3.9-14.7,3.9-14.7L1740.7,300.1"/>
		<path fill="none" stroke="#118BEF" stroke-width="7" stroke-miterlimit="10" d="M1734.1,261.4c0,0-3.7,41.3,31.1,46.5
			c35,5.2,50-32.9,50-32.9"/>
		
			<linearGradient id="SVGID_20_" gradientUnits="userSpaceOnUse" x1="3209.2168" y1="207.3716" x2="3488.4253" y2="207.3716" gradientTransform="matrix(-1 0 0 1 5186.2095 0)">
			<stop  offset="0" style="stop-color:#77C6FC"/>
			<stop  offset="0.9733" style="stop-color:#BEE6FF"/>
			<stop  offset="1" style="stop-color:#C0E7FF"/>
		</linearGradient>
		<polygon fill="url(#SVGID_20_)" points="1953.6,108.8 1697.8,217.6 1702.8,260 1977,305.9 		"/>
		
			<ellipse transform="matrix(0.993 -0.1177 0.1177 0.993 -10.7168 232.9933)" fill="#118BEF" cx="1966.7" cy="207.2" rx="14.7" ry="99.2"/>
		<path fill="#F4B19A" d="M1783.8,323.4c-4-0.6-2.1-10.5-2.1-10.5s-3.2,12.3-10,11.9c-6.8-0.4-3.6-11.9-3.6-11.9s-2.5,11.6-9.5,10.2
			c-7-1.4-4.1-13.2-4.1-13.2s-4.3,8.8-10,5.8s-6.1-34.8,6.8-38c12.9-3.2,33.2-1,41.2,7.2c8,8.2,5.6,13.3,2.3,23.5
			C1791.5,318.6,1788.8,324.2,1783.8,323.4z"/>
		<g>
			<g>
				<path fill="#CC766A" d="M1753.8,311.5l4.4-29.4c0.2-1,1.1-1.8,2.2-1.6c1,0.2,1.8,1.1,1.6,2.2c0,0.1,0,0.1,0,0.2l-7.3,28.9
					c-0.1,0.2-0.3,0.4-0.5,0.3C1753.9,311.9,1753.7,311.7,1753.8,311.5z"/>
			</g>
		</g>
		<g>
			<g>
				<path fill="#CC766A" d="M1767.1,314.9l4.3-30.3c0.1-1,1.1-1.8,2.1-1.6c1,0.1,1.8,1.1,1.6,2.1c0,0.1,0,0.1,0,0.2l-6.8,29.8
					c-0.1,0.3-0.4,0.5-0.7,0.5C1767.3,315.5,1767.1,315.2,1767.1,314.9z"/>
			</g>
		</g>
		<g>
			<g>
				<path fill="#CC766A" d="M1780.6,316.5l3.6-29c0.1-1,1.1-1.8,2.1-1.7c1,0.1,1.8,1.1,1.7,2.1c0,0.1,0,0.1,0,0.2l-6.4,28.4
					c-0.1,0.2-0.3,0.4-0.5,0.3C1780.7,317,1780.6,316.8,1780.6,316.5z"/>
			</g>
		</g>
		<g>
			<path fill="#66CCFF" d="M2016.2,145.3c0.9,0,1.8-0.2,2.7-0.5l46.2-18.6c3.7-1.5,5.4-5.6,4-9.3c-1.5-3.7-5.6-5.4-9.3-4l-46.2,18.6
				c-3.7,1.5-5.4,5.6-4,9.3C2010.7,143.6,2013.4,145.3,2016.2,145.3z"/>
		</g>
		<g>
			<path fill="#66CCFF" d="M2036.7,223.7c0.1,0,0.3,0,0.4,0l73.7-4.5c3.9-0.2,6.9-3.6,6.7-7.6c-0.2-3.9-3.6-7-7.6-6.7l-73.7,4.5
				c-3.9,0.2-6.9,3.6-6.7,7.6C2029.8,220.7,2033,223.7,2036.7,223.7z"/>
		</g>
		<g>
			<path fill="#66CCFF" d="M2081.1,320.8c2.9,0,5.7-1.8,6.7-4.8c1.3-3.7-0.6-7.8-4.3-9.1l-45-16c-3.7-1.3-7.8,0.6-9.1,4.3
				c-1.3,3.7,0.6,7.8,4.3,9.1l45,16C2079.5,320.7,2080.3,320.8,2081.1,320.8z"/>
		</g>
		<path fill="#D1867C" d="M1513,197.2c1.3-0.2,2.5-0.1,3.8,0.1c1.3,0.3,2.6,0.7,3.7,1.5c0.6,0.4,1.2,0.9,1.6,1.4
			c0.4,0.4,0.9,0.9,1.3,1.4c0.4,0.5,0.8,1.1,1.1,1.7c0.2,0.3,0.3,0.7,0.4,1.1c0.1,0.2,0.1,0.4,0.2,0.7c0,0.1,0,0.3,0,0.4
			c0,0.1,0,0.2,0,0.3c0,0.1,0,0.1-0.1,0.5l0,0l0,0.1c-0.3,0.9-1.2,1.4-2,1.1c-0.8-0.2-1.3-1-1.2-1.8c0.1-0.7,0.1-1.7,0.1-2.5
			c0-0.9-0.1-1.7-0.3-2.6c-0.3-1.7-0.9-3.4-1.8-4.9c-0.9-1.5-2.2-2.7-3.7-3.7c-1.5-0.9-3.3-1.6-5.1-2c-0.2,0-0.3-0.2-0.3-0.4
			c0-0.2,0.2-0.3,0.4-0.3c1.9,0.2,3.8,0.6,5.6,1.5c1.8,0.9,3.4,2.1,4.7,3.7c1.3,1.6,2.2,3.4,2.8,5.4c0.3,1,0.5,2,0.7,3
			c0.1,1,0.2,2,0.2,3.1l-3.2-0.6l0,0c-0.1,0.3,0,0.2-0.1,0.3c0,0,0,0,0,0c0,0,0,0,0,0l-0.1-0.2c-0.1-0.2-0.2-0.4-0.3-0.6
			c-0.2-0.4-0.5-0.9-0.8-1.3c-0.6-0.9-1.2-1.9-1.9-2.5c-1.4-1.4-3.6-2.3-5.8-2.9l0,0c-0.3-0.1-0.4-0.3-0.4-0.6
			C1512.7,197.4,1512.8,197.2,1513,197.2z"/>
	</g>
</g>
<g id="girl">
	<g>
		<path fill="#0D131C" d="M632.5,1108.9c114.9,0,190-40.1,187-85.3c-2.7-39.5-34.6-24.7-41.2-51c-6.6-26.3,4.4-37.6,0-59.3
			c-5.4-26.6-31.7-26-45.4-44.1c-9.8-12.9-7.3-60.6-7.3-60.6l-188.9,20.2c0,0,5,27.9-3.1,41.4c-10,16.5-40,21.8-46.6,42.3
			c-6.6,20.6,4.9,38.7,0,54.3c-4.9,15.6-38.4,29.9-36.2,64.2C452.8,1063.9,496.8,1108.9,632.5,1108.9z"/>
		<polygon fill="#0D131C" points="466.4,1252.7 796.6,1252.7 644.1,1359.4 		"/>
		<path fill="#0D131C" d="M647,724.2c0,0,12.1-8,29.8-2.4c17.7,5.6,37.1,35,45.3,66.1c8.2,31.1,4.4,75.8-26.1,111
			c-25.4,29.3-44.3,34.2-68.5,34.5c-22.4,0.2-49.5-11.6-70-40.9c-18.4-26.3-27.6-67.5-15.5-103.4c12.1-35.8,35.9-70.7,65.2-72
			C636.7,715.9,647,724.2,647,724.2z"/>
		<path fill="#118BEF" d="M532,965.1c-20.4,20.8-45,134.2-45,134.2l67,25.5L532,965.1z"/>
		<path fill="#118BEF" d="M723.6,961.7l-10.3,163.2l66.6-26.5C779.9,1098.4,741.3,965.8,723.6,961.7z"/>
		<linearGradient id="SVGID_21_" gradientUnits="userSpaceOnUse" x1="634.1428" y1="1161.8684" x2="629.8556" y2="958.6797">
			<stop  offset="0" style="stop-color:#77C6FC"/>
			<stop  offset="0.9733" style="stop-color:#BEE6FF"/>
			<stop  offset="1" style="stop-color:#C0E7FF"/>
		</linearGradient>
		<path fill="url(#SVGID_21_)" d="M585.4,949.1l-53.5,16c0,0-5.2,47.9,0,81.2c5.2,33.2,22.1,78.6,22.1,78.6h159.3
			c0,0,16.8-47.5,19.2-76c2.6-30.9-8.9-87.2-8.9-87.2l-51.5-12.1L585.4,949.1z"/>
		<path fill="#F4B19A" d="M599.8,892.6c0,0,6.8,42.4-2.1,50.2c-7.1,6.1-13.6,6.8-13.6,6.8s13.1,27.8,41.9,27.9
			c33.2,0.1,45.1-28,45.1-28s-7.6-0.3-15.1-7.2c-9.5-8.7-4.9-49.7-4.9-49.7H599.8z"/>
		<path fill="#DB8F7F" d="M602.2,921.1c0,0,5.8,18.5,22.9,18.6c17.1,0.1,25.3-15.9,25.3-15.9L602.2,921.1z"/>
		<path fill="#F4B19A" d="M626,930.7c23.3,1.3,43.8-21.5,51.8-34.3c5.3-8.5,14.7-64.9,13.3-77.6c-1.4-12.8-13.2-66.5-65.2-63.3
			c-52,3.2-52.4,44.6-54.6,63.3c-2.3,18.7,2.3,65.7,9.2,76.8C591.3,912.6,606,929.6,626,930.7z"/>
		<path fill="#F4B19A" d="M571.4,841.9c0,0-17.2-10.5-17.4,3.6c-0.2,16.7,21.7,29,21.7,29L571.4,841.9z"/>
		<path fill="#F4B19A" d="M683.3,872.7c0,0,24-12.8,24-25.9c0-13.1-18-6.1-18-6.1L683.3,872.7z"/>
		<path fill="#DB8F7F" d="M571.4,841.9c0,0,35.7,5.6,57.6-5.5c21.9-11.1,33.6-26.2,33.6-26.2s6.3,17.9,13.7,24.2
			c7.4,6.3,13.6,6.3,13.6,6.3l-15.3-75.9L571.4,841.9"/>
		<path fill="#0D131C" d="M666.7,785.6c0,0-18.7,32.4-39.8,42.7c-21.1,10.4-55.5,13.6-55.5,13.6s-25.8-52.5-6.8-67.1
			c19-14.7,55.5-34.5,84-25s58.7,19.4,58.7,43.6c0,16.8-17.5,47.4-17.5,47.4s-5.9,0-12.8-14.2C670.2,812.3,666.7,785.6,666.7,785.6z
			"/>
		<g>
			<linearGradient id="SVGID_22_" gradientUnits="userSpaceOnUse" x1="449.1824" y1="1176.0404" x2="801.6091" y2="1176.0404">
				<stop  offset="0" style="stop-color:#4C5F7F"/>
				<stop  offset="0.1085" style="stop-color:#465774"/>
				<stop  offset="0.4802" style="stop-color:#343F53"/>
				<stop  offset="0.7907" style="stop-color:#29303F"/>
				<stop  offset="1" style="stop-color:#252B38"/>
			</linearGradient>
			<polygon fill="url(#SVGID_22_)" points="801.6,1087.3 449.2,1087.3 480.7,1264.8 770.5,1264.8 			"/>
			
				<ellipse transform="matrix(0.6585 -0.7526 0.7526 0.6585 -680.3836 876.3542)" fill="#2EBFFF" cx="625.4" cy="1187.8" rx="11" ry="11"/>
			<g>
				<path fill="#2EBFFF" d="M625.4,1210c-13.1,0-23.7-10.6-23.7-23.7c0-1.5,1.2-2.6,2.6-2.6c1.5,0,2.6,1.2,2.6,2.6
					c0,10.2,8.3,18.4,18.4,18.4s18.4-8.3,18.4-18.4c0-1.5,1.2-2.6,2.6-2.6c1.5,0,2.6,1.2,2.6,2.6
					C649.1,1199.4,638.5,1210,625.4,1210z"/>
			</g>
		</g>
		<path fill="#F4B19A" d="M618.3,1397c-26.5,8.5-69.9,12.3-109.6,13.2c-39.7,0.9-70.9-6.6-72.8-19.8s74.6-21.7,74.6-21.7
			s37.3-31.2,56.4-21.7C586.2,1356.3,618.3,1397,618.3,1397z"/>
		<linearGradient id="SVGID_23_" gradientUnits="userSpaceOnUse" x1="435.9202" y1="1377.5693" x2="594.826" y2="1377.5693">
			<stop  offset="0" style="stop-color:#252B38"/>
			<stop  offset="0.2093" style="stop-color:#29303F"/>
			<stop  offset="0.5198" style="stop-color:#343F53"/>
			<stop  offset="0.8915" style="stop-color:#465774"/>
			<stop  offset="1" style="stop-color:#4C5F7F"/>
		</linearGradient>
		<path fill="url(#SVGID_23_)" d="M594.8,1370.1L594.8,1370.1c-9.3-9.7-19.7-19.2-27.8-23.2c-19.2-9.4-56.4,21.7-56.4,21.7
			s-76.5,8.5-74.6,21.7c1.6,11.2,24.1,18.3,55,19.7c0.5-2,5-16.3,26-26.3C539.5,1372.9,594.8,1370.1,594.8,1370.1z"/>
		<path fill="#0D131C" d="M618.3,1351c0,0,71.1-34.4,98-57.9c26.9-23.5,78-49.8,99.9-55.5c21.9-5.7,73-19.9,92.5,9.5
			c25.5,38.4-21.3,88.7-61.7,110.4c-44.1,23.6-139.1,26.2-165.9,30.4c-26.8,4.2-62.9,9.1-62.9,9.1V1351z"/>
		<g>
			<g>
				<path fill="#FFFFFF" d="M634.9,1341.7c6.4-3,12.8-6.1,19.2-9.2c6.4-3.1,12.7-6.3,19-9.6c12.6-6.5,25.1-13.3,36.7-21.5
					c11.7-8,23.2-16.5,34.7-24.8c5.8-4.1,11.6-8.3,17.4-12.4c5.9-4,11.8-8,17.7-11.9c0.2-0.1,0.4-0.1,0.5,0.1
					c0.1,0.2,0.1,0.4-0.1,0.5c-5.8,4.1-11.6,8.3-17.3,12.5l-17.1,12.8c-11.4,8.6-22.8,17.1-34.4,25.3c-5.8,4.1-11.9,8-18.1,11.5
					c-6.2,3.5-12.5,6.9-18.9,10.1c-6.4,3.2-12.8,6.3-19.2,9.3c-6.5,3-13,5.9-19.5,8.7c-0.4,0.2-0.9,0-1.1-0.4
					C634.3,1342.4,634.5,1341.9,634.9,1341.7L634.9,1341.7z"/>
			</g>
		</g>
		<path fill="#0D131C" d="M746.6,1376.5v44.1c-111.4-5-264.9-22.7-336.7-75.5c-71.4-52.5-66.6-87-53.3-107.8
			c13.2-20.8,59.4-24.7,88.8-15.1c29.4,9.6,126.7,93.2,183.1,113.7C666.4,1349.7,746.6,1376.5,746.6,1376.5z"/>
		<g>
			<g>
				<path fill="#FFFFFF" d="M746.4,1377.2c-20.9-5.9-41.7-12.3-62.3-19.3c-20.6-7-41-14.4-61.1-23c-10-4.3-19.9-8.9-29.5-14.2
					c-9.5-5.3-18.8-10.9-28-16.9c-9.1-5.9-18.1-12.1-26.9-18.5c-8.8-6.4-17.4-13-25.8-19.9c-0.1-0.1-0.2-0.3,0-0.5
					c0.1-0.1,0.3-0.2,0.5,0l0,0c8.5,6.7,17.3,13.2,26.1,19.4c8.9,6.2,17.9,12.2,27.1,18c9.2,5.7,18.6,11.2,28.1,16.3
					c9.6,5,19.4,9.6,29.3,14c19.9,8.7,40.2,16.3,60.7,23.4c20.5,7.1,41.2,13.7,62.1,19.7l0,0c0.4,0.1,0.7,0.6,0.5,1
					C747.2,1377.1,746.8,1377.3,746.4,1377.2z"/>
			</g>
		</g>
		<path fill="#F4B19A" d="M746.6,1376.5c0,0,3-19.2,19.1-23c16.1-3.8,32.1,21.3,47.2,23c15.1,1.6,77.5-2.2,81.3,9.2
			c3.8,11.3-53.8,27.8-87.7,32.5c-33.8,4.7-59.9,2.4-59.9,2.4V1376.5z"/>
		<linearGradient id="SVGID_24_" gradientUnits="userSpaceOnUse" x1="746.5989" y1="1380.556" x2="894.3808" y2="1380.556">
			<stop  offset="0" style="stop-color:#252B38"/>
			<stop  offset="0.2093" style="stop-color:#29303F"/>
			<stop  offset="0.5198" style="stop-color:#343F53"/>
			<stop  offset="0.8915" style="stop-color:#465774"/>
			<stop  offset="1" style="stop-color:#4C5F7F"/>
		</linearGradient>
		<path fill="url(#SVGID_24_)" d="M852.9,1408l21.4-7.2c12.9-5.1,21.5-10.6,19.9-15.2c-3.8-11.3-66.1-7.6-81.3-9.2
			c-15.1-1.6-31.2-26.7-47.2-23c-16.1,3.8-19.1,23-19.1,23s78.3,15,90.6,22C849.5,1405.4,852.9,1408,852.9,1408z"/>
		<path fill="#FFFFFF" d="M607.5,902.2h42.9c0,0-7,14.3-21.4,14.3C614.5,916.6,607.5,902.2,607.5,902.2z"/>
		<g>
			<g>
				<path fill="#CE7F72" d="M558.3,846.7c2.1-0.5,4.4-0.5,6.6,0.1c1.1,0.3,2.2,0.7,3.1,1.4c1,0.7,1.9,1.5,2.5,2.4c0.7,1,1.2,2,1.6,3
					c0.4,1,0.8,2.1,1,3.2c0.3,1.1,0.5,2.2,0.7,3.3c0.2,1.1,0.3,2.2,0.4,3.4c0,0.9-0.6,1.6-1.5,1.7c-0.7,0-1.3-0.4-1.5-1l-0.1-0.3
					c0-0.2-0.1-0.4-0.1-0.7c-0.1-0.2-0.1-0.5-0.2-0.7c-0.2-0.5-0.4-1-0.6-1.5c-0.5-0.9-1-1.8-1.8-2.6c-0.3-0.4-0.8-0.7-1.2-1.1
					c-0.4-0.3-0.9-0.7-1.4-0.9c-0.9-0.6-2-0.9-3.1-1.2l0,0c-0.2-0.1-0.3-0.2-0.3-0.4c0-0.2,0.2-0.3,0.4-0.3c1.2,0.1,2.4,0.2,3.6,0.7
					c0.6,0.2,1.1,0.5,1.7,0.7c0.5,0.3,1.1,0.6,1.6,1c1,0.8,1.9,1.7,2.7,2.7c0.4,0.5,0.7,1.1,1,1.6c0.2,0.3,0.3,0.6,0.4,0.9
					c0.1,0.3,0.3,0.6,0.4,1v0l-3.2,0.4c0.1-1,0-2,0-3c0-1-0.1-2-0.3-3.1c-0.1-1-0.3-2-0.6-3c-0.3-1-0.6-1.9-1.1-2.7
					c-0.5-0.9-1.1-1.6-1.9-2.2c-0.7-0.6-1.6-1.1-2.6-1.5c-1.9-0.7-4-0.9-6.1-0.7l0,0c-0.2,0-0.3-0.1-0.3-0.2
					C558.1,846.9,558.2,846.8,558.3,846.7z"/>
			</g>
		</g>
		<g>
			<g>
				<path fill="#CE7F72" d="M702.4,846.1c-2.1-0.2-4.2,0-6.1,0.7c-0.9,0.4-1.8,0.8-2.6,1.5c-0.7,0.6-1.4,1.3-1.9,2.2
					c-0.5,0.8-0.9,1.8-1.1,2.7c-0.3,1-0.5,2-0.6,3c-0.1,1-0.2,2-0.3,3.1c0,1-0.1,2.1,0,3l-3.2-0.4l0,0c0.1-0.4,0.2-0.7,0.4-1
					c0.1-0.3,0.3-0.6,0.4-0.9c0.3-0.6,0.7-1.1,1-1.6c0.8-1,1.6-2,2.7-2.7c0.5-0.4,1-0.7,1.6-1c0.6-0.3,1.1-0.6,1.7-0.7
					c1.2-0.4,2.4-0.6,3.6-0.7c0.2,0,0.4,0.1,0.4,0.3c0,0.2-0.1,0.3-0.3,0.4l0,0c-1.1,0.3-2.2,0.6-3.1,1.2c-0.5,0.2-0.9,0.6-1.4,0.9
					c-0.4,0.4-0.8,0.7-1.2,1.1c-0.7,0.8-1.3,1.7-1.8,2.6c-0.2,0.5-0.4,1-0.6,1.5c-0.1,0.2-0.2,0.5-0.2,0.7c-0.1,0.2-0.1,0.5-0.1,0.7
					h0l-0.1,0.3c-0.3,0.8-1.3,1.2-2.1,0.8c-0.6-0.3-1-0.9-1-1.5c0.1-1.2,0.2-2.2,0.4-3.4c0.2-1.1,0.4-2.2,0.7-3.3
					c0.3-1.1,0.6-2.2,1-3.2c0.4-1.1,1-2.1,1.6-3c0.7-1,1.6-1.8,2.5-2.4c1-0.7,2-1.1,3.1-1.4c2.2-0.6,4.4-0.5,6.6-0.1
					c0.2,0,0.2,0.2,0.2,0.3C702.7,846.1,702.5,846.2,702.4,846.1L702.4,846.1z"/>
			</g>
		</g>
	</g>
</g>
</svg>
