<?xml version="1.0" encoding="utf-8"?>
<!-- Generator: Adobe Illustrator 24.3.0, SVG Export Plug-In . SVG Version: 6.00 Build 0)  -->
<svg version="1.1" id="Layer_1" xmlns="http://www.w3.org/2000/svg" xmlns:xlink="http://www.w3.org/1999/xlink" x="0px" y="0px"
	 viewBox="0 0 526.7 405.7" enable-background="new 0 0 526.7 405.7" xml:space="preserve">
<g>
	<path fill-rule="evenodd" clip-rule="evenodd" fill="#C5E5FF" d="M86.3,254.7c5.9-22.7,2.2-48.3-9-68.8
		C71.7,208.6,74.7,234.3,86.3,254.7L86.3,254.7z"/>
	<path fill-rule="evenodd" clip-rule="evenodd" fill="#C5E5FF" d="M106.7,278.1c11.9-20.2,15.3-45.9,10.2-68.7
		C105.4,229.7,101.2,255.2,106.7,278.1L106.7,278.1z"/>
	<path fill-rule="evenodd" clip-rule="evenodd" fill="#C5E5FF" d="M123.4,304.7c11.8-20,15.1-45.3,10.1-67.8
		C122.1,256.9,118,282.1,123.4,304.7L123.4,304.7z"/>
	<path fill-rule="evenodd" clip-rule="evenodd" fill="#C5E5FF" d="M134.8,327.2c11.8-20,15.1-45.3,10.1-67.8
		C133.5,279.5,129.4,304.7,134.8,327.2L134.8,327.2z"/>
	<path fill-rule="evenodd" clip-rule="evenodd" fill="#C5E5FF" d="M72,244.7c-21.1-9.7-38.3-28.5-47-49.9
		C45.7,204.8,63.5,223.1,72,244.7L72,244.7z"/>
	<path fill-rule="evenodd" clip-rule="evenodd" fill="#C5E5FF" d="M76.1,252.6c-23.1,1.3-47.2-7.2-64.9-22
		C34.2,229.7,58.6,237.5,76.1,252.6L76.1,252.6z"/>
	<path fill-rule="evenodd" clip-rule="evenodd" fill="#ACD3F9" d="M100.2,279.7c-23.1,1.3-47.2-7.2-64.9-22
		C58.3,256.7,82.6,264.5,100.2,279.7L100.2,279.7z"/>
	<path fill-rule="evenodd" clip-rule="evenodd" fill="#C5E5FF" d="M120.3,310.4c-23.1,1.3-47.2-7.2-64.9-22
		C78.4,287.5,102.7,295.3,120.3,310.4L120.3,310.4z"/>
	<path fill-rule="evenodd" clip-rule="evenodd" fill="#C5E5FF" d="M130.5,333.7c-23.1,1.3-47.2-7.2-64.9-22
		C88.6,310.7,112.9,318.5,130.5,333.7L130.5,333.7z"/>
	<path fill-rule="evenodd" clip-rule="evenodd" fill="#F9EFF4" d="M133.2,334.1c-3.2-7.7-6.7-15.1-10.7-22.4
		c-7.4-2.4-14.6-5.3-21.4-8.5c-2.5-1.2-6.4-3-8.6-4.5c1.6,0.6,3.3,1.4,4.8,2.1c7.8,3.5,16,6.7,24.3,9.4c-5.8-10.5-12.3-20.5-19.4-30
		c-7.1-2.4-14-5.1-20.6-8.2c-2.5-1.2-6.4-3-8.6-4.5c1.6,0.6,3.3,1.4,4.8,2.1c7.5,3.4,15.3,6.4,23.2,9c-6.4-8.5-13.2-16.7-20.3-24.5
		c-7.4-2.4-14.5-5.3-21.3-8.5c-2.5-1.2-6.4-3-8.6-4.5c1.6,0.6,3.3,1.4,4.8,2.1c7.6,3.4,15.5,6.5,23.5,9.1
		c-6-6.6-12.2-12.9-18.6-18.9c-2.1-2-4.5-4.1-6.4-6.3c3.7,2.5,9,7.5,12.5,10.7c6.4,5.9,12.6,12.2,18.6,18.7c0-8.9-0.6-17.7-1.6-26.4
		c-0.2-1.7-0.5-3.5-0.6-5.3c0.7,2.5,1.3,6.8,1.6,9.5c1,7.6,1.5,15.4,1.6,23.2c6.7,7.3,13.1,15.1,19.1,23.2
		c1.5-8.9,2.4-17.8,2.9-26.6c0.1-1.7,0.1-3.6,0.3-5.3c0.3,2.6,0.1,6.9,0,9.7c-0.3,7.7-1,15.6-2.3,23.5c6,8.1,11.5,16.7,16.6,25.5
		c1.4-8.6,2.3-17.3,2.8-25.9c0.1-1.7,0.1-3.6,0.3-5.3c0.3,2.6,0.1,6.9,0,9.7c-0.3,7.6-1,15.3-2.2,23c3.9,7,7.6,14.1,10.8,21.4
		c1.3-8.2,2.2-16.4,2.6-24.5c0.1-1.7,0.1-3.6,0.3-5.3c0.3,2.6,0.1,6.9,0,9.7c-0.3,7.2-1,14.6-2.1,22c4.9,11.4,9,23.3,11.9,35.7
		c0.2,1.1-0.3,2-1.1,2.1c-0.8,0.1-1.7-0.7-2-1.8c-2.7-11.7-6.3-22.8-10.7-33.6c-7.1-2.4-14.1-5.1-20.7-8.2c-2.5-1.2-6.4-3-8.6-4.5
		c1.6,0.6,3.3,1.4,4.8,2.1C117,328.3,125,331.4,133.2,334.1z"/>
</g>
<g>
	<path fill-rule="evenodd" clip-rule="evenodd" fill="#C5E5FF" d="M385.6,95.8c-13.8-23.4-17.7-53.1-11.8-79.6
		C387.1,39.8,392,69.4,385.6,95.8L385.6,95.8z"/>
	<path fill-rule="evenodd" clip-rule="evenodd" fill="#C5E5FF" d="M370.2,128.3c-19.7-18.7-31.7-46.2-33.2-73.2
		C356.3,74,369.1,101.1,370.2,128.3L370.2,128.3z"/>
	<path fill-rule="evenodd" clip-rule="evenodd" fill="#C5E5FF" d="M360.1,163.2c-19.5-18.5-31.3-45.6-32.8-72.3
		C346.3,109.7,359,136.4,360.1,163.2L360.1,163.2z"/>
	<path fill-rule="evenodd" clip-rule="evenodd" fill="#C5E5FF" d="M354.5,192c-19.5-18.5-31.3-45.6-32.8-72.3
		C340.8,138.4,353.4,165.2,354.5,192L354.5,192z"/>
	<path fill-rule="evenodd" clip-rule="evenodd" fill="#C5E5FF" d="M398.3,80.1c20.4-17.5,33.6-43.9,36.6-70.5
		C414.9,27.3,400.8,53.4,398.3,80.1L398.3,80.1z"/>
	<path fill-rule="evenodd" clip-rule="evenodd" fill="#C5E5FF" d="M396.2,90.3c26.2-5.9,50.3-23.1,65.3-45.2
		C435.6,51.4,410.9,67.8,396.2,90.3L396.2,90.3z"/>
	<path fill-rule="evenodd" clip-rule="evenodd" fill="#ACD3F9" d="M378,128c26.2-5.8,50.3-23.1,65.3-45.2
		C417.3,89.1,392.7,105.6,378,128L378,128z"/>
	<path fill-rule="evenodd" clip-rule="evenodd" fill="#C5E5FF" d="M365.4,168.7c26.2-5.9,50.3-23.1,65.3-45.2
		C404.7,129.8,380.1,146.2,365.4,168.7L365.4,168.7z"/>
	<path fill-rule="evenodd" clip-rule="evenodd" fill="#C5E5FF" d="M361.4,197.8c26.2-5.8,50.3-23.1,65.3-45.2
		C400.8,158.9,376.1,175.3,361.4,197.8L361.4,197.8z"/>
	<path fill-rule="evenodd" clip-rule="evenodd" fill="#F9EFF4" d="M358.5,199.1c1.1-9.6,2.7-19,4.8-28.3
		c7.5-5.1,14.5-10.5,21.1-16.2c2.4-2.1,6.2-5.4,8.2-7.7c-1.6,1.2-3.2,2.6-4.7,3.9c-7.6,6.4-15.7,12.6-24.1,18.2
		c3.1-13.5,7.2-26.7,12.1-39.6c7.2-4.9,14-10.1,20.3-15.7c2.4-2.1,6.2-5.4,8.2-7.7c-1.6,1.2-3.2,2.6-4.7,3.9c-7.3,6.1-15,12-23,17.4
		c4.4-11.5,9.4-22.8,14.8-33.7c7.4-5,14.5-10.5,21.1-16.2c2.4-2.1,6.2-5.4,8.2-7.7c-1.6,1.2-3.2,2.6-4.7,3.9
		c-7.4,6.2-15.2,12.1-23.3,17.6c4.6-9.2,9.6-18.2,14.7-27c1.7-2.9,3.7-6,5.2-9c-3.3,4-7.7,11.2-10.6,15.9
		c-5.2,8.6-10.2,17.6-14.8,26.8c-2.8-9.9-5-19.9-6.6-29.9c-0.3-1.9-0.6-4.1-1-6c0,3,0.7,8,1.2,11.2c1.3,8.7,3.2,17.6,5.6,26.4
		c-5.1,10.3-9.7,20.9-13.9,31.9c-4.5-9.4-8.4-19.1-11.7-28.7c-0.6-1.9-1.3-3.9-2-5.8c0.5,3,2,7.7,3,10.8c2.7,8.5,6.1,17,10,25.4
		c-4.1,11-7.5,22.2-10.4,33.7c-4.3-9.2-8.1-18.5-11.3-27.9c-0.6-1.9-1.3-3.9-2-5.8c0.5,3,2,7.7,3,10.8c2.7,8.3,6,16.7,9.8,24.9
		c-2.2,9-3.9,18.1-5.2,27.3c-4-8.7-7.6-17.6-10.6-26.5c-0.6-1.9-1.3-3.9-2-5.8c0.5,3,2,7.7,3,10.8c2.6,8,5.7,16,9.4,23.9
		c-1.8,14.3-2.6,28.9-1.9,43.5c0.1,1.3,0.9,2.2,1.9,2c1-0.2,1.7-1.3,1.7-2.6c-0.8-13.8-0.2-27.4,1.2-40.8c7.2-4.9,14-10.2,20.4-15.7
		c2.4-2.1,6.2-5.4,8.2-7.7c-1.6,1.2-3.2,2.6-4.7,3.9C374.7,187.6,366.7,193.6,358.5,199.1z"/>
</g>
<g>
	<path fill-rule="evenodd" clip-rule="evenodd" fill="#C5E5FF" d="M365.6,338.8c69.2,1.9,120.3-74.6,82-96.5
		c29.6-4.4,42.8-58.8,8.3-65.2c0,0,6.3-14.5,23.5-28.3c17.2-13.8,5.9-68.7-42-38.4c-47.9,30.4-38.5,54.1-38.5,54.1
		c-34-16.5-51.8,25.1-44.4,37.6C315.4,176.3,281.6,284.1,365.6,338.8L365.6,338.8z"/>
	<path fill-rule="evenodd" clip-rule="evenodd" fill="#F9EFF4" d="M365.4,365.1c0.3-10.3,1.1-20.4,2.4-30.4
		c1.3-10.1,3-20.1,5.2-29.9c21.3-9.8,40.9-22.7,58.1-36.9c3.3-2.7,8.3-6.8,10.9-9.8c-2.1,1.5-4.3,3.3-6.3,4.9
		c-18.9,15.1-39.6,28.9-62.2,39.2c3.6-16.1,8.4-31.7,14-46.9c19.8-12.1,37.6-26.9,53-42.8c2.9-3,7.5-7.7,9.8-10.9
		c-1.9,1.7-3.9,3.8-5.7,5.6c-16.6,16.7-35.2,32.3-55.9,45c7.7-20.2,17-39.7,27.4-58.4c9.3-6.6,18-13.7,26.2-21.1
		c3.1-2.8,8-7.2,10.5-10.3c-2.1,1.6-4.1,3.5-6.1,5.2c-9.1,8-18.7,15.7-28.8,22.8c9.9-17.5,20.8-34.4,32.1-50.5
		c2.5-3.6,5.5-7.4,7.7-11.2c-4.7,4.8-11.2,13.7-15.5,19.6c-9.9,13.5-19.2,27.7-27.9,42.6c-2.1-12.8-3.3-25.7-3.9-38.5
		c-0.1-2.6-0.2-5.4-0.5-8c-0.4,3.9-0.2,10.4-0.1,14.7c0.4,11.2,1.4,22.7,3.1,34.1c-9.9,17.4-18.9,35.6-26.5,54.5
		c-4.6-20.7-6.7-41.8-7.1-62.4c0-2.6,0-5.4-0.2-8c-0.6,3.9-0.5,10.4-0.5,14.6c0.1,19.3,2.1,39.3,6.6,58.9
		c-5.2,13.3-9.7,26.9-13.4,40.9c-9.3-21.3-15.5-43.7-19.7-65.9c-0.5-2.5-0.9-5.3-1.6-7.8c0.1,3.9,1.2,10.3,2,14.5
		c3.6,20.8,9.6,42.1,18.5,62.4c-5.9,22.8-9.6,46.4-10.5,70.5c0,1.7,1,2.9,2.3,2.8C364.2,368.2,365.3,366.7,365.4,365.1L365.4,365.1z
		"/>
</g>
<rect x="251.9" y="58.3" fill-rule="evenodd" clip-rule="evenodd" fill="#EA8E6E" width="12.6" height="9.2"/>
<path fill-rule="evenodd" clip-rule="evenodd" fill="#FFB699" d="M245.8,48.4c-1,0.5-1.2,2.1-0.5,3.5c0.7,1.3,2.2,2,3.2,1.5
	c1-0.6,1.2-2.1,0.5-3.5C248.2,48.5,246.9,47.9,245.8,48.4L245.8,48.4z"/>
<path fill-rule="evenodd" clip-rule="evenodd" fill="#397BFE" d="M264.6,63.7c0,0-2,0.9-6.5,0.4c-4.6-0.4-6.1-1.2-6.1-1.2l-6.3,2.7
	c-4,2.7-8.5,7.6-8.1,16.4l0,0l2.2,50.9c0,0,11.2,6.5,21.5,5.4c10.2-1.2,11.1-6.7,11.1-6.7l1.5-62.2L264.6,63.7z"/>
<path fill-rule="evenodd" clip-rule="evenodd" fill="#663333" d="M239.7,133l-16.3,113.5l9.9,0.1l38.8-114.2l0,0
	c-0.6,1.5-2.9,5.1-10.9,6C251,139.6,239.7,133,239.7,133L239.7,133z"/>
<path fill-rule="evenodd" clip-rule="evenodd" fill="#522A2A" d="M272.1,132.4L272.1,132.4L272.1,132.4L272.1,132.4z M272.1,132.4
	l15.4,114.2l-9.9-0.1l-19.2-72.8L272.1,132.4z"/>
<path fill-rule="evenodd" clip-rule="evenodd" fill="#FFB699" d="M254.4,33.3c-6,1.3-9.3,8.5-7.7,16.2c1.7,7.6,7.8,12.9,13.7,11.6
	c6-1.3,9.3-8.5,7.7-16.2C266.4,37.3,260.3,32.1,254.4,33.3L254.4,33.3z"/>
<path fill-rule="evenodd" clip-rule="evenodd" d="M254.3,258.6l-18.9-0.4l-4.4-2.1l-0.6,2.1l-7-0.7l-0.1-11l9.9,0.1
	c0,0,13.2,8,18.2,8S254.3,258.6,254.3,258.6L254.3,258.6z"/>
<path fill-rule="evenodd" clip-rule="evenodd" d="M308.5,258.6l-18.9-0.4l-4.4-2.1l-0.6,2.1l-7-0.7l-0.1-11l9.9,0.1
	c0,0,13.2,8,18.2,8S308.5,258.6,308.5,258.6L308.5,258.6z"/>
<path fill-rule="evenodd" clip-rule="evenodd" fill="#232F46" d="M252.1,42.3c0,0,15.7,8,18.3,1.3c2.6-6.7-5.9-14.1-13.7-13.7
	c-7.7,0.4-10.4,7.3-10.4,7.3s-2.8,2.6-2.1,7c0.7,4.4,3.7,8.5,3.7,8.5l0.7-5.4c0,0,2.9-0.2,2.1-2.6C250.2,42.2,252.1,42.3,252.1,42.3
	L252.1,42.3z"/>
<path fill-rule="evenodd" clip-rule="evenodd" fill="#FFB699" d="M267,70.1c-2.4-7.3-6.2-9.3-5.3-6.6c-8.6-7.8-12.6,3.4-0.2,12.3
	L267,70.1z"/>
<path fill-rule="evenodd" clip-rule="evenodd" fill="#2974ED" d="M239.4,107.6l28.7,1.5l1.7-7.7L249.7,98l-2.2-33.1
	c-7.4,2.5-11.4,10.4-9.8,21.6L239.4,107.6z"/>
<path fill-rule="evenodd" clip-rule="evenodd" fill="#2974ED" d="M261.5,75.8l11.5,30.5l10.8,0.4c0,0,2.9-0.2,2.5-6.5
	c-0.5-6.2-12.4-30.6-12.4-30.6l-0.1,8.5l-6.7-7.9L261.5,75.8z"/>
<path fill-rule="evenodd" clip-rule="evenodd" fill="#FFCC99" d="M269.8,101.4c7.4-2.2,11.2,0,8.5,0.7c11.2,2.8,4.1,12.4-10.1,7
	L269.8,101.4z"/>
<g>
	<polygon fill="#397BFE" points="280.5,88.4 273.3,78.3 274,77.8 281.2,87.9 	"/>
</g>
<path fill-rule="evenodd" clip-rule="evenodd" fill="#8CD0FE" d="M149.6,104.4h235.8c5,0,9.1,4,9.1,9v244.9c0,5-4.1,9.1-9.1,9.1
	H149.6c-5,0-9-4.1-9-9.1V113.4C140.6,108.4,144.6,104.4,149.6,104.4L149.6,104.4z"/>
<path fill-rule="evenodd" clip-rule="evenodd" fill="#F9EFF4" d="M158.6,127.3h217.8c4.4,0,7.9,3.6,7.9,8v206.4
	c0,4.3-3.5,7.9-7.9,7.9H158.6c-4.3,0-7.9-3.6-7.9-7.9V135.3C150.7,130.9,154.3,127.3,158.6,127.3L158.6,127.3z"/>
<path fill-rule="evenodd" clip-rule="evenodd" fill="#8CD0FE" d="M200,203.7c14.9,0,27.1-12.2,27.1-27.1c0-15-12.2-27.2-27.1-27.2
	c-15,0-27.2,12.2-27.2,27.2C172.8,191.5,185,203.7,200,203.7L200,203.7z"/>
<rect x="240.4" y="157.7" fill-rule="evenodd" clip-rule="evenodd" fill="#8CD0FE" width="123.2" height="14.6"/>
<rect x="240.4" y="179.1" fill-rule="evenodd" clip-rule="evenodd" fill="#8CD0FE" width="123.2" height="14.6"/>
<path fill-rule="evenodd" clip-rule="evenodd" fill="#397BFE" d="M90.8,332.9H182c2.7,0,4.9,2.2,4.9,5v45.6c0,2.7-2.2,4.9-4.9,4.9
	H90.8c-2.7,0-5-2.2-5-4.9v-45.6C85.8,335.1,88,332.9,90.8,332.9L90.8,332.9z"/>
<path fill-rule="evenodd" clip-rule="evenodd" fill="#8CD0FE" d="M126,198.4h282.9c5.2,0,9.5,4.3,9.5,9.5v37.9
	c0,5.2-4.3,9.5-9.5,9.5H126c-5.2,0-9.5-4.3-9.5-9.5v-37.9C116.5,202.7,120.7,198.4,126,198.4L126,198.4z"/>
<polygon fill-rule="evenodd" clip-rule="evenodd" fill="#F1A907" points="185,209.5 191.7,219.6 203.3,222.8 195.7,232.2 
	196.4,244.3 185,240 173.7,244.3 174.2,232.2 166.7,222.8 178.4,219.6 "/>
<polygon fill-rule="evenodd" clip-rule="evenodd" fill="#F1A907" points="228.6,209.5 235.2,219.6 246.9,222.8 239.4,232.2 
	239.9,244.3 228.6,240 217.2,244.3 217.9,232.2 210.3,222.8 221.9,219.6 "/>
<polygon fill-rule="evenodd" clip-rule="evenodd" fill="#F1A907" points="272.2,209.5 278.8,219.6 290.5,222.8 282.9,232.2 
	283.5,244.3 272.2,240 260.8,244.3 261.5,232.2 253.8,222.8 265.5,219.6 "/>
<polygon fill-rule="evenodd" clip-rule="evenodd" fill="#F1A907" points="315.8,209.5 322.4,219.6 334.1,222.8 326.5,232.2 
	327.1,244.3 315.8,240 304.5,244.3 305.1,232.2 297.4,222.8 309.1,219.6 "/>
<polygon fill-rule="evenodd" clip-rule="evenodd" fill="#67757B" points="359.4,209.5 366,219.6 377.7,222.8 370.1,232.2 
	370.7,244.3 359.4,240 348,244.3 348.6,232.2 341,222.8 352.7,219.6 "/>
<path fill-rule="evenodd" clip-rule="evenodd" fill="#D88E01" d="M433.7,219.3l-51.1,11.5l-2.1-7.6l43.7-12c0,0,6.4-13.8,7.1-15.6
	c1,0,16.8,2.2,16.8,2.2L433.7,219.3z"/>
<polygon fill-rule="evenodd" clip-rule="evenodd" fill="#F1A907" points="382.8,210.7 389.4,220.9 401.2,224 393.5,233.5 
	394.1,245.5 382.8,241.3 371.5,245.5 372.1,233.5 364.5,224 376.2,220.9 "/>
<rect x="438.7" y="184.3" fill-rule="evenodd" clip-rule="evenodd" fill="#EF9575" width="12.6" height="9.3"/>
<path fill-rule="evenodd" clip-rule="evenodd" fill="#FFB699" d="M457.5,174.3c1,0.6,1.2,2.2,0.5,3.6c-0.8,1.3-2.2,2.1-3.2,1.5
	c-1.1-0.6-1.3-2.1-0.5-3.5C455,174.5,456.5,173.8,457.5,174.3L457.5,174.3z"/>
<path fill-rule="evenodd" clip-rule="evenodd" fill="#F1A907" d="M438.7,189.8c0,0,2,0.9,6.6,0.4c4.6-0.4,6.1-1.2,6.1-1.2l6.4,2.8
	c4,2.6,8.5,7.6,8.1,16.4l0,0l-2.2,51.2c0,0-11.3,6.6-21.6,5.4c-10.4-1.2-11.2-6.7-11.2-6.7l0.4-62.6L438.7,189.8z"/>
<path fill-rule="evenodd" clip-rule="evenodd" fill="#232F46" d="M463.6,259.4l16.5,114.1l-10.1,0.1l-39-114.9l0,0
	c0.7,1.5,2.9,5.1,11,6C452.3,266,463.6,259.4,463.6,259.4L463.6,259.4z"/>
<path fill-rule="evenodd" clip-rule="evenodd" fill="#1C2536" d="M431,258.8L431,258.8L431,258.8L431,258.8z M431,258.8l-15.4,114.9
	l10-0.1l19.3-73.2L431,258.8z"/>
<path fill-rule="evenodd" clip-rule="evenodd" fill="#FFB699" d="M448.9,159.2c6,1.2,9.4,8.5,7.7,16.3c-1.6,7.7-7.8,12.9-13.7,11.6
	c-6-1.2-9.4-8.5-7.7-16.2C436.8,163.1,442.9,157.9,448.9,159.2L448.9,159.2z"/>
<path fill-rule="evenodd" clip-rule="evenodd" fill="#0D1017" d="M448.9,385.8l19-0.4l4.4-2.1l0.6,2.1l7-0.7l0.1-11.1l-10.1,0.1
	c0,0-13.3,8.1-18.2,8.1C446.9,381.8,448.9,385.8,448.9,385.8L448.9,385.8z"/>
<path fill-rule="evenodd" clip-rule="evenodd" fill="#0D1017" d="M394.5,385.8l19-0.4l4.5-2.1l0.5,2.1l7.1-0.7l0.1-11.1l-10,0.1
	c0,0-13.3,8.1-18.2,8.1C392.4,381.8,394.5,385.8,394.5,385.8L394.5,385.8z"/>
<path fill-rule="evenodd" clip-rule="evenodd" fill="#232F46" d="M451.1,168.2c0,0-15.8,8-18.4,1.3c-2.6-6.7,5.9-14.2,13.7-13.7
	c7.9,0.4,10.4,7.3,10.4,7.3s2.9,2.6,2.1,7c-0.8,4.5-3.7,8.6-3.7,8.6l-0.7-5.4c0,0-2.9-0.1-2.1-2.6
	C453.1,168.2,451.1,168.2,451.1,168.2L451.1,168.2z"/>
<path fill-rule="evenodd" clip-rule="evenodd" fill="#D88E01" d="M446.8,230.1l-45.4,10.3l-4.1-6.8l44.8-14.1l15.8-27.6
	c2.5,1.6,5.1,4.2,6.7,7.9l0,0c0.1,0.1,0.1,0.3,0.2,0.4l0,0c0.9,2.2,1.3,4.9,1.2,8l-13.1,17.9C451.3,228.1,449.2,229.5,446.8,230.1z"
	/>
<path fill-rule="evenodd" clip-rule="evenodd" fill="#FFB699" d="M397.2,233.5c-7.8,0.4-10.7,3.7-7.8,3.5
	c-9.8,6.3,0.1,13.2,11.9,3.4L397.2,233.5z"/>
<path fill-rule="evenodd" clip-rule="evenodd" fill="#0D1017" d="M106.5,309.9h5.1v21.2h-10.2V315
	C101.3,312.2,103.6,309.9,106.5,309.9L106.5,309.9z"/>
<path fill-rule="evenodd" clip-rule="evenodd" fill="#1C2536" d="M127.1,296.3c33.8-19.4,43.5,8.9,12,24.2l0,0
	C135.1,312.1,129.8,301.5,127.1,296.3L127.1,296.3z"/>
<path fill-rule="evenodd" clip-rule="evenodd" fill="#232F46" d="M125.5,293.2c0,0,29.1,28.8,30.5,34.9c1.5,6.2-1,10.9-9,12.2
	c-8,1.3-39.2-17.3-39.2-17.3l1.2-7.3c0,0-6.3-6.5-7.8-12.6c-1.4-6.2,0.2-12.2,0.2-12.2L125.5,293.2z"/>
<path fill-rule="evenodd" clip-rule="evenodd" fill="#D3151C" d="M134.1,282.4l41.2-3.6l0.1-7.6l-32.9,0.8c-1.7,0-3.2-1.3-3.3-3
	l-2.4-25.6c-1.9,2.1-13.9,7.7-14.4,11.5l0,0c-0.1,0.1-0.1,0.4-0.1,0.5l0,0c-0.2,2.3,0,4.9,0.9,7.7L134.1,282.4z"/>
<polygon fill-rule="evenodd" clip-rule="evenodd" fill="#EA9273" points="130.4,232 118.2,231.1 117.5,240 129.7,240.9 "/>
<path fill-rule="evenodd" clip-rule="evenodd" fill="#FFB699" d="M113,221.1c-1,0.5-1.4,2-0.7,3.4c0.6,1.4,2,2.1,3,1.7
	c1-0.5,1.4-2,0.7-3.4C115.3,221.4,114,220.7,113,221.1L113,221.1z"/>
<path fill-rule="evenodd" clip-rule="evenodd" fill="#EC1920" d="M130,237.2c0,0-2,0.7-6.4,0c-4.3-0.7-5.7-1.5-5.7-1.5l-6.4,2.2
	c-4,2.3-8.7,6.8-8.9,15.2l0,0l-1.2,39.8c0,0,8.7,4.7,18.7,4.3c10-0.4,13.2-4,13.2-4l3.3-49.8L130,237.2z"/>
<path fill-rule="evenodd" clip-rule="evenodd" fill="#FFB699" d="M122.4,207.2c-5.8,0.8-9.7,7.6-8.6,15.1c1,7.5,6.6,12.9,12.3,12.1
	c5.8-0.8,9.6-7.6,8.6-15.1C133.7,211.8,128.1,206.4,122.4,207.2L122.4,207.2z"/>
<path fill-rule="evenodd" clip-rule="evenodd" fill="#232F46" d="M119.5,215.6c0,0,14.6,8.9,17.6,2.6c3-6.2-4.6-14-12.2-14.3
	c-7.5-0.1-10.5,6.4-10.5,6.4s-2.9,2.2-2.5,6.5c0.4,4.3,2.9,8.5,2.9,8.5l1.1-5.1c0,0,2.8,0,2.3-2.4
	C117.6,215.5,119.5,215.6,119.5,215.6L119.5,215.6z"/>
<path fill-rule="evenodd" clip-rule="evenodd" fill="#D3151C" d="M135.5,266.6l41.3-19.7l-4-6.5l-36.5,13.8c-1.4,0.5-3,0.5-4.5,0
	l-26.4-10.6c-3.4,5.4-3.1,10.6-3,15.4l28.8,8C132.6,267.4,134.1,267.2,135.5,266.6z"/>
<path fill-rule="evenodd" clip-rule="evenodd" fill="#FFB699" d="M172.6,240.4c3.7-6.5,7.8-7.6,6.3-5.2c9.7-5.7,11.3,5.7-2.2,11.7
	L172.6,240.4z"/>
<path fill-rule="evenodd" clip-rule="evenodd" fill="#1A1A1A" d="M104.8,325.9h7.1c1.8,0,3.4,1.5,3.4,3.5v3.5h-13.9v-3.5
	C101.3,327.5,102.9,325.9,104.8,325.9L104.8,325.9z"/>
<path fill-rule="evenodd" clip-rule="evenodd" fill="#FFB699" d="M175.3,271.2c6.6-3.5,10.6-2.2,8.2-1c11.2,0.4,6.3,11-8.2,8.6
	L175.3,271.2z"/>
<path fill-rule="evenodd" clip-rule="evenodd" fill="#397BFE" d="M189.8,355.9H279c1.5,0,2.9,1.3,2.9,2.9v26.8
	c0,1.5-1.3,2.9-2.9,2.9h-89.2c-1.6,0-2.9-1.3-2.9-2.9v-26.8C186.9,357.2,188.2,355.9,189.8,355.9L189.8,355.9z"/>
<rect x="174.7" y="290.6" fill-rule="evenodd" clip-rule="evenodd" fill="#8CD0FE" width="185.7" height="9.5"/>
<rect x="174.7" y="309.6" fill-rule="evenodd" clip-rule="evenodd" fill="#8CD0FE" width="185.7" height="9.5"/>
<g>
	<path fill="#D0D2D3" d="M372.7,66.6c2.9,4,2.7,6.4-0.8,9.9c1.5,2.9,1.4,5.5-1.3,7.8c-0.2,0.2-0.3,0.8-0.2,1.2
		c0.8,4.8-0.9,6.8-5.7,6.8c-8.6,0-17.1,0-25.7,0c-1.5,0-3.1,0.1-4.6,0c-2.9-0.1-4.2-1.6-4.2-4.5c0-8.6,0.1-17.3,0-25.9
		c0-2.2,0.8-3.8,2.4-5.2c3.9-3.4,7.7-6.9,11.4-10.4c3.8-3.7,6.1-8.3,7.6-13.3c0.6-1.9,1.4-3.4,3.6-3.6c2.3-0.2,4.1,0.8,5.2,2.8
		c1.7,2.8,1.8,6,0.6,8.9c-1.7,4.1-3.8,8-5.7,12c-0.2,0.5-0.5,0.9-1,1.8c3.8,0,7.3,0,10.8,0c1.4,0,2.8,0.1,4.1,0.3
		c2.7,0.5,4.8,1.7,5.7,4.4C375.7,62.5,374.9,64.7,372.7,66.6z"/>
	<path fill="#397BFE" d="M312.2,75.3c0-4.7,0-9.4,0-14.1c0-2,0.8-2.8,2.8-2.7c3.5,0.1,6.9,0.1,10.4,0c1.8,0,2.5,0.8,2.5,2.5
		c0,9.5,0,19.1,0,28.6c0,1.9-0.8,2.8-2.8,2.8c-3.4-0.1-6.8-0.1-10.2,0c-2,0-2.8-0.8-2.7-2.8C312.2,84.8,312.2,80.1,312.2,75.3z"/>
</g>
<path fill-rule="evenodd" clip-rule="evenodd" fill="#397BFE" d="M470.6,118.6h36.6c1.7,0,3.1,1.4,3.1,3.1v24.7
	c0,1.7-1.4,3.1-3.1,3.1h-24.5l-9.3,9.2l-0.6-9.2h-2.2c-1.7,0-3.1-1.4-3.1-3.1v-24.7C467.5,120,468.9,118.6,470.6,118.6L470.6,118.6z
	"/>
<rect x="472.7" y="124.5" fill-rule="evenodd" clip-rule="evenodd" fill="#F9EFF4" width="32.3" height="2.9"/>
<rect x="472.7" y="130.6" fill-rule="evenodd" clip-rule="evenodd" fill="#F9EFF4" width="32.3" height="2.9"/>
<rect x="472.7" y="136.8" fill-rule="evenodd" clip-rule="evenodd" fill="#F9EFF4" width="32.3" height="2.9"/>
<rect x="472.7" y="143" fill-rule="evenodd" clip-rule="evenodd" fill="#F9EFF4" width="16.2" height="2.9"/>
<path fill-rule="evenodd" clip-rule="evenodd" fill="#397BFE" d="M112.1,156.1H75.6c-1.7,0-3.1,1.4-3.1,3.1v24.7
	c0,1.7,1.4,3.1,3.1,3.1h24.5l9.3,9.2l0.6-9.2h2.2c1.7,0,3.1-1.4,3.1-3.1v-24.7C115.2,157.5,113.8,156.1,112.1,156.1L112.1,156.1z"/>
<rect x="77.7" y="162" fill-rule="evenodd" clip-rule="evenodd" fill="#F9EFF4" width="32.3" height="2.9"/>
<rect x="77.7" y="168.1" fill-rule="evenodd" clip-rule="evenodd" fill="#F9EFF4" width="32.3" height="2.9"/>
<rect x="77.7" y="174.3" fill-rule="evenodd" clip-rule="evenodd" fill="#F9EFF4" width="32.3" height="2.9"/>
<rect x="93.8" y="180.5" fill-rule="evenodd" clip-rule="evenodd" fill="#F9EFF4" width="16.2" height="2.9"/>
<path fill-rule="evenodd" clip-rule="evenodd" fill="#397BFE" d="M218.2,21.3h-36.6c-1.7,0-3.1,1.4-3.1,3.1V49
	c0,1.7,1.4,3.1,3.1,3.1h24.5l9.3,9.2l0.6-9.2h2.2c1.7,0,3.1-1.4,3.1-3.1V24.3C221.3,22.7,219.9,21.3,218.2,21.3L218.2,21.3z"/>
<rect x="183.8" y="27.2" fill-rule="evenodd" clip-rule="evenodd" fill="#F9EFF4" width="32.3" height="2.9"/>
<rect x="183.8" y="33.3" fill-rule="evenodd" clip-rule="evenodd" fill="#F9EFF4" width="32.3" height="2.9"/>
<rect x="183.8" y="39.5" fill-rule="evenodd" clip-rule="evenodd" fill="#F9EFF4" width="32.3" height="2.9"/>
<rect x="199.9" y="45.7" fill-rule="evenodd" clip-rule="evenodd" fill="#F9EFF4" width="16.2" height="2.9"/>
<path fill-rule="evenodd" clip-rule="evenodd" fill="#EC1920" d="M205.2,284.1c21.8-8.8,14.6-30.4,0-21.2
	C190.6,253.7,183.2,275.3,205.2,284.1L205.2,284.1z"/>
<g>
</g>
<g>
</g>
<g>
</g>
<g>
</g>
<g>
</g>
<g>
</g>
</svg>
