<svg height='300px' width='300px' fill="#397AFD" xmlns="http://www.w3.org/2000/svg" xmlns:xlink="http://www.w3.org/1999/xlink" version="1.1" x="0px" y="0px" viewBox="0 0 128 128" style="enable-background:new 0 0 128 128;" xml:space="preserve"><g><path d="M84.9,101.1c-2.2-6.5-8-9.1-13.9-11.4c-4.6-1.8-9.1-3.5-13.7-5.3L44.5,97.3L31.5,84.4c-4.6,1.8-9.1,3.5-13.7,5.3   C12,92,6.2,94.7,4,101.1c-0.4,1.2-2.1,10.3-2.8,14.6c-0.2,1.1,0.7,2.2,1.8,2.2h41.5h41.5c1.1,0,2-1,1.8-2.2   C87,111.5,85.3,102.3,84.9,101.1z"></path><path d="M17.3,75c5.7,1.7,11.4,2.8,17.1,3.5c0.6,0.1,0.9-0.7,0.4-1c-4.3-3.1-6.7-8.2-6.7-13.1v-4.7v-6.8l3.1-0.2   c5.7-0.3,11.3-2.1,17.1-5.4l1.6-0.9l1.6,0.9c2.2,1.2,4.6,2.2,7,2.8l2.4,0.7v8.9v2.9c-2.8,4.7-6.9,7.2-12.1,7.6   c-0.4-1-1.3-1.7-2.5-1.7h-3.7c-1.5,0-2.7,1.2-2.7,2.7v0c0,1.5,1.2,2.7,2.7,2.7h3.7c1.2,0,2.1-0.7,2.5-1.8c4.9-0.3,8.9-2.3,11.9-6.1   c-0.5,4.7-2.9,8.9-6.6,11.5c-0.5,0.3-0.2,1.1,0.4,1c5.7-0.6,11.4-1.8,17.1-3.5c2.2-0.7,3.5-3,2.7-5.2L70.8,59l-0.2-0.5   c0.8-0.8,1.3-1.9,1.3-3.1V48c0-2.3-1.9-4.2-4.2-4.2h-2.1l0-0.1c-1.6-4.6-4.9-9.4-9.3-11.8c-1.2-0.6-2.5-0.5-3.8-0.4   c-1.1-0.9-2.3-1.9-3.7-2.4c-1.4-0.5-2.9-0.7-4.5-0.7c-9.6,0-18.1,6.1-21.2,15.2l0,0.1h-2.1c-2.3,0-4.2,1.9-4.2,4.2v7.5   c0,1.2,0.5,2.3,1.3,3.1L18.1,59l-3.6,10.7C13.8,72,15,74.4,17.3,75z"></path><circle cx="105.2" cy="34.3" r="3.4"></circle><circle cx="91.7" cy="34.3" r="3.4"></circle><circle cx="78.1" cy="34.3" r="3.4"></circle><path d="M102.5,10.1H80.8c-11,0-20.3,7.3-23.3,17.3c0.3,0.1,0.6,0.3,1,0.4c1.4,0.8,2.8,1.7,4.1,2.9c1.7-8.5,9.2-14.9,18.2-14.9   h21.7c10.3,0,18.6,8.4,18.6,18.6c0,10.3-8.4,18.6-18.6,18.6h-2.4c-0.7,0-1.4,0.3-1.9,0.7L88,63.1v-7.2c0-1.6-1.3-2.9-2.8-2.9h-8.6   v2.5c0,1.1-0.2,2.2-0.6,3.2h6.3v10.8c0,1.1,0.7,2.1,1.7,2.6c0.4,0.2,0.8,0.2,1.1,0.2c0.7,0,1.4-0.3,1.9-0.7l14.2-12.9h1.3   c13.4,0,24.3-10.9,24.3-24.3C126.9,21,116,10.1,102.5,10.1z"></path></g></svg>