<?xml version="1.0" encoding="utf-8"?>
<!-- Generator: Adobe Illustrator 24.3.0, SVG Export Plug-In . SVG Version: 6.00 Build 0)  -->
<svg version="1.1" id="Layer_1" fill="#397AFD" xmlns="http://www.w3.org/2000/svg" xmlns:xlink="http://www.w3.org/1999/xlink" x="0px" y="0px"
	 viewBox="0 0 300 300" enable-background="new 0 0 300 300" xml:space="preserve">
<path d="M15,15v270h270V15H15z M273,273H27V57h246V273z M70,200.5h160v8.9H70V200.5z M129.8,124c0-11.3,8.9-20.2,20.2-20.2
	s20.2,8.9,20.2,20.2s-8.9,20.2-20.2,20.2S129.8,135.3,129.8,124z M207.8,169.4H92.2v-14.2h115.6V169.4z M177,42h-24v-6h24V42z
	 M237,42h-24v-6h24V42z M63,45H33V33h30V45z M207,42h-24v-6h24V42z M252.2,191.6H47.8v-8.9h204.5V191.6z M267,42h-24v-6h24V42z
	 M104.3,220.6h94.1v9.5h-94.1V220.6z M174.6,124c0-7.7,6-13.7,13.7-13.7s13.7,6,13.7,13.7s-6,13.7-13.7,13.7S174.6,131.7,174.6,124z
	 M97.3,125c0-7.7,6-13.7,13.7-13.7s13.7,6,13.7,13.7s-6,13.7-13.7,13.7S97.3,132.6,97.3,125z"/>
</svg>
