<svg height='300px' width='300px'  fill="#397AFD" xmlns:dc="http://purl.org/dc/elements/1.1/" xmlns:cc="http://creativecommons.org/ns#" xmlns:rdf="http://www.w3.org/1999/02/22-rdf-syntax-ns#" xmlns:svg="http://www.w3.org/2000/svg" xmlns="http://www.w3.org/2000/svg" xmlns:sodipodi="http://sodipodi.sourceforge.net/DTD/sodipodi-0.dtd" xmlns:inkscape="http://www.inkscape.org/namespaces/inkscape" viewBox="0 0 8.4666665 8.4666669" version="1.1" x="0px" y="0px"><g transform="translate(0,-288.53333)"><path style="color:#397AFD;font-style:normal;font-variant:normal;font-weight:normal;font-stretch:normal;font-size:medium;line-height:normal;font-family:sans-serif;font-variant-ligatures:normal;font-variant-position:normal;font-variant-caps:normal;font-variant-numeric:normal;font-variant-alternates:normal;font-feature-settings:normal;text-indent:0;text-align:start;text-decoration:none;text-decoration-line:none;text-decoration-style:solid;text-decoration-color:#397AFD;letter-spacing:normal;word-spacing:normal;text-transform:none;writing-mode:lr-tb;direction:ltr;text-orientation:mixed;dominant-baseline:auto;baseline-shift:baseline;text-anchor:start;white-space:normal;shape-padding:0;clip-rule:nonzero;display:inline;overflow:visible;visibility:visible;opacity:1;isolation:auto;mix-blend-mode:normal;color-interpolation:sRGB;color-interpolation-filters:linearRGB;solid-color:#397AFD;solid-opacity:1;vector-effect:none;fill:#397AFD;fill-opacity:1;fill-rule:nonzero;stroke:none;stroke-width:0.5291667;stroke-linecap:butt;stroke-linejoin:miter;stroke-miterlimit:4;stroke-dasharray:none;stroke-dashoffset:2.1993072;stroke-opacity:1;color-rendering:auto;image-rendering:auto;shape-rendering:auto;text-rendering:auto;enable-background:accumulate" d="m 0.52916621,289.06249 v 0.26458 3.96875 H 4.7624995 v -4.23333 z m 1.85208329,0.79375 h 0.5291667 l 1.0583333,2.64583 H 3.4395828 l -0.211873,-0.52916 H 2.0639559 l -0.2118731,0.52916 H 1.3229162 Z m 0.2645833,0.66146 -0.3705198,0.92604 h 0.7410397 z m 2.6458334,1.71979 v 0.52917 h 2.1166667 v 3.175 H 4.2333328 v -2.11667 H 3.7041662 v 2.64583 h 4.2333333 v -4.23333 z m 0.2645833,0.79375 v 0.52917 H 4.4979162 v 0.52916 h 0.5436367 c 0.041788,0.36669 0.1720665,0.66436 0.3534648,0.89659 -0.2722351,0.11658 -0.6002258,0.16175 -0.8971015,0.16175 v 0.52916 c 0.4123981,0 0.9017926,-0.0628 1.3229167,-0.3147 0.4211267,0.25193 0.9105185,0.3147 1.3229166,0.3147 v -0.52916 c -0.2968757,0 -0.6248638,-0.0452 -0.8971015,-0.16175 0.1814036,-0.23223 0.3116765,-0.5299 0.3534648,-0.89659 h 0.5436367 v -0.52916 H 6.0854162 v -0.52917 z m 0.018097,1.05833 h 0.4929929 c -0.034777,0.26456 -0.1226,0.45348 -0.2464965,0.59583 -0.1238964,-0.14235 -0.2117195,-0.33127 -0.2464964,-0.59583 z"></path></g></svg>